<?xml version="1.0" encoding="utf-8" standalone="no"?>
<!DOCTYPE svg PUBLIC "-//W3C//DTD SVG 1.1//EN"
  "http://www.w3.org/Graphics/SVG/1.1/DTD/svg11.dtd">
<!-- Created with matplotlib (https://matplotlib.org/) -->
<svg height="360pt" version="1.1" viewBox="0 0 504 360" width="504pt" xmlns="http://www.w3.org/2000/svg" xmlns:xlink="http://www.w3.org/1999/xlink">
 <defs>
  <style type="text/css">
*{stroke-linecap:butt;stroke-linejoin:round;}
  </style>
 </defs>
 <g id="figure_1">
  <g id="patch_1">
   <path d="M 0 360 
L 504 360 
L 504 0 
L 0 0 
z
" style="fill:#ffffff;"/>
  </g>
  <g id="axes_1">
   <g id="patch_2">
    <path d="M 60.425 318.2 
L 449.95 318.2 
L 449.95 26.8 
L 60.425 26.8 
z
" style="fill:#ffffff;"/>
   </g>
   <g id="patch_3">
    <path clip-path="url(#pbb9347b06c)" d="M 80.007216 318.2 
L 86.922036 318.2 
L 86.922036 142.581122 
L 80.007216 142.581122 
z
" style="fill:#808080;stroke:#000000;stroke-linejoin:miter;"/>
   </g>
   <g id="patch_4">
    <path clip-path="url(#pbb9347b06c)" d="M 86.922036 318.2 
L 93.836857 318.2 
L 93.836857 40.67619 
L 86.922036 40.67619 
z
" style="fill:#808080;stroke:#000000;stroke-linejoin:miter;"/>
   </g>
   <g id="patch_5">
    <path clip-path="url(#pbb9347b06c)" d="M 93.836857 318.2 
L 100.751677 318.2 
L 100.751677 62.040501 
L 93.836857 62.040501 
z
" style="fill:#808080;stroke:#000000;stroke-linejoin:miter;"/>
   </g>
   <g id="patch_6">
    <path clip-path="url(#pbb9347b06c)" d="M 100.751677 318.2 
L 107.666498 318.2 
L 107.666498 119.129901 
L 100.751677 119.129901 
z
" style="fill:#808080;stroke:#000000;stroke-linejoin:miter;"/>
   </g>
   <g id="patch_7">
    <path clip-path="url(#pbb9347b06c)" d="M 107.666498 318.2 
L 114.581318 318.2 
L 114.581318 161.929265 
L 107.666498 161.929265 
z
" style="fill:#808080;stroke:#000000;stroke-linejoin:miter;"/>
   </g>
   <g id="patch_8">
    <path clip-path="url(#pbb9347b06c)" d="M 114.581318 318.2 
L 121.496138 318.2 
L 121.496138 221.777631 
L 114.581318 221.777631 
z
" style="fill:#808080;stroke:#000000;stroke-linejoin:miter;"/>
   </g>
   <g id="patch_9">
    <path clip-path="url(#pbb9347b06c)" d="M 121.496138 318.2 
L 128.410959 318.2 
L 128.410959 257.644206 
L 121.496138 257.644206 
z
" style="fill:#808080;stroke:#000000;stroke-linejoin:miter;"/>
   </g>
   <g id="patch_10">
    <path clip-path="url(#pbb9347b06c)" d="M 128.410959 318.2 
L 135.325779 318.2 
L 135.325779 281.095427 
L 128.410959 281.095427 
z
" style="fill:#808080;stroke:#000000;stroke-linejoin:miter;"/>
   </g>
   <g id="patch_11">
    <path clip-path="url(#pbb9347b06c)" d="M 135.325779 318.2 
L 142.2406 318.2 
L 142.2406 295.774548 
L 135.325779 295.774548 
z
" style="fill:#808080;stroke:#000000;stroke-linejoin:miter;"/>
   </g>
   <g id="patch_12">
    <path clip-path="url(#pbb9347b06c)" d="M 142.2406 318.2 
L 149.15542 318.2 
L 149.15542 304.192935 
L 142.2406 304.192935 
z
" style="fill:#808080;stroke:#000000;stroke-linejoin:miter;"/>
   </g>
   <g id="patch_13">
    <path clip-path="url(#pbb9347b06c)" d="M 149.15542 318.2 
L 156.07024 318.2 
L 156.07024 309.852355 
L 149.15542 309.852355 
z
" style="fill:#808080;stroke:#000000;stroke-linejoin:miter;"/>
   </g>
   <g id="patch_14">
    <path clip-path="url(#pbb9347b06c)" d="M 156.07024 318.2 
L 162.985061 318.2 
L 162.985061 311.26721 
L 156.07024 311.26721 
z
" style="fill:#808080;stroke:#000000;stroke-linejoin:miter;"/>
   </g>
   <g id="patch_15">
    <path clip-path="url(#pbb9347b06c)" d="M 162.985061 318.2 
L 169.899881 318.2 
L 169.899881 313.707835 
L 162.985061 313.707835 
z
" style="fill:#808080;stroke:#000000;stroke-linejoin:miter;"/>
   </g>
   <g id="patch_16">
    <path clip-path="url(#pbb9347b06c)" d="M 169.899881 318.2 
L 176.814702 318.2 
L 176.814702 314.945833 
L 169.899881 314.945833 
z
" style="fill:#808080;stroke:#000000;stroke-linejoin:miter;"/>
   </g>
   <g id="patch_17">
    <path clip-path="url(#pbb9347b06c)" d="M 176.814702 318.2 
L 183.729522 318.2 
L 183.729522 315.724004 
L 176.814702 315.724004 
z
" style="fill:#808080;stroke:#000000;stroke-linejoin:miter;"/>
   </g>
   <g id="patch_18">
    <path clip-path="url(#pbb9347b06c)" d="M 183.729522 318.2 
L 190.644342 318.2 
L 190.644342 316.183832 
L 183.729522 316.183832 
z
" style="fill:#808080;stroke:#000000;stroke-linejoin:miter;"/>
   </g>
   <g id="patch_19">
    <path clip-path="url(#pbb9347b06c)" d="M 190.644342 318.2 
L 197.559163 318.2 
L 197.559163 317.103487 
L 190.644342 317.103487 
z
" style="fill:#808080;stroke:#000000;stroke-linejoin:miter;"/>
   </g>
   <g id="patch_20">
    <path clip-path="url(#pbb9347b06c)" d="M 197.559163 318.2 
L 204.473983 318.2 
L 204.473983 317.103487 
L 197.559163 317.103487 
z
" style="fill:#808080;stroke:#000000;stroke-linejoin:miter;"/>
   </g>
   <g id="patch_21">
    <path clip-path="url(#pbb9347b06c)" d="M 204.473983 318.2 
L 211.388804 318.2 
L 211.388804 316.891259 
L 204.473983 316.891259 
z
" style="fill:#808080;stroke:#000000;stroke-linejoin:miter;"/>
   </g>
   <g id="patch_22">
    <path clip-path="url(#pbb9347b06c)" d="M 211.388804 318.2 
L 218.303624 318.2 
L 218.303624 317.527944 
L 211.388804 317.527944 
z
" style="fill:#808080;stroke:#000000;stroke-linejoin:miter;"/>
   </g>
   <g id="patch_23">
    <path clip-path="url(#pbb9347b06c)" d="M 218.303624 318.2 
L 225.218444 318.2 
L 225.218444 317.492572 
L 218.303624 317.492572 
z
" style="fill:#808080;stroke:#000000;stroke-linejoin:miter;"/>
   </g>
   <g id="patch_24">
    <path clip-path="url(#pbb9347b06c)" d="M 225.218444 318.2 
L 232.133265 318.2 
L 232.133265 317.17423 
L 225.218444 317.17423 
z
" style="fill:#808080;stroke:#000000;stroke-linejoin:miter;"/>
   </g>
   <g id="patch_25">
    <path clip-path="url(#pbb9347b06c)" d="M 232.133265 318.2 
L 239.048085 318.2 
L 239.048085 317.810915 
L 232.133265 317.810915 
z
" style="fill:#808080;stroke:#000000;stroke-linejoin:miter;"/>
   </g>
   <g id="patch_26">
    <path clip-path="url(#pbb9347b06c)" d="M 239.048085 318.2 
L 245.962906 318.2 
L 245.962906 317.881658 
L 239.048085 317.881658 
z
" style="fill:#808080;stroke:#000000;stroke-linejoin:miter;"/>
   </g>
   <g id="patch_27">
    <path clip-path="url(#pbb9347b06c)" d="M 245.962906 318.2 
L 252.877726 318.2 
L 252.877726 317.740172 
L 245.962906 317.740172 
z
" style="fill:#808080;stroke:#000000;stroke-linejoin:miter;"/>
   </g>
   <g id="patch_28">
    <path clip-path="url(#pbb9347b06c)" d="M 252.877726 318.2 
L 259.792547 318.2 
L 259.792547 317.917029 
L 252.877726 317.917029 
z
" style="fill:#808080;stroke:#000000;stroke-linejoin:miter;"/>
   </g>
   <g id="patch_29">
    <path clip-path="url(#pbb9347b06c)" d="M 259.792547 318.2 
L 266.707367 318.2 
L 266.707367 317.917029 
L 259.792547 317.917029 
z
" style="fill:#808080;stroke:#000000;stroke-linejoin:miter;"/>
   </g>
   <g id="patch_30">
    <path clip-path="url(#pbb9347b06c)" d="M 266.707367 318.2 
L 273.622187 318.2 
L 273.622187 317.704801 
L 266.707367 317.704801 
z
" style="fill:#808080;stroke:#000000;stroke-linejoin:miter;"/>
   </g>
   <g id="patch_31">
    <path clip-path="url(#pbb9347b06c)" d="M 273.622187 318.2 
L 280.537008 318.2 
L 280.537008 317.9524 
L 273.622187 317.9524 
z
" style="fill:#808080;stroke:#000000;stroke-linejoin:miter;"/>
   </g>
   <g id="patch_32">
    <path clip-path="url(#pbb9347b06c)" d="M 280.537008 318.2 
L 287.451828 318.2 
L 287.451828 318.023143 
L 280.537008 318.023143 
z
" style="fill:#808080;stroke:#000000;stroke-linejoin:miter;"/>
   </g>
   <g id="patch_33">
    <path clip-path="url(#pbb9347b06c)" d="M 287.451828 318.2 
L 294.366649 318.2 
L 294.366649 317.987772 
L 287.451828 317.987772 
z
" style="fill:#808080;stroke:#000000;stroke-linejoin:miter;"/>
   </g>
   <g id="patch_34">
    <path clip-path="url(#pbb9347b06c)" d="M 294.366649 318.2 
L 301.281469 318.2 
L 301.281469 318.129257 
L 294.366649 318.129257 
z
" style="fill:#808080;stroke:#000000;stroke-linejoin:miter;"/>
   </g>
   <g id="patch_35">
    <path clip-path="url(#pbb9347b06c)" d="M 301.281469 318.2 
L 308.196289 318.2 
L 308.196289 318.093886 
L 301.281469 318.093886 
z
" style="fill:#808080;stroke:#000000;stroke-linejoin:miter;"/>
   </g>
   <g id="patch_36">
    <path clip-path="url(#pbb9347b06c)" d="M 308.196289 318.2 
L 315.11111 318.2 
L 315.11111 318.129257 
L 308.196289 318.129257 
z
" style="fill:#808080;stroke:#000000;stroke-linejoin:miter;"/>
   </g>
   <g id="patch_37">
    <path clip-path="url(#pbb9347b06c)" d="M 315.11111 318.2 
L 322.02593 318.2 
L 322.02593 318.164629 
L 315.11111 318.164629 
z
" style="fill:#808080;stroke:#000000;stroke-linejoin:miter;"/>
   </g>
   <g id="patch_38">
    <path clip-path="url(#pbb9347b06c)" d="M 322.02593 318.2 
L 328.940751 318.2 
L 328.940751 318.2 
L 322.02593 318.2 
z
" style="fill:#808080;stroke:#000000;stroke-linejoin:miter;"/>
   </g>
   <g id="patch_39">
    <path clip-path="url(#pbb9347b06c)" d="M 328.940751 318.2 
L 335.855571 318.2 
L 335.855571 318.093886 
L 328.940751 318.093886 
z
" style="fill:#808080;stroke:#000000;stroke-linejoin:miter;"/>
   </g>
   <g id="patch_40">
    <path clip-path="url(#pbb9347b06c)" d="M 335.855571 318.2 
L 342.770391 318.2 
L 342.770391 318.093886 
L 335.855571 318.093886 
z
" style="fill:#808080;stroke:#000000;stroke-linejoin:miter;"/>
   </g>
   <g id="patch_41">
    <path clip-path="url(#pbb9347b06c)" d="M 342.770391 318.2 
L 349.685212 318.2 
L 349.685212 318.129257 
L 342.770391 318.129257 
z
" style="fill:#808080;stroke:#000000;stroke-linejoin:miter;"/>
   </g>
   <g id="patch_42">
    <path clip-path="url(#pbb9347b06c)" d="M 349.685212 318.2 
L 356.600032 318.2 
L 356.600032 318.2 
L 349.685212 318.2 
z
" style="fill:#808080;stroke:#000000;stroke-linejoin:miter;"/>
   </g>
   <g id="patch_43">
    <path clip-path="url(#pbb9347b06c)" d="M 356.600032 318.2 
L 363.514853 318.2 
L 363.514853 318.2 
L 356.600032 318.2 
z
" style="fill:#808080;stroke:#000000;stroke-linejoin:miter;"/>
   </g>
   <g id="patch_44">
    <path clip-path="url(#pbb9347b06c)" d="M 363.514853 318.2 
L 370.429673 318.2 
L 370.429673 318.2 
L 363.514853 318.2 
z
" style="fill:#808080;stroke:#000000;stroke-linejoin:miter;"/>
   </g>
   <g id="patch_45">
    <path clip-path="url(#pbb9347b06c)" d="M 370.429673 318.2 
L 377.344493 318.2 
L 377.344493 318.129257 
L 370.429673 318.129257 
z
" style="fill:#808080;stroke:#000000;stroke-linejoin:miter;"/>
   </g>
   <g id="patch_46">
    <path clip-path="url(#pbb9347b06c)" d="M 377.344493 318.2 
L 384.259314 318.2 
L 384.259314 318.129257 
L 377.344493 318.129257 
z
" style="fill:#808080;stroke:#000000;stroke-linejoin:miter;"/>
   </g>
   <g id="patch_47">
    <path clip-path="url(#pbb9347b06c)" d="M 384.259314 318.2 
L 391.174134 318.2 
L 391.174134 318.2 
L 384.259314 318.2 
z
" style="fill:#808080;stroke:#000000;stroke-linejoin:miter;"/>
   </g>
   <g id="patch_48">
    <path clip-path="url(#pbb9347b06c)" d="M 391.174134 318.2 
L 398.088955 318.2 
L 398.088955 318.2 
L 391.174134 318.2 
z
" style="fill:#808080;stroke:#000000;stroke-linejoin:miter;"/>
   </g>
   <g id="patch_49">
    <path clip-path="url(#pbb9347b06c)" d="M 398.088955 318.2 
L 405.003775 318.2 
L 405.003775 318.2 
L 398.088955 318.2 
z
" style="fill:#808080;stroke:#000000;stroke-linejoin:miter;"/>
   </g>
   <g id="patch_50">
    <path clip-path="url(#pbb9347b06c)" d="M 405.003775 318.2 
L 411.918596 318.2 
L 411.918596 318.2 
L 405.003775 318.2 
z
" style="fill:#808080;stroke:#000000;stroke-linejoin:miter;"/>
   </g>
   <g id="patch_51">
    <path clip-path="url(#pbb9347b06c)" d="M 411.918596 318.2 
L 418.833416 318.2 
L 418.833416 318.2 
L 411.918596 318.2 
z
" style="fill:#808080;stroke:#000000;stroke-linejoin:miter;"/>
   </g>
   <g id="patch_52">
    <path clip-path="url(#pbb9347b06c)" d="M 418.833416 318.2 
L 425.748236 318.2 
L 425.748236 318.164629 
L 418.833416 318.164629 
z
" style="fill:#808080;stroke:#000000;stroke-linejoin:miter;"/>
   </g>
   <g id="matplotlib.axis_1">
    <g id="xtick_1">
     <g id="line2d_1">
      <defs>
       <path d="M 0 0 
L 0 3.5 
" id="mda51adcdf0" style="stroke:#000000;stroke-width:0.8;"/>
      </defs>
      <g>
       <use style="stroke:#000000;stroke-width:0.8;" x="77.41961" xlink:href="#mda51adcdf0" y="318.2"/>
      </g>
     </g>
     <g id="text_1">
      <!-- 0.0 -->
      <defs>
       <path d="M 31.78125 66.40625 
Q 24.171875 66.40625 20.328125 58.90625 
Q 16.5 51.421875 16.5 36.375 
Q 16.5 21.390625 20.328125 13.890625 
Q 24.171875 6.390625 31.78125 6.390625 
Q 39.453125 6.390625 43.28125 13.890625 
Q 47.125 21.390625 47.125 36.375 
Q 47.125 51.421875 43.28125 58.90625 
Q 39.453125 66.40625 31.78125 66.40625 
z
M 31.78125 74.21875 
Q 44.046875 74.21875 50.515625 64.515625 
Q 56.984375 54.828125 56.984375 36.375 
Q 56.984375 17.96875 50.515625 8.265625 
Q 44.046875 -1.421875 31.78125 -1.421875 
Q 19.53125 -1.421875 13.0625 8.265625 
Q 6.59375 17.96875 6.59375 36.375 
Q 6.59375 54.828125 13.0625 64.515625 
Q 19.53125 74.21875 31.78125 74.21875 
z
" id="DejaVuSans-48"/>
       <path d="M 10.6875 12.40625 
L 21 12.40625 
L 21 0 
L 10.6875 0 
z
" id="DejaVuSans-46"/>
      </defs>
      <g transform="translate(69.468048 332.798438)scale(0.1 -0.1)">
       <use xlink:href="#DejaVuSans-48"/>
       <use x="63.623047" xlink:href="#DejaVuSans-46"/>
       <use x="95.410156" xlink:href="#DejaVuSans-48"/>
      </g>
     </g>
    </g>
    <g id="xtick_2">
     <g id="line2d_2">
      <g>
       <use style="stroke:#000000;stroke-width:0.8;" x="112.973188" xlink:href="#mda51adcdf0" y="318.2"/>
      </g>
     </g>
     <g id="text_2">
      <!-- 5.0 -->
      <defs>
       <path d="M 10.796875 72.90625 
L 49.515625 72.90625 
L 49.515625 64.59375 
L 19.828125 64.59375 
L 19.828125 46.734375 
Q 21.96875 47.46875 24.109375 47.828125 
Q 26.265625 48.1875 28.421875 48.1875 
Q 40.625 48.1875 47.75 41.5 
Q 54.890625 34.8125 54.890625 23.390625 
Q 54.890625 11.625 47.5625 5.09375 
Q 40.234375 -1.421875 26.90625 -1.421875 
Q 22.3125 -1.421875 17.546875 -0.640625 
Q 12.796875 0.140625 7.71875 1.703125 
L 7.71875 11.625 
Q 12.109375 9.234375 16.796875 8.0625 
Q 21.484375 6.890625 26.703125 6.890625 
Q 35.15625 6.890625 40.078125 11.328125 
Q 45.015625 15.765625 45.015625 23.390625 
Q 45.015625 31 40.078125 35.4375 
Q 35.15625 39.890625 26.703125 39.890625 
Q 22.75 39.890625 18.8125 39.015625 
Q 14.890625 38.140625 10.796875 36.28125 
z
" id="DejaVuSans-53"/>
      </defs>
      <g transform="translate(105.021626 332.798438)scale(0.1 -0.1)">
       <use xlink:href="#DejaVuSans-53"/>
       <use x="63.623047" xlink:href="#DejaVuSans-46"/>
       <use x="95.410156" xlink:href="#DejaVuSans-48"/>
      </g>
     </g>
    </g>
    <g id="xtick_3">
     <g id="line2d_3">
      <g>
       <use style="stroke:#000000;stroke-width:0.8;" x="148.526766" xlink:href="#mda51adcdf0" y="318.2"/>
      </g>
     </g>
     <g id="text_3">
      <!-- 10.0 -->
      <defs>
       <path d="M 12.40625 8.296875 
L 28.515625 8.296875 
L 28.515625 63.921875 
L 10.984375 60.40625 
L 10.984375 69.390625 
L 28.421875 72.90625 
L 38.28125 72.90625 
L 38.28125 8.296875 
L 54.390625 8.296875 
L 54.390625 0 
L 12.40625 0 
z
" id="DejaVuSans-49"/>
      </defs>
      <g transform="translate(137.393954 332.798438)scale(0.1 -0.1)">
       <use xlink:href="#DejaVuSans-49"/>
       <use x="63.623047" xlink:href="#DejaVuSans-48"/>
       <use x="127.246094" xlink:href="#DejaVuSans-46"/>
       <use x="159.033203" xlink:href="#DejaVuSans-48"/>
      </g>
     </g>
    </g>
    <g id="xtick_4">
     <g id="line2d_4">
      <g>
       <use style="stroke:#000000;stroke-width:0.8;" x="184.080344" xlink:href="#mda51adcdf0" y="318.2"/>
      </g>
     </g>
     <g id="text_4">
      <!-- 15.0 -->
      <g transform="translate(172.947532 332.798438)scale(0.1 -0.1)">
       <use xlink:href="#DejaVuSans-49"/>
       <use x="63.623047" xlink:href="#DejaVuSans-53"/>
       <use x="127.246094" xlink:href="#DejaVuSans-46"/>
       <use x="159.033203" xlink:href="#DejaVuSans-48"/>
      </g>
     </g>
    </g>
    <g id="xtick_5">
     <g id="line2d_5">
      <g>
       <use style="stroke:#000000;stroke-width:0.8;" x="219.633922" xlink:href="#mda51adcdf0" y="318.2"/>
      </g>
     </g>
     <g id="text_5">
      <!-- 20.0 -->
      <defs>
       <path d="M 19.1875 8.296875 
L 53.609375 8.296875 
L 53.609375 0 
L 7.328125 0 
L 7.328125 8.296875 
Q 12.9375 14.109375 22.625 23.890625 
Q 32.328125 33.6875 34.8125 36.53125 
Q 39.546875 41.84375 41.421875 45.53125 
Q 43.3125 49.21875 43.3125 52.78125 
Q 43.3125 58.59375 39.234375 62.25 
Q 35.15625 65.921875 28.609375 65.921875 
Q 23.96875 65.921875 18.8125 64.3125 
Q 13.671875 62.703125 7.8125 59.421875 
L 7.8125 69.390625 
Q 13.765625 71.78125 18.9375 73 
Q 24.125 74.21875 28.421875 74.21875 
Q 39.75 74.21875 46.484375 68.546875 
Q 53.21875 62.890625 53.21875 53.421875 
Q 53.21875 48.921875 51.53125 44.890625 
Q 49.859375 40.875 45.40625 35.40625 
Q 44.1875 33.984375 37.640625 27.21875 
Q 31.109375 20.453125 19.1875 8.296875 
z
" id="DejaVuSans-50"/>
      </defs>
      <g transform="translate(208.50111 332.798438)scale(0.1 -0.1)">
       <use xlink:href="#DejaVuSans-50"/>
       <use x="63.623047" xlink:href="#DejaVuSans-48"/>
       <use x="127.246094" xlink:href="#DejaVuSans-46"/>
       <use x="159.033203" xlink:href="#DejaVuSans-48"/>
      </g>
     </g>
    </g>
    <g id="xtick_6">
     <g id="line2d_6">
      <g>
       <use style="stroke:#000000;stroke-width:0.8;" x="255.1875" xlink:href="#mda51adcdf0" y="318.2"/>
      </g>
     </g>
     <g id="text_6">
      <!-- 25.0 -->
      <g transform="translate(244.054688 332.798438)scale(0.1 -0.1)">
       <use xlink:href="#DejaVuSans-50"/>
       <use x="63.623047" xlink:href="#DejaVuSans-53"/>
       <use x="127.246094" xlink:href="#DejaVuSans-46"/>
       <use x="159.033203" xlink:href="#DejaVuSans-48"/>
      </g>
     </g>
    </g>
    <g id="xtick_7">
     <g id="line2d_7">
      <g>
       <use style="stroke:#000000;stroke-width:0.8;" x="290.741078" xlink:href="#mda51adcdf0" y="318.2"/>
      </g>
     </g>
     <g id="text_7">
      <!-- 30.0 -->
      <defs>
       <path d="M 40.578125 39.3125 
Q 47.65625 37.796875 51.625 33 
Q 55.609375 28.21875 55.609375 21.1875 
Q 55.609375 10.40625 48.1875 4.484375 
Q 40.765625 -1.421875 27.09375 -1.421875 
Q 22.515625 -1.421875 17.65625 -0.515625 
Q 12.796875 0.390625 7.625 2.203125 
L 7.625 11.71875 
Q 11.71875 9.328125 16.59375 8.109375 
Q 21.484375 6.890625 26.8125 6.890625 
Q 36.078125 6.890625 40.9375 10.546875 
Q 45.796875 14.203125 45.796875 21.1875 
Q 45.796875 27.640625 41.28125 31.265625 
Q 36.765625 34.90625 28.71875 34.90625 
L 20.21875 34.90625 
L 20.21875 43.015625 
L 29.109375 43.015625 
Q 36.375 43.015625 40.234375 45.921875 
Q 44.09375 48.828125 44.09375 54.296875 
Q 44.09375 59.90625 40.109375 62.90625 
Q 36.140625 65.921875 28.71875 65.921875 
Q 24.65625 65.921875 20.015625 65.03125 
Q 15.375 64.15625 9.8125 62.3125 
L 9.8125 71.09375 
Q 15.4375 72.65625 20.34375 73.4375 
Q 25.25 74.21875 29.59375 74.21875 
Q 40.828125 74.21875 47.359375 69.109375 
Q 53.90625 64.015625 53.90625 55.328125 
Q 53.90625 49.265625 50.4375 45.09375 
Q 46.96875 40.921875 40.578125 39.3125 
z
" id="DejaVuSans-51"/>
      </defs>
      <g transform="translate(279.608265 332.798438)scale(0.1 -0.1)">
       <use xlink:href="#DejaVuSans-51"/>
       <use x="63.623047" xlink:href="#DejaVuSans-48"/>
       <use x="127.246094" xlink:href="#DejaVuSans-46"/>
       <use x="159.033203" xlink:href="#DejaVuSans-48"/>
      </g>
     </g>
    </g>
    <g id="xtick_8">
     <g id="line2d_8">
      <g>
       <use style="stroke:#000000;stroke-width:0.8;" x="326.294656" xlink:href="#mda51adcdf0" y="318.2"/>
      </g>
     </g>
     <g id="text_8">
      <!-- 35.0 -->
      <g transform="translate(315.161843 332.798438)scale(0.1 -0.1)">
       <use xlink:href="#DejaVuSans-51"/>
       <use x="63.623047" xlink:href="#DejaVuSans-53"/>
       <use x="127.246094" xlink:href="#DejaVuSans-46"/>
       <use x="159.033203" xlink:href="#DejaVuSans-48"/>
      </g>
     </g>
    </g>
    <g id="xtick_9">
     <g id="line2d_9">
      <g>
       <use style="stroke:#000000;stroke-width:0.8;" x="361.848234" xlink:href="#mda51adcdf0" y="318.2"/>
      </g>
     </g>
     <g id="text_9">
      <!-- 40.0 -->
      <defs>
       <path d="M 37.796875 64.3125 
L 12.890625 25.390625 
L 37.796875 25.390625 
z
M 35.203125 72.90625 
L 47.609375 72.90625 
L 47.609375 25.390625 
L 58.015625 25.390625 
L 58.015625 17.1875 
L 47.609375 17.1875 
L 47.609375 0 
L 37.796875 0 
L 37.796875 17.1875 
L 4.890625 17.1875 
L 4.890625 26.703125 
z
" id="DejaVuSans-52"/>
      </defs>
      <g transform="translate(350.715421 332.798438)scale(0.1 -0.1)">
       <use xlink:href="#DejaVuSans-52"/>
       <use x="63.623047" xlink:href="#DejaVuSans-48"/>
       <use x="127.246094" xlink:href="#DejaVuSans-46"/>
       <use x="159.033203" xlink:href="#DejaVuSans-48"/>
      </g>
     </g>
    </g>
    <g id="xtick_10">
     <g id="line2d_10">
      <g>
       <use style="stroke:#000000;stroke-width:0.8;" x="397.401812" xlink:href="#mda51adcdf0" y="318.2"/>
      </g>
     </g>
     <g id="text_10">
      <!-- 45.0 -->
      <g transform="translate(386.268999 332.798438)scale(0.1 -0.1)">
       <use xlink:href="#DejaVuSans-52"/>
       <use x="63.623047" xlink:href="#DejaVuSans-53"/>
       <use x="127.246094" xlink:href="#DejaVuSans-46"/>
       <use x="159.033203" xlink:href="#DejaVuSans-48"/>
      </g>
     </g>
    </g>
    <g id="xtick_11">
     <g id="line2d_11">
      <g>
       <use style="stroke:#000000;stroke-width:0.8;" x="432.95539" xlink:href="#mda51adcdf0" y="318.2"/>
      </g>
     </g>
     <g id="text_11">
      <!-- 50.0 -->
      <g transform="translate(421.822577 332.798438)scale(0.1 -0.1)">
       <use xlink:href="#DejaVuSans-53"/>
       <use x="63.623047" xlink:href="#DejaVuSans-48"/>
       <use x="127.246094" xlink:href="#DejaVuSans-46"/>
       <use x="159.033203" xlink:href="#DejaVuSans-48"/>
      </g>
     </g>
    </g>
    <g id="text_12">
     <!-- Radius (um) -->
     <defs>
      <path d="M 44.390625 34.1875 
Q 47.5625 33.109375 50.5625 29.59375 
Q 53.5625 26.078125 56.59375 19.921875 
L 66.609375 0 
L 56 0 
L 46.6875 18.703125 
Q 43.0625 26.03125 39.671875 28.421875 
Q 36.28125 30.8125 30.421875 30.8125 
L 19.671875 30.8125 
L 19.671875 0 
L 9.8125 0 
L 9.8125 72.90625 
L 32.078125 72.90625 
Q 44.578125 72.90625 50.734375 67.671875 
Q 56.890625 62.453125 56.890625 51.90625 
Q 56.890625 45.015625 53.6875 40.46875 
Q 50.484375 35.9375 44.390625 34.1875 
z
M 19.671875 64.796875 
L 19.671875 38.921875 
L 32.078125 38.921875 
Q 39.203125 38.921875 42.84375 42.21875 
Q 46.484375 45.515625 46.484375 51.90625 
Q 46.484375 58.296875 42.84375 61.546875 
Q 39.203125 64.796875 32.078125 64.796875 
z
" id="DejaVuSans-82"/>
      <path d="M 34.28125 27.484375 
Q 23.390625 27.484375 19.1875 25 
Q 14.984375 22.515625 14.984375 16.5 
Q 14.984375 11.71875 18.140625 8.90625 
Q 21.296875 6.109375 26.703125 6.109375 
Q 34.1875 6.109375 38.703125 11.40625 
Q 43.21875 16.703125 43.21875 25.484375 
L 43.21875 27.484375 
z
M 52.203125 31.203125 
L 52.203125 0 
L 43.21875 0 
L 43.21875 8.296875 
Q 40.140625 3.328125 35.546875 0.953125 
Q 30.953125 -1.421875 24.3125 -1.421875 
Q 15.921875 -1.421875 10.953125 3.296875 
Q 6 8.015625 6 15.921875 
Q 6 25.140625 12.171875 29.828125 
Q 18.359375 34.515625 30.609375 34.515625 
L 43.21875 34.515625 
L 43.21875 35.40625 
Q 43.21875 41.609375 39.140625 45 
Q 35.0625 48.390625 27.6875 48.390625 
Q 23 48.390625 18.546875 47.265625 
Q 14.109375 46.140625 10.015625 43.890625 
L 10.015625 52.203125 
Q 14.9375 54.109375 19.578125 55.046875 
Q 24.21875 56 28.609375 56 
Q 40.484375 56 46.34375 49.84375 
Q 52.203125 43.703125 52.203125 31.203125 
z
" id="DejaVuSans-97"/>
      <path d="M 45.40625 46.390625 
L 45.40625 75.984375 
L 54.390625 75.984375 
L 54.390625 0 
L 45.40625 0 
L 45.40625 8.203125 
Q 42.578125 3.328125 38.25 0.953125 
Q 33.9375 -1.421875 27.875 -1.421875 
Q 17.96875 -1.421875 11.734375 6.484375 
Q 5.515625 14.40625 5.515625 27.296875 
Q 5.515625 40.1875 11.734375 48.09375 
Q 17.96875 56 27.875 56 
Q 33.9375 56 38.25 53.625 
Q 42.578125 51.265625 45.40625 46.390625 
z
M 14.796875 27.296875 
Q 14.796875 17.390625 18.875 11.75 
Q 22.953125 6.109375 30.078125 6.109375 
Q 37.203125 6.109375 41.296875 11.75 
Q 45.40625 17.390625 45.40625 27.296875 
Q 45.40625 37.203125 41.296875 42.84375 
Q 37.203125 48.484375 30.078125 48.484375 
Q 22.953125 48.484375 18.875 42.84375 
Q 14.796875 37.203125 14.796875 27.296875 
z
" id="DejaVuSans-100"/>
      <path d="M 9.421875 54.6875 
L 18.40625 54.6875 
L 18.40625 0 
L 9.421875 0 
z
M 9.421875 75.984375 
L 18.40625 75.984375 
L 18.40625 64.59375 
L 9.421875 64.59375 
z
" id="DejaVuSans-105"/>
      <path d="M 8.5 21.578125 
L 8.5 54.6875 
L 17.484375 54.6875 
L 17.484375 21.921875 
Q 17.484375 14.15625 20.5 10.265625 
Q 23.53125 6.390625 29.59375 6.390625 
Q 36.859375 6.390625 41.078125 11.03125 
Q 45.3125 15.671875 45.3125 23.6875 
L 45.3125 54.6875 
L 54.296875 54.6875 
L 54.296875 0 
L 45.3125 0 
L 45.3125 8.40625 
Q 42.046875 3.421875 37.71875 1 
Q 33.40625 -1.421875 27.6875 -1.421875 
Q 18.265625 -1.421875 13.375 4.4375 
Q 8.5 10.296875 8.5 21.578125 
z
M 31.109375 56 
z
" id="DejaVuSans-117"/>
      <path d="M 44.28125 53.078125 
L 44.28125 44.578125 
Q 40.484375 46.53125 36.375 47.5 
Q 32.28125 48.484375 27.875 48.484375 
Q 21.1875 48.484375 17.84375 46.4375 
Q 14.5 44.390625 14.5 40.28125 
Q 14.5 37.15625 16.890625 35.375 
Q 19.28125 33.59375 26.515625 31.984375 
L 29.59375 31.296875 
Q 39.15625 29.25 43.1875 25.515625 
Q 47.21875 21.78125 47.21875 15.09375 
Q 47.21875 7.46875 41.1875 3.015625 
Q 35.15625 -1.421875 24.609375 -1.421875 
Q 20.21875 -1.421875 15.453125 -0.5625 
Q 10.6875 0.296875 5.421875 2 
L 5.421875 11.28125 
Q 10.40625 8.6875 15.234375 7.390625 
Q 20.0625 6.109375 24.8125 6.109375 
Q 31.15625 6.109375 34.5625 8.28125 
Q 37.984375 10.453125 37.984375 14.40625 
Q 37.984375 18.0625 35.515625 20.015625 
Q 33.0625 21.96875 24.703125 23.78125 
L 21.578125 24.515625 
Q 13.234375 26.265625 9.515625 29.90625 
Q 5.8125 33.546875 5.8125 39.890625 
Q 5.8125 47.609375 11.28125 51.796875 
Q 16.75 56 26.8125 56 
Q 31.78125 56 36.171875 55.265625 
Q 40.578125 54.546875 44.28125 53.078125 
z
" id="DejaVuSans-115"/>
      <path id="DejaVuSans-32"/>
      <path d="M 31 75.875 
Q 24.46875 64.65625 21.28125 53.65625 
Q 18.109375 42.671875 18.109375 31.390625 
Q 18.109375 20.125 21.3125 9.0625 
Q 24.515625 -2 31 -13.1875 
L 23.1875 -13.1875 
Q 15.875 -1.703125 12.234375 9.375 
Q 8.59375 20.453125 8.59375 31.390625 
Q 8.59375 42.28125 12.203125 53.3125 
Q 15.828125 64.359375 23.1875 75.875 
z
" id="DejaVuSans-40"/>
      <path d="M 52 44.1875 
Q 55.375 50.25 60.0625 53.125 
Q 64.75 56 71.09375 56 
Q 79.640625 56 84.28125 50.015625 
Q 88.921875 44.046875 88.921875 33.015625 
L 88.921875 0 
L 79.890625 0 
L 79.890625 32.71875 
Q 79.890625 40.578125 77.09375 44.375 
Q 74.3125 48.1875 68.609375 48.1875 
Q 61.625 48.1875 57.5625 43.546875 
Q 53.515625 38.921875 53.515625 30.90625 
L 53.515625 0 
L 44.484375 0 
L 44.484375 32.71875 
Q 44.484375 40.625 41.703125 44.40625 
Q 38.921875 48.1875 33.109375 48.1875 
Q 26.21875 48.1875 22.15625 43.53125 
Q 18.109375 38.875 18.109375 30.90625 
L 18.109375 0 
L 9.078125 0 
L 9.078125 54.6875 
L 18.109375 54.6875 
L 18.109375 46.1875 
Q 21.1875 51.21875 25.484375 53.609375 
Q 29.78125 56 35.6875 56 
Q 41.65625 56 45.828125 52.96875 
Q 50 49.953125 52 44.1875 
z
" id="DejaVuSans-109"/>
      <path d="M 8.015625 75.875 
L 15.828125 75.875 
Q 23.140625 64.359375 26.78125 53.3125 
Q 30.421875 42.28125 30.421875 31.390625 
Q 30.421875 20.453125 26.78125 9.375 
Q 23.140625 -1.703125 15.828125 -13.1875 
L 8.015625 -13.1875 
Q 14.5 -2 17.703125 9.0625 
Q 20.90625 20.125 20.90625 31.390625 
Q 20.90625 42.671875 17.703125 53.65625 
Q 14.5 64.65625 8.015625 75.875 
z
" id="DejaVuSans-41"/>
     </defs>
     <g transform="translate(224.895313 346.476562)scale(0.1 -0.1)">
      <use xlink:href="#DejaVuSans-82"/>
      <use x="67.232422" xlink:href="#DejaVuSans-97"/>
      <use x="128.511719" xlink:href="#DejaVuSans-100"/>
      <use x="191.988281" xlink:href="#DejaVuSans-105"/>
      <use x="219.771484" xlink:href="#DejaVuSans-117"/>
      <use x="283.150391" xlink:href="#DejaVuSans-115"/>
      <use x="335.25" xlink:href="#DejaVuSans-32"/>
      <use x="367.037109" xlink:href="#DejaVuSans-40"/>
      <use x="406.050781" xlink:href="#DejaVuSans-117"/>
      <use x="469.429688" xlink:href="#DejaVuSans-109"/>
      <use x="566.841797" xlink:href="#DejaVuSans-41"/>
     </g>
    </g>
   </g>
   <g id="matplotlib.axis_2">
    <g id="ytick_1">
     <g id="line2d_12">
      <defs>
       <path d="M 0 0 
L -3.5 0 
" id="me3dec7a66e" style="stroke:#000000;stroke-width:0.8;"/>
      </defs>
      <g>
       <use style="stroke:#000000;stroke-width:0.8;" x="60.425" xlink:href="#me3dec7a66e" y="318.2"/>
      </g>
     </g>
     <g id="text_13">
      <!-- 0.000 -->
      <g transform="translate(24.796875 321.999219)scale(0.1 -0.1)">
       <use xlink:href="#DejaVuSans-48"/>
       <use x="63.623047" xlink:href="#DejaVuSans-46"/>
       <use x="95.410156" xlink:href="#DejaVuSans-48"/>
       <use x="159.033203" xlink:href="#DejaVuSans-48"/>
       <use x="222.65625" xlink:href="#DejaVuSans-48"/>
      </g>
     </g>
    </g>
    <g id="ytick_2">
     <g id="line2d_13">
      <g>
       <use style="stroke:#000000;stroke-width:0.8;" x="60.425" xlink:href="#me3dec7a66e" y="285.812721"/>
      </g>
     </g>
     <g id="text_14">
      <!-- 0.025 -->
      <g transform="translate(24.796875 289.61194)scale(0.1 -0.1)">
       <use xlink:href="#DejaVuSans-48"/>
       <use x="63.623047" xlink:href="#DejaVuSans-46"/>
       <use x="95.410156" xlink:href="#DejaVuSans-48"/>
       <use x="159.033203" xlink:href="#DejaVuSans-50"/>
       <use x="222.65625" xlink:href="#DejaVuSans-53"/>
      </g>
     </g>
    </g>
    <g id="ytick_3">
     <g id="line2d_14">
      <g>
       <use style="stroke:#000000;stroke-width:0.8;" x="60.425" xlink:href="#me3dec7a66e" y="253.425442"/>
      </g>
     </g>
     <g id="text_15">
      <!-- 0.050 -->
      <g transform="translate(24.796875 257.224661)scale(0.1 -0.1)">
       <use xlink:href="#DejaVuSans-48"/>
       <use x="63.623047" xlink:href="#DejaVuSans-46"/>
       <use x="95.410156" xlink:href="#DejaVuSans-48"/>
       <use x="159.033203" xlink:href="#DejaVuSans-53"/>
       <use x="222.65625" xlink:href="#DejaVuSans-48"/>
      </g>
     </g>
    </g>
    <g id="ytick_4">
     <g id="line2d_15">
      <g>
       <use style="stroke:#000000;stroke-width:0.8;" x="60.425" xlink:href="#me3dec7a66e" y="221.038163"/>
      </g>
     </g>
     <g id="text_16">
      <!-- 0.075 -->
      <defs>
       <path d="M 8.203125 72.90625 
L 55.078125 72.90625 
L 55.078125 68.703125 
L 28.609375 0 
L 18.3125 0 
L 43.21875 64.59375 
L 8.203125 64.59375 
z
" id="DejaVuSans-55"/>
      </defs>
      <g transform="translate(24.796875 224.837382)scale(0.1 -0.1)">
       <use xlink:href="#DejaVuSans-48"/>
       <use x="63.623047" xlink:href="#DejaVuSans-46"/>
       <use x="95.410156" xlink:href="#DejaVuSans-48"/>
       <use x="159.033203" xlink:href="#DejaVuSans-55"/>
       <use x="222.65625" xlink:href="#DejaVuSans-53"/>
      </g>
     </g>
    </g>
    <g id="ytick_5">
     <g id="line2d_16">
      <g>
       <use style="stroke:#000000;stroke-width:0.8;" x="60.425" xlink:href="#me3dec7a66e" y="188.650885"/>
      </g>
     </g>
     <g id="text_17">
      <!-- 0.100 -->
      <g transform="translate(24.796875 192.450103)scale(0.1 -0.1)">
       <use xlink:href="#DejaVuSans-48"/>
       <use x="63.623047" xlink:href="#DejaVuSans-46"/>
       <use x="95.410156" xlink:href="#DejaVuSans-49"/>
       <use x="159.033203" xlink:href="#DejaVuSans-48"/>
       <use x="222.65625" xlink:href="#DejaVuSans-48"/>
      </g>
     </g>
    </g>
    <g id="ytick_6">
     <g id="line2d_17">
      <g>
       <use style="stroke:#000000;stroke-width:0.8;" x="60.425" xlink:href="#me3dec7a66e" y="156.263606"/>
      </g>
     </g>
     <g id="text_18">
      <!-- 0.125 -->
      <g transform="translate(24.796875 160.062825)scale(0.1 -0.1)">
       <use xlink:href="#DejaVuSans-48"/>
       <use x="63.623047" xlink:href="#DejaVuSans-46"/>
       <use x="95.410156" xlink:href="#DejaVuSans-49"/>
       <use x="159.033203" xlink:href="#DejaVuSans-50"/>
       <use x="222.65625" xlink:href="#DejaVuSans-53"/>
      </g>
     </g>
    </g>
    <g id="ytick_7">
     <g id="line2d_18">
      <g>
       <use style="stroke:#000000;stroke-width:0.8;" x="60.425" xlink:href="#me3dec7a66e" y="123.876327"/>
      </g>
     </g>
     <g id="text_19">
      <!-- 0.150 -->
      <g transform="translate(24.796875 127.675546)scale(0.1 -0.1)">
       <use xlink:href="#DejaVuSans-48"/>
       <use x="63.623047" xlink:href="#DejaVuSans-46"/>
       <use x="95.410156" xlink:href="#DejaVuSans-49"/>
       <use x="159.033203" xlink:href="#DejaVuSans-53"/>
       <use x="222.65625" xlink:href="#DejaVuSans-48"/>
      </g>
     </g>
    </g>
    <g id="ytick_8">
     <g id="line2d_19">
      <g>
       <use style="stroke:#000000;stroke-width:0.8;" x="60.425" xlink:href="#me3dec7a66e" y="91.489048"/>
      </g>
     </g>
     <g id="text_20">
      <!-- 0.175 -->
      <g transform="translate(24.796875 95.288267)scale(0.1 -0.1)">
       <use xlink:href="#DejaVuSans-48"/>
       <use x="63.623047" xlink:href="#DejaVuSans-46"/>
       <use x="95.410156" xlink:href="#DejaVuSans-49"/>
       <use x="159.033203" xlink:href="#DejaVuSans-55"/>
       <use x="222.65625" xlink:href="#DejaVuSans-53"/>
      </g>
     </g>
    </g>
    <g id="ytick_9">
     <g id="line2d_20">
      <g>
       <use style="stroke:#000000;stroke-width:0.8;" x="60.425" xlink:href="#me3dec7a66e" y="59.101769"/>
      </g>
     </g>
     <g id="text_21">
      <!-- 0.200 -->
      <g transform="translate(24.796875 62.900988)scale(0.1 -0.1)">
       <use xlink:href="#DejaVuSans-48"/>
       <use x="63.623047" xlink:href="#DejaVuSans-46"/>
       <use x="95.410156" xlink:href="#DejaVuSans-50"/>
       <use x="159.033203" xlink:href="#DejaVuSans-48"/>
       <use x="222.65625" xlink:href="#DejaVuSans-48"/>
      </g>
     </g>
    </g>
    <g id="text_22">
     <!-- Fraction -->
     <defs>
      <path d="M 9.8125 72.90625 
L 51.703125 72.90625 
L 51.703125 64.59375 
L 19.671875 64.59375 
L 19.671875 43.109375 
L 48.578125 43.109375 
L 48.578125 34.8125 
L 19.671875 34.8125 
L 19.671875 0 
L 9.8125 0 
z
" id="DejaVuSans-70"/>
      <path d="M 41.109375 46.296875 
Q 39.59375 47.171875 37.8125 47.578125 
Q 36.03125 48 33.890625 48 
Q 26.265625 48 22.1875 43.046875 
Q 18.109375 38.09375 18.109375 28.8125 
L 18.109375 0 
L 9.078125 0 
L 9.078125 54.6875 
L 18.109375 54.6875 
L 18.109375 46.1875 
Q 20.953125 51.171875 25.484375 53.578125 
Q 30.03125 56 36.53125 56 
Q 37.453125 56 38.578125 55.875 
Q 39.703125 55.765625 41.0625 55.515625 
z
" id="DejaVuSans-114"/>
      <path d="M 48.78125 52.59375 
L 48.78125 44.1875 
Q 44.96875 46.296875 41.140625 47.34375 
Q 37.3125 48.390625 33.40625 48.390625 
Q 24.65625 48.390625 19.8125 42.84375 
Q 14.984375 37.3125 14.984375 27.296875 
Q 14.984375 17.28125 19.8125 11.734375 
Q 24.65625 6.203125 33.40625 6.203125 
Q 37.3125 6.203125 41.140625 7.25 
Q 44.96875 8.296875 48.78125 10.40625 
L 48.78125 2.09375 
Q 45.015625 0.34375 40.984375 -0.53125 
Q 36.96875 -1.421875 32.421875 -1.421875 
Q 20.0625 -1.421875 12.78125 6.34375 
Q 5.515625 14.109375 5.515625 27.296875 
Q 5.515625 40.671875 12.859375 48.328125 
Q 20.21875 56 33.015625 56 
Q 37.15625 56 41.109375 55.140625 
Q 45.0625 54.296875 48.78125 52.59375 
z
" id="DejaVuSans-99"/>
      <path d="M 18.3125 70.21875 
L 18.3125 54.6875 
L 36.8125 54.6875 
L 36.8125 47.703125 
L 18.3125 47.703125 
L 18.3125 18.015625 
Q 18.3125 11.328125 20.140625 9.421875 
Q 21.96875 7.515625 27.59375 7.515625 
L 36.8125 7.515625 
L 36.8125 0 
L 27.59375 0 
Q 17.1875 0 13.234375 3.875 
Q 9.28125 7.765625 9.28125 18.015625 
L 9.28125 47.703125 
L 2.6875 47.703125 
L 2.6875 54.6875 
L 9.28125 54.6875 
L 9.28125 70.21875 
z
" id="DejaVuSans-116"/>
      <path d="M 30.609375 48.390625 
Q 23.390625 48.390625 19.1875 42.75 
Q 14.984375 37.109375 14.984375 27.296875 
Q 14.984375 17.484375 19.15625 11.84375 
Q 23.34375 6.203125 30.609375 6.203125 
Q 37.796875 6.203125 41.984375 11.859375 
Q 46.1875 17.53125 46.1875 27.296875 
Q 46.1875 37.015625 41.984375 42.703125 
Q 37.796875 48.390625 30.609375 48.390625 
z
M 30.609375 56 
Q 42.328125 56 49.015625 48.375 
Q 55.71875 40.765625 55.71875 27.296875 
Q 55.71875 13.875 49.015625 6.21875 
Q 42.328125 -1.421875 30.609375 -1.421875 
Q 18.84375 -1.421875 12.171875 6.21875 
Q 5.515625 13.875 5.515625 27.296875 
Q 5.515625 40.765625 12.171875 48.375 
Q 18.84375 56 30.609375 56 
z
" id="DejaVuSans-111"/>
      <path d="M 54.890625 33.015625 
L 54.890625 0 
L 45.90625 0 
L 45.90625 32.71875 
Q 45.90625 40.484375 42.875 44.328125 
Q 39.84375 48.1875 33.796875 48.1875 
Q 26.515625 48.1875 22.3125 43.546875 
Q 18.109375 38.921875 18.109375 30.90625 
L 18.109375 0 
L 9.078125 0 
L 9.078125 54.6875 
L 18.109375 54.6875 
L 18.109375 46.1875 
Q 21.34375 51.125 25.703125 53.5625 
Q 30.078125 56 35.796875 56 
Q 45.21875 56 50.046875 50.171875 
Q 54.890625 44.34375 54.890625 33.015625 
z
" id="DejaVuSans-110"/>
     </defs>
     <g transform="translate(18.717188 192.459375)rotate(-90)scale(0.1 -0.1)">
      <use xlink:href="#DejaVuSans-70"/>
      <use x="50.269531" xlink:href="#DejaVuSans-114"/>
      <use x="91.382812" xlink:href="#DejaVuSans-97"/>
      <use x="152.662109" xlink:href="#DejaVuSans-99"/>
      <use x="207.642578" xlink:href="#DejaVuSans-116"/>
      <use x="246.851562" xlink:href="#DejaVuSans-105"/>
      <use x="274.634766" xlink:href="#DejaVuSans-111"/>
      <use x="335.816406" xlink:href="#DejaVuSans-110"/>
     </g>
    </g>
   </g>
   <g id="patch_53">
    <path d="M 60.425 318.2 
L 60.425 26.8 
" style="fill:none;stroke:#000000;stroke-linecap:square;stroke-linejoin:miter;stroke-width:0.8;"/>
   </g>
   <g id="patch_54">
    <path d="M 449.95 318.2 
L 449.95 26.8 
" style="fill:none;stroke:#000000;stroke-linecap:square;stroke-linejoin:miter;stroke-width:0.8;"/>
   </g>
   <g id="patch_55">
    <path d="M 60.425 318.2 
L 449.95 318.2 
" style="fill:none;stroke:#000000;stroke-linecap:square;stroke-linejoin:miter;stroke-width:0.8;"/>
   </g>
   <g id="patch_56">
    <path d="M 60.425 26.8 
L 449.95 26.8 
" style="fill:none;stroke:#000000;stroke-linecap:square;stroke-linejoin:miter;stroke-width:0.8;"/>
   </g>
  </g>
  <g id="axes_2">
   <g id="patch_57">
    <path clip-path="url(#pbb9347b06c)" d="M 78.130682 318.2 
L 112.262117 318.2 
L 112.262117 213.389784 
L 78.130682 213.389784 
z
" style="fill:#add8e6;opacity:0.5;stroke:#000000;stroke-linejoin:miter;"/>
   </g>
   <g id="patch_58">
    <path clip-path="url(#pbb9347b06c)" d="M 113.68426 318.2 
L 147.815695 318.2 
L 147.815695 40.67619 
L 113.68426 40.67619 
z
" style="fill:#add8e6;opacity:0.5;stroke:#000000;stroke-linejoin:miter;"/>
   </g>
   <g id="patch_59">
    <path clip-path="url(#pbb9347b06c)" d="M 149.237838 318.2 
L 183.369273 318.2 
L 183.369273 161.256891 
L 149.237838 161.256891 
z
" style="fill:#add8e6;opacity:0.5;stroke:#000000;stroke-linejoin:miter;"/>
   </g>
   <g id="patch_60">
    <path clip-path="url(#pbb9347b06c)" d="M 184.791416 318.2 
L 218.92285 318.2 
L 218.92285 207.40109 
L 184.791416 207.40109 
z
" style="fill:#add8e6;opacity:0.5;stroke:#000000;stroke-linejoin:miter;"/>
   </g>
   <g id="patch_61">
    <path clip-path="url(#pbb9347b06c)" d="M 220.344994 318.2 
L 254.476428 318.2 
L 254.476428 222.522448 
L 220.344994 222.522448 
z
" style="fill:#add8e6;opacity:0.5;stroke:#000000;stroke-linejoin:miter;"/>
   </g>
   <g id="patch_62">
    <path clip-path="url(#pbb9347b06c)" d="M 255.898572 318.2 
L 290.030006 318.2 
L 290.030006 209.445718 
L 255.898572 209.445718 
z
" style="fill:#add8e6;opacity:0.5;stroke:#000000;stroke-linejoin:miter;"/>
   </g>
   <g id="patch_63">
    <path clip-path="url(#pbb9347b06c)" d="M 291.45215 318.2 
L 325.583584 318.2 
L 325.583584 275.859142 
L 291.45215 275.859142 
z
" style="fill:#add8e6;opacity:0.5;stroke:#000000;stroke-linejoin:miter;"/>
   </g>
   <g id="patch_64">
    <path clip-path="url(#pbb9347b06c)" d="M 327.005727 318.2 
L 361.137162 318.2 
L 361.137162 270.985234 
L 327.005727 270.985234 
z
" style="fill:#add8e6;opacity:0.5;stroke:#000000;stroke-linejoin:miter;"/>
   </g>
   <g id="patch_65">
    <path clip-path="url(#pbb9347b06c)" d="M 362.559305 318.2 
L 396.69074 318.2 
L 396.69074 283.089675 
L 362.559305 283.089675 
z
" style="fill:#add8e6;opacity:0.5;stroke:#000000;stroke-linejoin:miter;"/>
   </g>
   <g id="patch_66">
    <path clip-path="url(#pbb9347b06c)" d="M 398.112883 318.2 
L 432.244318 318.2 
L 432.244318 304.069586 
L 398.112883 304.069586 
z
" style="fill:#add8e6;opacity:0.5;stroke:#000000;stroke-linejoin:miter;"/>
   </g>
   <g id="matplotlib.axis_3">
    <g id="ytick_10">
     <g id="line2d_21">
      <defs>
       <path d="M 0 0 
L 3.5 0 
" id="m2025a7a1d3" style="stroke:#000000;stroke-width:0.8;"/>
      </defs>
      <g>
       <use style="stroke:#000000;stroke-width:0.8;" x="449.95" xlink:href="#m2025a7a1d3" y="318.2"/>
      </g>
     </g>
     <g id="text_23">
      <!-- 0.00 -->
      <g transform="translate(456.95 321.999219)scale(0.1 -0.1)">
       <use xlink:href="#DejaVuSans-48"/>
       <use x="63.623047" xlink:href="#DejaVuSans-46"/>
       <use x="95.410156" xlink:href="#DejaVuSans-48"/>
       <use x="159.033203" xlink:href="#DejaVuSans-48"/>
      </g>
     </g>
    </g>
    <g id="ytick_11">
     <g id="line2d_22">
      <g>
       <use style="stroke:#000000;stroke-width:0.8;" x="449.95" xlink:href="#m2025a7a1d3" y="268.534788"/>
      </g>
     </g>
     <g id="text_24">
      <!-- 0.05 -->
      <g transform="translate(456.95 272.334007)scale(0.1 -0.1)">
       <use xlink:href="#DejaVuSans-48"/>
       <use x="63.623047" xlink:href="#DejaVuSans-46"/>
       <use x="95.410156" xlink:href="#DejaVuSans-48"/>
       <use x="159.033203" xlink:href="#DejaVuSans-53"/>
      </g>
     </g>
    </g>
    <g id="ytick_12">
     <g id="line2d_23">
      <g>
       <use style="stroke:#000000;stroke-width:0.8;" x="449.95" xlink:href="#m2025a7a1d3" y="218.869576"/>
      </g>
     </g>
     <g id="text_25">
      <!-- 0.10 -->
      <g transform="translate(456.95 222.668795)scale(0.1 -0.1)">
       <use xlink:href="#DejaVuSans-48"/>
       <use x="63.623047" xlink:href="#DejaVuSans-46"/>
       <use x="95.410156" xlink:href="#DejaVuSans-49"/>
       <use x="159.033203" xlink:href="#DejaVuSans-48"/>
      </g>
     </g>
    </g>
    <g id="ytick_13">
     <g id="line2d_24">
      <g>
       <use style="stroke:#000000;stroke-width:0.8;" x="449.95" xlink:href="#m2025a7a1d3" y="169.204364"/>
      </g>
     </g>
     <g id="text_26">
      <!-- 0.15 -->
      <g transform="translate(456.95 173.003583)scale(0.1 -0.1)">
       <use xlink:href="#DejaVuSans-48"/>
       <use x="63.623047" xlink:href="#DejaVuSans-46"/>
       <use x="95.410156" xlink:href="#DejaVuSans-49"/>
       <use x="159.033203" xlink:href="#DejaVuSans-53"/>
      </g>
     </g>
    </g>
    <g id="ytick_14">
     <g id="line2d_25">
      <g>
       <use style="stroke:#000000;stroke-width:0.8;" x="449.95" xlink:href="#m2025a7a1d3" y="119.539152"/>
      </g>
     </g>
     <g id="text_27">
      <!-- 0.20 -->
      <g transform="translate(456.95 123.338371)scale(0.1 -0.1)">
       <use xlink:href="#DejaVuSans-48"/>
       <use x="63.623047" xlink:href="#DejaVuSans-46"/>
       <use x="95.410156" xlink:href="#DejaVuSans-50"/>
       <use x="159.033203" xlink:href="#DejaVuSans-48"/>
      </g>
     </g>
    </g>
    <g id="ytick_15">
     <g id="line2d_26">
      <g>
       <use style="stroke:#000000;stroke-width:0.8;" x="449.95" xlink:href="#m2025a7a1d3" y="69.87394"/>
      </g>
     </g>
     <g id="text_28">
      <!-- 0.25 -->
      <g transform="translate(456.95 73.673159)scale(0.1 -0.1)">
       <use xlink:href="#DejaVuSans-48"/>
       <use x="63.623047" xlink:href="#DejaVuSans-46"/>
       <use x="95.410156" xlink:href="#DejaVuSans-50"/>
       <use x="159.033203" xlink:href="#DejaVuSans-53"/>
      </g>
     </g>
    </g>
    <g id="text_29">
     <!-- Volume Fraction -->
     <defs>
      <path d="M 28.609375 0 
L 0.78125 72.90625 
L 11.078125 72.90625 
L 34.1875 11.53125 
L 57.328125 72.90625 
L 67.578125 72.90625 
L 39.796875 0 
z
" id="DejaVuSans-86"/>
      <path d="M 9.421875 75.984375 
L 18.40625 75.984375 
L 18.40625 0 
L 9.421875 0 
z
" id="DejaVuSans-108"/>
      <path d="M 56.203125 29.59375 
L 56.203125 25.203125 
L 14.890625 25.203125 
Q 15.484375 15.921875 20.484375 11.0625 
Q 25.484375 6.203125 34.421875 6.203125 
Q 39.59375 6.203125 44.453125 7.46875 
Q 49.3125 8.734375 54.109375 11.28125 
L 54.109375 2.78125 
Q 49.265625 0.734375 44.1875 -0.34375 
Q 39.109375 -1.421875 33.890625 -1.421875 
Q 20.796875 -1.421875 13.15625 6.1875 
Q 5.515625 13.8125 5.515625 26.8125 
Q 5.515625 40.234375 12.765625 48.109375 
Q 20.015625 56 32.328125 56 
Q 43.359375 56 49.78125 48.890625 
Q 56.203125 41.796875 56.203125 29.59375 
z
M 47.21875 32.234375 
Q 47.125 39.59375 43.09375 43.984375 
Q 39.0625 48.390625 32.421875 48.390625 
Q 24.90625 48.390625 20.390625 44.140625 
Q 15.875 39.890625 15.1875 32.171875 
z
" id="DejaVuSans-101"/>
     </defs>
     <g transform="translate(490.814063 212.645313)rotate(-90)scale(0.1 -0.1)">
      <use xlink:href="#DejaVuSans-86"/>
      <use x="60.658203" xlink:href="#DejaVuSans-111"/>
      <use x="121.839844" xlink:href="#DejaVuSans-108"/>
      <use x="149.623047" xlink:href="#DejaVuSans-117"/>
      <use x="213.001953" xlink:href="#DejaVuSans-109"/>
      <use x="310.414062" xlink:href="#DejaVuSans-101"/>
      <use x="371.9375" xlink:href="#DejaVuSans-32"/>
      <use x="403.724609" xlink:href="#DejaVuSans-70"/>
      <use x="453.994141" xlink:href="#DejaVuSans-114"/>
      <use x="495.107422" xlink:href="#DejaVuSans-97"/>
      <use x="556.386719" xlink:href="#DejaVuSans-99"/>
      <use x="611.367188" xlink:href="#DejaVuSans-116"/>
      <use x="650.576172" xlink:href="#DejaVuSans-105"/>
      <use x="678.359375" xlink:href="#DejaVuSans-111"/>
      <use x="739.541016" xlink:href="#DejaVuSans-110"/>
     </g>
    </g>
   </g>
   <g id="patch_67">
    <path d="M 60.425 318.2 
L 60.425 26.8 
" style="fill:none;stroke:#000000;stroke-linecap:square;stroke-linejoin:miter;stroke-width:0.8;"/>
   </g>
   <g id="patch_68">
    <path d="M 449.95 318.2 
L 449.95 26.8 
" style="fill:none;stroke:#000000;stroke-linecap:square;stroke-linejoin:miter;stroke-width:0.8;"/>
   </g>
   <g id="patch_69">
    <path d="M 60.425 318.2 
L 449.95 318.2 
" style="fill:none;stroke:#000000;stroke-linecap:square;stroke-linejoin:miter;stroke-width:0.8;"/>
   </g>
   <g id="patch_70">
    <path d="M 60.425 26.8 
L 449.95 26.8 
" style="fill:none;stroke:#000000;stroke-linecap:square;stroke-linejoin:miter;stroke-width:0.8;"/>
   </g>
   <g id="text_30">
    <!-- Combined Volume Fraction and Radius Distribution -->
    <defs>
     <path d="M 64.40625 67.28125 
L 64.40625 56.890625 
Q 59.421875 61.53125 53.78125 63.8125 
Q 48.140625 66.109375 41.796875 66.109375 
Q 29.296875 66.109375 22.65625 58.46875 
Q 16.015625 50.828125 16.015625 36.375 
Q 16.015625 21.96875 22.65625 14.328125 
Q 29.296875 6.6875 41.796875 6.6875 
Q 48.140625 6.6875 53.78125 8.984375 
Q 59.421875 11.28125 64.40625 15.921875 
L 64.40625 5.609375 
Q 59.234375 2.09375 53.4375 0.328125 
Q 47.65625 -1.421875 41.21875 -1.421875 
Q 24.65625 -1.421875 15.125 8.703125 
Q 5.609375 18.84375 5.609375 36.375 
Q 5.609375 53.953125 15.125 64.078125 
Q 24.65625 74.21875 41.21875 74.21875 
Q 47.75 74.21875 53.53125 72.484375 
Q 59.328125 70.75 64.40625 67.28125 
z
" id="DejaVuSans-67"/>
     <path d="M 48.6875 27.296875 
Q 48.6875 37.203125 44.609375 42.84375 
Q 40.53125 48.484375 33.40625 48.484375 
Q 26.265625 48.484375 22.1875 42.84375 
Q 18.109375 37.203125 18.109375 27.296875 
Q 18.109375 17.390625 22.1875 11.75 
Q 26.265625 6.109375 33.40625 6.109375 
Q 40.53125 6.109375 44.609375 11.75 
Q 48.6875 17.390625 48.6875 27.296875 
z
M 18.109375 46.390625 
Q 20.953125 51.265625 25.265625 53.625 
Q 29.59375 56 35.59375 56 
Q 45.5625 56 51.78125 48.09375 
Q 58.015625 40.1875 58.015625 27.296875 
Q 58.015625 14.40625 51.78125 6.484375 
Q 45.5625 -1.421875 35.59375 -1.421875 
Q 29.59375 -1.421875 25.265625 0.953125 
Q 20.953125 3.328125 18.109375 8.203125 
L 18.109375 0 
L 9.078125 0 
L 9.078125 75.984375 
L 18.109375 75.984375 
z
" id="DejaVuSans-98"/>
     <path d="M 19.671875 64.796875 
L 19.671875 8.109375 
L 31.59375 8.109375 
Q 46.6875 8.109375 53.6875 14.9375 
Q 60.6875 21.78125 60.6875 36.53125 
Q 60.6875 51.171875 53.6875 57.984375 
Q 46.6875 64.796875 31.59375 64.796875 
z
M 9.8125 72.90625 
L 30.078125 72.90625 
Q 51.265625 72.90625 61.171875 64.09375 
Q 71.09375 55.28125 71.09375 36.53125 
Q 71.09375 17.671875 61.125 8.828125 
Q 51.171875 0 30.078125 0 
L 9.8125 0 
z
" id="DejaVuSans-68"/>
    </defs>
    <g transform="translate(102.495 20.8)scale(0.12 -0.12)">
     <use xlink:href="#DejaVuSans-67"/>
     <use x="69.824219" xlink:href="#DejaVuSans-111"/>
     <use x="131.005859" xlink:href="#DejaVuSans-109"/>
     <use x="228.417969" xlink:href="#DejaVuSans-98"/>
     <use x="291.894531" xlink:href="#DejaVuSans-105"/>
     <use x="319.677734" xlink:href="#DejaVuSans-110"/>
     <use x="383.056641" xlink:href="#DejaVuSans-101"/>
     <use x="444.580078" xlink:href="#DejaVuSans-100"/>
     <use x="508.056641" xlink:href="#DejaVuSans-32"/>
     <use x="539.84375" xlink:href="#DejaVuSans-86"/>
     <use x="600.501953" xlink:href="#DejaVuSans-111"/>
     <use x="661.683594" xlink:href="#DejaVuSans-108"/>
     <use x="689.466797" xlink:href="#DejaVuSans-117"/>
     <use x="752.845703" xlink:href="#DejaVuSans-109"/>
     <use x="850.257812" xlink:href="#DejaVuSans-101"/>
     <use x="911.78125" xlink:href="#DejaVuSans-32"/>
     <use x="943.568359" xlink:href="#DejaVuSans-70"/>
     <use x="993.837891" xlink:href="#DejaVuSans-114"/>
     <use x="1034.951172" xlink:href="#DejaVuSans-97"/>
     <use x="1096.230469" xlink:href="#DejaVuSans-99"/>
     <use x="1151.210938" xlink:href="#DejaVuSans-116"/>
     <use x="1190.419922" xlink:href="#DejaVuSans-105"/>
     <use x="1218.203125" xlink:href="#DejaVuSans-111"/>
     <use x="1279.384766" xlink:href="#DejaVuSans-110"/>
     <use x="1342.763672" xlink:href="#DejaVuSans-32"/>
     <use x="1374.550781" xlink:href="#DejaVuSans-97"/>
     <use x="1435.830078" xlink:href="#DejaVuSans-110"/>
     <use x="1499.208984" xlink:href="#DejaVuSans-100"/>
     <use x="1562.685547" xlink:href="#DejaVuSans-32"/>
     <use x="1594.472656" xlink:href="#DejaVuSans-82"/>
     <use x="1661.705078" xlink:href="#DejaVuSans-97"/>
     <use x="1722.984375" xlink:href="#DejaVuSans-100"/>
     <use x="1786.460938" xlink:href="#DejaVuSans-105"/>
     <use x="1814.244141" xlink:href="#DejaVuSans-117"/>
     <use x="1877.623047" xlink:href="#DejaVuSans-115"/>
     <use x="1929.722656" xlink:href="#DejaVuSans-32"/>
     <use x="1961.509766" xlink:href="#DejaVuSans-68"/>
     <use x="2038.511719" xlink:href="#DejaVuSans-105"/>
     <use x="2066.294922" xlink:href="#DejaVuSans-115"/>
     <use x="2118.394531" xlink:href="#DejaVuSans-116"/>
     <use x="2157.603516" xlink:href="#DejaVuSans-114"/>
     <use x="2198.716797" xlink:href="#DejaVuSans-105"/>
     <use x="2226.5" xlink:href="#DejaVuSans-98"/>
     <use x="2289.976562" xlink:href="#DejaVuSans-117"/>
     <use x="2353.355469" xlink:href="#DejaVuSans-116"/>
     <use x="2392.564453" xlink:href="#DejaVuSans-105"/>
     <use x="2420.347656" xlink:href="#DejaVuSans-111"/>
     <use x="2481.529297" xlink:href="#DejaVuSans-110"/>
    </g>
   </g>
  </g>
  <g id="legend_1">
   <g id="patch_71">
    <path d="M 369.959375 37.35625 
L 497 37.35625 
Q 499 37.35625 499 35.35625 
L 499 7 
Q 499 5 497 5 
L 369.959375 5 
Q 367.959375 5 367.959375 7 
L 367.959375 35.35625 
Q 367.959375 37.35625 369.959375 37.35625 
z
" style="fill:#ffffff;opacity:0.8;stroke:#cccccc;stroke-linejoin:miter;"/>
   </g>
   <g id="patch_72">
    <path d="M 371.959375 16.598437 
L 391.959375 16.598437 
L 391.959375 9.598437 
L 371.959375 9.598437 
z
" style="fill:#808080;stroke:#000000;stroke-linejoin:miter;"/>
   </g>
   <g id="text_31">
    <!-- Radius Distribution -->
    <g transform="translate(399.959375 16.598437)scale(0.1 -0.1)">
     <use xlink:href="#DejaVuSans-82"/>
     <use x="67.232422" xlink:href="#DejaVuSans-97"/>
     <use x="128.511719" xlink:href="#DejaVuSans-100"/>
     <use x="191.988281" xlink:href="#DejaVuSans-105"/>
     <use x="219.771484" xlink:href="#DejaVuSans-117"/>
     <use x="283.150391" xlink:href="#DejaVuSans-115"/>
     <use x="335.25" xlink:href="#DejaVuSans-32"/>
     <use x="367.037109" xlink:href="#DejaVuSans-68"/>
     <use x="444.039062" xlink:href="#DejaVuSans-105"/>
     <use x="471.822266" xlink:href="#DejaVuSans-115"/>
     <use x="523.921875" xlink:href="#DejaVuSans-116"/>
     <use x="563.130859" xlink:href="#DejaVuSans-114"/>
     <use x="604.244141" xlink:href="#DejaVuSans-105"/>
     <use x="632.027344" xlink:href="#DejaVuSans-98"/>
     <use x="695.503906" xlink:href="#DejaVuSans-117"/>
     <use x="758.882812" xlink:href="#DejaVuSans-116"/>
     <use x="798.091797" xlink:href="#DejaVuSans-105"/>
     <use x="825.875" xlink:href="#DejaVuSans-111"/>
     <use x="887.056641" xlink:href="#DejaVuSans-110"/>
    </g>
   </g>
   <g id="patch_73">
    <path d="M 371.959375 31.276563 
L 391.959375 31.276563 
L 391.959375 24.276563 
L 371.959375 24.276563 
z
" style="fill:#add8e6;opacity:0.5;stroke:#000000;stroke-linejoin:miter;"/>
   </g>
   <g id="text_32">
    <!-- Volume Fraction -->
    <g transform="translate(399.959375 31.276563)scale(0.1 -0.1)">
     <use xlink:href="#DejaVuSans-86"/>
     <use x="60.658203" xlink:href="#DejaVuSans-111"/>
     <use x="121.839844" xlink:href="#DejaVuSans-108"/>
     <use x="149.623047" xlink:href="#DejaVuSans-117"/>
     <use x="213.001953" xlink:href="#DejaVuSans-109"/>
     <use x="310.414062" xlink:href="#DejaVuSans-101"/>
     <use x="371.9375" xlink:href="#DejaVuSans-32"/>
     <use x="403.724609" xlink:href="#DejaVuSans-70"/>
     <use x="453.994141" xlink:href="#DejaVuSans-114"/>
     <use x="495.107422" xlink:href="#DejaVuSans-97"/>
     <use x="556.386719" xlink:href="#DejaVuSans-99"/>
     <use x="611.367188" xlink:href="#DejaVuSans-116"/>
     <use x="650.576172" xlink:href="#DejaVuSans-105"/>
     <use x="678.359375" xlink:href="#DejaVuSans-111"/>
     <use x="739.541016" xlink:href="#DejaVuSans-110"/>
    </g>
   </g>
  </g>
 </g>
 <defs>
  <clipPath id="pbb9347b06c">
   <rect height="291.4" width="389.525" x="60.425" y="26.8"/>
  </clipPath>
 </defs>
</svg>
