<?xml version="1.0" encoding="utf-8" standalone="no"?>
<!DOCTYPE svg PUBLIC "-//W3C//DTD SVG 1.1//EN"
  "http://www.w3.org/Graphics/SVG/1.1/DTD/svg11.dtd">
<!-- Created with matplotlib (https://matplotlib.org/) -->
<svg height="288pt" version="1.1" viewBox="0 0 432 288" width="432pt" xmlns="http://www.w3.org/2000/svg" xmlns:xlink="http://www.w3.org/1999/xlink">
 <defs>
  <style type="text/css">
*{stroke-linecap:butt;stroke-linejoin:round;}
  </style>
 </defs>
 <g id="figure_1">
  <g id="patch_1">
   <path d="M 0 288 
L 432 288 
L 432 0 
L 0 0 
z
" style="fill:#ffffff;"/>
  </g>
  <g id="axes_1">
   <g id="patch_2">
    <path d="M 72.05 237.2 
L 421.2 237.2 
L 421.2 16.3 
L 72.05 16.3 
z
" style="fill:#ffffff;"/>
   </g>
   <g id="matplotlib.axis_1">
    <g id="xtick_1">
     <g id="line2d_1">
      <defs>
       <path d="M 0 0 
L 0 3.5 
" id="mc88f3ad76c" style="stroke:#000000;stroke-width:0.8;"/>
      </defs>
      <g>
       <use style="stroke:#000000;stroke-width:0.8;" x="72.05" xlink:href="#mc88f3ad76c" y="237.2"/>
      </g>
     </g>
     <g id="text_1">
      <!-- 0 -->
      <defs>
       <path d="M 31.78125 66.40625 
Q 24.171875 66.40625 20.328125 58.90625 
Q 16.5 51.421875 16.5 36.375 
Q 16.5 21.390625 20.328125 13.890625 
Q 24.171875 6.390625 31.78125 6.390625 
Q 39.453125 6.390625 43.28125 13.890625 
Q 47.125 21.390625 47.125 36.375 
Q 47.125 51.421875 43.28125 58.90625 
Q 39.453125 66.40625 31.78125 66.40625 
z
M 31.78125 74.21875 
Q 44.046875 74.21875 50.515625 64.515625 
Q 56.984375 54.828125 56.984375 36.375 
Q 56.984375 17.96875 50.515625 8.265625 
Q 44.046875 -1.421875 31.78125 -1.421875 
Q 19.53125 -1.421875 13.0625 8.265625 
Q 6.59375 17.96875 6.59375 36.375 
Q 6.59375 54.828125 13.0625 64.515625 
Q 19.53125 74.21875 31.78125 74.21875 
z
" id="DejaVuSans-48"/>
      </defs>
      <g transform="translate(67.59625 254.837812)scale(0.14 -0.14)">
       <use xlink:href="#DejaVuSans-48"/>
      </g>
     </g>
    </g>
    <g id="xtick_2">
     <g id="line2d_2">
      <g>
       <use style="stroke:#000000;stroke-width:0.8;" x="103.790909" xlink:href="#mc88f3ad76c" y="237.2"/>
      </g>
     </g>
     <g id="text_2">
      <!-- 1 -->
      <defs>
       <path d="M 12.40625 8.296875 
L 28.515625 8.296875 
L 28.515625 63.921875 
L 10.984375 60.40625 
L 10.984375 69.390625 
L 28.421875 72.90625 
L 38.28125 72.90625 
L 38.28125 8.296875 
L 54.390625 8.296875 
L 54.390625 0 
L 12.40625 0 
z
" id="DejaVuSans-49"/>
      </defs>
      <g transform="translate(99.337159 254.837812)scale(0.14 -0.14)">
       <use xlink:href="#DejaVuSans-49"/>
      </g>
     </g>
    </g>
    <g id="xtick_3">
     <g id="line2d_3">
      <g>
       <use style="stroke:#000000;stroke-width:0.8;" x="135.531818" xlink:href="#mc88f3ad76c" y="237.2"/>
      </g>
     </g>
     <g id="text_3">
      <!-- 2 -->
      <defs>
       <path d="M 19.1875 8.296875 
L 53.609375 8.296875 
L 53.609375 0 
L 7.328125 0 
L 7.328125 8.296875 
Q 12.9375 14.109375 22.625 23.890625 
Q 32.328125 33.6875 34.8125 36.53125 
Q 39.546875 41.84375 41.421875 45.53125 
Q 43.3125 49.21875 43.3125 52.78125 
Q 43.3125 58.59375 39.234375 62.25 
Q 35.15625 65.921875 28.609375 65.921875 
Q 23.96875 65.921875 18.8125 64.3125 
Q 13.671875 62.703125 7.8125 59.421875 
L 7.8125 69.390625 
Q 13.765625 71.78125 18.9375 73 
Q 24.125 74.21875 28.421875 74.21875 
Q 39.75 74.21875 46.484375 68.546875 
Q 53.21875 62.890625 53.21875 53.421875 
Q 53.21875 48.921875 51.53125 44.890625 
Q 49.859375 40.875 45.40625 35.40625 
Q 44.1875 33.984375 37.640625 27.21875 
Q 31.109375 20.453125 19.1875 8.296875 
z
" id="DejaVuSans-50"/>
      </defs>
      <g transform="translate(131.078068 254.837812)scale(0.14 -0.14)">
       <use xlink:href="#DejaVuSans-50"/>
      </g>
     </g>
    </g>
    <g id="xtick_4">
     <g id="line2d_4">
      <g>
       <use style="stroke:#000000;stroke-width:0.8;" x="167.272727" xlink:href="#mc88f3ad76c" y="237.2"/>
      </g>
     </g>
     <g id="text_4">
      <!-- 3 -->
      <defs>
       <path d="M 40.578125 39.3125 
Q 47.65625 37.796875 51.625 33 
Q 55.609375 28.21875 55.609375 21.1875 
Q 55.609375 10.40625 48.1875 4.484375 
Q 40.765625 -1.421875 27.09375 -1.421875 
Q 22.515625 -1.421875 17.65625 -0.515625 
Q 12.796875 0.390625 7.625 2.203125 
L 7.625 11.71875 
Q 11.71875 9.328125 16.59375 8.109375 
Q 21.484375 6.890625 26.8125 6.890625 
Q 36.078125 6.890625 40.9375 10.546875 
Q 45.796875 14.203125 45.796875 21.1875 
Q 45.796875 27.640625 41.28125 31.265625 
Q 36.765625 34.90625 28.71875 34.90625 
L 20.21875 34.90625 
L 20.21875 43.015625 
L 29.109375 43.015625 
Q 36.375 43.015625 40.234375 45.921875 
Q 44.09375 48.828125 44.09375 54.296875 
Q 44.09375 59.90625 40.109375 62.90625 
Q 36.140625 65.921875 28.71875 65.921875 
Q 24.65625 65.921875 20.015625 65.03125 
Q 15.375 64.15625 9.8125 62.3125 
L 9.8125 71.09375 
Q 15.4375 72.65625 20.34375 73.4375 
Q 25.25 74.21875 29.59375 74.21875 
Q 40.828125 74.21875 47.359375 69.109375 
Q 53.90625 64.015625 53.90625 55.328125 
Q 53.90625 49.265625 50.4375 45.09375 
Q 46.96875 40.921875 40.578125 39.3125 
z
" id="DejaVuSans-51"/>
      </defs>
      <g transform="translate(162.818977 254.837812)scale(0.14 -0.14)">
       <use xlink:href="#DejaVuSans-51"/>
      </g>
     </g>
    </g>
    <g id="xtick_5">
     <g id="line2d_5">
      <g>
       <use style="stroke:#000000;stroke-width:0.8;" x="199.013636" xlink:href="#mc88f3ad76c" y="237.2"/>
      </g>
     </g>
     <g id="text_5">
      <!-- 4 -->
      <defs>
       <path d="M 37.796875 64.3125 
L 12.890625 25.390625 
L 37.796875 25.390625 
z
M 35.203125 72.90625 
L 47.609375 72.90625 
L 47.609375 25.390625 
L 58.015625 25.390625 
L 58.015625 17.1875 
L 47.609375 17.1875 
L 47.609375 0 
L 37.796875 0 
L 37.796875 17.1875 
L 4.890625 17.1875 
L 4.890625 26.703125 
z
" id="DejaVuSans-52"/>
      </defs>
      <g transform="translate(194.559886 254.837812)scale(0.14 -0.14)">
       <use xlink:href="#DejaVuSans-52"/>
      </g>
     </g>
    </g>
    <g id="xtick_6">
     <g id="line2d_6">
      <g>
       <use style="stroke:#000000;stroke-width:0.8;" x="230.754545" xlink:href="#mc88f3ad76c" y="237.2"/>
      </g>
     </g>
     <g id="text_6">
      <!-- 5 -->
      <defs>
       <path d="M 10.796875 72.90625 
L 49.515625 72.90625 
L 49.515625 64.59375 
L 19.828125 64.59375 
L 19.828125 46.734375 
Q 21.96875 47.46875 24.109375 47.828125 
Q 26.265625 48.1875 28.421875 48.1875 
Q 40.625 48.1875 47.75 41.5 
Q 54.890625 34.8125 54.890625 23.390625 
Q 54.890625 11.625 47.5625 5.09375 
Q 40.234375 -1.421875 26.90625 -1.421875 
Q 22.3125 -1.421875 17.546875 -0.640625 
Q 12.796875 0.140625 7.71875 1.703125 
L 7.71875 11.625 
Q 12.109375 9.234375 16.796875 8.0625 
Q 21.484375 6.890625 26.703125 6.890625 
Q 35.15625 6.890625 40.078125 11.328125 
Q 45.015625 15.765625 45.015625 23.390625 
Q 45.015625 31 40.078125 35.4375 
Q 35.15625 39.890625 26.703125 39.890625 
Q 22.75 39.890625 18.8125 39.015625 
Q 14.890625 38.140625 10.796875 36.28125 
z
" id="DejaVuSans-53"/>
      </defs>
      <g transform="translate(226.300795 254.837812)scale(0.14 -0.14)">
       <use xlink:href="#DejaVuSans-53"/>
      </g>
     </g>
    </g>
    <g id="xtick_7">
     <g id="line2d_7">
      <g>
       <use style="stroke:#000000;stroke-width:0.8;" x="262.495455" xlink:href="#mc88f3ad76c" y="237.2"/>
      </g>
     </g>
     <g id="text_7">
      <!-- 6 -->
      <defs>
       <path d="M 33.015625 40.375 
Q 26.375 40.375 22.484375 35.828125 
Q 18.609375 31.296875 18.609375 23.390625 
Q 18.609375 15.53125 22.484375 10.953125 
Q 26.375 6.390625 33.015625 6.390625 
Q 39.65625 6.390625 43.53125 10.953125 
Q 47.40625 15.53125 47.40625 23.390625 
Q 47.40625 31.296875 43.53125 35.828125 
Q 39.65625 40.375 33.015625 40.375 
z
M 52.59375 71.296875 
L 52.59375 62.3125 
Q 48.875 64.0625 45.09375 64.984375 
Q 41.3125 65.921875 37.59375 65.921875 
Q 27.828125 65.921875 22.671875 59.328125 
Q 17.53125 52.734375 16.796875 39.40625 
Q 19.671875 43.65625 24.015625 45.921875 
Q 28.375 48.1875 33.59375 48.1875 
Q 44.578125 48.1875 50.953125 41.515625 
Q 57.328125 34.859375 57.328125 23.390625 
Q 57.328125 12.15625 50.6875 5.359375 
Q 44.046875 -1.421875 33.015625 -1.421875 
Q 20.359375 -1.421875 13.671875 8.265625 
Q 6.984375 17.96875 6.984375 36.375 
Q 6.984375 53.65625 15.1875 63.9375 
Q 23.390625 74.21875 37.203125 74.21875 
Q 40.921875 74.21875 44.703125 73.484375 
Q 48.484375 72.75 52.59375 71.296875 
z
" id="DejaVuSans-54"/>
      </defs>
      <g transform="translate(258.041705 254.837812)scale(0.14 -0.14)">
       <use xlink:href="#DejaVuSans-54"/>
      </g>
     </g>
    </g>
    <g id="xtick_8">
     <g id="line2d_8">
      <g>
       <use style="stroke:#000000;stroke-width:0.8;" x="294.236364" xlink:href="#mc88f3ad76c" y="237.2"/>
      </g>
     </g>
     <g id="text_8">
      <!-- 7 -->
      <defs>
       <path d="M 8.203125 72.90625 
L 55.078125 72.90625 
L 55.078125 68.703125 
L 28.609375 0 
L 18.3125 0 
L 43.21875 64.59375 
L 8.203125 64.59375 
z
" id="DejaVuSans-55"/>
      </defs>
      <g transform="translate(289.782614 254.837812)scale(0.14 -0.14)">
       <use xlink:href="#DejaVuSans-55"/>
      </g>
     </g>
    </g>
    <g id="xtick_9">
     <g id="line2d_9">
      <g>
       <use style="stroke:#000000;stroke-width:0.8;" x="325.977273" xlink:href="#mc88f3ad76c" y="237.2"/>
      </g>
     </g>
     <g id="text_9">
      <!-- 8 -->
      <defs>
       <path d="M 31.78125 34.625 
Q 24.75 34.625 20.71875 30.859375 
Q 16.703125 27.09375 16.703125 20.515625 
Q 16.703125 13.921875 20.71875 10.15625 
Q 24.75 6.390625 31.78125 6.390625 
Q 38.8125 6.390625 42.859375 10.171875 
Q 46.921875 13.96875 46.921875 20.515625 
Q 46.921875 27.09375 42.890625 30.859375 
Q 38.875 34.625 31.78125 34.625 
z
M 21.921875 38.8125 
Q 15.578125 40.375 12.03125 44.71875 
Q 8.5 49.078125 8.5 55.328125 
Q 8.5 64.0625 14.71875 69.140625 
Q 20.953125 74.21875 31.78125 74.21875 
Q 42.671875 74.21875 48.875 69.140625 
Q 55.078125 64.0625 55.078125 55.328125 
Q 55.078125 49.078125 51.53125 44.71875 
Q 48 40.375 41.703125 38.8125 
Q 48.828125 37.15625 52.796875 32.3125 
Q 56.78125 27.484375 56.78125 20.515625 
Q 56.78125 9.90625 50.3125 4.234375 
Q 43.84375 -1.421875 31.78125 -1.421875 
Q 19.734375 -1.421875 13.25 4.234375 
Q 6.78125 9.90625 6.78125 20.515625 
Q 6.78125 27.484375 10.78125 32.3125 
Q 14.796875 37.15625 21.921875 38.8125 
z
M 18.3125 54.390625 
Q 18.3125 48.734375 21.84375 45.5625 
Q 25.390625 42.390625 31.78125 42.390625 
Q 38.140625 42.390625 41.71875 45.5625 
Q 45.3125 48.734375 45.3125 54.390625 
Q 45.3125 60.0625 41.71875 63.234375 
Q 38.140625 66.40625 31.78125 66.40625 
Q 25.390625 66.40625 21.84375 63.234375 
Q 18.3125 60.0625 18.3125 54.390625 
z
" id="DejaVuSans-56"/>
      </defs>
      <g transform="translate(321.523523 254.837812)scale(0.14 -0.14)">
       <use xlink:href="#DejaVuSans-56"/>
      </g>
     </g>
    </g>
    <g id="xtick_10">
     <g id="line2d_10">
      <g>
       <use style="stroke:#000000;stroke-width:0.8;" x="357.718182" xlink:href="#mc88f3ad76c" y="237.2"/>
      </g>
     </g>
     <g id="text_10">
      <!-- 9 -->
      <defs>
       <path d="M 10.984375 1.515625 
L 10.984375 10.5 
Q 14.703125 8.734375 18.5 7.8125 
Q 22.3125 6.890625 25.984375 6.890625 
Q 35.75 6.890625 40.890625 13.453125 
Q 46.046875 20.015625 46.78125 33.40625 
Q 43.953125 29.203125 39.59375 26.953125 
Q 35.25 24.703125 29.984375 24.703125 
Q 19.046875 24.703125 12.671875 31.3125 
Q 6.296875 37.9375 6.296875 49.421875 
Q 6.296875 60.640625 12.9375 67.421875 
Q 19.578125 74.21875 30.609375 74.21875 
Q 43.265625 74.21875 49.921875 64.515625 
Q 56.59375 54.828125 56.59375 36.375 
Q 56.59375 19.140625 48.40625 8.859375 
Q 40.234375 -1.421875 26.421875 -1.421875 
Q 22.703125 -1.421875 18.890625 -0.6875 
Q 15.09375 0.046875 10.984375 1.515625 
z
M 30.609375 32.421875 
Q 37.25 32.421875 41.125 36.953125 
Q 45.015625 41.5 45.015625 49.421875 
Q 45.015625 57.28125 41.125 61.84375 
Q 37.25 66.40625 30.609375 66.40625 
Q 23.96875 66.40625 20.09375 61.84375 
Q 16.21875 57.28125 16.21875 49.421875 
Q 16.21875 41.5 20.09375 36.953125 
Q 23.96875 32.421875 30.609375 32.421875 
z
" id="DejaVuSans-57"/>
      </defs>
      <g transform="translate(353.264432 254.837812)scale(0.14 -0.14)">
       <use xlink:href="#DejaVuSans-57"/>
      </g>
     </g>
    </g>
    <g id="xtick_11">
     <g id="line2d_11">
      <g>
       <use style="stroke:#000000;stroke-width:0.8;" x="389.459091" xlink:href="#mc88f3ad76c" y="237.2"/>
      </g>
     </g>
     <g id="text_11">
      <!-- 10 -->
      <g transform="translate(380.551591 254.837812)scale(0.14 -0.14)">
       <use xlink:href="#DejaVuSans-49"/>
       <use x="63.623047" xlink:href="#DejaVuSans-48"/>
      </g>
     </g>
    </g>
    <g id="text_12">
     <!-- Time (hours) -->
     <defs>
      <path d="M -0.296875 72.90625 
L 61.375 72.90625 
L 61.375 64.59375 
L 35.5 64.59375 
L 35.5 0 
L 25.59375 0 
L 25.59375 64.59375 
L -0.296875 64.59375 
z
" id="DejaVuSans-84"/>
      <path d="M 9.421875 54.6875 
L 18.40625 54.6875 
L 18.40625 0 
L 9.421875 0 
z
M 9.421875 75.984375 
L 18.40625 75.984375 
L 18.40625 64.59375 
L 9.421875 64.59375 
z
" id="DejaVuSans-105"/>
      <path d="M 52 44.1875 
Q 55.375 50.25 60.0625 53.125 
Q 64.75 56 71.09375 56 
Q 79.640625 56 84.28125 50.015625 
Q 88.921875 44.046875 88.921875 33.015625 
L 88.921875 0 
L 79.890625 0 
L 79.890625 32.71875 
Q 79.890625 40.578125 77.09375 44.375 
Q 74.3125 48.1875 68.609375 48.1875 
Q 61.625 48.1875 57.5625 43.546875 
Q 53.515625 38.921875 53.515625 30.90625 
L 53.515625 0 
L 44.484375 0 
L 44.484375 32.71875 
Q 44.484375 40.625 41.703125 44.40625 
Q 38.921875 48.1875 33.109375 48.1875 
Q 26.21875 48.1875 22.15625 43.53125 
Q 18.109375 38.875 18.109375 30.90625 
L 18.109375 0 
L 9.078125 0 
L 9.078125 54.6875 
L 18.109375 54.6875 
L 18.109375 46.1875 
Q 21.1875 51.21875 25.484375 53.609375 
Q 29.78125 56 35.6875 56 
Q 41.65625 56 45.828125 52.96875 
Q 50 49.953125 52 44.1875 
z
" id="DejaVuSans-109"/>
      <path d="M 56.203125 29.59375 
L 56.203125 25.203125 
L 14.890625 25.203125 
Q 15.484375 15.921875 20.484375 11.0625 
Q 25.484375 6.203125 34.421875 6.203125 
Q 39.59375 6.203125 44.453125 7.46875 
Q 49.3125 8.734375 54.109375 11.28125 
L 54.109375 2.78125 
Q 49.265625 0.734375 44.1875 -0.34375 
Q 39.109375 -1.421875 33.890625 -1.421875 
Q 20.796875 -1.421875 13.15625 6.1875 
Q 5.515625 13.8125 5.515625 26.8125 
Q 5.515625 40.234375 12.765625 48.109375 
Q 20.015625 56 32.328125 56 
Q 43.359375 56 49.78125 48.890625 
Q 56.203125 41.796875 56.203125 29.59375 
z
M 47.21875 32.234375 
Q 47.125 39.59375 43.09375 43.984375 
Q 39.0625 48.390625 32.421875 48.390625 
Q 24.90625 48.390625 20.390625 44.140625 
Q 15.875 39.890625 15.1875 32.171875 
z
" id="DejaVuSans-101"/>
      <path id="DejaVuSans-32"/>
      <path d="M 31 75.875 
Q 24.46875 64.65625 21.28125 53.65625 
Q 18.109375 42.671875 18.109375 31.390625 
Q 18.109375 20.125 21.3125 9.0625 
Q 24.515625 -2 31 -13.1875 
L 23.1875 -13.1875 
Q 15.875 -1.703125 12.234375 9.375 
Q 8.59375 20.453125 8.59375 31.390625 
Q 8.59375 42.28125 12.203125 53.3125 
Q 15.828125 64.359375 23.1875 75.875 
z
" id="DejaVuSans-40"/>
      <path d="M 54.890625 33.015625 
L 54.890625 0 
L 45.90625 0 
L 45.90625 32.71875 
Q 45.90625 40.484375 42.875 44.328125 
Q 39.84375 48.1875 33.796875 48.1875 
Q 26.515625 48.1875 22.3125 43.546875 
Q 18.109375 38.921875 18.109375 30.90625 
L 18.109375 0 
L 9.078125 0 
L 9.078125 75.984375 
L 18.109375 75.984375 
L 18.109375 46.1875 
Q 21.34375 51.125 25.703125 53.5625 
Q 30.078125 56 35.796875 56 
Q 45.21875 56 50.046875 50.171875 
Q 54.890625 44.34375 54.890625 33.015625 
z
" id="DejaVuSans-104"/>
      <path d="M 30.609375 48.390625 
Q 23.390625 48.390625 19.1875 42.75 
Q 14.984375 37.109375 14.984375 27.296875 
Q 14.984375 17.484375 19.15625 11.84375 
Q 23.34375 6.203125 30.609375 6.203125 
Q 37.796875 6.203125 41.984375 11.859375 
Q 46.1875 17.53125 46.1875 27.296875 
Q 46.1875 37.015625 41.984375 42.703125 
Q 37.796875 48.390625 30.609375 48.390625 
z
M 30.609375 56 
Q 42.328125 56 49.015625 48.375 
Q 55.71875 40.765625 55.71875 27.296875 
Q 55.71875 13.875 49.015625 6.21875 
Q 42.328125 -1.421875 30.609375 -1.421875 
Q 18.84375 -1.421875 12.171875 6.21875 
Q 5.515625 13.875 5.515625 27.296875 
Q 5.515625 40.765625 12.171875 48.375 
Q 18.84375 56 30.609375 56 
z
" id="DejaVuSans-111"/>
      <path d="M 8.5 21.578125 
L 8.5 54.6875 
L 17.484375 54.6875 
L 17.484375 21.921875 
Q 17.484375 14.15625 20.5 10.265625 
Q 23.53125 6.390625 29.59375 6.390625 
Q 36.859375 6.390625 41.078125 11.03125 
Q 45.3125 15.671875 45.3125 23.6875 
L 45.3125 54.6875 
L 54.296875 54.6875 
L 54.296875 0 
L 45.3125 0 
L 45.3125 8.40625 
Q 42.046875 3.421875 37.71875 1 
Q 33.40625 -1.421875 27.6875 -1.421875 
Q 18.265625 -1.421875 13.375 4.4375 
Q 8.5 10.296875 8.5 21.578125 
z
M 31.109375 56 
z
" id="DejaVuSans-117"/>
      <path d="M 41.109375 46.296875 
Q 39.59375 47.171875 37.8125 47.578125 
Q 36.03125 48 33.890625 48 
Q 26.265625 48 22.1875 43.046875 
Q 18.109375 38.09375 18.109375 28.8125 
L 18.109375 0 
L 9.078125 0 
L 9.078125 54.6875 
L 18.109375 54.6875 
L 18.109375 46.1875 
Q 20.953125 51.171875 25.484375 53.578125 
Q 30.03125 56 36.53125 56 
Q 37.453125 56 38.578125 55.875 
Q 39.703125 55.765625 41.0625 55.515625 
z
" id="DejaVuSans-114"/>
      <path d="M 44.28125 53.078125 
L 44.28125 44.578125 
Q 40.484375 46.53125 36.375 47.5 
Q 32.28125 48.484375 27.875 48.484375 
Q 21.1875 48.484375 17.84375 46.4375 
Q 14.5 44.390625 14.5 40.28125 
Q 14.5 37.15625 16.890625 35.375 
Q 19.28125 33.59375 26.515625 31.984375 
L 29.59375 31.296875 
Q 39.15625 29.25 43.1875 25.515625 
Q 47.21875 21.78125 47.21875 15.09375 
Q 47.21875 7.46875 41.1875 3.015625 
Q 35.15625 -1.421875 24.609375 -1.421875 
Q 20.21875 -1.421875 15.453125 -0.5625 
Q 10.6875 0.296875 5.421875 2 
L 5.421875 11.28125 
Q 10.40625 8.6875 15.234375 7.390625 
Q 20.0625 6.109375 24.8125 6.109375 
Q 31.15625 6.109375 34.5625 8.28125 
Q 37.984375 10.453125 37.984375 14.40625 
Q 37.984375 18.0625 35.515625 20.015625 
Q 33.0625 21.96875 24.703125 23.78125 
L 21.578125 24.515625 
Q 13.234375 26.265625 9.515625 29.90625 
Q 5.8125 33.546875 5.8125 39.890625 
Q 5.8125 47.609375 11.28125 51.796875 
Q 16.75 56 26.8125 56 
Q 31.78125 56 36.171875 55.265625 
Q 40.578125 54.546875 44.28125 53.078125 
z
" id="DejaVuSans-115"/>
      <path d="M 8.015625 75.875 
L 15.828125 75.875 
Q 23.140625 64.359375 26.78125 53.3125 
Q 30.421875 42.28125 30.421875 31.390625 
Q 30.421875 20.453125 26.78125 9.375 
Q 23.140625 -1.703125 15.828125 -13.1875 
L 8.015625 -13.1875 
Q 14.5 -2 17.703125 9.0625 
Q 20.90625 20.125 20.90625 31.390625 
Q 20.90625 42.671875 17.703125 53.65625 
Q 14.5 64.65625 8.015625 75.875 
z
" id="DejaVuSans-41"/>
     </defs>
     <g transform="translate(195.775 273.906875)scale(0.16 -0.16)">
      <use xlink:href="#DejaVuSans-84"/>
      <use x="57.958984" xlink:href="#DejaVuSans-105"/>
      <use x="85.742188" xlink:href="#DejaVuSans-109"/>
      <use x="183.154297" xlink:href="#DejaVuSans-101"/>
      <use x="244.677734" xlink:href="#DejaVuSans-32"/>
      <use x="276.464844" xlink:href="#DejaVuSans-40"/>
      <use x="315.478516" xlink:href="#DejaVuSans-104"/>
      <use x="378.857422" xlink:href="#DejaVuSans-111"/>
      <use x="440.039062" xlink:href="#DejaVuSans-117"/>
      <use x="503.417969" xlink:href="#DejaVuSans-114"/>
      <use x="544.53125" xlink:href="#DejaVuSans-115"/>
      <use x="596.630859" xlink:href="#DejaVuSans-41"/>
     </g>
    </g>
   </g>
   <g id="matplotlib.axis_2">
    <g id="ytick_1">
     <g id="line2d_12">
      <defs>
       <path d="M 0 0 
L -3.5 0 
" id="m340e56e8b1" style="stroke:#000000;stroke-width:0.8;"/>
      </defs>
      <g>
       <use style="stroke:#000000;stroke-width:0.8;" x="72.05" xlink:href="#m340e56e8b1" y="237.2"/>
      </g>
     </g>
     <g id="text_13">
      <!-- 0 -->
      <g transform="translate(56.1425 242.518906)scale(0.14 -0.14)">
       <use xlink:href="#DejaVuSans-48"/>
      </g>
     </g>
    </g>
    <g id="ytick_2">
     <g id="line2d_13">
      <g>
       <use style="stroke:#000000;stroke-width:0.8;" x="72.05" xlink:href="#m340e56e8b1" y="212.655556"/>
      </g>
     </g>
     <g id="text_14">
      <!-- 500 -->
      <g transform="translate(38.3275 217.974462)scale(0.14 -0.14)">
       <use xlink:href="#DejaVuSans-53"/>
       <use x="63.623047" xlink:href="#DejaVuSans-48"/>
       <use x="127.246094" xlink:href="#DejaVuSans-48"/>
      </g>
     </g>
    </g>
    <g id="ytick_3">
     <g id="line2d_14">
      <g>
       <use style="stroke:#000000;stroke-width:0.8;" x="72.05" xlink:href="#m340e56e8b1" y="188.111111"/>
      </g>
     </g>
     <g id="text_15">
      <!-- 1000 -->
      <g transform="translate(29.42 193.430017)scale(0.14 -0.14)">
       <use xlink:href="#DejaVuSans-49"/>
       <use x="63.623047" xlink:href="#DejaVuSans-48"/>
       <use x="127.246094" xlink:href="#DejaVuSans-48"/>
       <use x="190.869141" xlink:href="#DejaVuSans-48"/>
      </g>
     </g>
    </g>
    <g id="ytick_4">
     <g id="line2d_15">
      <g>
       <use style="stroke:#000000;stroke-width:0.8;" x="72.05" xlink:href="#m340e56e8b1" y="163.566667"/>
      </g>
     </g>
     <g id="text_16">
      <!-- 1500 -->
      <g transform="translate(29.42 168.885573)scale(0.14 -0.14)">
       <use xlink:href="#DejaVuSans-49"/>
       <use x="63.623047" xlink:href="#DejaVuSans-53"/>
       <use x="127.246094" xlink:href="#DejaVuSans-48"/>
       <use x="190.869141" xlink:href="#DejaVuSans-48"/>
      </g>
     </g>
    </g>
    <g id="ytick_5">
     <g id="line2d_16">
      <g>
       <use style="stroke:#000000;stroke-width:0.8;" x="72.05" xlink:href="#m340e56e8b1" y="139.022222"/>
      </g>
     </g>
     <g id="text_17">
      <!-- 2000 -->
      <g transform="translate(29.42 144.341128)scale(0.14 -0.14)">
       <use xlink:href="#DejaVuSans-50"/>
       <use x="63.623047" xlink:href="#DejaVuSans-48"/>
       <use x="127.246094" xlink:href="#DejaVuSans-48"/>
       <use x="190.869141" xlink:href="#DejaVuSans-48"/>
      </g>
     </g>
    </g>
    <g id="ytick_6">
     <g id="line2d_17">
      <g>
       <use style="stroke:#000000;stroke-width:0.8;" x="72.05" xlink:href="#m340e56e8b1" y="114.477778"/>
      </g>
     </g>
     <g id="text_18">
      <!-- 2500 -->
      <g transform="translate(29.42 119.796684)scale(0.14 -0.14)">
       <use xlink:href="#DejaVuSans-50"/>
       <use x="63.623047" xlink:href="#DejaVuSans-53"/>
       <use x="127.246094" xlink:href="#DejaVuSans-48"/>
       <use x="190.869141" xlink:href="#DejaVuSans-48"/>
      </g>
     </g>
    </g>
    <g id="ytick_7">
     <g id="line2d_18">
      <g>
       <use style="stroke:#000000;stroke-width:0.8;" x="72.05" xlink:href="#m340e56e8b1" y="89.933333"/>
      </g>
     </g>
     <g id="text_19">
      <!-- 3000 -->
      <g transform="translate(29.42 95.25224)scale(0.14 -0.14)">
       <use xlink:href="#DejaVuSans-51"/>
       <use x="63.623047" xlink:href="#DejaVuSans-48"/>
       <use x="127.246094" xlink:href="#DejaVuSans-48"/>
       <use x="190.869141" xlink:href="#DejaVuSans-48"/>
      </g>
     </g>
    </g>
    <g id="ytick_8">
     <g id="line2d_19">
      <g>
       <use style="stroke:#000000;stroke-width:0.8;" x="72.05" xlink:href="#m340e56e8b1" y="65.388889"/>
      </g>
     </g>
     <g id="text_20">
      <!-- 3500 -->
      <g transform="translate(29.42 70.707795)scale(0.14 -0.14)">
       <use xlink:href="#DejaVuSans-51"/>
       <use x="63.623047" xlink:href="#DejaVuSans-53"/>
       <use x="127.246094" xlink:href="#DejaVuSans-48"/>
       <use x="190.869141" xlink:href="#DejaVuSans-48"/>
      </g>
     </g>
    </g>
    <g id="ytick_9">
     <g id="line2d_20">
      <g>
       <use style="stroke:#000000;stroke-width:0.8;" x="72.05" xlink:href="#m340e56e8b1" y="40.844444"/>
      </g>
     </g>
     <g id="text_21">
      <!-- 4000 -->
      <g transform="translate(29.42 46.163351)scale(0.14 -0.14)">
       <use xlink:href="#DejaVuSans-52"/>
       <use x="63.623047" xlink:href="#DejaVuSans-48"/>
       <use x="127.246094" xlink:href="#DejaVuSans-48"/>
       <use x="190.869141" xlink:href="#DejaVuSans-48"/>
      </g>
     </g>
    </g>
    <g id="ytick_10">
     <g id="line2d_21">
      <g>
       <use style="stroke:#000000;stroke-width:0.8;" x="72.05" xlink:href="#m340e56e8b1" y="16.3"/>
      </g>
     </g>
     <g id="text_22">
      <!-- 4500 -->
      <g transform="translate(29.42 21.618906)scale(0.14 -0.14)">
       <use xlink:href="#DejaVuSans-52"/>
       <use x="63.623047" xlink:href="#DejaVuSans-53"/>
       <use x="127.246094" xlink:href="#DejaVuSans-48"/>
       <use x="190.869141" xlink:href="#DejaVuSans-48"/>
      </g>
     </g>
    </g>
    <g id="text_23">
     <!-- mCherry fluorescence (a.u.) -->
     <defs>
      <path d="M 64.40625 67.28125 
L 64.40625 56.890625 
Q 59.421875 61.53125 53.78125 63.8125 
Q 48.140625 66.109375 41.796875 66.109375 
Q 29.296875 66.109375 22.65625 58.46875 
Q 16.015625 50.828125 16.015625 36.375 
Q 16.015625 21.96875 22.65625 14.328125 
Q 29.296875 6.6875 41.796875 6.6875 
Q 48.140625 6.6875 53.78125 8.984375 
Q 59.421875 11.28125 64.40625 15.921875 
L 64.40625 5.609375 
Q 59.234375 2.09375 53.4375 0.328125 
Q 47.65625 -1.421875 41.21875 -1.421875 
Q 24.65625 -1.421875 15.125 8.703125 
Q 5.609375 18.84375 5.609375 36.375 
Q 5.609375 53.953125 15.125 64.078125 
Q 24.65625 74.21875 41.21875 74.21875 
Q 47.75 74.21875 53.53125 72.484375 
Q 59.328125 70.75 64.40625 67.28125 
z
" id="DejaVuSans-67"/>
      <path d="M 32.171875 -5.078125 
Q 28.375 -14.84375 24.75 -17.8125 
Q 21.140625 -20.796875 15.09375 -20.796875 
L 7.90625 -20.796875 
L 7.90625 -13.28125 
L 13.1875 -13.28125 
Q 16.890625 -13.28125 18.9375 -11.515625 
Q 21 -9.765625 23.484375 -3.21875 
L 25.09375 0.875 
L 2.984375 54.6875 
L 12.5 54.6875 
L 29.59375 11.921875 
L 46.6875 54.6875 
L 56.203125 54.6875 
z
" id="DejaVuSans-121"/>
      <path d="M 37.109375 75.984375 
L 37.109375 68.5 
L 28.515625 68.5 
Q 23.6875 68.5 21.796875 66.546875 
Q 19.921875 64.59375 19.921875 59.515625 
L 19.921875 54.6875 
L 34.71875 54.6875 
L 34.71875 47.703125 
L 19.921875 47.703125 
L 19.921875 0 
L 10.890625 0 
L 10.890625 47.703125 
L 2.296875 47.703125 
L 2.296875 54.6875 
L 10.890625 54.6875 
L 10.890625 58.5 
Q 10.890625 67.625 15.140625 71.796875 
Q 19.390625 75.984375 28.609375 75.984375 
z
" id="DejaVuSans-102"/>
      <path d="M 9.421875 75.984375 
L 18.40625 75.984375 
L 18.40625 0 
L 9.421875 0 
z
" id="DejaVuSans-108"/>
      <path d="M 48.78125 52.59375 
L 48.78125 44.1875 
Q 44.96875 46.296875 41.140625 47.34375 
Q 37.3125 48.390625 33.40625 48.390625 
Q 24.65625 48.390625 19.8125 42.84375 
Q 14.984375 37.3125 14.984375 27.296875 
Q 14.984375 17.28125 19.8125 11.734375 
Q 24.65625 6.203125 33.40625 6.203125 
Q 37.3125 6.203125 41.140625 7.25 
Q 44.96875 8.296875 48.78125 10.40625 
L 48.78125 2.09375 
Q 45.015625 0.34375 40.984375 -0.53125 
Q 36.96875 -1.421875 32.421875 -1.421875 
Q 20.0625 -1.421875 12.78125 6.34375 
Q 5.515625 14.109375 5.515625 27.296875 
Q 5.515625 40.671875 12.859375 48.328125 
Q 20.21875 56 33.015625 56 
Q 37.15625 56 41.109375 55.140625 
Q 45.0625 54.296875 48.78125 52.59375 
z
" id="DejaVuSans-99"/>
      <path d="M 54.890625 33.015625 
L 54.890625 0 
L 45.90625 0 
L 45.90625 32.71875 
Q 45.90625 40.484375 42.875 44.328125 
Q 39.84375 48.1875 33.796875 48.1875 
Q 26.515625 48.1875 22.3125 43.546875 
Q 18.109375 38.921875 18.109375 30.90625 
L 18.109375 0 
L 9.078125 0 
L 9.078125 54.6875 
L 18.109375 54.6875 
L 18.109375 46.1875 
Q 21.34375 51.125 25.703125 53.5625 
Q 30.078125 56 35.796875 56 
Q 45.21875 56 50.046875 50.171875 
Q 54.890625 44.34375 54.890625 33.015625 
z
" id="DejaVuSans-110"/>
      <path d="M 34.28125 27.484375 
Q 23.390625 27.484375 19.1875 25 
Q 14.984375 22.515625 14.984375 16.5 
Q 14.984375 11.71875 18.140625 8.90625 
Q 21.296875 6.109375 26.703125 6.109375 
Q 34.1875 6.109375 38.703125 11.40625 
Q 43.21875 16.703125 43.21875 25.484375 
L 43.21875 27.484375 
z
M 52.203125 31.203125 
L 52.203125 0 
L 43.21875 0 
L 43.21875 8.296875 
Q 40.140625 3.328125 35.546875 0.953125 
Q 30.953125 -1.421875 24.3125 -1.421875 
Q 15.921875 -1.421875 10.953125 3.296875 
Q 6 8.015625 6 15.921875 
Q 6 25.140625 12.171875 29.828125 
Q 18.359375 34.515625 30.609375 34.515625 
L 43.21875 34.515625 
L 43.21875 35.40625 
Q 43.21875 41.609375 39.140625 45 
Q 35.0625 48.390625 27.6875 48.390625 
Q 23 48.390625 18.546875 47.265625 
Q 14.109375 46.140625 10.015625 43.890625 
L 10.015625 52.203125 
Q 14.9375 54.109375 19.578125 55.046875 
Q 24.21875 56 28.609375 56 
Q 40.484375 56 46.34375 49.84375 
Q 52.203125 43.703125 52.203125 31.203125 
z
" id="DejaVuSans-97"/>
      <path d="M 10.6875 12.40625 
L 21 12.40625 
L 21 0 
L 10.6875 0 
z
" id="DejaVuSans-46"/>
     </defs>
     <g transform="translate(22.0925 238.59375)rotate(-90)scale(0.16 -0.16)">
      <use xlink:href="#DejaVuSans-109"/>
      <use x="97.412109" xlink:href="#DejaVuSans-67"/>
      <use x="167.236328" xlink:href="#DejaVuSans-104"/>
      <use x="230.615234" xlink:href="#DejaVuSans-101"/>
      <use x="292.138672" xlink:href="#DejaVuSans-114"/>
      <use x="331.501953" xlink:href="#DejaVuSans-114"/>
      <use x="372.615234" xlink:href="#DejaVuSans-121"/>
      <use x="431.794922" xlink:href="#DejaVuSans-32"/>
      <use x="463.582031" xlink:href="#DejaVuSans-102"/>
      <use x="498.787109" xlink:href="#DejaVuSans-108"/>
      <use x="526.570312" xlink:href="#DejaVuSans-117"/>
      <use x="589.949219" xlink:href="#DejaVuSans-111"/>
      <use x="651.130859" xlink:href="#DejaVuSans-114"/>
      <use x="689.994141" xlink:href="#DejaVuSans-101"/>
      <use x="751.517578" xlink:href="#DejaVuSans-115"/>
      <use x="803.617188" xlink:href="#DejaVuSans-99"/>
      <use x="858.597656" xlink:href="#DejaVuSans-101"/>
      <use x="920.121094" xlink:href="#DejaVuSans-110"/>
      <use x="983.5" xlink:href="#DejaVuSans-99"/>
      <use x="1038.480469" xlink:href="#DejaVuSans-101"/>
      <use x="1100.003906" xlink:href="#DejaVuSans-32"/>
      <use x="1131.791016" xlink:href="#DejaVuSans-40"/>
      <use x="1170.804688" xlink:href="#DejaVuSans-97"/>
      <use x="1232.083984" xlink:href="#DejaVuSans-46"/>
      <use x="1263.871094" xlink:href="#DejaVuSans-117"/>
      <use x="1327.25" xlink:href="#DejaVuSans-46"/>
      <use x="1359.037109" xlink:href="#DejaVuSans-41"/>
     </g>
    </g>
   </g>
   <g id="line2d_22">
    <path clip-path="url(#pc7716dc70b)" d="M 72.05 233.389025 
L 79.985227 233.055602 
L 87.920455 231.502756 
L 95.855682 230.244083 
L 103.790909 227.016909 
L 111.726136 221.641729 
L 119.661364 215.947244 
L 127.596591 210.010662 
L 135.531818 202.95822 
L 143.467045 195.528026 
L 151.402273 168.383711 
L 159.3375 159.11299 
L 167.272727 147.942295 
L 175.207955 142.405103 
L 183.143182 134.51379 
L 191.078409 145.841871 
L 199.013636 138.744687 
L 206.948864 121.397738 
L 214.884091 68.628716 
L 222.819318 77.030022 
L 230.754545 69.469026 
L 238.689773 72.387895 
L 246.625 68.709335 
L 254.560227 58.509672 
L 262.495455 46.703447 
L 270.430682 54.124495 
L 278.365909 54.920103 
L 286.301136 40.893427 
L 294.236364 43.632512 
L 302.171591 41.241395 
L 310.106818 37.02631 
L 318.042045 43.181393 
L 325.977273 45.502129 
L 333.9125 40.965047 
L 341.847727 41.296817 
L 349.782955 38.783391 
L 357.718182 37.677251 
L 365.653409 31.668115 
L 373.588636 33.74742 
L 381.523864 29.414573 
L 389.459091 27.914695 
L 397.394318 24.199125 
L 405.329545 26.221888 
L 413.264773 28.345483 
L 421.2 23.908484 
L 429.135227 59.182931 
L 433 58.20105 
" style="fill:none;stroke:#ff0000;stroke-linecap:square;stroke-width:1.5;"/>
   </g>
   <g id="line2d_23">
    <path clip-path="url(#pc7716dc70b)" d="M 72.05 233.853765 
L 79.985227 233.029625 
L 87.920455 233.03989 
L 95.855682 233.010771 
L 103.790909 232.868025 
L 111.726136 229.719848 
L 119.661364 228.020537 
L 127.596591 224.427316 
L 135.531818 221.984758 
L 143.467045 217.922134 
L 151.402273 205.540698 
L 159.3375 201.259913 
L 167.272727 195.1125 
L 175.207955 190.132345 
L 183.143182 187.397301 
L 191.078409 185.823691 
L 199.013636 178.92875 
L 206.948864 169.767981 
L 214.884091 138.024569 
L 222.819318 143.303433 
L 230.754545 136.195463 
L 238.689773 137.051407 
L 246.625 139.672637 
L 254.560227 133.251805 
L 262.495455 124.91047 
L 270.430682 128.889196 
L 278.365909 128.624233 
L 286.301136 122.37726 
L 294.236364 123.979031 
L 302.171591 126.638074 
L 310.106818 123.082587 
L 318.042045 128.900604 
L 325.977273 127.30931 
L 333.9125 126.565212 
L 341.847727 132.762777 
L 349.782955 131.726433 
L 357.718182 134.197178 
L 365.653409 138.098388 
L 373.588636 143.060116 
L 381.523864 141.094273 
L 389.459091 141.550114 
L 397.394318 146.303227 
L 405.329545 153.06574 
L 413.264773 158.155853 
L 421.2 161.569153 
L 429.135227 173.82425 
L 433 173.745052 
" style="fill:none;stroke:#ff0000;stroke-linecap:square;stroke-width:1.5;"/>
   </g>
   <g id="line2d_24">
    <path clip-path="url(#pc7716dc70b)" d="M 72.05 233.360613 
L 79.985227 232.191262 
L 87.920455 233.306871 
L 95.855682 233.630111 
L 103.790909 233.499163 
L 111.726136 233.36058 
L 119.661364 232.820144 
L 127.596591 232.596065 
L 135.531818 231.740549 
L 143.467045 231.020928 
L 151.402273 227.492295 
L 159.3375 225.328649 
L 167.272727 224.361158 
L 175.207955 222.65917 
L 183.143182 220.959082 
L 191.078409 222.709832 
L 199.013636 220.264038 
L 206.948864 218.291996 
L 214.884091 209.305255 
L 222.819318 210.530708 
L 230.754545 208.237687 
L 238.689773 207.845303 
L 246.625 205.915173 
L 254.560227 204.190704 
L 262.495455 202.009264 
L 270.430682 204.009882 
L 278.365909 201.709913 
L 286.301136 201.422261 
L 294.236364 201.337978 
L 302.171591 201.260707 
L 310.106818 200.275947 
L 318.042045 201.375139 
L 325.977273 201.989077 
L 333.9125 200.044692 
L 341.847727 201.258839 
L 349.782955 197.747083 
L 357.718182 200.284205 
L 365.653409 199.889659 
L 373.588636 200.481642 
L 381.523864 197.512616 
L 389.459091 199.087721 
L 397.394318 199.17302 
L 405.329545 199.619441 
L 413.264773 198.846078 
L 421.2 199.833525 
L 429.135227 204.468427 
L 433 205.172523 
" style="fill:none;stroke:#ff0000;stroke-linecap:square;stroke-width:1.5;"/>
   </g>
   <g id="line2d_25">
    <path clip-path="url(#pc7716dc70b)" d="M 72.05 233.613496 
L 79.985227 232.982307 
L 87.920455 232.761715 
L 95.855682 232.789962 
L 103.790909 231.799315 
L 111.726136 230.410775 
L 119.661364 228.820172 
L 127.596591 227.722976 
L 135.531818 226.355893 
L 143.467045 225.062575 
L 151.402273 218.435458 
L 159.3375 216.170607 
L 167.272727 213.524139 
L 175.207955 212.087126 
L 183.143182 211.448707 
L 191.078409 213.79786 
L 199.013636 212.320393 
L 206.948864 208.736523 
L 214.884091 195.132608 
L 222.819318 197.844791 
L 230.754545 194.221697 
L 238.689773 194.959582 
L 246.625 193.639217 
L 254.560227 189.131147 
L 262.495455 187.723318 
L 270.430682 188.060002 
L 278.365909 187.511185 
L 286.301136 185.152254 
L 294.236364 184.397158 
L 302.171591 184.477128 
L 310.106818 183.175497 
L 318.042045 183.963085 
L 325.977273 184.415921 
L 333.9125 183.029021 
L 341.847727 184.031816 
L 349.782955 182.505523 
L 357.718182 182.305362 
L 365.653409 181.409468 
L 373.588636 180.112754 
L 381.523864 180.844082 
L 389.459091 179.894328 
L 397.394318 177.966601 
L 405.329545 179.621134 
L 413.264773 177.837512 
L 421.2 177.146667 
L 429.135227 186.031961 
L 433 186.554892 
" style="fill:none;stroke:#ff0000;stroke-linecap:square;stroke-width:1.5;"/>
   </g>
   <g id="line2d_26">
    <path clip-path="url(#pc7716dc70b)" d="M 72.05 233.904131 
L 79.985227 233.466496 
L 87.920455 232.99843 
L 95.855682 232.197626 
L 103.790909 231.30875 
L 111.726136 229.219057 
L 119.661364 227.090632 
L 127.596591 224.404154 
L 135.531818 222.866239 
L 143.467045 221.049422 
L 151.402273 211.34737 
L 159.3375 209.238825 
L 167.272727 206.098107 
L 175.207955 204.755271 
L 183.143182 203.562339 
L 191.078409 208.96095 
L 199.013636 207.150492 
L 206.948864 203.202307 
L 214.884091 187.349789 
L 222.819318 190.776488 
L 230.754545 188.76973 
L 238.689773 189.326644 
L 246.625 187.908564 
L 254.560227 184.940824 
L 262.495455 183.365648 
L 270.430682 184.783895 
L 278.365909 185.902305 
L 286.301136 181.823263 
L 294.236364 183.849429 
L 302.171591 183.7791 
L 310.106818 182.048578 
L 318.042045 184.318661 
L 325.977273 183.618201 
L 333.9125 184.684884 
L 341.847727 186.101743 
L 349.782955 185.688763 
L 357.718182 184.864942 
L 365.653409 182.294439 
L 373.588636 184.81638 
L 381.523864 183.079639 
L 389.459091 183.781155 
L 397.394318 182.949031 
L 405.329545 184.374886 
L 413.264773 184.114448 
L 421.2 182.937675 
L 429.135227 191.900535 
L 433 193.104074 
" style="fill:none;stroke:#ff0000;stroke-linecap:square;stroke-width:1.5;"/>
   </g>
   <g id="line2d_27">
    <path clip-path="url(#pc7716dc70b)" d="M 72.05 234.280968 
L 79.985227 233.484704 
L 87.920455 233.735368 
L 95.855682 233.08878 
L 103.790909 231.522303 
L 111.726136 229.325751 
L 119.661364 226.866739 
L 127.596591 224.28385 
L 135.531818 221.317837 
L 143.467045 218.948269 
L 151.402273 204.078853 
L 159.3375 200.763095 
L 167.272727 196.783783 
L 175.207955 193.400062 
L 183.143182 190.318154 
L 191.078409 197.475896 
L 199.013636 194.86008 
L 206.948864 186.589707 
L 214.884091 159.751536 
L 222.819318 164.630811 
L 230.754545 157.791143 
L 238.689773 159.147412 
L 246.625 156.932138 
L 254.560227 149.449094 
L 262.495455 145.142422 
L 270.430682 147.421693 
L 278.365909 146.559324 
L 286.301136 142.588445 
L 294.236364 144.290243 
L 302.171591 143.550145 
L 310.106818 140.84082 
L 318.042045 144.791472 
L 325.977273 146.188949 
L 333.9125 147.060653 
L 341.847727 146.562537 
L 349.782955 145.894416 
L 357.718182 144.748205 
L 365.653409 143.056897 
L 373.588636 142.333714 
L 381.523864 141.830679 
L 389.459091 139.574949 
L 397.394318 141.68296 
L 405.329545 142.380846 
L 413.264773 144.85592 
L 421.2 140.251954 
L 429.135227 157.629069 
L 433 158.92982 
" style="fill:none;stroke:#ff0000;stroke-linecap:square;stroke-width:1.5;"/>
   </g>
   <g id="line2d_28">
    <path clip-path="url(#pc7716dc70b)" d="M 72.05 234.37054 
L 79.985227 234.054379 
L 87.920455 233.926308 
L 95.855682 234.199179 
L 103.790909 234.424262 
L 111.726136 234.122896 
L 119.661364 234.315686 
L 127.596591 234.367008 
L 135.531818 234.155356 
L 143.467045 234.220641 
L 151.402273 233.607546 
L 159.3375 233.275722 
L 167.272727 232.289711 
L 175.207955 232.673058 
L 183.143182 232.609272 
L 191.078409 232.376092 
L 199.013636 232.385756 
L 206.948864 231.638659 
L 214.884091 229.094501 
L 222.819318 230.119069 
L 230.754545 229.321683 
L 238.689773 229.344545 
L 246.625 229.550698 
L 254.560227 228.489472 
L 262.495455 227.120215 
L 270.430682 227.895206 
L 278.365909 228.134585 
L 286.301136 227.120215 
L 294.236364 226.331627 
L 302.171591 226.694944 
L 310.106818 226.638924 
L 318.042045 226.75833 
L 325.977273 226.549111 
L 333.9125 226.71434 
L 341.847727 227.086256 
L 349.782955 226.746299 
L 357.718182 226.821882 
L 365.653409 226.052457 
L 373.588636 226.362286 
L 381.523864 225.996936 
L 389.459091 225.202349 
L 397.394318 225.408769 
L 405.329545 225.693871 
L 413.264773 225.497416 
L 421.2 225.662378 
L 429.135227 226.119841 
L 433 226.666728 
" style="fill:none;stroke:#ff0000;stroke-linecap:square;stroke-width:1.5;"/>
   </g>
   <g id="line2d_29">
    <path clip-path="url(#pc7716dc70b)" d="M 72.05 234.431308 
L 79.985227 233.981982 
L 87.920455 233.779223 
L 95.855682 233.877682 
L 103.790909 233.003012 
L 111.726136 231.264401 
L 119.661364 230.181862 
L 127.596591 228.547381 
L 135.531818 226.376518 
L 143.467045 224.686995 
L 151.402273 217.607973 
L 159.3375 213.585661 
L 167.272727 212.742388 
L 175.207955 210.894478 
L 183.143182 208.0248 
L 191.078409 213.06843 
L 199.013636 212.187526 
L 206.948864 206.503662 
L 214.884091 194.396736 
L 222.819318 196.585684 
L 230.754545 192.284565 
L 238.689773 194.258343 
L 246.625 191.555927 
L 254.560227 188.882323 
L 262.495455 186.432148 
L 270.430682 187.220097 
L 278.365909 188.471639 
L 286.301136 185.737714 
L 294.236364 185.656217 
L 302.171591 185.578484 
L 310.106818 184.541102 
L 318.042045 185.007615 
L 325.977273 186.022643 
L 333.9125 186.188613 
L 341.847727 189.07705 
L 349.782955 187.409994 
L 357.718182 186.277748 
L 365.653409 185.402629 
L 373.588636 185.50603 
L 381.523864 184.312395 
L 389.459091 183.058213 
L 397.394318 184.778065 
L 405.329545 184.685448 
L 413.264773 186.682141 
L 421.2 184.866751 
L 429.135227 193.143452 
L 433 194.076777 
" style="fill:none;stroke:#ff0000;stroke-linecap:square;stroke-width:1.5;"/>
   </g>
   <g id="line2d_30">
    <path clip-path="url(#pc7716dc70b)" d="M 72.05 234.289083 
L 79.985227 233.398528 
L 87.920455 233.54225 
L 95.855682 233.64478 
L 103.790909 233.503122 
L 111.726136 232.543107 
L 119.661364 231.835446 
L 127.596591 231.480068 
L 135.531818 231.024716 
L 143.467045 228.257701 
L 151.402273 223.010529 
L 159.3375 219.599838 
L 167.272727 217.498978 
L 175.207955 215.528422 
L 183.143182 213.392113 
L 191.078409 217.054665 
L 199.013636 213.573392 
L 206.948864 207.749628 
L 214.884091 194.81502 
L 222.819318 198.699459 
L 230.754545 194.161788 
L 238.689773 196.582893 
L 246.625 195.27064 
L 254.560227 190.469083 
L 262.495455 188.858707 
L 270.430682 190.016424 
L 278.365909 190.538588 
L 286.301136 188.874861 
L 294.236364 188.691652 
L 302.171591 189.228534 
L 310.106818 187.858936 
L 318.042045 189.945124 
L 325.977273 190.860044 
L 333.9125 191.88952 
L 341.847727 191.366324 
L 349.782955 193.726763 
L 357.718182 196.5369 
L 365.653409 192.448568 
L 373.588636 194.258081 
L 381.523864 192.965841 
L 389.459091 195.754305 
L 397.394318 197.749495 
L 405.329545 200.901638 
L 413.264773 198.835238 
L 421.2 197.212703 
L 429.135227 206.252148 
L 433 205.970275 
" style="fill:none;stroke:#ff0000;stroke-linecap:square;stroke-width:1.5;"/>
   </g>
   <g id="line2d_31">
    <path clip-path="url(#pc7716dc70b)" d="M 72.05 233.953752 
L 79.985227 233.656577 
L 87.920455 233.646853 
L 95.855682 233.057108 
L 103.790909 231.489022 
L 111.726136 228.326552 
L 119.661364 225.431243 
L 127.596591 222.553886 
L 135.531818 218.084483 
L 143.467045 213.720691 
L 151.402273 198.336841 
L 159.3375 190.676076 
L 167.272727 184.240289 
L 175.207955 179.311624 
L 183.143182 173.889195 
L 191.078409 181.006967 
L 199.013636 175.16733 
L 206.948864 164.941927 
L 214.884091 131.551735 
L 222.819318 139.343614 
L 230.754545 130.369674 
L 238.689773 133.66438 
L 246.625 129.925256 
L 254.560227 121.28089 
L 262.495455 113.123275 
L 270.430682 117.539522 
L 278.365909 119.372034 
L 286.301136 109.489575 
L 294.236364 111.233353 
L 302.171591 109.001959 
L 310.106818 106.82482 
L 318.042045 110.737251 
L 325.977273 112.600899 
L 333.9125 110.907823 
L 341.847727 113.360959 
L 349.782955 105.969481 
L 357.718182 107.147591 
L 365.653409 104.690809 
L 373.588636 103.108814 
L 381.523864 104.477717 
L 389.459091 101.309052 
L 397.394318 99.554078 
L 405.329545 102.209039 
L 413.264773 103.771398 
L 421.2 100.528212 
L 429.135227 123.305924 
L 433 122.506215 
" style="fill:none;stroke:#ff0000;stroke-linecap:square;stroke-width:1.5;"/>
   </g>
   <g id="line2d_32">
    <path clip-path="url(#pc7716dc70b)" d="M 72.05 234.119191 
L 79.985227 233.696423 
L 87.920455 233.639025 
L 95.855682 232.77137 
L 103.790909 230.966941 
L 111.726136 228.306579 
L 119.661364 225.571156 
L 127.596591 224.297305 
L 135.531818 220.045928 
L 143.467045 217.173915 
L 151.402273 204.608134 
L 159.3375 201.998485 
L 167.272727 196.819828 
L 175.207955 193.974228 
L 183.143182 190.237902 
L 191.078409 193.101026 
L 199.013636 189.857561 
L 206.948864 180.541628 
L 214.884091 155.61118 
L 222.819318 159.60184 
L 230.754545 153.957801 
L 238.689773 152.971799 
L 246.625 149.119841 
L 254.560227 142.00938 
L 262.495455 136.040008 
L 270.430682 137.526531 
L 278.365909 137.943682 
L 286.301136 132.049441 
L 294.236364 133.601973 
L 302.171591 131.536178 
L 310.106818 127.920915 
L 318.042045 129.425936 
L 325.977273 131.47379 
L 333.9125 130.318147 
L 341.847727 127.813152 
L 349.782955 129.803236 
L 357.718182 126.203082 
L 365.653409 124.157828 
L 373.588636 125.161075 
L 381.523864 121.552473 
L 389.459091 122.635771 
L 397.394318 121.307238 
L 405.329545 122.195712 
L 413.264773 121.855687 
L 421.2 121.36315 
L 429.135227 140.113992 
L 433 139.703086 
" style="fill:none;stroke:#ff0000;stroke-linecap:square;stroke-width:1.5;"/>
   </g>
   <g id="line2d_33">
    <path clip-path="url(#pc7716dc70b)" d="M 72.05 232.936758 
L 79.985227 232.937702 
L 87.920455 232.181063 
L 95.855682 230.295643 
L 103.790909 227.973946 
L 111.726136 223.006484 
L 119.661364 219.275939 
L 127.596591 216.813016 
L 135.531818 214.238419 
L 143.467045 210.762976 
L 151.402273 195.110841 
L 159.3375 187.928907 
L 167.272727 181.604255 
L 175.207955 179.554042 
L 183.143182 175.249105 
L 191.078409 179.613576 
L 199.013636 176.077192 
L 206.948864 164.753384 
L 214.884091 127.511437 
L 222.819318 136.293838 
L 230.754545 127.326497 
L 238.689773 129.910438 
L 246.625 127.479402 
L 254.560227 115.866077 
L 262.495455 108.396892 
L 270.430682 113.743997 
L 278.365909 115.05785 
L 286.301136 107.454728 
L 294.236364 108.354463 
L 302.171591 106.312039 
L 310.106818 103.254874 
L 318.042045 107.254806 
L 325.977273 107.892699 
L 333.9125 106.292966 
L 341.847727 106.631195 
L 349.782955 103.891177 
L 357.718182 102.493149 
L 365.653409 98.89904 
L 373.588636 98.611927 
L 381.523864 94.36635 
L 389.459091 92.642024 
L 397.394318 90.961342 
L 405.329545 92.52355 
L 413.264773 96.4018 
L 421.2 89.139179 
L 429.135227 118.546526 
L 433 119.16038 
" style="fill:none;stroke:#ff0000;stroke-linecap:square;stroke-width:1.5;"/>
   </g>
   <g id="line2d_34">
    <path clip-path="url(#pc7716dc70b)" d="M 72.05 233.591967 
L 79.985227 233.336097 
L 87.920455 233.093424 
L 95.855682 232.847023 
L 103.790909 232.020001 
L 111.726136 230.080528 
L 119.661364 227.711461 
L 127.596591 226.420634 
L 135.531818 224.072912 
L 143.467045 220.710092 
L 151.402273 211.315673 
L 159.3375 205.927838 
L 167.272727 200.928095 
L 175.207955 197.834571 
L 183.143182 194.840281 
L 191.078409 200.421931 
L 199.013636 196.507653 
L 206.948864 187.778936 
L 214.884091 165.118245 
L 222.819318 169.483923 
L 230.754545 165.255153 
L 238.689773 164.729196 
L 246.625 160.998077 
L 254.560227 156.734173 
L 262.495455 150.15547 
L 270.430682 153.651008 
L 278.365909 154.971262 
L 286.301136 149.749893 
L 294.236364 147.447961 
L 302.171591 147.850734 
L 310.106818 147.694824 
L 318.042045 150.778318 
L 325.977273 151.795329 
L 333.9125 148.923002 
L 341.847727 149.272431 
L 349.782955 149.421809 
L 357.718182 149.347648 
L 365.653409 147.830544 
L 373.588636 144.980155 
L 381.523864 147.583549 
L 389.459091 142.634049 
L 397.394318 144.609646 
L 405.329545 144.4796 
L 413.264773 146.555453 
L 421.2 144.982069 
L 429.135227 160.456549 
L 433 160.691084 
" style="fill:none;stroke:#ff0000;stroke-linecap:square;stroke-width:1.5;"/>
   </g>
   <g id="line2d_35">
    <path clip-path="url(#pc7716dc70b)" d="M 72.05 233.521219 
L 79.985227 231.978915 
L 87.920455 230.327809 
L 95.855682 228.404781 
L 103.790909 226.39759 
L 111.726136 220.579859 
L 119.661364 216.239457 
L 127.596591 213.264505 
L 135.531818 208.07938 
L 143.467045 202.13157 
L 151.402273 182.397202 
L 159.3375 173.004735 
L 167.272727 166.282697 
L 175.207955 162.411048 
L 183.143182 157.53479 
L 191.078409 165.961336 
L 199.013636 162.570429 
L 206.948864 152.424884 
L 214.884091 107.927931 
L 222.819318 117.403323 
L 230.754545 108.717032 
L 238.689773 112.03161 
L 246.625 106.328832 
L 254.560227 96.723963 
L 262.495455 91.355199 
L 270.430682 95.052943 
L 278.365909 96.632667 
L 286.301136 89.503013 
L 294.236364 89.099298 
L 302.171591 86.10551 
L 310.106818 80.758626 
L 318.042045 86.655318 
L 325.977273 95.052214 
L 333.9125 88.699135 
L 341.847727 91.674879 
L 349.782955 88.66384 
L 357.718182 87.730644 
L 365.653409 85.415602 
L 373.588636 84.587465 
L 381.523864 83.517276 
L 389.459091 81.07095 
L 397.394318 84.189172 
L 405.329545 84.369958 
L 413.264773 87.329688 
L 421.2 83.875644 
L 429.135227 108.122099 
L 433 109.367999 
" style="fill:none;stroke:#ff0000;stroke-linecap:square;stroke-width:1.5;"/>
   </g>
   <g id="line2d_36">
    <path clip-path="url(#pc7716dc70b)" d="M 72.05 233.887608 
L 79.985227 232.895816 
L 87.920455 233.394421 
L 95.855682 233.588026 
L 103.790909 233.838807 
L 111.726136 233.607112 
L 119.661364 234.032658 
L 127.596591 233.84603 
L 135.531818 227.314089 
L 143.467045 221.925106 
L 151.402273 208.691792 
L 159.3375 194.080295 
L 167.272727 184.999015 
L 175.207955 182.027126 
L 183.143182 180.2699 
L 191.078409 177.57941 
L 199.013636 165.718779 
L 206.948864 235.889335 
L 214.884091 142.27785 
L 222.819318 216.704978 
L 230.754545 202.953728 
L 238.689773 159.141238 
L 246.625 212.753364 
L 254.560227 140.118554 
L 262.495455 91.665317 
L 270.430682 91.275561 
L 278.365909 94.328595 
L 286.301136 90.767311 
L 294.236364 113.413214 
L 302.171591 120.206894 
L 310.106818 106.660495 
L 318.042045 100.28329 
L 325.977273 88.689119 
L 333.9125 87.39208 
L 341.847727 88.715182 
L 349.782955 88.43329 
L 357.718182 86.847547 
L 365.653409 84.22675 
L 373.588636 79.849958 
L 381.523864 77.95035 
L 389.459091 78.082964 
L 397.394318 79.75449 
L 405.329545 84.765866 
L 413.264773 85.011474 
L 421.2 81.333214 
L 429.135227 105.684094 
L 433 106.256433 
" style="fill:none;stroke:#ff0000;stroke-linecap:square;stroke-width:1.5;"/>
   </g>
   <g id="line2d_37">
    <path clip-path="url(#pc7716dc70b)" d="M 72.05 233.99198 
L 79.985227 233.668025 
L 87.920455 233.690382 
L 95.855682 233.407343 
L 103.790909 233.181038 
L 111.726136 231.569752 
L 119.661364 210.250885 
L 127.596591 233.753496 
L 135.531818 225.541573 
L 143.467045 223.23313 
L 151.402273 217.430676 
L 159.3375 211.499568 
L 167.272727 204.708692 
L 175.207955 202.837461 
L 183.143182 199.798538 
L 191.078409 203.585184 
L 199.013636 200.247508 
L 206.948864 236.039952 
L 214.884091 163.967445 
L 222.819318 170.16551 
L 230.754545 163.647866 
L 238.689773 163.497911 
L 246.625 160.95615 
L 254.560227 155.221872 
L 262.495455 153.564081 
L 270.430682 153.498594 
L 278.365909 157.252971 
L 286.301136 155.241434 
L 294.236364 152.404876 
L 302.171591 152.267311 
L 310.106818 148.295857 
L 318.042045 152.060674 
L 325.977273 154.106167 
L 333.9125 154.011153 
L 341.847727 153.335087 
L 349.782955 153.208911 
L 357.718182 150.71508 
L 365.653409 152.868611 
L 373.588636 147.247063 
L 381.523864 148.067074 
L 389.459091 147.068213 
L 397.394318 148.44634 
L 405.329545 150.966271 
L 413.264773 151.33457 
L 421.2 150.960208 
L 429.135227 166.007982 
L 433 165.386136 
" style="fill:none;stroke:#ff0000;stroke-linecap:square;stroke-width:1.5;"/>
   </g>
   <g id="line2d_38">
    <path clip-path="url(#pc7716dc70b)" d="M 72.05 233.930826 
L 79.985227 233.471519 
L 87.920455 233.468129 
L 95.855682 232.570583 
L 103.790909 230.87972 
L 111.726136 229.527844 
L 119.661364 230.085801 
L 127.596591 233.837282 
L 135.531818 233.953911 
L 143.467045 233.535283 
L 151.402273 232.085787 
L 159.3375 231.643387 
L 167.272727 230.52331 
L 175.207955 231.071527 
L 183.143182 230.887572 
L 191.078409 230.463151 
L 199.013636 230.225001 
L 206.948864 236.016117 
L 214.884091 226.627781 
L 222.819318 227.110474 
L 230.754545 226.103465 
L 238.689773 225.785074 
L 246.625 225.87231 
L 254.560227 224.886756 
L 262.495455 224.21586 
L 270.430682 224.343174 
L 278.365909 224.449419 
L 286.301136 224.489496 
L 294.236364 223.891161 
L 302.171591 223.510551 
L 310.106818 223.743766 
L 318.042045 223.165598 
L 325.977273 223.566205 
L 333.9125 222.805799 
L 341.847727 222.625148 
L 349.782955 222.706463 
L 357.718182 222.131428 
L 365.653409 221.771328 
L 373.588636 219.11495 
L 381.523864 221.279323 
L 389.459091 221.206548 
L 397.394318 219.175925 
L 405.329545 220.144272 
L 413.264773 220.218634 
L 421.2 219.290408 
L 429.135227 221.493315 
L 433 221.732084 
" style="fill:none;stroke:#ff0000;stroke-linecap:square;stroke-width:1.5;"/>
   </g>
   <g id="line2d_39">
    <path clip-path="url(#pc7716dc70b)" d="M 72.05 233.998406 
L 79.985227 234.024442 
L 87.920455 233.721309 
L 95.855682 233.681057 
L 103.790909 232.90849 
L 111.726136 231.470786 
L 119.661364 229.858832 
L 127.596591 227.141152 
L 135.531818 225.817909 
L 143.467045 223.037575 
L 151.402273 212.563141 
L 159.3375 210.097495 
L 167.272727 203.982781 
L 175.207955 202.519542 
L 183.143182 199.833987 
L 191.078409 204.514632 
L 199.013636 201.218051 
L 206.948864 197.63536 
L 214.884091 171.86662 
L 222.819318 179.3156 
L 230.754545 173.616087 
L 238.689773 173.564279 
L 246.625 173.190571 
L 254.560227 167.797059 
L 262.495455 164.36264 
L 270.430682 167.039506 
L 278.365909 167.807432 
L 286.301136 167.651329 
L 294.236364 163.364991 
L 302.171591 165.575587 
L 310.106818 159.56307 
L 318.042045 163.714288 
L 325.977273 162.818896 
L 333.9125 164.981024 
L 341.847727 163.297165 
L 349.782955 163.751644 
L 357.718182 160.369801 
L 365.653409 161.919337 
L 373.588636 158.627219 
L 381.523864 158.198275 
L 389.459091 159.835202 
L 397.394318 160.385849 
L 405.329545 162.777462 
L 413.264773 161.438703 
L 421.2 160.022603 
L 429.135227 173.885352 
L 433 174.35478 
" style="fill:none;stroke:#ff0000;stroke-linecap:square;stroke-width:1.5;"/>
   </g>
   <g id="line2d_40">
    <path clip-path="url(#pc7716dc70b)" d="M 72.05 232.377477 
L 79.985227 232.504043 
L 87.920455 232.355208 
L 95.855682 233.270388 
L 103.790909 232.930959 
L 111.726136 231.67721 
L 119.661364 230.109822 
L 127.596591 228.508363 
L 135.531818 227.303648 
L 143.467045 224.724604 
L 151.402273 212.551273 
L 159.3375 204.059481 
L 167.272727 197.328811 
L 175.207955 191.382923 
L 183.143182 188.208141 
L 191.078409 190.166891 
L 199.013636 187.404748 
L 206.948864 180.86534 
L 214.884091 150.010844 
L 222.819318 152.15369 
L 230.754545 141.087326 
L 238.689773 135.431984 
L 246.625 123.87463 
L 254.560227 115.515321 
L 262.495455 122.889235 
L 270.430682 120.217908 
L 278.365909 110.460615 
L 286.301136 116.115271 
L 294.236364 96.183508 
L 302.171591 89.64891 
L 310.106818 73.345135 
L 318.042045 76.088867 
L 325.977273 70.382425 
L 333.9125 70.555701 
L 341.847727 89.880545 
L 349.782955 82.284713 
L 357.718182 76.37613 
L 365.653409 73.901451 
L 373.588636 67.591441 
L 381.523864 66.049076 
L 389.459091 60.366165 
L 397.394318 58.755304 
L 405.329545 61.596867 
L 413.264773 62.161437 
L 421.2 57.05505 
L 429.135227 81.975263 
L 433 83.334359 
" style="fill:none;stroke:#ff0000;stroke-linecap:square;stroke-width:1.5;"/>
   </g>
   <g id="line2d_41">
    <path clip-path="url(#pc7716dc70b)" d="M 72.05 234.003152 
L 79.985227 233.776144 
L 87.920455 233.715165 
L 95.855682 233.576327 
L 103.790909 232.902101 
L 111.726136 231.46267 
L 119.661364 229.847829 
L 127.596591 227.122957 
L 135.531818 225.79708 
L 143.467045 223.01291 
L 151.402273 212.529309 
L 159.3375 210.07208 
L 167.272727 203.941814 
L 175.207955 202.471831 
L 183.143182 199.785788 
L 191.078409 204.445846 
L 199.013636 201.14776 
L 206.948864 197.543954 
L 214.884091 171.746952 
L 222.819318 179.199183 
L 230.754545 173.490825 
L 238.689773 173.459721 
L 246.625 173.082762 
L 254.560227 167.677817 
L 262.495455 164.241771 
L 270.430682 166.918457 
L 278.365909 167.689657 
L 286.301136 167.541286 
L 294.236364 163.243663 
L 302.171591 165.456978 
L 310.106818 159.435499 
L 318.042045 163.586884 
L 325.977273 162.682414 
L 333.9125 164.872677 
L 341.847727 163.204357 
L 349.782955 163.6516 
L 357.718182 160.272067 
L 365.653409 161.805738 
L 373.588636 158.520193 
L 381.523864 158.099715 
L 389.459091 159.738059 
L 397.394318 160.28639 
L 405.329545 162.678276 
L 413.264773 161.345275 
L 421.2 159.915703 
L 429.135227 173.795116 
L 433 174.250716 
" style="fill:none;stroke:#ff0000;stroke-linecap:square;stroke-width:1.5;"/>
   </g>
   <g id="line2d_42">
    <path clip-path="url(#pc7716dc70b)" d="M 72.05 233.147245 
L 79.985227 233.276434 
L 87.920455 232.993437 
L 95.855682 232.691538 
L 103.790909 232.04674 
L 111.726136 229.409374 
L 119.661364 227.214831 
L 127.596591 224.09057 
L 135.531818 215.55617 
L 143.467045 217.613034 
L 151.402273 205.616793 
L 159.3375 201.612803 
L 167.272727 195.732798 
L 175.207955 194.773767 
L 183.143182 191.084534 
L 191.078409 195.360711 
L 199.013636 193.494035 
L 206.948864 189.3449 
L 214.884091 164.215933 
L 222.819318 168.360549 
L 230.754545 165.221731 
L 238.689773 166.180737 
L 246.625 163.586642 
L 254.560227 158.82442 
L 262.495455 160.033515 
L 270.430682 157.20571 
L 278.365909 160.094614 
L 286.301136 163.780525 
L 294.236364 157.859896 
L 302.171591 158.522721 
L 310.106818 153.865818 
L 318.042045 157.324363 
L 325.977273 155.979887 
L 333.9125 158.310335 
L 341.847727 156.069775 
L 349.782955 157.914004 
L 357.718182 154.881953 
L 365.653409 158.480773 
L 373.588636 152.952006 
L 381.523864 155.436987 
L 389.459091 154.015532 
L 397.394318 155.488598 
L 405.329545 156.949255 
L 413.264773 157.311679 
L 421.2 154.906772 
L 429.135227 169.621479 
L 433 169.039071 
" style="fill:none;stroke:#ff0000;stroke-linecap:square;stroke-width:1.5;"/>
   </g>
   <g id="patch_3">
    <path d="M 72.05 237.2 
L 72.05 16.3 
" style="fill:none;stroke:#000000;stroke-linecap:square;stroke-linejoin:miter;stroke-width:0.8;"/>
   </g>
   <g id="patch_4">
    <path d="M 421.2 237.2 
L 421.2 16.3 
" style="fill:none;stroke:#000000;stroke-linecap:square;stroke-linejoin:miter;stroke-width:0.8;"/>
   </g>
   <g id="patch_5">
    <path d="M 72.05 237.2 
L 421.2 237.2 
" style="fill:none;stroke:#000000;stroke-linecap:square;stroke-linejoin:miter;stroke-width:0.8;"/>
   </g>
   <g id="patch_6">
    <path d="M 72.05 16.3 
L 421.2 16.3 
" style="fill:none;stroke:#000000;stroke-linecap:square;stroke-linejoin:miter;stroke-width:0.8;"/>
   </g>
  </g>
 </g>
 <defs>
  <clipPath id="pc7716dc70b">
   <rect height="220.9" width="349.15" x="72.05" y="16.3"/>
  </clipPath>
 </defs>
</svg>
