<?xml version="1.0" encoding="utf-8" standalone="no"?>
<!DOCTYPE svg PUBLIC "-//W3C//DTD SVG 1.1//EN"
  "http://www.w3.org/Graphics/SVG/1.1/DTD/svg11.dtd">
<!-- Created with matplotlib (https://matplotlib.org/) -->
<svg height="288pt" version="1.1" viewBox="0 0 432 288" width="432pt" xmlns="http://www.w3.org/2000/svg" xmlns:xlink="http://www.w3.org/1999/xlink">
 <defs>
  <style type="text/css">
*{stroke-linecap:butt;stroke-linejoin:round;}
  </style>
 </defs>
 <g id="figure_1">
  <g id="patch_1">
   <path d="M 0 288 
L 432 288 
L 432 0 
L 0 0 
z
" style="fill:#ffffff;"/>
  </g>
  <g id="axes_1">
   <g id="patch_2">
    <path d="M 72.05 237.2 
L 421.2 237.2 
L 421.2 16.3 
L 72.05 16.3 
z
" style="fill:#ffffff;"/>
   </g>
   <g id="matplotlib.axis_1">
    <g id="xtick_1">
     <g id="line2d_1">
      <defs>
       <path d="M 0 0 
L 0 3.5 
" id="m3b4757a4fe" style="stroke:#000000;stroke-width:0.8;"/>
      </defs>
      <g>
       <use style="stroke:#000000;stroke-width:0.8;" x="72.05" xlink:href="#m3b4757a4fe" y="237.2"/>
      </g>
     </g>
     <g id="text_1">
      <!-- 0 -->
      <defs>
       <path d="M 31.78125 66.40625 
Q 24.171875 66.40625 20.328125 58.90625 
Q 16.5 51.421875 16.5 36.375 
Q 16.5 21.390625 20.328125 13.890625 
Q 24.171875 6.390625 31.78125 6.390625 
Q 39.453125 6.390625 43.28125 13.890625 
Q 47.125 21.390625 47.125 36.375 
Q 47.125 51.421875 43.28125 58.90625 
Q 39.453125 66.40625 31.78125 66.40625 
z
M 31.78125 74.21875 
Q 44.046875 74.21875 50.515625 64.515625 
Q 56.984375 54.828125 56.984375 36.375 
Q 56.984375 17.96875 50.515625 8.265625 
Q 44.046875 -1.421875 31.78125 -1.421875 
Q 19.53125 -1.421875 13.0625 8.265625 
Q 6.59375 17.96875 6.59375 36.375 
Q 6.59375 54.828125 13.0625 64.515625 
Q 19.53125 74.21875 31.78125 74.21875 
z
" id="DejaVuSans-48"/>
      </defs>
      <g transform="translate(67.59625 254.837812)scale(0.14 -0.14)">
       <use xlink:href="#DejaVuSans-48"/>
      </g>
     </g>
    </g>
    <g id="xtick_2">
     <g id="line2d_2">
      <g>
       <use style="stroke:#000000;stroke-width:0.8;" x="103.790909" xlink:href="#m3b4757a4fe" y="237.2"/>
      </g>
     </g>
     <g id="text_2">
      <!-- 1 -->
      <defs>
       <path d="M 12.40625 8.296875 
L 28.515625 8.296875 
L 28.515625 63.921875 
L 10.984375 60.40625 
L 10.984375 69.390625 
L 28.421875 72.90625 
L 38.28125 72.90625 
L 38.28125 8.296875 
L 54.390625 8.296875 
L 54.390625 0 
L 12.40625 0 
z
" id="DejaVuSans-49"/>
      </defs>
      <g transform="translate(99.337159 254.837812)scale(0.14 -0.14)">
       <use xlink:href="#DejaVuSans-49"/>
      </g>
     </g>
    </g>
    <g id="xtick_3">
     <g id="line2d_3">
      <g>
       <use style="stroke:#000000;stroke-width:0.8;" x="135.531818" xlink:href="#m3b4757a4fe" y="237.2"/>
      </g>
     </g>
     <g id="text_3">
      <!-- 2 -->
      <defs>
       <path d="M 19.1875 8.296875 
L 53.609375 8.296875 
L 53.609375 0 
L 7.328125 0 
L 7.328125 8.296875 
Q 12.9375 14.109375 22.625 23.890625 
Q 32.328125 33.6875 34.8125 36.53125 
Q 39.546875 41.84375 41.421875 45.53125 
Q 43.3125 49.21875 43.3125 52.78125 
Q 43.3125 58.59375 39.234375 62.25 
Q 35.15625 65.921875 28.609375 65.921875 
Q 23.96875 65.921875 18.8125 64.3125 
Q 13.671875 62.703125 7.8125 59.421875 
L 7.8125 69.390625 
Q 13.765625 71.78125 18.9375 73 
Q 24.125 74.21875 28.421875 74.21875 
Q 39.75 74.21875 46.484375 68.546875 
Q 53.21875 62.890625 53.21875 53.421875 
Q 53.21875 48.921875 51.53125 44.890625 
Q 49.859375 40.875 45.40625 35.40625 
Q 44.1875 33.984375 37.640625 27.21875 
Q 31.109375 20.453125 19.1875 8.296875 
z
" id="DejaVuSans-50"/>
      </defs>
      <g transform="translate(131.078068 254.837812)scale(0.14 -0.14)">
       <use xlink:href="#DejaVuSans-50"/>
      </g>
     </g>
    </g>
    <g id="xtick_4">
     <g id="line2d_4">
      <g>
       <use style="stroke:#000000;stroke-width:0.8;" x="167.272727" xlink:href="#m3b4757a4fe" y="237.2"/>
      </g>
     </g>
     <g id="text_4">
      <!-- 3 -->
      <defs>
       <path d="M 40.578125 39.3125 
Q 47.65625 37.796875 51.625 33 
Q 55.609375 28.21875 55.609375 21.1875 
Q 55.609375 10.40625 48.1875 4.484375 
Q 40.765625 -1.421875 27.09375 -1.421875 
Q 22.515625 -1.421875 17.65625 -0.515625 
Q 12.796875 0.390625 7.625 2.203125 
L 7.625 11.71875 
Q 11.71875 9.328125 16.59375 8.109375 
Q 21.484375 6.890625 26.8125 6.890625 
Q 36.078125 6.890625 40.9375 10.546875 
Q 45.796875 14.203125 45.796875 21.1875 
Q 45.796875 27.640625 41.28125 31.265625 
Q 36.765625 34.90625 28.71875 34.90625 
L 20.21875 34.90625 
L 20.21875 43.015625 
L 29.109375 43.015625 
Q 36.375 43.015625 40.234375 45.921875 
Q 44.09375 48.828125 44.09375 54.296875 
Q 44.09375 59.90625 40.109375 62.90625 
Q 36.140625 65.921875 28.71875 65.921875 
Q 24.65625 65.921875 20.015625 65.03125 
Q 15.375 64.15625 9.8125 62.3125 
L 9.8125 71.09375 
Q 15.4375 72.65625 20.34375 73.4375 
Q 25.25 74.21875 29.59375 74.21875 
Q 40.828125 74.21875 47.359375 69.109375 
Q 53.90625 64.015625 53.90625 55.328125 
Q 53.90625 49.265625 50.4375 45.09375 
Q 46.96875 40.921875 40.578125 39.3125 
z
" id="DejaVuSans-51"/>
      </defs>
      <g transform="translate(162.818977 254.837812)scale(0.14 -0.14)">
       <use xlink:href="#DejaVuSans-51"/>
      </g>
     </g>
    </g>
    <g id="xtick_5">
     <g id="line2d_5">
      <g>
       <use style="stroke:#000000;stroke-width:0.8;" x="199.013636" xlink:href="#m3b4757a4fe" y="237.2"/>
      </g>
     </g>
     <g id="text_5">
      <!-- 4 -->
      <defs>
       <path d="M 37.796875 64.3125 
L 12.890625 25.390625 
L 37.796875 25.390625 
z
M 35.203125 72.90625 
L 47.609375 72.90625 
L 47.609375 25.390625 
L 58.015625 25.390625 
L 58.015625 17.1875 
L 47.609375 17.1875 
L 47.609375 0 
L 37.796875 0 
L 37.796875 17.1875 
L 4.890625 17.1875 
L 4.890625 26.703125 
z
" id="DejaVuSans-52"/>
      </defs>
      <g transform="translate(194.559886 254.837812)scale(0.14 -0.14)">
       <use xlink:href="#DejaVuSans-52"/>
      </g>
     </g>
    </g>
    <g id="xtick_6">
     <g id="line2d_6">
      <g>
       <use style="stroke:#000000;stroke-width:0.8;" x="230.754545" xlink:href="#m3b4757a4fe" y="237.2"/>
      </g>
     </g>
     <g id="text_6">
      <!-- 5 -->
      <defs>
       <path d="M 10.796875 72.90625 
L 49.515625 72.90625 
L 49.515625 64.59375 
L 19.828125 64.59375 
L 19.828125 46.734375 
Q 21.96875 47.46875 24.109375 47.828125 
Q 26.265625 48.1875 28.421875 48.1875 
Q 40.625 48.1875 47.75 41.5 
Q 54.890625 34.8125 54.890625 23.390625 
Q 54.890625 11.625 47.5625 5.09375 
Q 40.234375 -1.421875 26.90625 -1.421875 
Q 22.3125 -1.421875 17.546875 -0.640625 
Q 12.796875 0.140625 7.71875 1.703125 
L 7.71875 11.625 
Q 12.109375 9.234375 16.796875 8.0625 
Q 21.484375 6.890625 26.703125 6.890625 
Q 35.15625 6.890625 40.078125 11.328125 
Q 45.015625 15.765625 45.015625 23.390625 
Q 45.015625 31 40.078125 35.4375 
Q 35.15625 39.890625 26.703125 39.890625 
Q 22.75 39.890625 18.8125 39.015625 
Q 14.890625 38.140625 10.796875 36.28125 
z
" id="DejaVuSans-53"/>
      </defs>
      <g transform="translate(226.300795 254.837812)scale(0.14 -0.14)">
       <use xlink:href="#DejaVuSans-53"/>
      </g>
     </g>
    </g>
    <g id="xtick_7">
     <g id="line2d_7">
      <g>
       <use style="stroke:#000000;stroke-width:0.8;" x="262.495455" xlink:href="#m3b4757a4fe" y="237.2"/>
      </g>
     </g>
     <g id="text_7">
      <!-- 6 -->
      <defs>
       <path d="M 33.015625 40.375 
Q 26.375 40.375 22.484375 35.828125 
Q 18.609375 31.296875 18.609375 23.390625 
Q 18.609375 15.53125 22.484375 10.953125 
Q 26.375 6.390625 33.015625 6.390625 
Q 39.65625 6.390625 43.53125 10.953125 
Q 47.40625 15.53125 47.40625 23.390625 
Q 47.40625 31.296875 43.53125 35.828125 
Q 39.65625 40.375 33.015625 40.375 
z
M 52.59375 71.296875 
L 52.59375 62.3125 
Q 48.875 64.0625 45.09375 64.984375 
Q 41.3125 65.921875 37.59375 65.921875 
Q 27.828125 65.921875 22.671875 59.328125 
Q 17.53125 52.734375 16.796875 39.40625 
Q 19.671875 43.65625 24.015625 45.921875 
Q 28.375 48.1875 33.59375 48.1875 
Q 44.578125 48.1875 50.953125 41.515625 
Q 57.328125 34.859375 57.328125 23.390625 
Q 57.328125 12.15625 50.6875 5.359375 
Q 44.046875 -1.421875 33.015625 -1.421875 
Q 20.359375 -1.421875 13.671875 8.265625 
Q 6.984375 17.96875 6.984375 36.375 
Q 6.984375 53.65625 15.1875 63.9375 
Q 23.390625 74.21875 37.203125 74.21875 
Q 40.921875 74.21875 44.703125 73.484375 
Q 48.484375 72.75 52.59375 71.296875 
z
" id="DejaVuSans-54"/>
      </defs>
      <g transform="translate(258.041705 254.837812)scale(0.14 -0.14)">
       <use xlink:href="#DejaVuSans-54"/>
      </g>
     </g>
    </g>
    <g id="xtick_8">
     <g id="line2d_8">
      <g>
       <use style="stroke:#000000;stroke-width:0.8;" x="294.236364" xlink:href="#m3b4757a4fe" y="237.2"/>
      </g>
     </g>
     <g id="text_8">
      <!-- 7 -->
      <defs>
       <path d="M 8.203125 72.90625 
L 55.078125 72.90625 
L 55.078125 68.703125 
L 28.609375 0 
L 18.3125 0 
L 43.21875 64.59375 
L 8.203125 64.59375 
z
" id="DejaVuSans-55"/>
      </defs>
      <g transform="translate(289.782614 254.837812)scale(0.14 -0.14)">
       <use xlink:href="#DejaVuSans-55"/>
      </g>
     </g>
    </g>
    <g id="xtick_9">
     <g id="line2d_9">
      <g>
       <use style="stroke:#000000;stroke-width:0.8;" x="325.977273" xlink:href="#m3b4757a4fe" y="237.2"/>
      </g>
     </g>
     <g id="text_9">
      <!-- 8 -->
      <defs>
       <path d="M 31.78125 34.625 
Q 24.75 34.625 20.71875 30.859375 
Q 16.703125 27.09375 16.703125 20.515625 
Q 16.703125 13.921875 20.71875 10.15625 
Q 24.75 6.390625 31.78125 6.390625 
Q 38.8125 6.390625 42.859375 10.171875 
Q 46.921875 13.96875 46.921875 20.515625 
Q 46.921875 27.09375 42.890625 30.859375 
Q 38.875 34.625 31.78125 34.625 
z
M 21.921875 38.8125 
Q 15.578125 40.375 12.03125 44.71875 
Q 8.5 49.078125 8.5 55.328125 
Q 8.5 64.0625 14.71875 69.140625 
Q 20.953125 74.21875 31.78125 74.21875 
Q 42.671875 74.21875 48.875 69.140625 
Q 55.078125 64.0625 55.078125 55.328125 
Q 55.078125 49.078125 51.53125 44.71875 
Q 48 40.375 41.703125 38.8125 
Q 48.828125 37.15625 52.796875 32.3125 
Q 56.78125 27.484375 56.78125 20.515625 
Q 56.78125 9.90625 50.3125 4.234375 
Q 43.84375 -1.421875 31.78125 -1.421875 
Q 19.734375 -1.421875 13.25 4.234375 
Q 6.78125 9.90625 6.78125 20.515625 
Q 6.78125 27.484375 10.78125 32.3125 
Q 14.796875 37.15625 21.921875 38.8125 
z
M 18.3125 54.390625 
Q 18.3125 48.734375 21.84375 45.5625 
Q 25.390625 42.390625 31.78125 42.390625 
Q 38.140625 42.390625 41.71875 45.5625 
Q 45.3125 48.734375 45.3125 54.390625 
Q 45.3125 60.0625 41.71875 63.234375 
Q 38.140625 66.40625 31.78125 66.40625 
Q 25.390625 66.40625 21.84375 63.234375 
Q 18.3125 60.0625 18.3125 54.390625 
z
" id="DejaVuSans-56"/>
      </defs>
      <g transform="translate(321.523523 254.837812)scale(0.14 -0.14)">
       <use xlink:href="#DejaVuSans-56"/>
      </g>
     </g>
    </g>
    <g id="xtick_10">
     <g id="line2d_10">
      <g>
       <use style="stroke:#000000;stroke-width:0.8;" x="357.718182" xlink:href="#m3b4757a4fe" y="237.2"/>
      </g>
     </g>
     <g id="text_10">
      <!-- 9 -->
      <defs>
       <path d="M 10.984375 1.515625 
L 10.984375 10.5 
Q 14.703125 8.734375 18.5 7.8125 
Q 22.3125 6.890625 25.984375 6.890625 
Q 35.75 6.890625 40.890625 13.453125 
Q 46.046875 20.015625 46.78125 33.40625 
Q 43.953125 29.203125 39.59375 26.953125 
Q 35.25 24.703125 29.984375 24.703125 
Q 19.046875 24.703125 12.671875 31.3125 
Q 6.296875 37.9375 6.296875 49.421875 
Q 6.296875 60.640625 12.9375 67.421875 
Q 19.578125 74.21875 30.609375 74.21875 
Q 43.265625 74.21875 49.921875 64.515625 
Q 56.59375 54.828125 56.59375 36.375 
Q 56.59375 19.140625 48.40625 8.859375 
Q 40.234375 -1.421875 26.421875 -1.421875 
Q 22.703125 -1.421875 18.890625 -0.6875 
Q 15.09375 0.046875 10.984375 1.515625 
z
M 30.609375 32.421875 
Q 37.25 32.421875 41.125 36.953125 
Q 45.015625 41.5 45.015625 49.421875 
Q 45.015625 57.28125 41.125 61.84375 
Q 37.25 66.40625 30.609375 66.40625 
Q 23.96875 66.40625 20.09375 61.84375 
Q 16.21875 57.28125 16.21875 49.421875 
Q 16.21875 41.5 20.09375 36.953125 
Q 23.96875 32.421875 30.609375 32.421875 
z
" id="DejaVuSans-57"/>
      </defs>
      <g transform="translate(353.264432 254.837812)scale(0.14 -0.14)">
       <use xlink:href="#DejaVuSans-57"/>
      </g>
     </g>
    </g>
    <g id="xtick_11">
     <g id="line2d_11">
      <g>
       <use style="stroke:#000000;stroke-width:0.8;" x="389.459091" xlink:href="#m3b4757a4fe" y="237.2"/>
      </g>
     </g>
     <g id="text_11">
      <!-- 10 -->
      <g transform="translate(380.551591 254.837812)scale(0.14 -0.14)">
       <use xlink:href="#DejaVuSans-49"/>
       <use x="63.623047" xlink:href="#DejaVuSans-48"/>
      </g>
     </g>
    </g>
    <g id="text_12">
     <!-- Time (hours) -->
     <defs>
      <path d="M -0.296875 72.90625 
L 61.375 72.90625 
L 61.375 64.59375 
L 35.5 64.59375 
L 35.5 0 
L 25.59375 0 
L 25.59375 64.59375 
L -0.296875 64.59375 
z
" id="DejaVuSans-84"/>
      <path d="M 9.421875 54.6875 
L 18.40625 54.6875 
L 18.40625 0 
L 9.421875 0 
z
M 9.421875 75.984375 
L 18.40625 75.984375 
L 18.40625 64.59375 
L 9.421875 64.59375 
z
" id="DejaVuSans-105"/>
      <path d="M 52 44.1875 
Q 55.375 50.25 60.0625 53.125 
Q 64.75 56 71.09375 56 
Q 79.640625 56 84.28125 50.015625 
Q 88.921875 44.046875 88.921875 33.015625 
L 88.921875 0 
L 79.890625 0 
L 79.890625 32.71875 
Q 79.890625 40.578125 77.09375 44.375 
Q 74.3125 48.1875 68.609375 48.1875 
Q 61.625 48.1875 57.5625 43.546875 
Q 53.515625 38.921875 53.515625 30.90625 
L 53.515625 0 
L 44.484375 0 
L 44.484375 32.71875 
Q 44.484375 40.625 41.703125 44.40625 
Q 38.921875 48.1875 33.109375 48.1875 
Q 26.21875 48.1875 22.15625 43.53125 
Q 18.109375 38.875 18.109375 30.90625 
L 18.109375 0 
L 9.078125 0 
L 9.078125 54.6875 
L 18.109375 54.6875 
L 18.109375 46.1875 
Q 21.1875 51.21875 25.484375 53.609375 
Q 29.78125 56 35.6875 56 
Q 41.65625 56 45.828125 52.96875 
Q 50 49.953125 52 44.1875 
z
" id="DejaVuSans-109"/>
      <path d="M 56.203125 29.59375 
L 56.203125 25.203125 
L 14.890625 25.203125 
Q 15.484375 15.921875 20.484375 11.0625 
Q 25.484375 6.203125 34.421875 6.203125 
Q 39.59375 6.203125 44.453125 7.46875 
Q 49.3125 8.734375 54.109375 11.28125 
L 54.109375 2.78125 
Q 49.265625 0.734375 44.1875 -0.34375 
Q 39.109375 -1.421875 33.890625 -1.421875 
Q 20.796875 -1.421875 13.15625 6.1875 
Q 5.515625 13.8125 5.515625 26.8125 
Q 5.515625 40.234375 12.765625 48.109375 
Q 20.015625 56 32.328125 56 
Q 43.359375 56 49.78125 48.890625 
Q 56.203125 41.796875 56.203125 29.59375 
z
M 47.21875 32.234375 
Q 47.125 39.59375 43.09375 43.984375 
Q 39.0625 48.390625 32.421875 48.390625 
Q 24.90625 48.390625 20.390625 44.140625 
Q 15.875 39.890625 15.1875 32.171875 
z
" id="DejaVuSans-101"/>
      <path id="DejaVuSans-32"/>
      <path d="M 31 75.875 
Q 24.46875 64.65625 21.28125 53.65625 
Q 18.109375 42.671875 18.109375 31.390625 
Q 18.109375 20.125 21.3125 9.0625 
Q 24.515625 -2 31 -13.1875 
L 23.1875 -13.1875 
Q 15.875 -1.703125 12.234375 9.375 
Q 8.59375 20.453125 8.59375 31.390625 
Q 8.59375 42.28125 12.203125 53.3125 
Q 15.828125 64.359375 23.1875 75.875 
z
" id="DejaVuSans-40"/>
      <path d="M 54.890625 33.015625 
L 54.890625 0 
L 45.90625 0 
L 45.90625 32.71875 
Q 45.90625 40.484375 42.875 44.328125 
Q 39.84375 48.1875 33.796875 48.1875 
Q 26.515625 48.1875 22.3125 43.546875 
Q 18.109375 38.921875 18.109375 30.90625 
L 18.109375 0 
L 9.078125 0 
L 9.078125 75.984375 
L 18.109375 75.984375 
L 18.109375 46.1875 
Q 21.34375 51.125 25.703125 53.5625 
Q 30.078125 56 35.796875 56 
Q 45.21875 56 50.046875 50.171875 
Q 54.890625 44.34375 54.890625 33.015625 
z
" id="DejaVuSans-104"/>
      <path d="M 30.609375 48.390625 
Q 23.390625 48.390625 19.1875 42.75 
Q 14.984375 37.109375 14.984375 27.296875 
Q 14.984375 17.484375 19.15625 11.84375 
Q 23.34375 6.203125 30.609375 6.203125 
Q 37.796875 6.203125 41.984375 11.859375 
Q 46.1875 17.53125 46.1875 27.296875 
Q 46.1875 37.015625 41.984375 42.703125 
Q 37.796875 48.390625 30.609375 48.390625 
z
M 30.609375 56 
Q 42.328125 56 49.015625 48.375 
Q 55.71875 40.765625 55.71875 27.296875 
Q 55.71875 13.875 49.015625 6.21875 
Q 42.328125 -1.421875 30.609375 -1.421875 
Q 18.84375 -1.421875 12.171875 6.21875 
Q 5.515625 13.875 5.515625 27.296875 
Q 5.515625 40.765625 12.171875 48.375 
Q 18.84375 56 30.609375 56 
z
" id="DejaVuSans-111"/>
      <path d="M 8.5 21.578125 
L 8.5 54.6875 
L 17.484375 54.6875 
L 17.484375 21.921875 
Q 17.484375 14.15625 20.5 10.265625 
Q 23.53125 6.390625 29.59375 6.390625 
Q 36.859375 6.390625 41.078125 11.03125 
Q 45.3125 15.671875 45.3125 23.6875 
L 45.3125 54.6875 
L 54.296875 54.6875 
L 54.296875 0 
L 45.3125 0 
L 45.3125 8.40625 
Q 42.046875 3.421875 37.71875 1 
Q 33.40625 -1.421875 27.6875 -1.421875 
Q 18.265625 -1.421875 13.375 4.4375 
Q 8.5 10.296875 8.5 21.578125 
z
M 31.109375 56 
z
" id="DejaVuSans-117"/>
      <path d="M 41.109375 46.296875 
Q 39.59375 47.171875 37.8125 47.578125 
Q 36.03125 48 33.890625 48 
Q 26.265625 48 22.1875 43.046875 
Q 18.109375 38.09375 18.109375 28.8125 
L 18.109375 0 
L 9.078125 0 
L 9.078125 54.6875 
L 18.109375 54.6875 
L 18.109375 46.1875 
Q 20.953125 51.171875 25.484375 53.578125 
Q 30.03125 56 36.53125 56 
Q 37.453125 56 38.578125 55.875 
Q 39.703125 55.765625 41.0625 55.515625 
z
" id="DejaVuSans-114"/>
      <path d="M 44.28125 53.078125 
L 44.28125 44.578125 
Q 40.484375 46.53125 36.375 47.5 
Q 32.28125 48.484375 27.875 48.484375 
Q 21.1875 48.484375 17.84375 46.4375 
Q 14.5 44.390625 14.5 40.28125 
Q 14.5 37.15625 16.890625 35.375 
Q 19.28125 33.59375 26.515625 31.984375 
L 29.59375 31.296875 
Q 39.15625 29.25 43.1875 25.515625 
Q 47.21875 21.78125 47.21875 15.09375 
Q 47.21875 7.46875 41.1875 3.015625 
Q 35.15625 -1.421875 24.609375 -1.421875 
Q 20.21875 -1.421875 15.453125 -0.5625 
Q 10.6875 0.296875 5.421875 2 
L 5.421875 11.28125 
Q 10.40625 8.6875 15.234375 7.390625 
Q 20.0625 6.109375 24.8125 6.109375 
Q 31.15625 6.109375 34.5625 8.28125 
Q 37.984375 10.453125 37.984375 14.40625 
Q 37.984375 18.0625 35.515625 20.015625 
Q 33.0625 21.96875 24.703125 23.78125 
L 21.578125 24.515625 
Q 13.234375 26.265625 9.515625 29.90625 
Q 5.8125 33.546875 5.8125 39.890625 
Q 5.8125 47.609375 11.28125 51.796875 
Q 16.75 56 26.8125 56 
Q 31.78125 56 36.171875 55.265625 
Q 40.578125 54.546875 44.28125 53.078125 
z
" id="DejaVuSans-115"/>
      <path d="M 8.015625 75.875 
L 15.828125 75.875 
Q 23.140625 64.359375 26.78125 53.3125 
Q 30.421875 42.28125 30.421875 31.390625 
Q 30.421875 20.453125 26.78125 9.375 
Q 23.140625 -1.703125 15.828125 -13.1875 
L 8.015625 -13.1875 
Q 14.5 -2 17.703125 9.0625 
Q 20.90625 20.125 20.90625 31.390625 
Q 20.90625 42.671875 17.703125 53.65625 
Q 14.5 64.65625 8.015625 75.875 
z
" id="DejaVuSans-41"/>
     </defs>
     <g transform="translate(195.775 273.906875)scale(0.16 -0.16)">
      <use xlink:href="#DejaVuSans-84"/>
      <use x="57.958984" xlink:href="#DejaVuSans-105"/>
      <use x="85.742188" xlink:href="#DejaVuSans-109"/>
      <use x="183.154297" xlink:href="#DejaVuSans-101"/>
      <use x="244.677734" xlink:href="#DejaVuSans-32"/>
      <use x="276.464844" xlink:href="#DejaVuSans-40"/>
      <use x="315.478516" xlink:href="#DejaVuSans-104"/>
      <use x="378.857422" xlink:href="#DejaVuSans-111"/>
      <use x="440.039062" xlink:href="#DejaVuSans-117"/>
      <use x="503.417969" xlink:href="#DejaVuSans-114"/>
      <use x="544.53125" xlink:href="#DejaVuSans-115"/>
      <use x="596.630859" xlink:href="#DejaVuSans-41"/>
     </g>
    </g>
   </g>
   <g id="matplotlib.axis_2">
    <g id="ytick_1">
     <g id="line2d_12">
      <defs>
       <path d="M 0 0 
L -3.5 0 
" id="m2376dd98fb" style="stroke:#000000;stroke-width:0.8;"/>
      </defs>
      <g>
       <use style="stroke:#000000;stroke-width:0.8;" x="72.05" xlink:href="#m2376dd98fb" y="237.2"/>
      </g>
     </g>
     <g id="text_13">
      <!-- 0 -->
      <g transform="translate(56.1425 242.518906)scale(0.14 -0.14)">
       <use xlink:href="#DejaVuSans-48"/>
      </g>
     </g>
    </g>
    <g id="ytick_2">
     <g id="line2d_13">
      <g>
       <use style="stroke:#000000;stroke-width:0.8;" x="72.05" xlink:href="#m2376dd98fb" y="212.655556"/>
      </g>
     </g>
     <g id="text_14">
      <!-- 500 -->
      <g transform="translate(38.3275 217.974462)scale(0.14 -0.14)">
       <use xlink:href="#DejaVuSans-53"/>
       <use x="63.623047" xlink:href="#DejaVuSans-48"/>
       <use x="127.246094" xlink:href="#DejaVuSans-48"/>
      </g>
     </g>
    </g>
    <g id="ytick_3">
     <g id="line2d_14">
      <g>
       <use style="stroke:#000000;stroke-width:0.8;" x="72.05" xlink:href="#m2376dd98fb" y="188.111111"/>
      </g>
     </g>
     <g id="text_15">
      <!-- 1000 -->
      <g transform="translate(29.42 193.430017)scale(0.14 -0.14)">
       <use xlink:href="#DejaVuSans-49"/>
       <use x="63.623047" xlink:href="#DejaVuSans-48"/>
       <use x="127.246094" xlink:href="#DejaVuSans-48"/>
       <use x="190.869141" xlink:href="#DejaVuSans-48"/>
      </g>
     </g>
    </g>
    <g id="ytick_4">
     <g id="line2d_15">
      <g>
       <use style="stroke:#000000;stroke-width:0.8;" x="72.05" xlink:href="#m2376dd98fb" y="163.566667"/>
      </g>
     </g>
     <g id="text_16">
      <!-- 1500 -->
      <g transform="translate(29.42 168.885573)scale(0.14 -0.14)">
       <use xlink:href="#DejaVuSans-49"/>
       <use x="63.623047" xlink:href="#DejaVuSans-53"/>
       <use x="127.246094" xlink:href="#DejaVuSans-48"/>
       <use x="190.869141" xlink:href="#DejaVuSans-48"/>
      </g>
     </g>
    </g>
    <g id="ytick_5">
     <g id="line2d_16">
      <g>
       <use style="stroke:#000000;stroke-width:0.8;" x="72.05" xlink:href="#m2376dd98fb" y="139.022222"/>
      </g>
     </g>
     <g id="text_17">
      <!-- 2000 -->
      <g transform="translate(29.42 144.341128)scale(0.14 -0.14)">
       <use xlink:href="#DejaVuSans-50"/>
       <use x="63.623047" xlink:href="#DejaVuSans-48"/>
       <use x="127.246094" xlink:href="#DejaVuSans-48"/>
       <use x="190.869141" xlink:href="#DejaVuSans-48"/>
      </g>
     </g>
    </g>
    <g id="ytick_6">
     <g id="line2d_17">
      <g>
       <use style="stroke:#000000;stroke-width:0.8;" x="72.05" xlink:href="#m2376dd98fb" y="114.477778"/>
      </g>
     </g>
     <g id="text_18">
      <!-- 2500 -->
      <g transform="translate(29.42 119.796684)scale(0.14 -0.14)">
       <use xlink:href="#DejaVuSans-50"/>
       <use x="63.623047" xlink:href="#DejaVuSans-53"/>
       <use x="127.246094" xlink:href="#DejaVuSans-48"/>
       <use x="190.869141" xlink:href="#DejaVuSans-48"/>
      </g>
     </g>
    </g>
    <g id="ytick_7">
     <g id="line2d_18">
      <g>
       <use style="stroke:#000000;stroke-width:0.8;" x="72.05" xlink:href="#m2376dd98fb" y="89.933333"/>
      </g>
     </g>
     <g id="text_19">
      <!-- 3000 -->
      <g transform="translate(29.42 95.25224)scale(0.14 -0.14)">
       <use xlink:href="#DejaVuSans-51"/>
       <use x="63.623047" xlink:href="#DejaVuSans-48"/>
       <use x="127.246094" xlink:href="#DejaVuSans-48"/>
       <use x="190.869141" xlink:href="#DejaVuSans-48"/>
      </g>
     </g>
    </g>
    <g id="ytick_8">
     <g id="line2d_19">
      <g>
       <use style="stroke:#000000;stroke-width:0.8;" x="72.05" xlink:href="#m2376dd98fb" y="65.388889"/>
      </g>
     </g>
     <g id="text_20">
      <!-- 3500 -->
      <g transform="translate(29.42 70.707795)scale(0.14 -0.14)">
       <use xlink:href="#DejaVuSans-51"/>
       <use x="63.623047" xlink:href="#DejaVuSans-53"/>
       <use x="127.246094" xlink:href="#DejaVuSans-48"/>
       <use x="190.869141" xlink:href="#DejaVuSans-48"/>
      </g>
     </g>
    </g>
    <g id="ytick_9">
     <g id="line2d_20">
      <g>
       <use style="stroke:#000000;stroke-width:0.8;" x="72.05" xlink:href="#m2376dd98fb" y="40.844444"/>
      </g>
     </g>
     <g id="text_21">
      <!-- 4000 -->
      <g transform="translate(29.42 46.163351)scale(0.14 -0.14)">
       <use xlink:href="#DejaVuSans-52"/>
       <use x="63.623047" xlink:href="#DejaVuSans-48"/>
       <use x="127.246094" xlink:href="#DejaVuSans-48"/>
       <use x="190.869141" xlink:href="#DejaVuSans-48"/>
      </g>
     </g>
    </g>
    <g id="ytick_10">
     <g id="line2d_21">
      <g>
       <use style="stroke:#000000;stroke-width:0.8;" x="72.05" xlink:href="#m2376dd98fb" y="16.3"/>
      </g>
     </g>
     <g id="text_22">
      <!-- 4500 -->
      <g transform="translate(29.42 21.618906)scale(0.14 -0.14)">
       <use xlink:href="#DejaVuSans-52"/>
       <use x="63.623047" xlink:href="#DejaVuSans-53"/>
       <use x="127.246094" xlink:href="#DejaVuSans-48"/>
       <use x="190.869141" xlink:href="#DejaVuSans-48"/>
      </g>
     </g>
    </g>
    <g id="text_23">
     <!-- mCherry fluorescence (a.u.) -->
     <defs>
      <path d="M 64.40625 67.28125 
L 64.40625 56.890625 
Q 59.421875 61.53125 53.78125 63.8125 
Q 48.140625 66.109375 41.796875 66.109375 
Q 29.296875 66.109375 22.65625 58.46875 
Q 16.015625 50.828125 16.015625 36.375 
Q 16.015625 21.96875 22.65625 14.328125 
Q 29.296875 6.6875 41.796875 6.6875 
Q 48.140625 6.6875 53.78125 8.984375 
Q 59.421875 11.28125 64.40625 15.921875 
L 64.40625 5.609375 
Q 59.234375 2.09375 53.4375 0.328125 
Q 47.65625 -1.421875 41.21875 -1.421875 
Q 24.65625 -1.421875 15.125 8.703125 
Q 5.609375 18.84375 5.609375 36.375 
Q 5.609375 53.953125 15.125 64.078125 
Q 24.65625 74.21875 41.21875 74.21875 
Q 47.75 74.21875 53.53125 72.484375 
Q 59.328125 70.75 64.40625 67.28125 
z
" id="DejaVuSans-67"/>
      <path d="M 32.171875 -5.078125 
Q 28.375 -14.84375 24.75 -17.8125 
Q 21.140625 -20.796875 15.09375 -20.796875 
L 7.90625 -20.796875 
L 7.90625 -13.28125 
L 13.1875 -13.28125 
Q 16.890625 -13.28125 18.9375 -11.515625 
Q 21 -9.765625 23.484375 -3.21875 
L 25.09375 0.875 
L 2.984375 54.6875 
L 12.5 54.6875 
L 29.59375 11.921875 
L 46.6875 54.6875 
L 56.203125 54.6875 
z
" id="DejaVuSans-121"/>
      <path d="M 37.109375 75.984375 
L 37.109375 68.5 
L 28.515625 68.5 
Q 23.6875 68.5 21.796875 66.546875 
Q 19.921875 64.59375 19.921875 59.515625 
L 19.921875 54.6875 
L 34.71875 54.6875 
L 34.71875 47.703125 
L 19.921875 47.703125 
L 19.921875 0 
L 10.890625 0 
L 10.890625 47.703125 
L 2.296875 47.703125 
L 2.296875 54.6875 
L 10.890625 54.6875 
L 10.890625 58.5 
Q 10.890625 67.625 15.140625 71.796875 
Q 19.390625 75.984375 28.609375 75.984375 
z
" id="DejaVuSans-102"/>
      <path d="M 9.421875 75.984375 
L 18.40625 75.984375 
L 18.40625 0 
L 9.421875 0 
z
" id="DejaVuSans-108"/>
      <path d="M 48.78125 52.59375 
L 48.78125 44.1875 
Q 44.96875 46.296875 41.140625 47.34375 
Q 37.3125 48.390625 33.40625 48.390625 
Q 24.65625 48.390625 19.8125 42.84375 
Q 14.984375 37.3125 14.984375 27.296875 
Q 14.984375 17.28125 19.8125 11.734375 
Q 24.65625 6.203125 33.40625 6.203125 
Q 37.3125 6.203125 41.140625 7.25 
Q 44.96875 8.296875 48.78125 10.40625 
L 48.78125 2.09375 
Q 45.015625 0.34375 40.984375 -0.53125 
Q 36.96875 -1.421875 32.421875 -1.421875 
Q 20.0625 -1.421875 12.78125 6.34375 
Q 5.515625 14.109375 5.515625 27.296875 
Q 5.515625 40.671875 12.859375 48.328125 
Q 20.21875 56 33.015625 56 
Q 37.15625 56 41.109375 55.140625 
Q 45.0625 54.296875 48.78125 52.59375 
z
" id="DejaVuSans-99"/>
      <path d="M 54.890625 33.015625 
L 54.890625 0 
L 45.90625 0 
L 45.90625 32.71875 
Q 45.90625 40.484375 42.875 44.328125 
Q 39.84375 48.1875 33.796875 48.1875 
Q 26.515625 48.1875 22.3125 43.546875 
Q 18.109375 38.921875 18.109375 30.90625 
L 18.109375 0 
L 9.078125 0 
L 9.078125 54.6875 
L 18.109375 54.6875 
L 18.109375 46.1875 
Q 21.34375 51.125 25.703125 53.5625 
Q 30.078125 56 35.796875 56 
Q 45.21875 56 50.046875 50.171875 
Q 54.890625 44.34375 54.890625 33.015625 
z
" id="DejaVuSans-110"/>
      <path d="M 34.28125 27.484375 
Q 23.390625 27.484375 19.1875 25 
Q 14.984375 22.515625 14.984375 16.5 
Q 14.984375 11.71875 18.140625 8.90625 
Q 21.296875 6.109375 26.703125 6.109375 
Q 34.1875 6.109375 38.703125 11.40625 
Q 43.21875 16.703125 43.21875 25.484375 
L 43.21875 27.484375 
z
M 52.203125 31.203125 
L 52.203125 0 
L 43.21875 0 
L 43.21875 8.296875 
Q 40.140625 3.328125 35.546875 0.953125 
Q 30.953125 -1.421875 24.3125 -1.421875 
Q 15.921875 -1.421875 10.953125 3.296875 
Q 6 8.015625 6 15.921875 
Q 6 25.140625 12.171875 29.828125 
Q 18.359375 34.515625 30.609375 34.515625 
L 43.21875 34.515625 
L 43.21875 35.40625 
Q 43.21875 41.609375 39.140625 45 
Q 35.0625 48.390625 27.6875 48.390625 
Q 23 48.390625 18.546875 47.265625 
Q 14.109375 46.140625 10.015625 43.890625 
L 10.015625 52.203125 
Q 14.9375 54.109375 19.578125 55.046875 
Q 24.21875 56 28.609375 56 
Q 40.484375 56 46.34375 49.84375 
Q 52.203125 43.703125 52.203125 31.203125 
z
" id="DejaVuSans-97"/>
      <path d="M 10.6875 12.40625 
L 21 12.40625 
L 21 0 
L 10.6875 0 
z
" id="DejaVuSans-46"/>
     </defs>
     <g transform="translate(22.0925 238.59375)rotate(-90)scale(0.16 -0.16)">
      <use xlink:href="#DejaVuSans-109"/>
      <use x="97.412109" xlink:href="#DejaVuSans-67"/>
      <use x="167.236328" xlink:href="#DejaVuSans-104"/>
      <use x="230.615234" xlink:href="#DejaVuSans-101"/>
      <use x="292.138672" xlink:href="#DejaVuSans-114"/>
      <use x="331.501953" xlink:href="#DejaVuSans-114"/>
      <use x="372.615234" xlink:href="#DejaVuSans-121"/>
      <use x="431.794922" xlink:href="#DejaVuSans-32"/>
      <use x="463.582031" xlink:href="#DejaVuSans-102"/>
      <use x="498.787109" xlink:href="#DejaVuSans-108"/>
      <use x="526.570312" xlink:href="#DejaVuSans-117"/>
      <use x="589.949219" xlink:href="#DejaVuSans-111"/>
      <use x="651.130859" xlink:href="#DejaVuSans-114"/>
      <use x="689.994141" xlink:href="#DejaVuSans-101"/>
      <use x="751.517578" xlink:href="#DejaVuSans-115"/>
      <use x="803.617188" xlink:href="#DejaVuSans-99"/>
      <use x="858.597656" xlink:href="#DejaVuSans-101"/>
      <use x="920.121094" xlink:href="#DejaVuSans-110"/>
      <use x="983.5" xlink:href="#DejaVuSans-99"/>
      <use x="1038.480469" xlink:href="#DejaVuSans-101"/>
      <use x="1100.003906" xlink:href="#DejaVuSans-32"/>
      <use x="1131.791016" xlink:href="#DejaVuSans-40"/>
      <use x="1170.804688" xlink:href="#DejaVuSans-97"/>
      <use x="1232.083984" xlink:href="#DejaVuSans-46"/>
      <use x="1263.871094" xlink:href="#DejaVuSans-117"/>
      <use x="1327.25" xlink:href="#DejaVuSans-46"/>
      <use x="1359.037109" xlink:href="#DejaVuSans-41"/>
     </g>
    </g>
   </g>
   <g id="line2d_22">
    <path clip-path="url(#p21d13d6b43)" d="M 72.05 234.499042 
L 79.985227 234.239333 
L 87.920455 234.28828 
L 95.855682 234.085912 
L 103.790909 234.061902 
L 111.726136 234.177694 
L 119.661364 233.974398 
L 127.596591 234.056374 
L 135.531818 234.090997 
L 143.467045 233.917037 
L 151.402273 233.859696 
L 159.3375 233.803868 
L 167.272727 234.016869 
L 175.207955 233.728227 
L 183.143182 233.838127 
L 191.078409 234.066866 
L 199.013636 233.751329 
L 206.948864 233.846158 
L 214.884091 233.808004 
L 222.819318 233.7686 
L 230.754545 233.672379 
L 238.689773 233.760671 
L 246.625 233.890364 
L 254.560227 233.674679 
L 262.495455 233.543755 
L 270.430682 233.892765 
L 278.365909 233.560421 
L 286.301136 233.957349 
L 294.236364 234.019331 
L 302.171591 233.707849 
L 310.106818 233.94827 
L 318.042045 233.823237 
L 325.977273 233.634972 
L 333.9125 233.651356 
L 341.847727 233.845472 
L 349.782955 233.950025 
L 357.718182 233.880134 
L 365.653409 233.814884 
L 373.588636 233.771061 
L 381.523864 233.335153 
L 389.459091 233.623089 
L 397.394318 233.763193 
L 405.329545 233.474329 
L 413.264773 233.988784 
L 421.2 233.887862 
L 429.135227 233.48016 
L 433 233.573719 
" style="fill:none;stroke:#ff0000;stroke-linecap:square;stroke-width:1.5;"/>
   </g>
   <g id="line2d_23">
    <path clip-path="url(#p21d13d6b43)" d="M 72.05 234.397168 
L 79.985227 234.219326 
L 87.920455 234.555863 
L 95.855682 233.380893 
L 103.790909 233.775291 
L 111.726136 234.296966 
L 119.661364 234.163996 
L 127.596591 233.779803 
L 135.531818 233.938794 
L 143.467045 234.131649 
L 151.402273 233.87233 
L 159.3375 233.831844 
L 167.272727 234.031785 
L 175.207955 233.729829 
L 183.143182 233.683819 
L 191.078409 234.006059 
L 199.013636 233.932932 
L 206.948864 233.965025 
L 214.884091 233.750831 
L 222.819318 234.150838 
L 230.754545 233.767953 
L 238.689773 233.758211 
L 246.625 233.503236 
L 254.560227 233.871866 
L 262.495455 233.903959 
L 270.430682 234.016771 
L 278.365909 233.386671 
L 286.301136 233.947988 
L 294.236364 233.587581 
L 302.171591 233.96085 
L 310.106818 233.881777 
L 318.042045 233.804516 
L 325.977273 233.953892 
L 333.9125 233.88553 
L 341.847727 233.573706 
L 349.782955 233.856768 
L 357.718182 233.50176 
L 365.653409 233.86689 
L 373.588636 234.003824 
L 381.523864 233.906574 
L 389.459091 233.840827 
L 397.394318 233.753403 
L 405.329545 233.602889 
L 413.264773 232.716 
L 421.2 233.990076 
L 429.135227 233.720509 
L 433 233.585419 
" style="fill:none;stroke:#ff0000;stroke-linecap:square;stroke-width:1.5;"/>
   </g>
   <g id="line2d_24">
    <path clip-path="url(#p21d13d6b43)" d="M 72.05 234.413742 
L 79.985227 234.282501 
L 87.920455 234.21823 
L 95.855682 234.060617 
L 103.790909 233.765127 
L 111.726136 234.149291 
L 119.661364 233.892657 
L 127.596591 234.002025 
L 135.531818 233.874832 
L 143.467045 234.084739 
L 151.402273 233.621234 
L 159.3375 234.095479 
L 167.272727 233.598124 
L 175.207955 233.993478 
L 183.143182 233.744828 
L 191.078409 234.075742 
L 199.013636 233.471044 
L 206.948864 233.832828 
L 214.884091 233.88501 
L 222.819318 234.173021 
L 230.754545 233.978296 
L 238.689773 233.988979 
L 246.625 233.826868 
L 254.560227 233.637654 
L 262.495455 233.373878 
L 270.430682 233.648843 
L 278.365909 233.710022 
L 286.301136 233.723461 
L 294.236364 233.625114 
L 302.171591 233.830692 
L 310.106818 234.017151 
L 318.042045 233.885291 
L 325.977273 233.949562 
L 333.9125 233.953723 
L 341.847727 234.114654 
L 349.782955 233.883435 
L 357.718182 233.810449 
L 365.653409 233.947875 
L 373.588636 233.742691 
L 381.523864 233.525981 
L 389.459091 233.739543 
L 397.394318 233.788013 
L 405.329545 233.553477 
L 413.264773 233.708335 
L 421.2 233.927351 
L 429.135227 233.624327 
L 433 233.58511 
" style="fill:none;stroke:#ff0000;stroke-linecap:square;stroke-width:1.5;"/>
   </g>
   <g id="line2d_25">
    <path clip-path="url(#p21d13d6b43)" d="M 72.05 234.168113 
L 79.985227 233.918345 
L 87.920455 234.013569 
L 95.855682 232.249539 
L 103.790909 233.323731 
L 111.726136 233.565189 
L 119.661364 233.147621 
L 127.596591 233.306704 
L 135.531818 233.29472 
L 143.467045 233.054126 
L 151.402273 232.909814 
L 159.3375 233.187488 
L 167.272727 233.053982 
L 175.207955 233.080832 
L 183.143182 233.274666 
L 191.078409 233.083906 
L 199.013636 233.065822 
L 206.948864 233.097619 
L 214.884091 232.74002 
L 222.819318 233.179298 
L 230.754545 233.002996 
L 238.689773 233.133956 
L 246.625 233.292414 
L 254.560227 232.807697 
L 262.495455 233.234583 
L 270.430682 233.105281 
L 278.365909 232.872204 
L 286.301136 232.809018 
L 294.236364 233.131098 
L 302.171591 232.836517 
L 310.106818 233.000258 
L 318.042045 233.16717 
L 325.977273 233.012314 
L 333.9125 233.127712 
L 341.847727 232.737258 
L 349.782955 233.079223 
L 357.718182 232.904722 
L 365.653409 232.661607 
L 373.588636 233.056792 
L 381.523864 232.646573 
L 389.459091 233.115632 
L 397.394318 232.957077 
L 405.329545 232.640113 
L 413.264773 232.908541 
L 421.2 232.549764 
L 429.135227 231.704302 
L 433 232.205241 
" style="fill:none;stroke:#ff0000;stroke-linecap:square;stroke-width:1.5;"/>
   </g>
   <g id="line2d_26">
    <path clip-path="url(#p21d13d6b43)" d="M 72.05 234.064629 
L 79.985227 233.580159 
L 87.920455 233.660194 
L 95.855682 233.368702 
L 103.790909 232.757675 
L 111.726136 233.501086 
L 119.661364 233.154474 
L 127.596591 233.29843 
L 135.531818 233.082868 
L 143.467045 233.427605 
L 151.402273 232.976227 
L 159.3375 233.128376 
L 167.272727 233.124017 
L 175.207955 233.05459 
L 183.143182 233.078493 
L 191.078409 232.808335 
L 199.013636 232.905077 
L 206.948864 232.725225 
L 214.884091 233.320525 
L 222.819318 232.825379 
L 230.754545 232.610307 
L 238.689773 232.843741 
L 246.625 232.897222 
L 254.560227 233.186164 
L 262.495455 233.133105 
L 270.430682 233.091601 
L 278.365909 232.670444 
L 286.301136 232.72384 
L 294.236364 233.090621 
L 302.171591 233.0341 
L 310.106818 232.848792 
L 318.042045 232.905297 
L 325.977273 233.25897 
L 333.9125 232.757016 
L 341.847727 232.796494 
L 349.782955 233.108662 
L 357.718182 233.155217 
L 365.653409 233.218226 
L 373.588636 232.622301 
L 381.523864 232.957494 
L 389.459091 232.701052 
L 397.394318 233.099625 
L 405.329545 232.719684 
L 413.264773 233.020856 
L 421.2 232.83391 
L 429.135227 233.070233 
L 433 233.110085 
" style="fill:none;stroke:#ff0000;stroke-linecap:square;stroke-width:1.5;"/>
   </g>
   <g id="line2d_27">
    <path clip-path="url(#p21d13d6b43)" d="M 72.05 233.769855 
L 79.985227 233.523426 
L 87.920455 233.741491 
L 95.855682 232.891965 
L 103.790909 232.971513 
L 111.726136 232.826374 
L 119.661364 232.968202 
L 127.596591 233.251682 
L 135.531818 232.777694 
L 143.467045 233.053566 
L 151.402273 233.342944 
L 159.3375 233.03437 
L 167.272727 233.022195 
L 175.207955 233.090018 
L 183.143182 232.832797 
L 191.078409 233.052675 
L 199.013636 232.783425 
L 206.948864 232.68466 
L 214.884091 232.768955 
L 222.819318 232.776625 
L 230.754545 233.021022 
L 238.689773 232.729275 
L 246.625 232.657481 
L 254.560227 232.974866 
L 262.495455 232.869993 
L 270.430682 232.910794 
L 278.365909 232.612216 
L 286.301136 233.104111 
L 294.236364 232.78639 
L 302.171591 233.042271 
L 310.106818 232.562572 
L 318.042045 232.697873 
L 325.977273 233.070676 
L 333.9125 232.52109 
L 341.847727 232.179207 
L 349.782955 232.856634 
L 357.718182 232.861821 
L 365.653409 232.563662 
L 373.588636 232.844804 
L 381.523864 232.234834 
L 389.459091 232.701666 
L 397.394318 232.651131 
L 405.329545 232.690413 
L 413.264773 232.866494 
L 421.2 232.641586 
L 429.135227 232.675084 
L 433 232.5945 
" style="fill:none;stroke:#ff0000;stroke-linecap:square;stroke-width:1.5;"/>
   </g>
   <g id="line2d_28">
    <path clip-path="url(#p21d13d6b43)" d="M 72.05 233.747365 
L 79.985227 233.898284 
L 87.920455 233.558836 
L 95.855682 232.186657 
L 103.790909 233.26955 
L 111.726136 233.537638 
L 119.661364 233.297858 
L 127.596591 233.303463 
L 135.531818 232.739187 
L 143.467045 233.010555 
L 151.402273 232.920695 
L 159.3375 232.786263 
L 167.272727 233.009049 
L 175.207955 232.87988 
L 183.143182 232.974614 
L 191.078409 232.874051 
L 199.013636 232.95926 
L 206.948864 233.003534 
L 214.884091 233.174875 
L 222.819318 232.823784 
L 230.754545 232.696866 
L 238.689773 233.017412 
L 246.625 232.290023 
L 254.560227 232.987374 
L 262.495455 233.044334 
L 270.430682 232.731033 
L 278.365909 233.021899 
L 286.301136 232.940596 
L 294.236364 233.253748 
L 302.171591 233.057572 
L 310.106818 232.769254 
L 318.042045 233.068245 
L 325.977273 233.227169 
L 333.9125 232.893013 
L 341.847727 233.163874 
L 349.782955 232.893147 
L 357.718182 233.069527 
L 365.653409 232.573376 
L 373.588636 233.019171 
L 381.523864 233.061954 
L 389.459091 232.773279 
L 397.394318 233.018381 
L 405.329545 232.883994 
L 413.264773 232.136331 
L 421.2 232.257078 
L 429.135227 232.760743 
L 433 232.681983 
" style="fill:none;stroke:#ff0000;stroke-linecap:square;stroke-width:1.5;"/>
   </g>
   <g id="line2d_29">
    <path clip-path="url(#p21d13d6b43)" d="M 72.05 234.350684 
L 79.985227 234.22464 
L 87.920455 234.302344 
L 95.855682 233.7934 
L 103.790909 233.626744 
L 111.726136 233.826258 
L 119.661364 233.596554 
L 127.596591 233.939376 
L 135.531818 233.883522 
L 143.467045 233.916156 
L 151.402273 233.495433 
L 159.3375 233.427884 
L 167.272727 233.77463 
L 175.207955 233.611657 
L 183.143182 233.710334 
L 191.078409 232.975886 
L 199.013636 233.556183 
L 206.948864 233.727082 
L 214.884091 233.662261 
L 222.819318 233.670454 
L 230.754545 233.522318 
L 238.689773 233.70221 
L 246.625 233.790904 
L 254.560227 233.693509 
L 262.495455 233.715171 
L 270.430682 233.378735 
L 278.365909 233.485295 
L 286.301136 233.822996 
L 294.236364 233.651572 
L 302.171591 233.794226 
L 310.106818 233.669619 
L 318.042045 233.748218 
L 325.977273 233.531595 
L 333.9125 233.361936 
L 341.847727 233.868617 
L 349.782955 233.565512 
L 357.718182 233.328157 
L 365.653409 233.730421 
L 373.588636 233.792186 
L 381.523864 233.206364 
L 389.459091 233.536449 
L 397.394318 233.422255 
L 405.329545 233.477394 
L 413.264773 233.634188 
L 421.2 233.368786 
L 429.135227 233.316332 
L 433 233.399194 
" style="fill:none;stroke:#ff0000;stroke-linecap:square;stroke-width:1.5;"/>
   </g>
   <g id="line2d_30">
    <path clip-path="url(#p21d13d6b43)" d="M 72.05 234.109497 
L 79.985227 234.03604 
L 87.920455 234.05915 
L 95.855682 233.244502 
L 103.790909 233.138409 
L 111.726136 233.164306 
L 119.661364 233.294389 
L 127.596591 233.498633 
L 135.531818 232.969669 
L 143.467045 233.270535 
L 151.402273 233.152548 
L 159.3375 233.324562 
L 167.272727 233.381607 
L 175.207955 233.362488 
L 183.143182 233.141318 
L 191.078409 233.455186 
L 199.013636 233.071595 
L 206.948864 233.352692 
L 214.884091 233.320395 
L 222.819318 232.559476 
L 230.754545 233.018041 
L 238.689773 233.007852 
L 246.625 233.223949 
L 254.560227 233.150681 
L 262.495455 233.207225 
L 270.430682 233.333032 
L 278.365909 233.205886 
L 286.301136 233.076777 
L 294.236364 233.113634 
L 302.171591 233.228279 
L 310.106818 232.684215 
L 318.042045 233.072258 
L 325.977273 233.126299 
L 333.9125 233.151384 
L 341.847727 232.95994 
L 349.782955 233.13278 
L 357.718182 232.717595 
L 365.653409 233.201069 
L 373.588636 232.968911 
L 381.523864 233.080011 
L 389.459091 233.088197 
L 397.394318 232.434522 
L 405.329545 233.138314 
L 413.264773 232.603911 
L 421.2 233.064938 
L 429.135227 233.124337 
L 433 233.114584 
" style="fill:none;stroke:#ff0000;stroke-linecap:square;stroke-width:1.5;"/>
   </g>
   <g id="line2d_31">
    <path clip-path="url(#p21d13d6b43)" d="M 72.05 234.308805 
L 79.985227 234.011326 
L 87.920455 234.267851 
L 95.855682 233.579531 
L 103.790909 233.780187 
L 111.726136 233.844891 
L 119.661364 233.730725 
L 127.596591 233.849052 
L 135.531818 233.713801 
L 143.467045 233.662327 
L 151.402273 233.749332 
L 159.3375 233.850501 
L 167.272727 233.369804 
L 175.207955 233.798374 
L 183.143182 233.565365 
L 191.078409 233.375929 
L 199.013636 233.307952 
L 206.948864 233.47579 
L 214.884091 233.640027 
L 222.819318 233.315339 
L 230.754545 233.513565 
L 238.689773 233.448627 
L 246.625 233.262697 
L 254.560227 233.689256 
L 262.495455 233.690846 
L 270.430682 233.517772 
L 278.365909 233.533341 
L 286.301136 233.730491 
L 294.236364 233.608096 
L 302.171591 232.967556 
L 310.106818 233.831894 
L 318.042045 233.653819 
L 325.977273 233.77771 
L 333.9125 233.627217 
L 341.847727 233.786686 
L 349.782955 233.865041 
L 357.718182 233.465925 
L 365.653409 233.346709 
L 373.588636 233.557978 
L 381.523864 233.561111 
L 389.459091 233.608049 
L 397.394318 233.853821 
L 405.329545 233.328897 
L 413.264773 233.377331 
L 421.2 233.718897 
L 429.135227 233.282613 
L 433 233.382299 
" style="fill:none;stroke:#ff0000;stroke-linecap:square;stroke-width:1.5;"/>
   </g>
   <g id="patch_3">
    <path d="M 72.05 237.2 
L 72.05 16.3 
" style="fill:none;stroke:#000000;stroke-linecap:square;stroke-linejoin:miter;stroke-width:0.8;"/>
   </g>
   <g id="patch_4">
    <path d="M 421.2 237.2 
L 421.2 16.3 
" style="fill:none;stroke:#000000;stroke-linecap:square;stroke-linejoin:miter;stroke-width:0.8;"/>
   </g>
   <g id="patch_5">
    <path d="M 72.05 237.2 
L 421.2 237.2 
" style="fill:none;stroke:#000000;stroke-linecap:square;stroke-linejoin:miter;stroke-width:0.8;"/>
   </g>
   <g id="patch_6">
    <path d="M 72.05 16.3 
L 421.2 16.3 
" style="fill:none;stroke:#000000;stroke-linecap:square;stroke-linejoin:miter;stroke-width:0.8;"/>
   </g>
  </g>
 </g>
 <defs>
  <clipPath id="p21d13d6b43">
   <rect height="220.9" width="349.15" x="72.05" y="16.3"/>
  </clipPath>
 </defs>
</svg>
