<?xml version="1.0" encoding="utf-8" standalone="no"?>
<!DOCTYPE svg PUBLIC "-//W3C//DTD SVG 1.1//EN"
  "http://www.w3.org/Graphics/SVG/1.1/DTD/svg11.dtd">
<!-- Created with matplotlib (https://matplotlib.org/) -->
<svg height="432pt" version="1.1" viewBox="0 0 864 432" width="864pt" xmlns="http://www.w3.org/2000/svg" xmlns:xlink="http://www.w3.org/1999/xlink">
 <defs>
  <style type="text/css">
*{stroke-linecap:butt;stroke-linejoin:round;}
  </style>
 </defs>
 <g id="figure_1">
  <g id="patch_1">
   <path d="M 0 432 
L 864 432 
L 864 0 
L 0 0 
z
" style="fill:#ffffff;"/>
  </g>
  <g id="axes_1">
   <g id="patch_2">
    <path d="M 57.05 364.225943 
L 853.2 364.225943 
L 853.2 26.8 
L 57.05 26.8 
z
" style="fill:#ffffff;"/>
   </g>
   <g id="patch_3">
    <path clip-path="url(#p98cbf3aedc)" d="M 93.238636 364.225943 
L 176.750874 364.225943 
L 176.750874 331.079761 
L 93.238636 331.079761 
z
" style="fill:#808080;opacity:0.8;stroke:#000000;stroke-linejoin:miter;"/>
   </g>
   <g id="patch_4">
    <path clip-path="url(#p98cbf3aedc)" d="M 278.821387 364.225943 
L 362.333625 364.225943 
L 362.333625 333.761213 
L 278.821387 333.761213 
z
" style="fill:#808080;opacity:0.8;stroke:#000000;stroke-linejoin:miter;"/>
   </g>
   <g id="patch_5">
    <path clip-path="url(#p98cbf3aedc)" d="M 464.404138 364.225943 
L 547.916375 364.225943 
L 547.916375 325.964844 
L 464.404138 325.964844 
z
" style="fill:#808080;opacity:0.8;stroke:#000000;stroke-linejoin:miter;"/>
   </g>
   <g id="patch_6">
    <path clip-path="url(#p98cbf3aedc)" d="M 649.986888 364.225943 
L 733.499126 364.225943 
L 733.499126 324.241919 
L 649.986888 324.241919 
z
" style="fill:#808080;opacity:0.8;stroke:#000000;stroke-linejoin:miter;"/>
   </g>
   <g id="patch_7">
    <path clip-path="url(#p98cbf3aedc)" d="M 176.750874 364.225943 
L 260.263112 364.225943 
L 260.263112 333.947155 
L 176.750874 333.947155 
z
" style="fill:#00ff00;opacity:0.8;stroke:#000000;stroke-linejoin:miter;"/>
   </g>
   <g id="patch_8">
    <path clip-path="url(#p98cbf3aedc)" d="M 362.333625 364.225943 
L 445.845862 364.225943 
L 445.845862 304.57613 
L 362.333625 304.57613 
z
" style="fill:#00ff00;opacity:0.8;stroke:#000000;stroke-linejoin:miter;"/>
   </g>
   <g id="patch_9">
    <path clip-path="url(#p98cbf3aedc)" d="M 547.916375 364.225943 
L 631.428613 364.225943 
L 631.428613 251.510773 
L 547.916375 251.510773 
z
" style="fill:#00ff00;opacity:0.8;stroke:#000000;stroke-linejoin:miter;"/>
   </g>
   <g id="patch_10">
    <path clip-path="url(#p98cbf3aedc)" d="M 733.499126 364.225943 
L 817.011364 364.225943 
L 817.011364 226.501052 
L 733.499126 226.501052 
z
" style="fill:#00ff00;opacity:0.8;stroke:#000000;stroke-linejoin:miter;"/>
   </g>
   <g id="matplotlib.axis_1">
    <g id="xtick_1">
     <g id="line2d_1">
      <defs>
       <path d="M 0 0 
L 0 3.5 
" id="m54e54219ea" style="stroke:#000000;stroke-width:0.8;"/>
      </defs>
      <g>
       <use style="stroke:#000000;stroke-width:0.8;" x="167.471737" xlink:href="#m54e54219ea" y="364.225943"/>
      </g>
     </g>
     <g id="text_1">
      <!-- 0 min -->
      <defs>
       <path d="M 31.78125 66.40625 
Q 24.171875 66.40625 20.328125 58.90625 
Q 16.5 51.421875 16.5 36.375 
Q 16.5 21.390625 20.328125 13.890625 
Q 24.171875 6.390625 31.78125 6.390625 
Q 39.453125 6.390625 43.28125 13.890625 
Q 47.125 21.390625 47.125 36.375 
Q 47.125 51.421875 43.28125 58.90625 
Q 39.453125 66.40625 31.78125 66.40625 
z
M 31.78125 74.21875 
Q 44.046875 74.21875 50.515625 64.515625 
Q 56.984375 54.828125 56.984375 36.375 
Q 56.984375 17.96875 50.515625 8.265625 
Q 44.046875 -1.421875 31.78125 -1.421875 
Q 19.53125 -1.421875 13.0625 8.265625 
Q 6.59375 17.96875 6.59375 36.375 
Q 6.59375 54.828125 13.0625 64.515625 
Q 19.53125 74.21875 31.78125 74.21875 
z
" id="DejaVuSans-48"/>
       <path id="DejaVuSans-32"/>
       <path d="M 52 44.1875 
Q 55.375 50.25 60.0625 53.125 
Q 64.75 56 71.09375 56 
Q 79.640625 56 84.28125 50.015625 
Q 88.921875 44.046875 88.921875 33.015625 
L 88.921875 0 
L 79.890625 0 
L 79.890625 32.71875 
Q 79.890625 40.578125 77.09375 44.375 
Q 74.3125 48.1875 68.609375 48.1875 
Q 61.625 48.1875 57.5625 43.546875 
Q 53.515625 38.921875 53.515625 30.90625 
L 53.515625 0 
L 44.484375 0 
L 44.484375 32.71875 
Q 44.484375 40.625 41.703125 44.40625 
Q 38.921875 48.1875 33.109375 48.1875 
Q 26.21875 48.1875 22.15625 43.53125 
Q 18.109375 38.875 18.109375 30.90625 
L 18.109375 0 
L 9.078125 0 
L 9.078125 54.6875 
L 18.109375 54.6875 
L 18.109375 46.1875 
Q 21.1875 51.21875 25.484375 53.609375 
Q 29.78125 56 35.6875 56 
Q 41.65625 56 45.828125 52.96875 
Q 50 49.953125 52 44.1875 
z
" id="DejaVuSans-109"/>
       <path d="M 9.421875 54.6875 
L 18.40625 54.6875 
L 18.40625 0 
L 9.421875 0 
z
M 9.421875 75.984375 
L 18.40625 75.984375 
L 18.40625 64.59375 
L 9.421875 64.59375 
z
" id="DejaVuSans-105"/>
       <path d="M 54.890625 33.015625 
L 54.890625 0 
L 45.90625 0 
L 45.90625 32.71875 
Q 45.90625 40.484375 42.875 44.328125 
Q 39.84375 48.1875 33.796875 48.1875 
Q 26.515625 48.1875 22.3125 43.546875 
Q 18.109375 38.921875 18.109375 30.90625 
L 18.109375 0 
L 9.078125 0 
L 9.078125 54.6875 
L 18.109375 54.6875 
L 18.109375 46.1875 
Q 21.34375 51.125 25.703125 53.5625 
Q 30.078125 56 35.796875 56 
Q 45.21875 56 50.046875 50.171875 
Q 54.890625 44.34375 54.890625 33.015625 
z
" id="DejaVuSans-110"/>
      </defs>
      <g transform="translate(159.383098 396.678472)rotate(-45)scale(0.1 -0.1)">
       <use xlink:href="#DejaVuSans-48"/>
       <use x="63.623047" xlink:href="#DejaVuSans-32"/>
       <use x="95.410156" xlink:href="#DejaVuSans-109"/>
       <use x="192.822266" xlink:href="#DejaVuSans-105"/>
       <use x="220.605469" xlink:href="#DejaVuSans-110"/>
      </g>
     </g>
    </g>
    <g id="xtick_2">
     <g id="line2d_2">
      <g>
       <use style="stroke:#000000;stroke-width:0.8;" x="353.054487" xlink:href="#m54e54219ea" y="364.225943"/>
      </g>
     </g>
     <g id="text_2">
      <!-- 300 min -->
      <defs>
       <path d="M 40.578125 39.3125 
Q 47.65625 37.796875 51.625 33 
Q 55.609375 28.21875 55.609375 21.1875 
Q 55.609375 10.40625 48.1875 4.484375 
Q 40.765625 -1.421875 27.09375 -1.421875 
Q 22.515625 -1.421875 17.65625 -0.515625 
Q 12.796875 0.390625 7.625 2.203125 
L 7.625 11.71875 
Q 11.71875 9.328125 16.59375 8.109375 
Q 21.484375 6.890625 26.8125 6.890625 
Q 36.078125 6.890625 40.9375 10.546875 
Q 45.796875 14.203125 45.796875 21.1875 
Q 45.796875 27.640625 41.28125 31.265625 
Q 36.765625 34.90625 28.71875 34.90625 
L 20.21875 34.90625 
L 20.21875 43.015625 
L 29.109375 43.015625 
Q 36.375 43.015625 40.234375 45.921875 
Q 44.09375 48.828125 44.09375 54.296875 
Q 44.09375 59.90625 40.109375 62.90625 
Q 36.140625 65.921875 28.71875 65.921875 
Q 24.65625 65.921875 20.015625 65.03125 
Q 15.375 64.15625 9.8125 62.3125 
L 9.8125 71.09375 
Q 15.4375 72.65625 20.34375 73.4375 
Q 25.25 74.21875 29.59375 74.21875 
Q 40.828125 74.21875 47.359375 69.109375 
Q 53.90625 64.015625 53.90625 55.328125 
Q 53.90625 49.265625 50.4375 45.09375 
Q 46.96875 40.921875 40.578125 39.3125 
z
" id="DejaVuSans-51"/>
      </defs>
      <g transform="translate(340.466882 405.676406)rotate(-45)scale(0.1 -0.1)">
       <use xlink:href="#DejaVuSans-51"/>
       <use x="63.623047" xlink:href="#DejaVuSans-48"/>
       <use x="127.246094" xlink:href="#DejaVuSans-48"/>
       <use x="190.869141" xlink:href="#DejaVuSans-32"/>
       <use x="222.65625" xlink:href="#DejaVuSans-109"/>
       <use x="320.068359" xlink:href="#DejaVuSans-105"/>
       <use x="347.851562" xlink:href="#DejaVuSans-110"/>
      </g>
     </g>
    </g>
    <g id="xtick_3">
     <g id="line2d_3">
      <g>
       <use style="stroke:#000000;stroke-width:0.8;" x="538.637238" xlink:href="#m54e54219ea" y="364.225943"/>
      </g>
     </g>
     <g id="text_3">
      <!-- 600 min -->
      <defs>
       <path d="M 33.015625 40.375 
Q 26.375 40.375 22.484375 35.828125 
Q 18.609375 31.296875 18.609375 23.390625 
Q 18.609375 15.53125 22.484375 10.953125 
Q 26.375 6.390625 33.015625 6.390625 
Q 39.65625 6.390625 43.53125 10.953125 
Q 47.40625 15.53125 47.40625 23.390625 
Q 47.40625 31.296875 43.53125 35.828125 
Q 39.65625 40.375 33.015625 40.375 
z
M 52.59375 71.296875 
L 52.59375 62.3125 
Q 48.875 64.0625 45.09375 64.984375 
Q 41.3125 65.921875 37.59375 65.921875 
Q 27.828125 65.921875 22.671875 59.328125 
Q 17.53125 52.734375 16.796875 39.40625 
Q 19.671875 43.65625 24.015625 45.921875 
Q 28.375 48.1875 33.59375 48.1875 
Q 44.578125 48.1875 50.953125 41.515625 
Q 57.328125 34.859375 57.328125 23.390625 
Q 57.328125 12.15625 50.6875 5.359375 
Q 44.046875 -1.421875 33.015625 -1.421875 
Q 20.359375 -1.421875 13.671875 8.265625 
Q 6.984375 17.96875 6.984375 36.375 
Q 6.984375 53.65625 15.1875 63.9375 
Q 23.390625 74.21875 37.203125 74.21875 
Q 40.921875 74.21875 44.703125 73.484375 
Q 48.484375 72.75 52.59375 71.296875 
z
" id="DejaVuSans-54"/>
      </defs>
      <g transform="translate(526.049632 405.676406)rotate(-45)scale(0.1 -0.1)">
       <use xlink:href="#DejaVuSans-54"/>
       <use x="63.623047" xlink:href="#DejaVuSans-48"/>
       <use x="127.246094" xlink:href="#DejaVuSans-48"/>
       <use x="190.869141" xlink:href="#DejaVuSans-32"/>
       <use x="222.65625" xlink:href="#DejaVuSans-109"/>
       <use x="320.068359" xlink:href="#DejaVuSans-105"/>
       <use x="347.851562" xlink:href="#DejaVuSans-110"/>
      </g>
     </g>
    </g>
    <g id="xtick_4">
     <g id="line2d_4">
      <g>
       <use style="stroke:#000000;stroke-width:0.8;" x="724.219988" xlink:href="#m54e54219ea" y="364.225943"/>
      </g>
     </g>
     <g id="text_4">
      <!-- 900 min -->
      <defs>
       <path d="M 10.984375 1.515625 
L 10.984375 10.5 
Q 14.703125 8.734375 18.5 7.8125 
Q 22.3125 6.890625 25.984375 6.890625 
Q 35.75 6.890625 40.890625 13.453125 
Q 46.046875 20.015625 46.78125 33.40625 
Q 43.953125 29.203125 39.59375 26.953125 
Q 35.25 24.703125 29.984375 24.703125 
Q 19.046875 24.703125 12.671875 31.3125 
Q 6.296875 37.9375 6.296875 49.421875 
Q 6.296875 60.640625 12.9375 67.421875 
Q 19.578125 74.21875 30.609375 74.21875 
Q 43.265625 74.21875 49.921875 64.515625 
Q 56.59375 54.828125 56.59375 36.375 
Q 56.59375 19.140625 48.40625 8.859375 
Q 40.234375 -1.421875 26.421875 -1.421875 
Q 22.703125 -1.421875 18.890625 -0.6875 
Q 15.09375 0.046875 10.984375 1.515625 
z
M 30.609375 32.421875 
Q 37.25 32.421875 41.125 36.953125 
Q 45.015625 41.5 45.015625 49.421875 
Q 45.015625 57.28125 41.125 61.84375 
Q 37.25 66.40625 30.609375 66.40625 
Q 23.96875 66.40625 20.09375 61.84375 
Q 16.21875 57.28125 16.21875 49.421875 
Q 16.21875 41.5 20.09375 36.953125 
Q 23.96875 32.421875 30.609375 32.421875 
z
" id="DejaVuSans-57"/>
      </defs>
      <g transform="translate(711.632383 405.676406)rotate(-45)scale(0.1 -0.1)">
       <use xlink:href="#DejaVuSans-57"/>
       <use x="63.623047" xlink:href="#DejaVuSans-48"/>
       <use x="127.246094" xlink:href="#DejaVuSans-48"/>
       <use x="190.869141" xlink:href="#DejaVuSans-32"/>
       <use x="222.65625" xlink:href="#DejaVuSans-109"/>
       <use x="320.068359" xlink:href="#DejaVuSans-105"/>
       <use x="347.851562" xlink:href="#DejaVuSans-110"/>
      </g>
     </g>
    </g>
    <g id="text_5">
     <!-- Time Points (min) -->
     <defs>
      <path d="M -0.296875 72.90625 
L 61.375 72.90625 
L 61.375 64.59375 
L 35.5 64.59375 
L 35.5 0 
L 25.59375 0 
L 25.59375 64.59375 
L -0.296875 64.59375 
z
" id="DejaVuSans-84"/>
      <path d="M 56.203125 29.59375 
L 56.203125 25.203125 
L 14.890625 25.203125 
Q 15.484375 15.921875 20.484375 11.0625 
Q 25.484375 6.203125 34.421875 6.203125 
Q 39.59375 6.203125 44.453125 7.46875 
Q 49.3125 8.734375 54.109375 11.28125 
L 54.109375 2.78125 
Q 49.265625 0.734375 44.1875 -0.34375 
Q 39.109375 -1.421875 33.890625 -1.421875 
Q 20.796875 -1.421875 13.15625 6.1875 
Q 5.515625 13.8125 5.515625 26.8125 
Q 5.515625 40.234375 12.765625 48.109375 
Q 20.015625 56 32.328125 56 
Q 43.359375 56 49.78125 48.890625 
Q 56.203125 41.796875 56.203125 29.59375 
z
M 47.21875 32.234375 
Q 47.125 39.59375 43.09375 43.984375 
Q 39.0625 48.390625 32.421875 48.390625 
Q 24.90625 48.390625 20.390625 44.140625 
Q 15.875 39.890625 15.1875 32.171875 
z
" id="DejaVuSans-101"/>
      <path d="M 19.671875 64.796875 
L 19.671875 37.40625 
L 32.078125 37.40625 
Q 38.96875 37.40625 42.71875 40.96875 
Q 46.484375 44.53125 46.484375 51.125 
Q 46.484375 57.671875 42.71875 61.234375 
Q 38.96875 64.796875 32.078125 64.796875 
z
M 9.8125 72.90625 
L 32.078125 72.90625 
Q 44.34375 72.90625 50.609375 67.359375 
Q 56.890625 61.8125 56.890625 51.125 
Q 56.890625 40.328125 50.609375 34.8125 
Q 44.34375 29.296875 32.078125 29.296875 
L 19.671875 29.296875 
L 19.671875 0 
L 9.8125 0 
z
" id="DejaVuSans-80"/>
      <path d="M 30.609375 48.390625 
Q 23.390625 48.390625 19.1875 42.75 
Q 14.984375 37.109375 14.984375 27.296875 
Q 14.984375 17.484375 19.15625 11.84375 
Q 23.34375 6.203125 30.609375 6.203125 
Q 37.796875 6.203125 41.984375 11.859375 
Q 46.1875 17.53125 46.1875 27.296875 
Q 46.1875 37.015625 41.984375 42.703125 
Q 37.796875 48.390625 30.609375 48.390625 
z
M 30.609375 56 
Q 42.328125 56 49.015625 48.375 
Q 55.71875 40.765625 55.71875 27.296875 
Q 55.71875 13.875 49.015625 6.21875 
Q 42.328125 -1.421875 30.609375 -1.421875 
Q 18.84375 -1.421875 12.171875 6.21875 
Q 5.515625 13.875 5.515625 27.296875 
Q 5.515625 40.765625 12.171875 48.375 
Q 18.84375 56 30.609375 56 
z
" id="DejaVuSans-111"/>
      <path d="M 18.3125 70.21875 
L 18.3125 54.6875 
L 36.8125 54.6875 
L 36.8125 47.703125 
L 18.3125 47.703125 
L 18.3125 18.015625 
Q 18.3125 11.328125 20.140625 9.421875 
Q 21.96875 7.515625 27.59375 7.515625 
L 36.8125 7.515625 
L 36.8125 0 
L 27.59375 0 
Q 17.1875 0 13.234375 3.875 
Q 9.28125 7.765625 9.28125 18.015625 
L 9.28125 47.703125 
L 2.6875 47.703125 
L 2.6875 54.6875 
L 9.28125 54.6875 
L 9.28125 70.21875 
z
" id="DejaVuSans-116"/>
      <path d="M 44.28125 53.078125 
L 44.28125 44.578125 
Q 40.484375 46.53125 36.375 47.5 
Q 32.28125 48.484375 27.875 48.484375 
Q 21.1875 48.484375 17.84375 46.4375 
Q 14.5 44.390625 14.5 40.28125 
Q 14.5 37.15625 16.890625 35.375 
Q 19.28125 33.59375 26.515625 31.984375 
L 29.59375 31.296875 
Q 39.15625 29.25 43.1875 25.515625 
Q 47.21875 21.78125 47.21875 15.09375 
Q 47.21875 7.46875 41.1875 3.015625 
Q 35.15625 -1.421875 24.609375 -1.421875 
Q 20.21875 -1.421875 15.453125 -0.5625 
Q 10.6875 0.296875 5.421875 2 
L 5.421875 11.28125 
Q 10.40625 8.6875 15.234375 7.390625 
Q 20.0625 6.109375 24.8125 6.109375 
Q 31.15625 6.109375 34.5625 8.28125 
Q 37.984375 10.453125 37.984375 14.40625 
Q 37.984375 18.0625 35.515625 20.015625 
Q 33.0625 21.96875 24.703125 23.78125 
L 21.578125 24.515625 
Q 13.234375 26.265625 9.515625 29.90625 
Q 5.8125 33.546875 5.8125 39.890625 
Q 5.8125 47.609375 11.28125 51.796875 
Q 16.75 56 26.8125 56 
Q 31.78125 56 36.171875 55.265625 
Q 40.578125 54.546875 44.28125 53.078125 
z
" id="DejaVuSans-115"/>
      <path d="M 31 75.875 
Q 24.46875 64.65625 21.28125 53.65625 
Q 18.109375 42.671875 18.109375 31.390625 
Q 18.109375 20.125 21.3125 9.0625 
Q 24.515625 -2 31 -13.1875 
L 23.1875 -13.1875 
Q 15.875 -1.703125 12.234375 9.375 
Q 8.59375 20.453125 8.59375 31.390625 
Q 8.59375 42.28125 12.203125 53.3125 
Q 15.828125 64.359375 23.1875 75.875 
z
" id="DejaVuSans-40"/>
      <path d="M 8.015625 75.875 
L 15.828125 75.875 
Q 23.140625 64.359375 26.78125 53.3125 
Q 30.421875 42.28125 30.421875 31.390625 
Q 30.421875 20.453125 26.78125 9.375 
Q 23.140625 -1.703125 15.828125 -13.1875 
L 8.015625 -13.1875 
Q 14.5 -2 17.703125 9.0625 
Q 20.90625 20.125 20.90625 31.390625 
Q 20.90625 42.671875 17.703125 53.65625 
Q 14.5 64.65625 8.015625 75.875 
z
" id="DejaVuSans-41"/>
     </defs>
     <g transform="translate(411.367969 418.745404)scale(0.1 -0.1)">
      <use xlink:href="#DejaVuSans-84"/>
      <use x="57.958984" xlink:href="#DejaVuSans-105"/>
      <use x="85.742188" xlink:href="#DejaVuSans-109"/>
      <use x="183.154297" xlink:href="#DejaVuSans-101"/>
      <use x="244.677734" xlink:href="#DejaVuSans-32"/>
      <use x="276.464844" xlink:href="#DejaVuSans-80"/>
      <use x="333.142578" xlink:href="#DejaVuSans-111"/>
      <use x="394.324219" xlink:href="#DejaVuSans-105"/>
      <use x="422.107422" xlink:href="#DejaVuSans-110"/>
      <use x="485.486328" xlink:href="#DejaVuSans-116"/>
      <use x="524.695312" xlink:href="#DejaVuSans-115"/>
      <use x="576.794922" xlink:href="#DejaVuSans-32"/>
      <use x="608.582031" xlink:href="#DejaVuSans-40"/>
      <use x="647.595703" xlink:href="#DejaVuSans-109"/>
      <use x="745.007812" xlink:href="#DejaVuSans-105"/>
      <use x="772.791016" xlink:href="#DejaVuSans-110"/>
      <use x="836.169922" xlink:href="#DejaVuSans-41"/>
     </g>
    </g>
   </g>
   <g id="matplotlib.axis_2">
    <g id="ytick_1">
     <g id="line2d_5">
      <defs>
       <path d="M 0 0 
L -3.5 0 
" id="m444851b996" style="stroke:#000000;stroke-width:0.8;"/>
      </defs>
      <g>
       <use style="stroke:#000000;stroke-width:0.8;" x="57.05" xlink:href="#m444851b996" y="364.225943"/>
      </g>
     </g>
     <g id="text_6">
      <!-- 0 -->
      <g transform="translate(43.6875 368.025161)scale(0.1 -0.1)">
       <use xlink:href="#DejaVuSans-48"/>
      </g>
     </g>
    </g>
    <g id="ytick_2">
     <g id="line2d_6">
      <g>
       <use style="stroke:#000000;stroke-width:0.8;" x="57.05" xlink:href="#m444851b996" y="316.282985"/>
      </g>
     </g>
     <g id="text_7">
      <!-- 200 -->
      <defs>
       <path d="M 19.1875 8.296875 
L 53.609375 8.296875 
L 53.609375 0 
L 7.328125 0 
L 7.328125 8.296875 
Q 12.9375 14.109375 22.625 23.890625 
Q 32.328125 33.6875 34.8125 36.53125 
Q 39.546875 41.84375 41.421875 45.53125 
Q 43.3125 49.21875 43.3125 52.78125 
Q 43.3125 58.59375 39.234375 62.25 
Q 35.15625 65.921875 28.609375 65.921875 
Q 23.96875 65.921875 18.8125 64.3125 
Q 13.671875 62.703125 7.8125 59.421875 
L 7.8125 69.390625 
Q 13.765625 71.78125 18.9375 73 
Q 24.125 74.21875 28.421875 74.21875 
Q 39.75 74.21875 46.484375 68.546875 
Q 53.21875 62.890625 53.21875 53.421875 
Q 53.21875 48.921875 51.53125 44.890625 
Q 49.859375 40.875 45.40625 35.40625 
Q 44.1875 33.984375 37.640625 27.21875 
Q 31.109375 20.453125 19.1875 8.296875 
z
" id="DejaVuSans-50"/>
      </defs>
      <g transform="translate(30.9625 320.082204)scale(0.1 -0.1)">
       <use xlink:href="#DejaVuSans-50"/>
       <use x="63.623047" xlink:href="#DejaVuSans-48"/>
       <use x="127.246094" xlink:href="#DejaVuSans-48"/>
      </g>
     </g>
    </g>
    <g id="ytick_3">
     <g id="line2d_7">
      <g>
       <use style="stroke:#000000;stroke-width:0.8;" x="57.05" xlink:href="#m444851b996" y="268.340027"/>
      </g>
     </g>
     <g id="text_8">
      <!-- 400 -->
      <defs>
       <path d="M 37.796875 64.3125 
L 12.890625 25.390625 
L 37.796875 25.390625 
z
M 35.203125 72.90625 
L 47.609375 72.90625 
L 47.609375 25.390625 
L 58.015625 25.390625 
L 58.015625 17.1875 
L 47.609375 17.1875 
L 47.609375 0 
L 37.796875 0 
L 37.796875 17.1875 
L 4.890625 17.1875 
L 4.890625 26.703125 
z
" id="DejaVuSans-52"/>
      </defs>
      <g transform="translate(30.9625 272.139246)scale(0.1 -0.1)">
       <use xlink:href="#DejaVuSans-52"/>
       <use x="63.623047" xlink:href="#DejaVuSans-48"/>
       <use x="127.246094" xlink:href="#DejaVuSans-48"/>
      </g>
     </g>
    </g>
    <g id="ytick_4">
     <g id="line2d_8">
      <g>
       <use style="stroke:#000000;stroke-width:0.8;" x="57.05" xlink:href="#m444851b996" y="220.39707"/>
      </g>
     </g>
     <g id="text_9">
      <!-- 600 -->
      <g transform="translate(30.9625 224.196289)scale(0.1 -0.1)">
       <use xlink:href="#DejaVuSans-54"/>
       <use x="63.623047" xlink:href="#DejaVuSans-48"/>
       <use x="127.246094" xlink:href="#DejaVuSans-48"/>
      </g>
     </g>
    </g>
    <g id="ytick_5">
     <g id="line2d_9">
      <g>
       <use style="stroke:#000000;stroke-width:0.8;" x="57.05" xlink:href="#m444851b996" y="172.454112"/>
      </g>
     </g>
     <g id="text_10">
      <!-- 800 -->
      <defs>
       <path d="M 31.78125 34.625 
Q 24.75 34.625 20.71875 30.859375 
Q 16.703125 27.09375 16.703125 20.515625 
Q 16.703125 13.921875 20.71875 10.15625 
Q 24.75 6.390625 31.78125 6.390625 
Q 38.8125 6.390625 42.859375 10.171875 
Q 46.921875 13.96875 46.921875 20.515625 
Q 46.921875 27.09375 42.890625 30.859375 
Q 38.875 34.625 31.78125 34.625 
z
M 21.921875 38.8125 
Q 15.578125 40.375 12.03125 44.71875 
Q 8.5 49.078125 8.5 55.328125 
Q 8.5 64.0625 14.71875 69.140625 
Q 20.953125 74.21875 31.78125 74.21875 
Q 42.671875 74.21875 48.875 69.140625 
Q 55.078125 64.0625 55.078125 55.328125 
Q 55.078125 49.078125 51.53125 44.71875 
Q 48 40.375 41.703125 38.8125 
Q 48.828125 37.15625 52.796875 32.3125 
Q 56.78125 27.484375 56.78125 20.515625 
Q 56.78125 9.90625 50.3125 4.234375 
Q 43.84375 -1.421875 31.78125 -1.421875 
Q 19.734375 -1.421875 13.25 4.234375 
Q 6.78125 9.90625 6.78125 20.515625 
Q 6.78125 27.484375 10.78125 32.3125 
Q 14.796875 37.15625 21.921875 38.8125 
z
M 18.3125 54.390625 
Q 18.3125 48.734375 21.84375 45.5625 
Q 25.390625 42.390625 31.78125 42.390625 
Q 38.140625 42.390625 41.71875 45.5625 
Q 45.3125 48.734375 45.3125 54.390625 
Q 45.3125 60.0625 41.71875 63.234375 
Q 38.140625 66.40625 31.78125 66.40625 
Q 25.390625 66.40625 21.84375 63.234375 
Q 18.3125 60.0625 18.3125 54.390625 
z
" id="DejaVuSans-56"/>
      </defs>
      <g transform="translate(30.9625 176.253331)scale(0.1 -0.1)">
       <use xlink:href="#DejaVuSans-56"/>
       <use x="63.623047" xlink:href="#DejaVuSans-48"/>
       <use x="127.246094" xlink:href="#DejaVuSans-48"/>
      </g>
     </g>
    </g>
    <g id="ytick_6">
     <g id="line2d_10">
      <g>
       <use style="stroke:#000000;stroke-width:0.8;" x="57.05" xlink:href="#m444851b996" y="124.511155"/>
      </g>
     </g>
     <g id="text_11">
      <!-- 1000 -->
      <defs>
       <path d="M 12.40625 8.296875 
L 28.515625 8.296875 
L 28.515625 63.921875 
L 10.984375 60.40625 
L 10.984375 69.390625 
L 28.421875 72.90625 
L 38.28125 72.90625 
L 38.28125 8.296875 
L 54.390625 8.296875 
L 54.390625 0 
L 12.40625 0 
z
" id="DejaVuSans-49"/>
      </defs>
      <g transform="translate(24.6 128.310374)scale(0.1 -0.1)">
       <use xlink:href="#DejaVuSans-49"/>
       <use x="63.623047" xlink:href="#DejaVuSans-48"/>
       <use x="127.246094" xlink:href="#DejaVuSans-48"/>
       <use x="190.869141" xlink:href="#DejaVuSans-48"/>
      </g>
     </g>
    </g>
    <g id="ytick_7">
     <g id="line2d_11">
      <g>
       <use style="stroke:#000000;stroke-width:0.8;" x="57.05" xlink:href="#m444851b996" y="76.568197"/>
      </g>
     </g>
     <g id="text_12">
      <!-- 1200 -->
      <g transform="translate(24.6 80.367416)scale(0.1 -0.1)">
       <use xlink:href="#DejaVuSans-49"/>
       <use x="63.623047" xlink:href="#DejaVuSans-50"/>
       <use x="127.246094" xlink:href="#DejaVuSans-48"/>
       <use x="190.869141" xlink:href="#DejaVuSans-48"/>
      </g>
     </g>
    </g>
    <g id="ytick_8">
     <g id="line2d_12">
      <g>
       <use style="stroke:#000000;stroke-width:0.8;" x="57.05" xlink:href="#m444851b996" y="28.62524"/>
      </g>
     </g>
     <g id="text_13">
      <!-- 1400 -->
      <g transform="translate(24.6 32.424458)scale(0.1 -0.1)">
       <use xlink:href="#DejaVuSans-49"/>
       <use x="63.623047" xlink:href="#DejaVuSans-52"/>
       <use x="127.246094" xlink:href="#DejaVuSans-48"/>
       <use x="190.869141" xlink:href="#DejaVuSans-48"/>
      </g>
     </g>
    </g>
    <g id="text_14">
     <!-- GFP Fluorescence -->
     <defs>
      <path d="M 59.515625 10.40625 
L 59.515625 29.984375 
L 43.40625 29.984375 
L 43.40625 38.09375 
L 69.28125 38.09375 
L 69.28125 6.78125 
Q 63.578125 2.734375 56.6875 0.65625 
Q 49.8125 -1.421875 42 -1.421875 
Q 24.90625 -1.421875 15.25 8.5625 
Q 5.609375 18.5625 5.609375 36.375 
Q 5.609375 54.25 15.25 64.234375 
Q 24.90625 74.21875 42 74.21875 
Q 49.125 74.21875 55.546875 72.453125 
Q 61.96875 70.703125 67.390625 67.28125 
L 67.390625 56.78125 
Q 61.921875 61.421875 55.765625 63.765625 
Q 49.609375 66.109375 42.828125 66.109375 
Q 29.4375 66.109375 22.71875 58.640625 
Q 16.015625 51.171875 16.015625 36.375 
Q 16.015625 21.625 22.71875 14.15625 
Q 29.4375 6.6875 42.828125 6.6875 
Q 48.046875 6.6875 52.140625 7.59375 
Q 56.25 8.5 59.515625 10.40625 
z
" id="DejaVuSans-71"/>
      <path d="M 9.8125 72.90625 
L 51.703125 72.90625 
L 51.703125 64.59375 
L 19.671875 64.59375 
L 19.671875 43.109375 
L 48.578125 43.109375 
L 48.578125 34.8125 
L 19.671875 34.8125 
L 19.671875 0 
L 9.8125 0 
z
" id="DejaVuSans-70"/>
      <path d="M 9.421875 75.984375 
L 18.40625 75.984375 
L 18.40625 0 
L 9.421875 0 
z
" id="DejaVuSans-108"/>
      <path d="M 8.5 21.578125 
L 8.5 54.6875 
L 17.484375 54.6875 
L 17.484375 21.921875 
Q 17.484375 14.15625 20.5 10.265625 
Q 23.53125 6.390625 29.59375 6.390625 
Q 36.859375 6.390625 41.078125 11.03125 
Q 45.3125 15.671875 45.3125 23.6875 
L 45.3125 54.6875 
L 54.296875 54.6875 
L 54.296875 0 
L 45.3125 0 
L 45.3125 8.40625 
Q 42.046875 3.421875 37.71875 1 
Q 33.40625 -1.421875 27.6875 -1.421875 
Q 18.265625 -1.421875 13.375 4.4375 
Q 8.5 10.296875 8.5 21.578125 
z
M 31.109375 56 
z
" id="DejaVuSans-117"/>
      <path d="M 41.109375 46.296875 
Q 39.59375 47.171875 37.8125 47.578125 
Q 36.03125 48 33.890625 48 
Q 26.265625 48 22.1875 43.046875 
Q 18.109375 38.09375 18.109375 28.8125 
L 18.109375 0 
L 9.078125 0 
L 9.078125 54.6875 
L 18.109375 54.6875 
L 18.109375 46.1875 
Q 20.953125 51.171875 25.484375 53.578125 
Q 30.03125 56 36.53125 56 
Q 37.453125 56 38.578125 55.875 
Q 39.703125 55.765625 41.0625 55.515625 
z
" id="DejaVuSans-114"/>
      <path d="M 48.78125 52.59375 
L 48.78125 44.1875 
Q 44.96875 46.296875 41.140625 47.34375 
Q 37.3125 48.390625 33.40625 48.390625 
Q 24.65625 48.390625 19.8125 42.84375 
Q 14.984375 37.3125 14.984375 27.296875 
Q 14.984375 17.28125 19.8125 11.734375 
Q 24.65625 6.203125 33.40625 6.203125 
Q 37.3125 6.203125 41.140625 7.25 
Q 44.96875 8.296875 48.78125 10.40625 
L 48.78125 2.09375 
Q 45.015625 0.34375 40.984375 -0.53125 
Q 36.96875 -1.421875 32.421875 -1.421875 
Q 20.0625 -1.421875 12.78125 6.34375 
Q 5.515625 14.109375 5.515625 27.296875 
Q 5.515625 40.671875 12.859375 48.328125 
Q 20.21875 56 33.015625 56 
Q 37.15625 56 41.109375 55.140625 
Q 45.0625 54.296875 48.78125 52.59375 
z
" id="DejaVuSans-99"/>
     </defs>
     <g transform="translate(18.520312 239.804378)rotate(-90)scale(0.1 -0.1)">
      <use xlink:href="#DejaVuSans-71"/>
      <use x="77.490234" xlink:href="#DejaVuSans-70"/>
      <use x="135.009766" xlink:href="#DejaVuSans-80"/>
      <use x="195.3125" xlink:href="#DejaVuSans-32"/>
      <use x="227.099609" xlink:href="#DejaVuSans-70"/>
      <use x="284.619141" xlink:href="#DejaVuSans-108"/>
      <use x="312.402344" xlink:href="#DejaVuSans-117"/>
      <use x="375.78125" xlink:href="#DejaVuSans-111"/>
      <use x="436.962891" xlink:href="#DejaVuSans-114"/>
      <use x="475.826172" xlink:href="#DejaVuSans-101"/>
      <use x="537.349609" xlink:href="#DejaVuSans-115"/>
      <use x="589.449219" xlink:href="#DejaVuSans-99"/>
      <use x="644.429688" xlink:href="#DejaVuSans-101"/>
      <use x="705.953125" xlink:href="#DejaVuSans-110"/>
      <use x="769.332031" xlink:href="#DejaVuSans-99"/>
      <use x="824.3125" xlink:href="#DejaVuSans-101"/>
     </g>
    </g>
   </g>
   <g id="LineCollection_1">
    <path clip-path="url(#p98cbf3aedc)" d="M 134.994755 345.921356 
L 134.994755 316.238166 
" style="fill:none;stroke:#000000;stroke-width:1.5;"/>
    <path clip-path="url(#p98cbf3aedc)" d="M 320.577506 343.671108 
L 320.577506 323.851318 
" style="fill:none;stroke:#000000;stroke-width:1.5;"/>
    <path clip-path="url(#p98cbf3aedc)" d="M 506.160256 339.315357 
L 506.160256 312.614331 
" style="fill:none;stroke:#000000;stroke-width:1.5;"/>
    <path clip-path="url(#p98cbf3aedc)" d="M 691.743007 336.853081 
L 691.743007 311.630756 
" style="fill:none;stroke:#000000;stroke-width:1.5;"/>
   </g>
   <g id="LineCollection_2">
    <path clip-path="url(#p98cbf3aedc)" d="M 218.506993 350.141493 
L 218.506993 317.752817 
" style="fill:none;stroke:#000000;stroke-width:1.5;"/>
    <path clip-path="url(#p98cbf3aedc)" d="M 404.089744 323.880536 
L 404.089744 285.271725 
" style="fill:none;stroke:#000000;stroke-width:1.5;"/>
    <path clip-path="url(#p98cbf3aedc)" d="M 589.672494 309.800518 
L 589.672494 193.221029 
" style="fill:none;stroke:#000000;stroke-width:1.5;"/>
    <path clip-path="url(#p98cbf3aedc)" d="M 775.255245 295.308585 
L 775.255245 157.693519 
" style="fill:none;stroke:#000000;stroke-width:1.5;"/>
   </g>
   <g id="PathCollection_1">
    <defs>
     <path d="M 0 3 
C 0.795609 3 1.55874 2.683901 2.12132 2.12132 
C 2.683901 1.55874 3 0.795609 3 0 
C 3 -0.795609 2.683901 -1.55874 2.12132 -2.12132 
C 1.55874 -2.683901 0.795609 -3 0 -3 
C -0.795609 -3 -1.55874 -2.683901 -2.12132 -2.12132 
C -2.683901 -1.55874 -3 -0.795609 -3 0 
C -3 0.795609 -2.683901 1.55874 -2.12132 2.12132 
C -1.55874 2.683901 -0.795609 3 0 3 
z
" id="m3e596b7f85" style="stroke:#000000;stroke-opacity:0.7;"/>
    </defs>
    <g clip-path="url(#p98cbf3aedc)">
     <use style="fill-opacity:0.7;stroke:#000000;stroke-opacity:0.7;" x="135.836102" xlink:href="#m3e596b7f85" y="300.565097"/>
     <use style="fill-opacity:0.7;stroke:#000000;stroke-opacity:0.7;" x="130.349643" xlink:href="#m3e596b7f85" y="332.578402"/>
     <use style="fill-opacity:0.7;stroke:#000000;stroke-opacity:0.7;" x="129.749304" xlink:href="#m3e596b7f85" y="321.236696"/>
     <use style="fill-opacity:0.7;stroke:#000000;stroke-opacity:0.7;" x="139.885912" xlink:href="#m3e596b7f85" y="319.412814"/>
     <use style="fill-opacity:0.7;stroke:#000000;stroke-opacity:0.7;" x="137.301763" xlink:href="#m3e596b7f85" y="322.35378"/>
     <use style="fill-opacity:0.7;stroke:#000000;stroke-opacity:0.7;" x="138.417494" xlink:href="#m3e596b7f85" y="336.118847"/>
     <use style="fill-opacity:0.7;stroke:#000000;stroke-opacity:0.7;" x="137.773161" xlink:href="#m3e596b7f85" y="353.437116"/>
     <use style="fill-opacity:0.7;stroke:#000000;stroke-opacity:0.7;" x="146.093304" xlink:href="#m3e596b7f85" y="354.190266"/>
     <use style="fill-opacity:0.7;stroke:#000000;stroke-opacity:0.7;" x="132.518571" xlink:href="#m3e596b7f85" y="353.739094"/>
     <use style="fill-opacity:0.7;stroke:#000000;stroke-opacity:0.7;" x="129.699249" xlink:href="#m3e596b7f85" y="336.099181"/>
     <use style="fill-opacity:0.7;stroke:#000000;stroke-opacity:0.7;" x="121.08885" xlink:href="#m3e596b7f85" y="317.642262"/>
     <use style="fill-opacity:0.7;stroke:#000000;stroke-opacity:0.7;" x="140.864029" xlink:href="#m3e596b7f85" y="334.375652"/>
     <use style="fill-opacity:0.7;stroke:#000000;stroke-opacity:0.7;" x="139.388037" xlink:href="#m3e596b7f85" y="318.649248"/>
     <use style="fill-opacity:0.7;stroke:#000000;stroke-opacity:0.7;" x="142.203694" xlink:href="#m3e596b7f85" y="340.349217"/>
     <use style="fill-opacity:0.7;stroke:#000000;stroke-opacity:0.7;" x="141.926952" xlink:href="#m3e596b7f85" y="325.448742"/>
    </g>
   </g>
   <g id="PathCollection_2">
    <g clip-path="url(#p98cbf3aedc)">
     <use style="fill-opacity:0.7;stroke:#000000;stroke-opacity:0.7;" x="223.055926" xlink:href="#m3e596b7f85" y="313.980775"/>
     <use style="fill-opacity:0.7;stroke:#000000;stroke-opacity:0.7;" x="223.931607" xlink:href="#m3e596b7f85" y="301.825464"/>
     <use style="fill-opacity:0.7;stroke:#000000;stroke-opacity:0.7;" x="215.655944" xlink:href="#m3e596b7f85" y="319.419781"/>
     <use style="fill-opacity:0.7;stroke:#000000;stroke-opacity:0.7;" x="220.38455" xlink:href="#m3e596b7f85" y="327.361803"/>
     <use style="fill-opacity:0.7;stroke:#000000;stroke-opacity:0.7;" x="222.903877" xlink:href="#m3e596b7f85" y="319.199247"/>
     <use style="fill-opacity:0.7;stroke:#000000;stroke-opacity:0.7;" x="219.146227" xlink:href="#m3e596b7f85" y="329.076109"/>
     <use style="fill-opacity:0.7;stroke:#000000;stroke-opacity:0.7;" x="215.135017" xlink:href="#m3e596b7f85" y="351.694186"/>
     <use style="fill-opacity:0.7;stroke:#000000;stroke-opacity:0.7;" x="236.99941" xlink:href="#m3e596b7f85" y="333.974005"/>
     <use style="fill-opacity:0.7;stroke:#000000;stroke-opacity:0.7;" x="211.116778" xlink:href="#m3e596b7f85" y="325.028238"/>
     <use style="fill-opacity:0.7;stroke:#000000;stroke-opacity:0.7;" x="228.20638" xlink:href="#m3e596b7f85" y="353.68306"/>
     <use style="fill-opacity:0.7;stroke:#000000;stroke-opacity:0.7;" x="214.991375" xlink:href="#m3e596b7f85" y="313.592108"/>
     <use style="fill-opacity:0.7;stroke:#000000;stroke-opacity:0.7;" x="216.039442" xlink:href="#m3e596b7f85" y="353.612712"/>
     <use style="fill-opacity:0.7;stroke:#000000;stroke-opacity:0.7;" x="215.22625" xlink:href="#m3e596b7f85" y="320.67859"/>
     <use style="fill-opacity:0.7;stroke:#000000;stroke-opacity:0.7;" x="232.368105" xlink:href="#m3e596b7f85" y="327.387231"/>
     <use style="fill-opacity:0.7;stroke:#000000;stroke-opacity:0.7;" x="217.604547" xlink:href="#m3e596b7f85" y="355.039453"/>
     <use style="fill-opacity:0.7;stroke:#000000;stroke-opacity:0.7;" x="208.202189" xlink:href="#m3e596b7f85" y="327.461818"/>
     <use style="fill-opacity:0.7;stroke:#000000;stroke-opacity:0.7;" x="238.336463" xlink:href="#m3e596b7f85" y="354.889509"/>
     <use style="fill-opacity:0.7;stroke:#000000;stroke-opacity:0.7;" x="238.199174" xlink:href="#m3e596b7f85" y="352.92611"/>
     <use style="fill-opacity:0.7;stroke:#000000;stroke-opacity:0.7;" x="211.914581" xlink:href="#m3e596b7f85" y="323.533463"/>
     <use style="fill-opacity:0.7;stroke:#000000;stroke-opacity:0.7;" x="216.784334" xlink:href="#m3e596b7f85" y="354.772049"/>
     <use style="fill-opacity:0.7;stroke:#000000;stroke-opacity:0.7;" x="229.661065" xlink:href="#m3e596b7f85" y="353.681736"/>
     <use style="fill-opacity:0.7;stroke:#000000;stroke-opacity:0.7;" x="197.652651" xlink:href="#m3e596b7f85" y="327.489827"/>
     <use style="fill-opacity:0.7;stroke:#000000;stroke-opacity:0.7;" x="222.712601" xlink:href="#m3e596b7f85" y="340.477299"/>
    </g>
   </g>
   <g id="PathCollection_3">
    <g clip-path="url(#p98cbf3aedc)">
     <use style="fill-opacity:0.7;stroke:#000000;stroke-opacity:0.7;" x="321.160821" xlink:href="#m3e596b7f85" y="308.058481"/>
     <use style="fill-opacity:0.7;stroke:#000000;stroke-opacity:0.7;" x="316.287997" xlink:href="#m3e596b7f85" y="337.675714"/>
     <use style="fill-opacity:0.7;stroke:#000000;stroke-opacity:0.7;" x="301.722606" xlink:href="#m3e596b7f85" y="324.937214"/>
     <use style="fill-opacity:0.7;stroke:#000000;stroke-opacity:0.7;" x="335.739943" xlink:href="#m3e596b7f85" y="316.775581"/>
     <use style="fill-opacity:0.7;stroke:#000000;stroke-opacity:0.7;" x="325.416274" xlink:href="#m3e596b7f85" y="341.430473"/>
     <use style="fill-opacity:0.7;stroke:#000000;stroke-opacity:0.7;" x="327.170224" xlink:href="#m3e596b7f85" y="335.59353"/>
     <use style="fill-opacity:0.7;stroke:#000000;stroke-opacity:0.7;" x="320.223337" xlink:href="#m3e596b7f85" y="339.302704"/>
     <use style="fill-opacity:0.7;stroke:#000000;stroke-opacity:0.7;" x="321.26363" xlink:href="#m3e596b7f85" y="344.292736"/>
     <use style="fill-opacity:0.7;stroke:#000000;stroke-opacity:0.7;" x="290.525834" xlink:href="#m3e596b7f85" y="341.333548"/>
     <use style="fill-opacity:0.7;stroke:#000000;stroke-opacity:0.7;" x="304.468201" xlink:href="#m3e596b7f85" y="342.905361"/>
     <use style="fill-opacity:0.7;stroke:#000000;stroke-opacity:0.7;" x="328.841671" xlink:href="#m3e596b7f85" y="327.906617"/>
     <use style="fill-opacity:0.7;stroke:#000000;stroke-opacity:0.7;" x="314.454978" xlink:href="#m3e596b7f85" y="338.116201"/>
     <use style="fill-opacity:0.7;stroke:#000000;stroke-opacity:0.7;" x="318.746405" xlink:href="#m3e596b7f85" y="336.532899"/>
     <use style="fill-opacity:0.7;stroke:#000000;stroke-opacity:0.7;" x="319.700442" xlink:href="#m3e596b7f85" y="338.68943"/>
     <use style="fill-opacity:0.7;stroke:#000000;stroke-opacity:0.7;" x="329.166381" xlink:href="#m3e596b7f85" y="332.867703"/>
    </g>
   </g>
   <g id="PathCollection_4">
    <g clip-path="url(#p98cbf3aedc)">
     <use style="fill-opacity:0.7;stroke:#000000;stroke-opacity:0.7;" x="409.278467" xlink:href="#m3e596b7f85" y="311.137731"/>
     <use style="fill-opacity:0.7;stroke:#000000;stroke-opacity:0.7;" x="408.805641" xlink:href="#m3e596b7f85" y="292.134511"/>
     <use style="fill-opacity:0.7;stroke:#000000;stroke-opacity:0.7;" x="397.409753" xlink:href="#m3e596b7f85" y="317.503804"/>
     <use style="fill-opacity:0.7;stroke:#000000;stroke-opacity:0.7;" x="401.531913" xlink:href="#m3e596b7f85" y="333.683494"/>
     <use style="fill-opacity:0.7;stroke:#000000;stroke-opacity:0.7;" x="390.132334" xlink:href="#m3e596b7f85" y="280.953744"/>
     <use style="fill-opacity:0.7;stroke:#000000;stroke-opacity:0.7;" x="414.825701" xlink:href="#m3e596b7f85" y="331.149827"/>
     <use style="fill-opacity:0.7;stroke:#000000;stroke-opacity:0.7;" x="397.134725" xlink:href="#m3e596b7f85" y="319.82402"/>
     <use style="fill-opacity:0.7;stroke:#000000;stroke-opacity:0.7;" x="416.401671" xlink:href="#m3e596b7f85" y="329.294573"/>
     <use style="fill-opacity:0.7;stroke:#000000;stroke-opacity:0.7;" x="394.56237" xlink:href="#m3e596b7f85" y="303.197584"/>
     <use style="fill-opacity:0.7;stroke:#000000;stroke-opacity:0.7;" x="406.454777" xlink:href="#m3e596b7f85" y="298.466301"/>
     <use style="fill-opacity:0.7;stroke:#000000;stroke-opacity:0.7;" x="394.763729" xlink:href="#m3e596b7f85" y="299.02145"/>
     <use style="fill-opacity:0.7;stroke:#000000;stroke-opacity:0.7;" x="407.88843" xlink:href="#m3e596b7f85" y="312.588593"/>
     <use style="fill-opacity:0.7;stroke:#000000;stroke-opacity:0.7;" x="395.986765" xlink:href="#m3e596b7f85" y="288.581966"/>
     <use style="fill-opacity:0.7;stroke:#000000;stroke-opacity:0.7;" x="419.009292" xlink:href="#m3e596b7f85" y="289.161525"/>
     <use style="fill-opacity:0.7;stroke:#000000;stroke-opacity:0.7;" x="404.286461" xlink:href="#m3e596b7f85" y="304.897425"/>
     <use style="fill-opacity:0.7;stroke:#000000;stroke-opacity:0.7;" x="388.318206" xlink:href="#m3e596b7f85" y="289.429852"/>
     <use style="fill-opacity:0.7;stroke:#000000;stroke-opacity:0.7;" x="412.023307" xlink:href="#m3e596b7f85" y="292.702369"/>
     <use style="fill-opacity:0.7;stroke:#000000;stroke-opacity:0.7;" x="393.630621" xlink:href="#m3e596b7f85" y="312.128878"/>
     <use style="fill-opacity:0.7;stroke:#000000;stroke-opacity:0.7;" x="396.511194" xlink:href="#m3e596b7f85" y="268.460727"/>
     <use style="fill-opacity:0.7;stroke:#000000;stroke-opacity:0.7;" x="405.363281" xlink:href="#m3e596b7f85" y="335.511789"/>
     <use style="fill-opacity:0.7;stroke:#000000;stroke-opacity:0.7;" x="402.020021" xlink:href="#m3e596b7f85" y="305.498039"/>
     <use style="fill-opacity:0.7;stroke:#000000;stroke-opacity:0.7;" x="412.315812" xlink:href="#m3e596b7f85" y="265.389728"/>
     <use style="fill-opacity:0.7;stroke:#000000;stroke-opacity:0.7;" x="401.373952" xlink:href="#m3e596b7f85" y="324.533069"/>
    </g>
   </g>
   <g id="PathCollection_5">
    <g clip-path="url(#p98cbf3aedc)">
     <use style="fill-opacity:0.7;stroke:#000000;stroke-opacity:0.7;" x="513.961753" xlink:href="#m3e596b7f85" y="299.301403"/>
     <use style="fill-opacity:0.7;stroke:#000000;stroke-opacity:0.7;" x="503.603027" xlink:href="#m3e596b7f85" y="332.473505"/>
     <use style="fill-opacity:0.7;stroke:#000000;stroke-opacity:0.7;" x="502.412382" xlink:href="#m3e596b7f85" y="317.773672"/>
     <use style="fill-opacity:0.7;stroke:#000000;stroke-opacity:0.7;" x="505.680741" xlink:href="#m3e596b7f85" y="299.960405"/>
     <use style="fill-opacity:0.7;stroke:#000000;stroke-opacity:0.7;" x="492.158071" xlink:href="#m3e596b7f85" y="340.098339"/>
     <use style="fill-opacity:0.7;stroke:#000000;stroke-opacity:0.7;" x="507.575878" xlink:href="#m3e596b7f85" y="326.520587"/>
     <use style="fill-opacity:0.7;stroke:#000000;stroke-opacity:0.7;" x="507.348605" xlink:href="#m3e596b7f85" y="340.628461"/>
     <use style="fill-opacity:0.7;stroke:#000000;stroke-opacity:0.7;" x="519.390048" xlink:href="#m3e596b7f85" y="340.062813"/>
     <use style="fill-opacity:0.7;stroke:#000000;stroke-opacity:0.7;" x="511.774851" xlink:href="#m3e596b7f85" y="337.005826"/>
     <use style="fill-opacity:0.7;stroke:#000000;stroke-opacity:0.7;" x="506.832324" xlink:href="#m3e596b7f85" y="330.79037"/>
     <use style="fill-opacity:0.7;stroke:#000000;stroke-opacity:0.7;" x="505.311508" xlink:href="#m3e596b7f85" y="309.665481"/>
     <use style="fill-opacity:0.7;stroke:#000000;stroke-opacity:0.7;" x="492.648944" xlink:href="#m3e596b7f85" y="335.16133"/>
     <use style="fill-opacity:0.7;stroke:#000000;stroke-opacity:0.7;" x="528.135917" xlink:href="#m3e596b7f85" y="320.398191"/>
     <use style="fill-opacity:0.7;stroke:#000000;stroke-opacity:0.7;" x="498.886814" xlink:href="#m3e596b7f85" y="331.685626"/>
     <use style="fill-opacity:0.7;stroke:#000000;stroke-opacity:0.7;" x="505.631337" xlink:href="#m3e596b7f85" y="327.946655"/>
    </g>
   </g>
   <g id="PathCollection_6">
    <g clip-path="url(#p98cbf3aedc)">
     <use style="fill-opacity:0.7;stroke:#000000;stroke-opacity:0.7;" x="596.258057" xlink:href="#m3e596b7f85" y="286.772962"/>
     <use style="fill-opacity:0.7;stroke:#000000;stroke-opacity:0.7;" x="593.452226" xlink:href="#m3e596b7f85" y="207.428199"/>
     <use style="fill-opacity:0.7;stroke:#000000;stroke-opacity:0.7;" x="588.180168" xlink:href="#m3e596b7f85" y="267.862339"/>
     <use style="fill-opacity:0.7;stroke:#000000;stroke-opacity:0.7;" x="584.060328" xlink:href="#m3e596b7f85" y="316.613017"/>
     <use style="fill-opacity:0.7;stroke:#000000;stroke-opacity:0.7;" x="590.210254" xlink:href="#m3e596b7f85" y="208.089458"/>
     <use style="fill-opacity:0.7;stroke:#000000;stroke-opacity:0.7;" x="579.48659" xlink:href="#m3e596b7f85" y="310.935071"/>
     <use style="fill-opacity:0.7;stroke:#000000;stroke-opacity:0.7;" x="599.77233" xlink:href="#m3e596b7f85" y="293.805237"/>
     <use style="fill-opacity:0.7;stroke:#000000;stroke-opacity:0.7;" x="594.74508" xlink:href="#m3e596b7f85" y="306.068931"/>
     <use style="fill-opacity:0.7;stroke:#000000;stroke-opacity:0.7;" x="595.979572" xlink:href="#m3e596b7f85" y="212.178303"/>
     <use style="fill-opacity:0.7;stroke:#000000;stroke-opacity:0.7;" x="586.730699" xlink:href="#m3e596b7f85" y="42.867902"/>
     <use style="fill-opacity:0.7;stroke:#000000;stroke-opacity:0.7;" x="587.423099" xlink:href="#m3e596b7f85" y="200.92941"/>
     <use style="fill-opacity:0.7;stroke:#000000;stroke-opacity:0.7;" x="582.351594" xlink:href="#m3e596b7f85" y="202.216933"/>
     <use style="fill-opacity:0.7;stroke:#000000;stroke-opacity:0.7;" x="571.88051" xlink:href="#m3e596b7f85" y="244.475103"/>
     <use style="fill-opacity:0.7;stroke:#000000;stroke-opacity:0.7;" x="590.542385" xlink:href="#m3e596b7f85" y="245.085492"/>
     <use style="fill-opacity:0.7;stroke:#000000;stroke-opacity:0.7;" x="589.094047" xlink:href="#m3e596b7f85" y="256.394538"/>
     <use style="fill-opacity:0.7;stroke:#000000;stroke-opacity:0.7;" x="592.322854" xlink:href="#m3e596b7f85" y="245.499125"/>
     <use style="fill-opacity:0.7;stroke:#000000;stroke-opacity:0.7;" x="594.94786" xlink:href="#m3e596b7f85" y="279.863721"/>
     <use style="fill-opacity:0.7;stroke:#000000;stroke-opacity:0.7;" x="594.902814" xlink:href="#m3e596b7f85" y="263.169948"/>
     <use style="fill-opacity:0.7;stroke:#000000;stroke-opacity:0.7;" x="583.406059" xlink:href="#m3e596b7f85" y="233.368923"/>
     <use style="fill-opacity:0.7;stroke:#000000;stroke-opacity:0.7;" x="589.556138" xlink:href="#m3e596b7f85" y="320.350877"/>
     <use style="fill-opacity:0.7;stroke:#000000;stroke-opacity:0.7;" x="584.934403" xlink:href="#m3e596b7f85" y="273.457528"/>
     <use style="fill-opacity:0.7;stroke:#000000;stroke-opacity:0.7;" x="590.208363" xlink:href="#m3e596b7f85" y="256.288431"/>
     <use style="fill-opacity:0.7;stroke:#000000;stroke-opacity:0.7;" x="598.526573" xlink:href="#m3e596b7f85" y="311.026339"/>
    </g>
   </g>
   <g id="PathCollection_7">
    <g clip-path="url(#p98cbf3aedc)">
     <use style="fill-opacity:0.7;stroke:#000000;stroke-opacity:0.7;" x="679.898138" xlink:href="#m3e596b7f85" y="305.588146"/>
     <use style="fill-opacity:0.7;stroke:#000000;stroke-opacity:0.7;" x="673.465908" xlink:href="#m3e596b7f85" y="330.144674"/>
     <use style="fill-opacity:0.7;stroke:#000000;stroke-opacity:0.7;" x="699.80787" xlink:href="#m3e596b7f85" y="297.170856"/>
     <use style="fill-opacity:0.7;stroke:#000000;stroke-opacity:0.7;" x="682.035545" xlink:href="#m3e596b7f85" y="306.940691"/>
     <use style="fill-opacity:0.7;stroke:#000000;stroke-opacity:0.7;" x="701.902048" xlink:href="#m3e596b7f85" y="328.893682"/>
     <use style="fill-opacity:0.7;stroke:#000000;stroke-opacity:0.7;" x="685.363759" xlink:href="#m3e596b7f85" y="325.709976"/>
     <use style="fill-opacity:0.7;stroke:#000000;stroke-opacity:0.7;" x="698.422976" xlink:href="#m3e596b7f85" y="340.096164"/>
     <use style="fill-opacity:0.7;stroke:#000000;stroke-opacity:0.7;" x="698.450305" xlink:href="#m3e596b7f85" y="330.361468"/>
     <use style="fill-opacity:0.7;stroke:#000000;stroke-opacity:0.7;" x="679.308367" xlink:href="#m3e596b7f85" y="339.142447"/>
     <use style="fill-opacity:0.7;stroke:#000000;stroke-opacity:0.7;" x="706.841056" xlink:href="#m3e596b7f85" y="333.39939"/>
     <use style="fill-opacity:0.7;stroke:#000000;stroke-opacity:0.7;" x="693.914646" xlink:href="#m3e596b7f85" y="314.016847"/>
     <use style="fill-opacity:0.7;stroke:#000000;stroke-opacity:0.7;" x="699.981676" xlink:href="#m3e596b7f85" y="336.053172"/>
     <use style="fill-opacity:0.7;stroke:#000000;stroke-opacity:0.7;" x="697.063297" xlink:href="#m3e596b7f85" y="318.573282"/>
     <use style="fill-opacity:0.7;stroke:#000000;stroke-opacity:0.7;" x="681.588576" xlink:href="#m3e596b7f85" y="332.950823"/>
     <use style="fill-opacity:0.7;stroke:#000000;stroke-opacity:0.7;" x="697.356384" xlink:href="#m3e596b7f85" y="324.587163"/>
    </g>
   </g>
   <g id="PathCollection_8">
    <g clip-path="url(#p98cbf3aedc)">
     <use style="fill-opacity:0.7;stroke:#000000;stroke-opacity:0.7;" x="771.517638" xlink:href="#m3e596b7f85" y="252.384904"/>
     <use style="fill-opacity:0.7;stroke:#000000;stroke-opacity:0.7;" x="784.956125" xlink:href="#m3e596b7f85" y="232.095922"/>
     <use style="fill-opacity:0.7;stroke:#000000;stroke-opacity:0.7;" x="770.62703" xlink:href="#m3e596b7f85" y="46.621355"/>
     <use style="fill-opacity:0.7;stroke:#000000;stroke-opacity:0.7;" x="771.543628" xlink:href="#m3e596b7f85" y="226.459554"/>
     <use style="fill-opacity:0.7;stroke:#000000;stroke-opacity:0.7;" x="775.02289" xlink:href="#m3e596b7f85" y="259.991839"/>
     <use style="fill-opacity:0.7;stroke:#000000;stroke-opacity:0.7;" x="775.800291" xlink:href="#m3e596b7f85" y="143.492446"/>
     <use style="fill-opacity:0.7;stroke:#000000;stroke-opacity:0.7;" x="782.539646" xlink:href="#m3e596b7f85" y="225.240669"/>
     <use style="fill-opacity:0.7;stroke:#000000;stroke-opacity:0.7;" x="765.336116" xlink:href="#m3e596b7f85" y="286.050163"/>
     <use style="fill-opacity:0.7;stroke:#000000;stroke-opacity:0.7;" x="771.44865" xlink:href="#m3e596b7f85" y="318.084629"/>
     <use style="fill-opacity:0.7;stroke:#000000;stroke-opacity:0.7;" x="772.204557" xlink:href="#m3e596b7f85" y="43.297967"/>
     <use style="fill-opacity:0.7;stroke:#000000;stroke-opacity:0.7;" x="762.385361" xlink:href="#m3e596b7f85" y="204.527399"/>
     <use style="fill-opacity:0.7;stroke:#000000;stroke-opacity:0.7;" x="775.965349" xlink:href="#m3e596b7f85" y="166.060774"/>
     <use style="fill-opacity:0.7;stroke:#000000;stroke-opacity:0.7;" x="763.81731" xlink:href="#m3e596b7f85" y="244.870106"/>
     <use style="fill-opacity:0.7;stroke:#000000;stroke-opacity:0.7;" x="786.006526" xlink:href="#m3e596b7f85" y="245.406974"/>
     <use style="fill-opacity:0.7;stroke:#000000;stroke-opacity:0.7;" x="757.981205" xlink:href="#m3e596b7f85" y="255.465618"/>
     <use style="fill-opacity:0.7;stroke:#000000;stroke-opacity:0.7;" x="778.679699" xlink:href="#m3e596b7f85" y="245.781633"/>
     <use style="fill-opacity:0.7;stroke:#000000;stroke-opacity:0.7;" x="786.890496" xlink:href="#m3e596b7f85" y="297.339661"/>
     <use style="fill-opacity:0.7;stroke:#000000;stroke-opacity:0.7;" x="770.29509" xlink:href="#m3e596b7f85" y="274.538832"/>
     <use style="fill-opacity:0.7;stroke:#000000;stroke-opacity:0.7;" x="764.267235" xlink:href="#m3e596b7f85" y="226.878419"/>
     <use style="fill-opacity:0.7;stroke:#000000;stroke-opacity:0.7;" x="770.770153" xlink:href="#m3e596b7f85" y="188.341428"/>
     <use style="fill-opacity:0.7;stroke:#000000;stroke-opacity:0.7;" x="759.007381" xlink:href="#m3e596b7f85" y="283.85456"/>
     <use style="fill-opacity:0.7;stroke:#000000;stroke-opacity:0.7;" x="789.24533" xlink:href="#m3e596b7f85" y="280.98868"/>
     <use style="fill-opacity:0.7;stroke:#000000;stroke-opacity:0.7;" x="787.179724" xlink:href="#m3e596b7f85" y="261.750667"/>
    </g>
   </g>
   <g id="line2d_13">
    <defs>
     <path d="M 3 0 
L -3 -0 
" id="m801abb3e44" style="stroke:#000000;"/>
    </defs>
    <g clip-path="url(#p98cbf3aedc)">
     <use style="stroke:#000000;" x="134.994755" xlink:href="#m801abb3e44" y="345.921356"/>
     <use style="stroke:#000000;" x="320.577506" xlink:href="#m801abb3e44" y="343.671108"/>
     <use style="stroke:#000000;" x="506.160256" xlink:href="#m801abb3e44" y="339.315357"/>
     <use style="stroke:#000000;" x="691.743007" xlink:href="#m801abb3e44" y="336.853081"/>
    </g>
   </g>
   <g id="line2d_14">
    <g clip-path="url(#p98cbf3aedc)">
     <use style="stroke:#000000;" x="134.994755" xlink:href="#m801abb3e44" y="316.238166"/>
     <use style="stroke:#000000;" x="320.577506" xlink:href="#m801abb3e44" y="323.851318"/>
     <use style="stroke:#000000;" x="506.160256" xlink:href="#m801abb3e44" y="312.614331"/>
     <use style="stroke:#000000;" x="691.743007" xlink:href="#m801abb3e44" y="311.630756"/>
    </g>
   </g>
   <g id="line2d_15">
    <g clip-path="url(#p98cbf3aedc)">
     <use style="stroke:#000000;" x="218.506993" xlink:href="#m801abb3e44" y="350.141493"/>
     <use style="stroke:#000000;" x="404.089744" xlink:href="#m801abb3e44" y="323.880536"/>
     <use style="stroke:#000000;" x="589.672494" xlink:href="#m801abb3e44" y="309.800518"/>
     <use style="stroke:#000000;" x="775.255245" xlink:href="#m801abb3e44" y="295.308585"/>
    </g>
   </g>
   <g id="line2d_16">
    <g clip-path="url(#p98cbf3aedc)">
     <use style="stroke:#000000;" x="218.506993" xlink:href="#m801abb3e44" y="317.752817"/>
     <use style="stroke:#000000;" x="404.089744" xlink:href="#m801abb3e44" y="285.271725"/>
     <use style="stroke:#000000;" x="589.672494" xlink:href="#m801abb3e44" y="193.221029"/>
     <use style="stroke:#000000;" x="775.255245" xlink:href="#m801abb3e44" y="157.693519"/>
    </g>
   </g>
   <g id="patch_11">
    <path d="M 57.05 364.225943 
L 57.05 26.8 
" style="fill:none;stroke:#000000;stroke-linecap:square;stroke-linejoin:miter;stroke-width:0.8;"/>
   </g>
   <g id="patch_12">
    <path d="M 853.2 364.225943 
L 853.2 26.8 
" style="fill:none;stroke:#000000;stroke-linecap:square;stroke-linejoin:miter;stroke-width:0.8;"/>
   </g>
   <g id="patch_13">
    <path d="M 57.05 364.225943 
L 853.2 364.225943 
" style="fill:none;stroke:#000000;stroke-linecap:square;stroke-linejoin:miter;stroke-width:0.8;"/>
   </g>
   <g id="patch_14">
    <path d="M 57.05 26.8 
L 853.2 26.8 
" style="fill:none;stroke:#000000;stroke-linecap:square;stroke-linejoin:miter;stroke-width:0.8;"/>
   </g>
   <g id="text_15">
    <!-- GFP Fluorescence at Different Time Points for NC and PC -->
    <defs>
     <path d="M 34.28125 27.484375 
Q 23.390625 27.484375 19.1875 25 
Q 14.984375 22.515625 14.984375 16.5 
Q 14.984375 11.71875 18.140625 8.90625 
Q 21.296875 6.109375 26.703125 6.109375 
Q 34.1875 6.109375 38.703125 11.40625 
Q 43.21875 16.703125 43.21875 25.484375 
L 43.21875 27.484375 
z
M 52.203125 31.203125 
L 52.203125 0 
L 43.21875 0 
L 43.21875 8.296875 
Q 40.140625 3.328125 35.546875 0.953125 
Q 30.953125 -1.421875 24.3125 -1.421875 
Q 15.921875 -1.421875 10.953125 3.296875 
Q 6 8.015625 6 15.921875 
Q 6 25.140625 12.171875 29.828125 
Q 18.359375 34.515625 30.609375 34.515625 
L 43.21875 34.515625 
L 43.21875 35.40625 
Q 43.21875 41.609375 39.140625 45 
Q 35.0625 48.390625 27.6875 48.390625 
Q 23 48.390625 18.546875 47.265625 
Q 14.109375 46.140625 10.015625 43.890625 
L 10.015625 52.203125 
Q 14.9375 54.109375 19.578125 55.046875 
Q 24.21875 56 28.609375 56 
Q 40.484375 56 46.34375 49.84375 
Q 52.203125 43.703125 52.203125 31.203125 
z
" id="DejaVuSans-97"/>
     <path d="M 19.671875 64.796875 
L 19.671875 8.109375 
L 31.59375 8.109375 
Q 46.6875 8.109375 53.6875 14.9375 
Q 60.6875 21.78125 60.6875 36.53125 
Q 60.6875 51.171875 53.6875 57.984375 
Q 46.6875 64.796875 31.59375 64.796875 
z
M 9.8125 72.90625 
L 30.078125 72.90625 
Q 51.265625 72.90625 61.171875 64.09375 
Q 71.09375 55.28125 71.09375 36.53125 
Q 71.09375 17.671875 61.125 8.828125 
Q 51.171875 0 30.078125 0 
L 9.8125 0 
z
" id="DejaVuSans-68"/>
     <path d="M 37.109375 75.984375 
L 37.109375 68.5 
L 28.515625 68.5 
Q 23.6875 68.5 21.796875 66.546875 
Q 19.921875 64.59375 19.921875 59.515625 
L 19.921875 54.6875 
L 34.71875 54.6875 
L 34.71875 47.703125 
L 19.921875 47.703125 
L 19.921875 0 
L 10.890625 0 
L 10.890625 47.703125 
L 2.296875 47.703125 
L 2.296875 54.6875 
L 10.890625 54.6875 
L 10.890625 58.5 
Q 10.890625 67.625 15.140625 71.796875 
Q 19.390625 75.984375 28.609375 75.984375 
z
" id="DejaVuSans-102"/>
     <path d="M 9.8125 72.90625 
L 23.09375 72.90625 
L 55.421875 11.921875 
L 55.421875 72.90625 
L 64.984375 72.90625 
L 64.984375 0 
L 51.703125 0 
L 19.390625 60.984375 
L 19.390625 0 
L 9.8125 0 
z
" id="DejaVuSans-78"/>
     <path d="M 64.40625 67.28125 
L 64.40625 56.890625 
Q 59.421875 61.53125 53.78125 63.8125 
Q 48.140625 66.109375 41.796875 66.109375 
Q 29.296875 66.109375 22.65625 58.46875 
Q 16.015625 50.828125 16.015625 36.375 
Q 16.015625 21.96875 22.65625 14.328125 
Q 29.296875 6.6875 41.796875 6.6875 
Q 48.140625 6.6875 53.78125 8.984375 
Q 59.421875 11.28125 64.40625 15.921875 
L 64.40625 5.609375 
Q 59.234375 2.09375 53.4375 0.328125 
Q 47.65625 -1.421875 41.21875 -1.421875 
Q 24.65625 -1.421875 15.125 8.703125 
Q 5.609375 18.84375 5.609375 36.375 
Q 5.609375 53.953125 15.125 64.078125 
Q 24.65625 74.21875 41.21875 74.21875 
Q 47.75 74.21875 53.53125 72.484375 
Q 59.328125 70.75 64.40625 67.28125 
z
" id="DejaVuSans-67"/>
     <path d="M 45.40625 46.390625 
L 45.40625 75.984375 
L 54.390625 75.984375 
L 54.390625 0 
L 45.40625 0 
L 45.40625 8.203125 
Q 42.578125 3.328125 38.25 0.953125 
Q 33.9375 -1.421875 27.875 -1.421875 
Q 17.96875 -1.421875 11.734375 6.484375 
Q 5.515625 14.40625 5.515625 27.296875 
Q 5.515625 40.1875 11.734375 48.09375 
Q 17.96875 56 27.875 56 
Q 33.9375 56 38.25 53.625 
Q 42.578125 51.265625 45.40625 46.390625 
z
M 14.796875 27.296875 
Q 14.796875 17.390625 18.875 11.75 
Q 22.953125 6.109375 30.078125 6.109375 
Q 37.203125 6.109375 41.296875 11.75 
Q 45.40625 17.390625 45.40625 27.296875 
Q 45.40625 37.203125 41.296875 42.84375 
Q 37.203125 48.484375 30.078125 48.484375 
Q 22.953125 48.484375 18.875 42.84375 
Q 14.796875 37.203125 14.796875 27.296875 
z
" id="DejaVuSans-100"/>
    </defs>
    <g transform="translate(285.586563 20.8)scale(0.12 -0.12)">
     <use xlink:href="#DejaVuSans-71"/>
     <use x="77.490234" xlink:href="#DejaVuSans-70"/>
     <use x="135.009766" xlink:href="#DejaVuSans-80"/>
     <use x="195.3125" xlink:href="#DejaVuSans-32"/>
     <use x="227.099609" xlink:href="#DejaVuSans-70"/>
     <use x="284.619141" xlink:href="#DejaVuSans-108"/>
     <use x="312.402344" xlink:href="#DejaVuSans-117"/>
     <use x="375.78125" xlink:href="#DejaVuSans-111"/>
     <use x="436.962891" xlink:href="#DejaVuSans-114"/>
     <use x="475.826172" xlink:href="#DejaVuSans-101"/>
     <use x="537.349609" xlink:href="#DejaVuSans-115"/>
     <use x="589.449219" xlink:href="#DejaVuSans-99"/>
     <use x="644.429688" xlink:href="#DejaVuSans-101"/>
     <use x="705.953125" xlink:href="#DejaVuSans-110"/>
     <use x="769.332031" xlink:href="#DejaVuSans-99"/>
     <use x="824.3125" xlink:href="#DejaVuSans-101"/>
     <use x="885.835938" xlink:href="#DejaVuSans-32"/>
     <use x="917.623047" xlink:href="#DejaVuSans-97"/>
     <use x="978.902344" xlink:href="#DejaVuSans-116"/>
     <use x="1018.111328" xlink:href="#DejaVuSans-32"/>
     <use x="1049.898438" xlink:href="#DejaVuSans-68"/>
     <use x="1126.900391" xlink:href="#DejaVuSans-105"/>
     <use x="1154.683594" xlink:href="#DejaVuSans-102"/>
     <use x="1189.888672" xlink:href="#DejaVuSans-102"/>
     <use x="1225.09375" xlink:href="#DejaVuSans-101"/>
     <use x="1286.617188" xlink:href="#DejaVuSans-114"/>
     <use x="1325.480469" xlink:href="#DejaVuSans-101"/>
     <use x="1387.003906" xlink:href="#DejaVuSans-110"/>
     <use x="1450.382812" xlink:href="#DejaVuSans-116"/>
     <use x="1489.591797" xlink:href="#DejaVuSans-32"/>
     <use x="1521.378906" xlink:href="#DejaVuSans-84"/>
     <use x="1579.337891" xlink:href="#DejaVuSans-105"/>
     <use x="1607.121094" xlink:href="#DejaVuSans-109"/>
     <use x="1704.533203" xlink:href="#DejaVuSans-101"/>
     <use x="1766.056641" xlink:href="#DejaVuSans-32"/>
     <use x="1797.84375" xlink:href="#DejaVuSans-80"/>
     <use x="1854.521484" xlink:href="#DejaVuSans-111"/>
     <use x="1915.703125" xlink:href="#DejaVuSans-105"/>
     <use x="1943.486328" xlink:href="#DejaVuSans-110"/>
     <use x="2006.865234" xlink:href="#DejaVuSans-116"/>
     <use x="2046.074219" xlink:href="#DejaVuSans-115"/>
     <use x="2098.173828" xlink:href="#DejaVuSans-32"/>
     <use x="2129.960938" xlink:href="#DejaVuSans-102"/>
     <use x="2165.166016" xlink:href="#DejaVuSans-111"/>
     <use x="2226.347656" xlink:href="#DejaVuSans-114"/>
     <use x="2267.460938" xlink:href="#DejaVuSans-32"/>
     <use x="2299.248047" xlink:href="#DejaVuSans-78"/>
     <use x="2374.052734" xlink:href="#DejaVuSans-67"/>
     <use x="2443.876953" xlink:href="#DejaVuSans-32"/>
     <use x="2475.664062" xlink:href="#DejaVuSans-97"/>
     <use x="2536.943359" xlink:href="#DejaVuSans-110"/>
     <use x="2600.322266" xlink:href="#DejaVuSans-100"/>
     <use x="2663.798828" xlink:href="#DejaVuSans-32"/>
     <use x="2695.585938" xlink:href="#DejaVuSans-80"/>
     <use x="2755.888672" xlink:href="#DejaVuSans-67"/>
    </g>
   </g>
   <g id="legend_1">
    <g id="patch_15">
     <path d="M 64.05 93.5125 
L 198.098438 93.5125 
Q 200.098438 93.5125 200.098438 91.5125 
L 200.098438 33.8 
Q 200.098438 31.8 198.098438 31.8 
L 64.05 31.8 
Q 62.05 31.8 62.05 33.8 
L 62.05 91.5125 
Q 62.05 93.5125 64.05 93.5125 
z
" style="fill:#ffffff;opacity:0.8;stroke:#cccccc;stroke-linejoin:miter;"/>
    </g>
    <g id="PathCollection_9">
     <g>
      <use style="fill-opacity:0.7;stroke:#000000;stroke-opacity:0.7;" x="76.05" xlink:href="#m3e596b7f85" y="40.773438"/>
     </g>
    </g>
    <g id="text_16">
     <!-- NC Individual values -->
     <defs>
      <path d="M 9.8125 72.90625 
L 19.671875 72.90625 
L 19.671875 0 
L 9.8125 0 
z
" id="DejaVuSans-73"/>
      <path d="M 2.984375 54.6875 
L 12.5 54.6875 
L 29.59375 8.796875 
L 46.6875 54.6875 
L 56.203125 54.6875 
L 35.6875 0 
L 23.484375 0 
z
" id="DejaVuSans-118"/>
     </defs>
     <g transform="translate(94.05 43.398438)scale(0.1 -0.1)">
      <use xlink:href="#DejaVuSans-78"/>
      <use x="74.804688" xlink:href="#DejaVuSans-67"/>
      <use x="144.628906" xlink:href="#DejaVuSans-32"/>
      <use x="176.416016" xlink:href="#DejaVuSans-73"/>
      <use x="205.908203" xlink:href="#DejaVuSans-110"/>
      <use x="269.287109" xlink:href="#DejaVuSans-100"/>
      <use x="332.763672" xlink:href="#DejaVuSans-105"/>
      <use x="360.546875" xlink:href="#DejaVuSans-118"/>
      <use x="419.726562" xlink:href="#DejaVuSans-105"/>
      <use x="447.509766" xlink:href="#DejaVuSans-100"/>
      <use x="510.986328" xlink:href="#DejaVuSans-117"/>
      <use x="574.365234" xlink:href="#DejaVuSans-97"/>
      <use x="635.644531" xlink:href="#DejaVuSans-108"/>
      <use x="663.427734" xlink:href="#DejaVuSans-32"/>
      <use x="695.214844" xlink:href="#DejaVuSans-118"/>
      <use x="754.394531" xlink:href="#DejaVuSans-97"/>
      <use x="815.673828" xlink:href="#DejaVuSans-108"/>
      <use x="843.457031" xlink:href="#DejaVuSans-117"/>
      <use x="906.835938" xlink:href="#DejaVuSans-101"/>
      <use x="968.359375" xlink:href="#DejaVuSans-115"/>
     </g>
    </g>
    <g id="PathCollection_10">
     <g>
      <use style="fill-opacity:0.7;stroke:#000000;stroke-opacity:0.7;" x="76.05" xlink:href="#m3e596b7f85" y="55.451563"/>
     </g>
    </g>
    <g id="text_17">
     <!-- PC Individual values -->
     <g transform="translate(94.05 58.076563)scale(0.1 -0.1)">
      <use xlink:href="#DejaVuSans-80"/>
      <use x="60.302734" xlink:href="#DejaVuSans-67"/>
      <use x="130.126953" xlink:href="#DejaVuSans-32"/>
      <use x="161.914062" xlink:href="#DejaVuSans-73"/>
      <use x="191.40625" xlink:href="#DejaVuSans-110"/>
      <use x="254.785156" xlink:href="#DejaVuSans-100"/>
      <use x="318.261719" xlink:href="#DejaVuSans-105"/>
      <use x="346.044922" xlink:href="#DejaVuSans-118"/>
      <use x="405.224609" xlink:href="#DejaVuSans-105"/>
      <use x="433.007812" xlink:href="#DejaVuSans-100"/>
      <use x="496.484375" xlink:href="#DejaVuSans-117"/>
      <use x="559.863281" xlink:href="#DejaVuSans-97"/>
      <use x="621.142578" xlink:href="#DejaVuSans-108"/>
      <use x="648.925781" xlink:href="#DejaVuSans-32"/>
      <use x="680.712891" xlink:href="#DejaVuSans-118"/>
      <use x="739.892578" xlink:href="#DejaVuSans-97"/>
      <use x="801.171875" xlink:href="#DejaVuSans-108"/>
      <use x="828.955078" xlink:href="#DejaVuSans-117"/>
      <use x="892.333984" xlink:href="#DejaVuSans-101"/>
      <use x="953.857422" xlink:href="#DejaVuSans-115"/>
     </g>
    </g>
    <g id="patch_16">
     <path d="M 66.05 72.754688 
L 86.05 72.754688 
L 86.05 65.754688 
L 66.05 65.754688 
z
" style="fill:#808080;opacity:0.8;stroke:#000000;stroke-linejoin:miter;"/>
    </g>
    <g id="text_18">
     <!-- NC Mean  SD -->
     <defs>
      <path d="M 9.8125 72.90625 
L 24.515625 72.90625 
L 43.109375 23.296875 
L 61.8125 72.90625 
L 76.515625 72.90625 
L 76.515625 0 
L 66.890625 0 
L 66.890625 64.015625 
L 48.09375 14.015625 
L 38.1875 14.015625 
L 19.390625 64.015625 
L 19.390625 0 
L 9.8125 0 
z
" id="DejaVuSans-77"/>
      <path d="M 46 62.703125 
L 46 43.796875 
L 73.1875 43.796875 
L 73.1875 35.5 
L 46 35.5 
L 46 16.609375 
L 37.796875 16.609375 
L 37.796875 35.5 
L 10.59375 35.5 
L 10.59375 43.796875 
L 37.796875 43.796875 
L 37.796875 62.703125 
z
M 10.59375 8.296875 
L 73.1875 8.296875 
L 73.1875 0 
L 10.59375 0 
z
" id="DejaVuSans-177"/>
      <path d="M 53.515625 70.515625 
L 53.515625 60.890625 
Q 47.90625 63.578125 42.921875 64.890625 
Q 37.9375 66.21875 33.296875 66.21875 
Q 25.25 66.21875 20.875 63.09375 
Q 16.5 59.96875 16.5 54.203125 
Q 16.5 49.359375 19.40625 46.890625 
Q 22.3125 44.4375 30.421875 42.921875 
L 36.375 41.703125 
Q 47.40625 39.59375 52.65625 34.296875 
Q 57.90625 29 57.90625 20.125 
Q 57.90625 9.515625 50.796875 4.046875 
Q 43.703125 -1.421875 29.984375 -1.421875 
Q 24.8125 -1.421875 18.96875 -0.25 
Q 13.140625 0.921875 6.890625 3.21875 
L 6.890625 13.375 
Q 12.890625 10.015625 18.65625 8.296875 
Q 24.421875 6.59375 29.984375 6.59375 
Q 38.421875 6.59375 43.015625 9.90625 
Q 47.609375 13.234375 47.609375 19.390625 
Q 47.609375 24.75 44.3125 27.78125 
Q 41.015625 30.8125 33.5 32.328125 
L 27.484375 33.5 
Q 16.453125 35.6875 11.515625 40.375 
Q 6.59375 45.0625 6.59375 53.421875 
Q 6.59375 63.09375 13.40625 68.65625 
Q 20.21875 74.21875 32.171875 74.21875 
Q 37.3125 74.21875 42.625 73.28125 
Q 47.953125 72.359375 53.515625 70.515625 
z
" id="DejaVuSans-83"/>
     </defs>
     <g transform="translate(94.05 72.754688)scale(0.1 -0.1)">
      <use xlink:href="#DejaVuSans-78"/>
      <use x="74.804688" xlink:href="#DejaVuSans-67"/>
      <use x="144.628906" xlink:href="#DejaVuSans-32"/>
      <use x="176.416016" xlink:href="#DejaVuSans-77"/>
      <use x="262.695312" xlink:href="#DejaVuSans-101"/>
      <use x="324.21875" xlink:href="#DejaVuSans-97"/>
      <use x="385.498047" xlink:href="#DejaVuSans-110"/>
      <use x="448.876953" xlink:href="#DejaVuSans-32"/>
      <use x="480.664062" xlink:href="#DejaVuSans-177"/>
      <use x="564.453125" xlink:href="#DejaVuSans-32"/>
      <use x="596.240234" xlink:href="#DejaVuSans-83"/>
      <use x="659.716797" xlink:href="#DejaVuSans-68"/>
     </g>
    </g>
    <g id="patch_17">
     <path d="M 66.05 87.432813 
L 86.05 87.432813 
L 86.05 80.432813 
L 66.05 80.432813 
z
" style="fill:#00ff00;opacity:0.8;stroke:#000000;stroke-linejoin:miter;"/>
    </g>
    <g id="text_19">
     <!-- PC Mean  SD -->
     <g transform="translate(94.05 87.432813)scale(0.1 -0.1)">
      <use xlink:href="#DejaVuSans-80"/>
      <use x="60.302734" xlink:href="#DejaVuSans-67"/>
      <use x="130.126953" xlink:href="#DejaVuSans-32"/>
      <use x="161.914062" xlink:href="#DejaVuSans-77"/>
      <use x="248.193359" xlink:href="#DejaVuSans-101"/>
      <use x="309.716797" xlink:href="#DejaVuSans-97"/>
      <use x="370.996094" xlink:href="#DejaVuSans-110"/>
      <use x="434.375" xlink:href="#DejaVuSans-32"/>
      <use x="466.162109" xlink:href="#DejaVuSans-177"/>
      <use x="549.951172" xlink:href="#DejaVuSans-32"/>
      <use x="581.738281" xlink:href="#DejaVuSans-83"/>
      <use x="645.214844" xlink:href="#DejaVuSans-68"/>
     </g>
    </g>
   </g>
  </g>
 </g>
 <defs>
  <clipPath id="p98cbf3aedc">
   <rect height="337.425943" width="796.15" x="57.05" y="26.8"/>
  </clipPath>
 </defs>
</svg>
