<?xml version="1.0" encoding="utf-8" standalone="no"?>
<!DOCTYPE svg PUBLIC "-//W3C//DTD SVG 1.1//EN"
  "http://www.w3.org/Graphics/SVG/1.1/DTD/svg11.dtd">
<!-- Created with matplotlib (https://matplotlib.org/) -->
<svg height="432pt" version="1.1" viewBox="0 0 720 432" width="720pt" xmlns="http://www.w3.org/2000/svg" xmlns:xlink="http://www.w3.org/1999/xlink">
 <defs>
  <style type="text/css">
*{stroke-linecap:butt;stroke-linejoin:round;}
  </style>
 </defs>
 <g id="figure_1">
  <g id="patch_1">
   <path d="M 0 432 
L 720 432 
L 720 0 
L 0 0 
z
" style="fill:#ffffff;"/>
  </g>
  <g id="axes_1">
   <g id="patch_2">
    <path d="M 90 378 
L 648 378 
L 648 51.84 
L 90 51.84 
z
" style="fill:#ffffff;"/>
   </g>
   <g id="PathCollection_1">
    <defs>
     <path d="M 0 3 
C 0.795609 3 1.55874 2.683901 2.12132 2.12132 
C 2.683901 1.55874 3 0.795609 3 0 
C 3 -0.795609 2.683901 -1.55874 2.12132 -2.12132 
C 1.55874 -2.683901 0.795609 -3 0 -3 
C -0.795609 -3 -1.55874 -2.683901 -2.12132 -2.12132 
C -2.683901 -1.55874 -3 -0.795609 -3 0 
C -3 0.795609 -2.683901 1.55874 -2.12132 2.12132 
C -1.55874 2.683901 -0.795609 3 0 3 
z
" id="m45acab0ea9" style="stroke:#ff0000;stroke-opacity:0.7;"/>
    </defs>
    <g clip-path="url(#p50e22efb9b)">
     <use style="fill:#ff0000;fill-opacity:0.7;stroke:#ff0000;stroke-opacity:0.7;" x="478.990738" xlink:href="#m45acab0ea9" y="339.729357"/>
     <use style="fill:#ff0000;fill-opacity:0.7;stroke:#ff0000;stroke-opacity:0.7;" x="362.044359" xlink:href="#m45acab0ea9" y="347.721123"/>
     <use style="fill:#ff0000;fill-opacity:0.7;stroke:#ff0000;stroke-opacity:0.7;" x="452.697059" xlink:href="#m45acab0ea9" y="356.585496"/>
     <use style="fill:#ff0000;fill-opacity:0.7;stroke:#ff0000;stroke-opacity:0.7;" x="316.322326" xlink:href="#m45acab0ea9" y="320.586031"/>
     <use style="fill:#ff0000;fill-opacity:0.7;stroke:#ff0000;stroke-opacity:0.7;" x="313.633316" xlink:href="#m45acab0ea9" y="304.776019"/>
     <use style="fill:#ff0000;fill-opacity:0.7;stroke:#ff0000;stroke-opacity:0.7;" x="525.770653" xlink:href="#m45acab0ea9" y="333.079632"/>
     <use style="fill:#ff0000;fill-opacity:0.7;stroke:#ff0000;stroke-opacity:0.7;" x="513.576384" xlink:href="#m45acab0ea9" y="342.915617"/>
     <use style="fill:#ff0000;fill-opacity:0.7;stroke:#ff0000;stroke-opacity:0.7;" x="304.54453" xlink:href="#m45acab0ea9" y="279.988171"/>
     <use style="fill:#ff0000;fill-opacity:0.7;stroke:#ff0000;stroke-opacity:0.7;" x="279.465506" xlink:href="#m45acab0ea9" y="282.239815"/>
     <use style="fill:#ff0000;fill-opacity:0.7;stroke:#ff0000;stroke-opacity:0.7;" x="459.046394" xlink:href="#m45acab0ea9" y="328.335131"/>
     <use style="fill:#ff0000;fill-opacity:0.7;stroke:#ff0000;stroke-opacity:0.7;" x="440.867459" xlink:href="#m45acab0ea9" y="293.194307"/>
     <use style="fill:#ff0000;fill-opacity:0.7;stroke:#ff0000;stroke-opacity:0.7;" x="352.869688" xlink:href="#m45acab0ea9" y="351.054469"/>
     <use style="fill:#ff0000;fill-opacity:0.7;stroke:#ff0000;stroke-opacity:0.7;" x="379.889298" xlink:href="#m45acab0ea9" y="307.110984"/>
     <use style="fill:#ff0000;fill-opacity:0.7;stroke:#ff0000;stroke-opacity:0.7;" x="404.516405" xlink:href="#m45acab0ea9" y="299.232995"/>
     <use style="fill:#ff0000;fill-opacity:0.7;stroke:#ff0000;stroke-opacity:0.7;" x="259.809489" xlink:href="#m45acab0ea9" y="290.788529"/>
     <use style="fill:#ff0000;fill-opacity:0.7;stroke:#ff0000;stroke-opacity:0.7;" x="434.023945" xlink:href="#m45acab0ea9" y="292.057216"/>
     <use style="fill:#ff0000;fill-opacity:0.7;stroke:#ff0000;stroke-opacity:0.7;" x="297.4679" xlink:href="#m45acab0ea9" y="297.796521"/>
     <use style="fill:#ff0000;fill-opacity:0.7;stroke:#ff0000;stroke-opacity:0.7;" x="313.635361" xlink:href="#m45acab0ea9" y="290.354708"/>
     <use style="fill:#ff0000;fill-opacity:0.7;stroke:#ff0000;stroke-opacity:0.7;" x="268.993021" xlink:href="#m45acab0ea9" y="276.348032"/>
     <use style="fill:#ff0000;fill-opacity:0.7;stroke:#ff0000;stroke-opacity:0.7;" x="270.91793" xlink:href="#m45acab0ea9" y="305.808932"/>
     <use style="fill:#ff0000;fill-opacity:0.7;stroke:#ff0000;stroke-opacity:0.7;" x="425.701306" xlink:href="#m45acab0ea9" y="329.18774"/>
     <use style="fill:#ff0000;fill-opacity:0.7;stroke:#ff0000;stroke-opacity:0.7;" x="241.660546" xlink:href="#m45acab0ea9" y="301.797756"/>
     <use style="fill:#ff0000;fill-opacity:0.7;stroke:#ff0000;stroke-opacity:0.7;" x="271.826536" xlink:href="#m45acab0ea9" y="263.515349"/>
     <use style="fill:#ff0000;fill-opacity:0.7;stroke:#ff0000;stroke-opacity:0.7;" x="252.95507" xlink:href="#m45acab0ea9" y="259.60827"/>
     <use style="fill:#ff0000;fill-opacity:0.7;stroke:#ff0000;stroke-opacity:0.7;" x="488.560751" xlink:href="#m45acab0ea9" y="339.333846"/>
     <use style="fill:#ff0000;fill-opacity:0.7;stroke:#ff0000;stroke-opacity:0.7;" x="296.613824" xlink:href="#m45acab0ea9" y="274.509159"/>
     <use style="fill:#ff0000;fill-opacity:0.7;stroke:#ff0000;stroke-opacity:0.7;" x="316.322326" xlink:href="#m45acab0ea9" y="304.264197"/>
     <use style="fill:#ff0000;fill-opacity:0.7;stroke:#ff0000;stroke-opacity:0.7;" x="404.516405" xlink:href="#m45acab0ea9" y="336.688642"/>
     <use style="fill:#ff0000;fill-opacity:0.7;stroke:#ff0000;stroke-opacity:0.7;" x="223.885814" xlink:href="#m45acab0ea9" y="315.076427"/>
     <use style="fill:#ff0000;fill-opacity:0.7;stroke:#ff0000;stroke-opacity:0.7;" x="296.761737" xlink:href="#m45acab0ea9" y="275.196735"/>
     <use style="fill:#ff0000;fill-opacity:0.7;stroke:#ff0000;stroke-opacity:0.7;" x="322.72142" xlink:href="#m45acab0ea9" y="305.986192"/>
     <use style="fill:#ff0000;fill-opacity:0.7;stroke:#ff0000;stroke-opacity:0.7;" x="351.089284" xlink:href="#m45acab0ea9" y="292.352724"/>
     <use style="fill:#ff0000;fill-opacity:0.7;stroke:#ff0000;stroke-opacity:0.7;" x="405.819671" xlink:href="#m45acab0ea9" y="357.839091"/>
     <use style="fill:#ff0000;fill-opacity:0.7;stroke:#ff0000;stroke-opacity:0.7;" x="352.329841" xlink:href="#m45acab0ea9" y="292.172275"/>
     <use style="fill:#ff0000;fill-opacity:0.7;stroke:#ff0000;stroke-opacity:0.7;" x="314.45331" xlink:href="#m45acab0ea9" y="356.653535"/>
     <use style="fill:#ff0000;fill-opacity:0.7;stroke:#ff0000;stroke-opacity:0.7;" x="252.79148" xlink:href="#m45acab0ea9" y="299.176832"/>
    </g>
   </g>
   <g id="PathCollection_2">
    <defs>
     <path d="M 0 3 
C 0.795609 3 1.55874 2.683901 2.12132 2.12132 
C 2.683901 1.55874 3 0.795609 3 0 
C 3 -0.795609 2.683901 -1.55874 2.12132 -2.12132 
C 1.55874 -2.683901 0.795609 -3 0 -3 
C -0.795609 -3 -1.55874 -2.683901 -2.12132 -2.12132 
C -2.683901 -1.55874 -3 -0.795609 -3 0 
C -3 0.795609 -2.683901 1.55874 -2.12132 2.12132 
C -1.55874 2.683901 -0.795609 3 0 3 
z
" id="mab9d2e7e57" style="stroke:#00008b;stroke-opacity:0.7;"/>
    </defs>
    <g clip-path="url(#p50e22efb9b)">
     <use style="fill:#00008b;fill-opacity:0.7;stroke:#00008b;stroke-opacity:0.7;" x="299.290565" xlink:href="#mab9d2e7e57" y="229.495777"/>
     <use style="fill:#00008b;fill-opacity:0.7;stroke:#00008b;stroke-opacity:0.7;" x="413.604509" xlink:href="#mab9d2e7e57" y="228.950528"/>
     <use style="fill:#00008b;fill-opacity:0.7;stroke:#00008b;stroke-opacity:0.7;" x="313.633316" xlink:href="#mab9d2e7e57" y="217.058878"/>
     <use style="fill:#00008b;fill-opacity:0.7;stroke:#00008b;stroke-opacity:0.7;" x="379.405344" xlink:href="#mab9d2e7e57" y="179.932445"/>
     <use style="fill:#00008b;fill-opacity:0.7;stroke:#00008b;stroke-opacity:0.7;" x="196.481086" xlink:href="#mab9d2e7e57" y="271.457071"/>
     <use style="fill:#00008b;fill-opacity:0.7;stroke:#00008b;stroke-opacity:0.7;" x="151.394327" xlink:href="#mab9d2e7e57" y="232.578851"/>
     <use style="fill:#00008b;fill-opacity:0.7;stroke:#00008b;stroke-opacity:0.7;" x="260.148257" xlink:href="#mab9d2e7e57" y="207.484467"/>
     <use style="fill:#00008b;fill-opacity:0.7;stroke:#00008b;stroke-opacity:0.7;" x="197.302444" xlink:href="#mab9d2e7e57" y="294.964996"/>
     <use style="fill:#00008b;fill-opacity:0.7;stroke:#00008b;stroke-opacity:0.7;" x="234.362388" xlink:href="#mab9d2e7e57" y="275.545972"/>
     <use style="fill:#00008b;fill-opacity:0.7;stroke:#00008b;stroke-opacity:0.7;" x="259.809489" xlink:href="#mab9d2e7e57" y="149.385957"/>
     <use style="fill:#00008b;fill-opacity:0.7;stroke:#00008b;stroke-opacity:0.7;" x="224.097117" xlink:href="#mab9d2e7e57" y="221.285123"/>
     <use style="fill:#00008b;fill-opacity:0.7;stroke:#00008b;stroke-opacity:0.7;" x="150.489129" xlink:href="#mab9d2e7e57" y="163.998587"/>
     <use style="fill:#00008b;fill-opacity:0.7;stroke:#00008b;stroke-opacity:0.7;" x="150.514349" xlink:href="#mab9d2e7e57" y="239.250145"/>
     <use style="fill:#00008b;fill-opacity:0.7;stroke:#00008b;stroke-opacity:0.7;" x="360.210788" xlink:href="#mab9d2e7e57" y="274.180079"/>
     <use style="fill:#00008b;fill-opacity:0.7;stroke:#00008b;stroke-opacity:0.7;" x="478.31593" xlink:href="#mab9d2e7e57" y="263.201045"/>
     <use style="fill:#00008b;fill-opacity:0.7;stroke:#00008b;stroke-opacity:0.7;" x="226.347161" xlink:href="#mab9d2e7e57" y="303.576772"/>
     <use style="fill:#00008b;fill-opacity:0.7;stroke:#00008b;stroke-opacity:0.7;" x="213.661441" xlink:href="#mab9d2e7e57" y="204.822267"/>
     <use style="fill:#00008b;fill-opacity:0.7;stroke:#00008b;stroke-opacity:0.7;" x="222.749545" xlink:href="#mab9d2e7e57" y="309.859263"/>
     <use style="fill:#00008b;fill-opacity:0.7;stroke:#00008b;stroke-opacity:0.7;" x="223.520463" xlink:href="#mab9d2e7e57" y="306.456873"/>
     <use style="fill:#00008b;fill-opacity:0.7;stroke:#00008b;stroke-opacity:0.7;" x="287.482778" xlink:href="#mab9d2e7e57" y="203.955745"/>
     <use style="fill:#00008b;fill-opacity:0.7;stroke:#00008b;stroke-opacity:0.7;" x="243.312123" xlink:href="#mab9d2e7e57" y="295.093877"/>
     <use style="fill:#00008b;fill-opacity:0.7;stroke:#00008b;stroke-opacity:0.7;" x="188.401105" xlink:href="#mab9d2e7e57" y="262.787465"/>
     <use style="fill:#00008b;fill-opacity:0.7;stroke:#00008b;stroke-opacity:0.7;" x="177.308341" xlink:href="#mab9d2e7e57" y="256.416213"/>
     <use style="fill:#00008b;fill-opacity:0.7;stroke:#00008b;stroke-opacity:0.7;" x="204.573336" xlink:href="#mab9d2e7e57" y="253.979493"/>
     <use style="fill:#00008b;fill-opacity:0.7;stroke:#00008b;stroke-opacity:0.7;" x="181.852053" xlink:href="#mab9d2e7e57" y="124.209283"/>
     <use style="fill:#00008b;fill-opacity:0.7;stroke:#00008b;stroke-opacity:0.7;" x="236.887127" xlink:href="#mab9d2e7e57" y="248.681125"/>
     <use style="fill:#00008b;fill-opacity:0.7;stroke:#00008b;stroke-opacity:0.7;" x="243.095366" xlink:href="#mab9d2e7e57" y="129.489804"/>
     <use style="fill:#00008b;fill-opacity:0.7;stroke:#00008b;stroke-opacity:0.7;" x="361.165063" xlink:href="#mab9d2e7e57" y="225.25329"/>
     <use style="fill:#00008b;fill-opacity:0.7;stroke:#00008b;stroke-opacity:0.7;" x="478.793749" xlink:href="#mab9d2e7e57" y="126.849135"/>
     <use style="fill:#00008b;fill-opacity:0.7;stroke:#00008b;stroke-opacity:0.7;" x="622.636364" xlink:href="#mab9d2e7e57" y="221.844343"/>
     <use style="fill:#00008b;fill-opacity:0.7;stroke:#00008b;stroke-opacity:0.7;" x="335.516882" xlink:href="#mab9d2e7e57" y="253.697083"/>
     <use style="fill:#00008b;fill-opacity:0.7;stroke:#00008b;stroke-opacity:0.7;" x="250.957909" xlink:href="#mab9d2e7e57" y="187.785516"/>
     <use style="fill:#00008b;fill-opacity:0.7;stroke:#00008b;stroke-opacity:0.7;" x="251.014484" xlink:href="#mab9d2e7e57" y="215.052873"/>
     <use style="fill:#00008b;fill-opacity:0.7;stroke:#00008b;stroke-opacity:0.7;" x="287.422795" xlink:href="#mab9d2e7e57" y="210.251765"/>
     <use style="fill:#00008b;fill-opacity:0.7;stroke:#00008b;stroke-opacity:0.7;" x="386.339514" xlink:href="#mab9d2e7e57" y="291.447144"/>
     <use style="fill:#00008b;fill-opacity:0.7;stroke:#00008b;stroke-opacity:0.7;" x="515.280446" xlink:href="#mab9d2e7e57" y="66.665455"/>
     <use style="fill:#00008b;fill-opacity:0.7;stroke:#00008b;stroke-opacity:0.7;" x="195.48455" xlink:href="#mab9d2e7e57" y="183.676068"/>
     <use style="fill:#00008b;fill-opacity:0.7;stroke:#00008b;stroke-opacity:0.7;" x="180.842566" xlink:href="#mab9d2e7e57" y="146.017157"/>
     <use style="fill:#00008b;fill-opacity:0.7;stroke:#00008b;stroke-opacity:0.7;" x="251.576824" xlink:href="#mab9d2e7e57" y="214.231724"/>
     <use style="fill:#00008b;fill-opacity:0.7;stroke:#00008b;stroke-opacity:0.7;" x="242.289685" xlink:href="#mab9d2e7e57" y="241.623835"/>
     <use style="fill:#00008b;fill-opacity:0.7;stroke:#00008b;stroke-opacity:0.7;" x="168.890956" xlink:href="#mab9d2e7e57" y="267.582535"/>
     <use style="fill:#00008b;fill-opacity:0.7;stroke:#00008b;stroke-opacity:0.7;" x="140.954561" xlink:href="#mab9d2e7e57" y="199.086433"/>
     <use style="fill:#00008b;fill-opacity:0.7;stroke:#00008b;stroke-opacity:0.7;" x="223.38482" xlink:href="#mab9d2e7e57" y="306.690818"/>
     <use style="fill:#00008b;fill-opacity:0.7;stroke:#00008b;stroke-opacity:0.7;" x="234.67798" xlink:href="#mab9d2e7e57" y="250.5529"/>
     <use style="fill:#00008b;fill-opacity:0.7;stroke:#00008b;stroke-opacity:0.7;" x="261.591257" xlink:href="#mab9d2e7e57" y="260.250446"/>
     <use style="fill:#00008b;fill-opacity:0.7;stroke:#00008b;stroke-opacity:0.7;" x="159.676751" xlink:href="#mab9d2e7e57" y="196.145366"/>
     <use style="fill:#00008b;fill-opacity:0.7;stroke:#00008b;stroke-opacity:0.7;" x="131.866456" xlink:href="#mab9d2e7e57" y="247.631539"/>
     <use style="fill:#00008b;fill-opacity:0.7;stroke:#00008b;stroke-opacity:0.7;" x="150.575014" xlink:href="#mab9d2e7e57" y="261.065287"/>
     <use style="fill:#00008b;fill-opacity:0.7;stroke:#00008b;stroke-opacity:0.7;" x="259.103326" xlink:href="#mab9d2e7e57" y="253.191537"/>
     <use style="fill:#00008b;fill-opacity:0.7;stroke:#00008b;stroke-opacity:0.7;" x="142.702247" xlink:href="#mab9d2e7e57" y="221.033695"/>
     <use style="fill:#00008b;fill-opacity:0.7;stroke:#00008b;stroke-opacity:0.7;" x="234.001809" xlink:href="#mab9d2e7e57" y="304.172681"/>
     <use style="fill:#00008b;fill-opacity:0.7;stroke:#00008b;stroke-opacity:0.7;" x="150.043347" xlink:href="#mab9d2e7e57" y="136.208967"/>
     <use style="fill:#00008b;fill-opacity:0.7;stroke:#00008b;stroke-opacity:0.7;" x="150.823807" xlink:href="#mab9d2e7e57" y="177.487267"/>
     <use style="fill:#00008b;fill-opacity:0.7;stroke:#00008b;stroke-opacity:0.7;" x="605.520763" xlink:href="#mab9d2e7e57" y="263.342421"/>
     <use style="fill:#00008b;fill-opacity:0.7;stroke:#00008b;stroke-opacity:0.7;" x="186.396446" xlink:href="#mab9d2e7e57" y="310.118799"/>
     <use style="fill:#00008b;fill-opacity:0.7;stroke:#00008b;stroke-opacity:0.7;" x="541.850184" xlink:href="#mab9d2e7e57" y="247.261328"/>
     <use style="fill:#00008b;fill-opacity:0.7;stroke:#00008b;stroke-opacity:0.7;" x="205.977484" xlink:href="#mab9d2e7e57" y="247.395601"/>
     <use style="fill:#00008b;fill-opacity:0.7;stroke:#00008b;stroke-opacity:0.7;" x="177.308341" xlink:href="#mab9d2e7e57" y="285.76797"/>
     <use style="fill:#00008b;fill-opacity:0.7;stroke:#00008b;stroke-opacity:0.7;" x="195.48455" xlink:href="#mab9d2e7e57" y="290.566125"/>
     <use style="fill:#00008b;fill-opacity:0.7;stroke:#00008b;stroke-opacity:0.7;" x="115.363636" xlink:href="#mab9d2e7e57" y="228.671572"/>
     <use style="fill:#00008b;fill-opacity:0.7;stroke:#00008b;stroke-opacity:0.7;" x="160.071412" xlink:href="#mab9d2e7e57" y="260.348744"/>
     <use style="fill:#00008b;fill-opacity:0.7;stroke:#00008b;stroke-opacity:0.7;" x="151.513611" xlink:href="#mab9d2e7e57" y="309.609127"/>
    </g>
   </g>
   <g id="matplotlib.axis_1">
    <g id="xtick_1">
     <g id="line2d_1">
      <defs>
       <path d="M 0 0 
L 0 3.5 
" id="m865d53d8ce" style="stroke:#000000;stroke-width:0.8;"/>
      </defs>
      <g>
       <use style="stroke:#000000;stroke-width:0.8;" x="154.936836" xlink:href="#m865d53d8ce" y="378"/>
      </g>
     </g>
     <g id="text_1">
      <!-- 5 -->
      <defs>
       <path d="M 10.796875 72.90625 
L 49.515625 72.90625 
L 49.515625 64.59375 
L 19.828125 64.59375 
L 19.828125 46.734375 
Q 21.96875 47.46875 24.109375 47.828125 
Q 26.265625 48.1875 28.421875 48.1875 
Q 40.625 48.1875 47.75 41.5 
Q 54.890625 34.8125 54.890625 23.390625 
Q 54.890625 11.625 47.5625 5.09375 
Q 40.234375 -1.421875 26.90625 -1.421875 
Q 22.3125 -1.421875 17.546875 -0.640625 
Q 12.796875 0.140625 7.71875 1.703125 
L 7.71875 11.625 
Q 12.109375 9.234375 16.796875 8.0625 
Q 21.484375 6.890625 26.703125 6.890625 
Q 35.15625 6.890625 40.078125 11.328125 
Q 45.015625 15.765625 45.015625 23.390625 
Q 45.015625 31 40.078125 35.4375 
Q 35.15625 39.890625 26.703125 39.890625 
Q 22.75 39.890625 18.8125 39.015625 
Q 14.890625 38.140625 10.796875 36.28125 
z
" id="DejaVuSans-53"/>
      </defs>
      <g transform="translate(151.755586 392.598437)scale(0.1 -0.1)">
       <use xlink:href="#DejaVuSans-53"/>
      </g>
     </g>
    </g>
    <g id="xtick_2">
     <g id="line2d_2">
      <g>
       <use style="stroke:#000000;stroke-width:0.8;" x="259.802201" xlink:href="#m865d53d8ce" y="378"/>
      </g>
     </g>
     <g id="text_2">
      <!-- 10 -->
      <defs>
       <path d="M 12.40625 8.296875 
L 28.515625 8.296875 
L 28.515625 63.921875 
L 10.984375 60.40625 
L 10.984375 69.390625 
L 28.421875 72.90625 
L 38.28125 72.90625 
L 38.28125 8.296875 
L 54.390625 8.296875 
L 54.390625 0 
L 12.40625 0 
z
" id="DejaVuSans-49"/>
       <path d="M 31.78125 66.40625 
Q 24.171875 66.40625 20.328125 58.90625 
Q 16.5 51.421875 16.5 36.375 
Q 16.5 21.390625 20.328125 13.890625 
Q 24.171875 6.390625 31.78125 6.390625 
Q 39.453125 6.390625 43.28125 13.890625 
Q 47.125 21.390625 47.125 36.375 
Q 47.125 51.421875 43.28125 58.90625 
Q 39.453125 66.40625 31.78125 66.40625 
z
M 31.78125 74.21875 
Q 44.046875 74.21875 50.515625 64.515625 
Q 56.984375 54.828125 56.984375 36.375 
Q 56.984375 17.96875 50.515625 8.265625 
Q 44.046875 -1.421875 31.78125 -1.421875 
Q 19.53125 -1.421875 13.0625 8.265625 
Q 6.59375 17.96875 6.59375 36.375 
Q 6.59375 54.828125 13.0625 64.515625 
Q 19.53125 74.21875 31.78125 74.21875 
z
" id="DejaVuSans-48"/>
      </defs>
      <g transform="translate(253.439701 392.598437)scale(0.1 -0.1)">
       <use xlink:href="#DejaVuSans-49"/>
       <use x="63.623047" xlink:href="#DejaVuSans-48"/>
      </g>
     </g>
    </g>
    <g id="xtick_3">
     <g id="line2d_3">
      <g>
       <use style="stroke:#000000;stroke-width:0.8;" x="364.667566" xlink:href="#m865d53d8ce" y="378"/>
      </g>
     </g>
     <g id="text_3">
      <!-- 15 -->
      <g transform="translate(358.305066 392.598437)scale(0.1 -0.1)">
       <use xlink:href="#DejaVuSans-49"/>
       <use x="63.623047" xlink:href="#DejaVuSans-53"/>
      </g>
     </g>
    </g>
    <g id="xtick_4">
     <g id="line2d_4">
      <g>
       <use style="stroke:#000000;stroke-width:0.8;" x="469.532931" xlink:href="#m865d53d8ce" y="378"/>
      </g>
     </g>
     <g id="text_4">
      <!-- 20 -->
      <defs>
       <path d="M 19.1875 8.296875 
L 53.609375 8.296875 
L 53.609375 0 
L 7.328125 0 
L 7.328125 8.296875 
Q 12.9375 14.109375 22.625 23.890625 
Q 32.328125 33.6875 34.8125 36.53125 
Q 39.546875 41.84375 41.421875 45.53125 
Q 43.3125 49.21875 43.3125 52.78125 
Q 43.3125 58.59375 39.234375 62.25 
Q 35.15625 65.921875 28.609375 65.921875 
Q 23.96875 65.921875 18.8125 64.3125 
Q 13.671875 62.703125 7.8125 59.421875 
L 7.8125 69.390625 
Q 13.765625 71.78125 18.9375 73 
Q 24.125 74.21875 28.421875 74.21875 
Q 39.75 74.21875 46.484375 68.546875 
Q 53.21875 62.890625 53.21875 53.421875 
Q 53.21875 48.921875 51.53125 44.890625 
Q 49.859375 40.875 45.40625 35.40625 
Q 44.1875 33.984375 37.640625 27.21875 
Q 31.109375 20.453125 19.1875 8.296875 
z
" id="DejaVuSans-50"/>
      </defs>
      <g transform="translate(463.170431 392.598437)scale(0.1 -0.1)">
       <use xlink:href="#DejaVuSans-50"/>
       <use x="63.623047" xlink:href="#DejaVuSans-48"/>
      </g>
     </g>
    </g>
    <g id="xtick_5">
     <g id="line2d_5">
      <g>
       <use style="stroke:#000000;stroke-width:0.8;" x="574.398296" xlink:href="#m865d53d8ce" y="378"/>
      </g>
     </g>
     <g id="text_5">
      <!-- 25 -->
      <g transform="translate(568.035796 392.598437)scale(0.1 -0.1)">
       <use xlink:href="#DejaVuSans-50"/>
       <use x="63.623047" xlink:href="#DejaVuSans-53"/>
      </g>
     </g>
    </g>
    <g id="text_6">
     <!-- Vesicle Radius (TexRed) -->
     <defs>
      <path d="M 28.609375 0 
L 0.78125 72.90625 
L 11.078125 72.90625 
L 34.1875 11.53125 
L 57.328125 72.90625 
L 67.578125 72.90625 
L 39.796875 0 
z
" id="DejaVuSans-86"/>
      <path d="M 56.203125 29.59375 
L 56.203125 25.203125 
L 14.890625 25.203125 
Q 15.484375 15.921875 20.484375 11.0625 
Q 25.484375 6.203125 34.421875 6.203125 
Q 39.59375 6.203125 44.453125 7.46875 
Q 49.3125 8.734375 54.109375 11.28125 
L 54.109375 2.78125 
Q 49.265625 0.734375 44.1875 -0.34375 
Q 39.109375 -1.421875 33.890625 -1.421875 
Q 20.796875 -1.421875 13.15625 6.1875 
Q 5.515625 13.8125 5.515625 26.8125 
Q 5.515625 40.234375 12.765625 48.109375 
Q 20.015625 56 32.328125 56 
Q 43.359375 56 49.78125 48.890625 
Q 56.203125 41.796875 56.203125 29.59375 
z
M 47.21875 32.234375 
Q 47.125 39.59375 43.09375 43.984375 
Q 39.0625 48.390625 32.421875 48.390625 
Q 24.90625 48.390625 20.390625 44.140625 
Q 15.875 39.890625 15.1875 32.171875 
z
" id="DejaVuSans-101"/>
      <path d="M 44.28125 53.078125 
L 44.28125 44.578125 
Q 40.484375 46.53125 36.375 47.5 
Q 32.28125 48.484375 27.875 48.484375 
Q 21.1875 48.484375 17.84375 46.4375 
Q 14.5 44.390625 14.5 40.28125 
Q 14.5 37.15625 16.890625 35.375 
Q 19.28125 33.59375 26.515625 31.984375 
L 29.59375 31.296875 
Q 39.15625 29.25 43.1875 25.515625 
Q 47.21875 21.78125 47.21875 15.09375 
Q 47.21875 7.46875 41.1875 3.015625 
Q 35.15625 -1.421875 24.609375 -1.421875 
Q 20.21875 -1.421875 15.453125 -0.5625 
Q 10.6875 0.296875 5.421875 2 
L 5.421875 11.28125 
Q 10.40625 8.6875 15.234375 7.390625 
Q 20.0625 6.109375 24.8125 6.109375 
Q 31.15625 6.109375 34.5625 8.28125 
Q 37.984375 10.453125 37.984375 14.40625 
Q 37.984375 18.0625 35.515625 20.015625 
Q 33.0625 21.96875 24.703125 23.78125 
L 21.578125 24.515625 
Q 13.234375 26.265625 9.515625 29.90625 
Q 5.8125 33.546875 5.8125 39.890625 
Q 5.8125 47.609375 11.28125 51.796875 
Q 16.75 56 26.8125 56 
Q 31.78125 56 36.171875 55.265625 
Q 40.578125 54.546875 44.28125 53.078125 
z
" id="DejaVuSans-115"/>
      <path d="M 9.421875 54.6875 
L 18.40625 54.6875 
L 18.40625 0 
L 9.421875 0 
z
M 9.421875 75.984375 
L 18.40625 75.984375 
L 18.40625 64.59375 
L 9.421875 64.59375 
z
" id="DejaVuSans-105"/>
      <path d="M 48.78125 52.59375 
L 48.78125 44.1875 
Q 44.96875 46.296875 41.140625 47.34375 
Q 37.3125 48.390625 33.40625 48.390625 
Q 24.65625 48.390625 19.8125 42.84375 
Q 14.984375 37.3125 14.984375 27.296875 
Q 14.984375 17.28125 19.8125 11.734375 
Q 24.65625 6.203125 33.40625 6.203125 
Q 37.3125 6.203125 41.140625 7.25 
Q 44.96875 8.296875 48.78125 10.40625 
L 48.78125 2.09375 
Q 45.015625 0.34375 40.984375 -0.53125 
Q 36.96875 -1.421875 32.421875 -1.421875 
Q 20.0625 -1.421875 12.78125 6.34375 
Q 5.515625 14.109375 5.515625 27.296875 
Q 5.515625 40.671875 12.859375 48.328125 
Q 20.21875 56 33.015625 56 
Q 37.15625 56 41.109375 55.140625 
Q 45.0625 54.296875 48.78125 52.59375 
z
" id="DejaVuSans-99"/>
      <path d="M 9.421875 75.984375 
L 18.40625 75.984375 
L 18.40625 0 
L 9.421875 0 
z
" id="DejaVuSans-108"/>
      <path id="DejaVuSans-32"/>
      <path d="M 44.390625 34.1875 
Q 47.5625 33.109375 50.5625 29.59375 
Q 53.5625 26.078125 56.59375 19.921875 
L 66.609375 0 
L 56 0 
L 46.6875 18.703125 
Q 43.0625 26.03125 39.671875 28.421875 
Q 36.28125 30.8125 30.421875 30.8125 
L 19.671875 30.8125 
L 19.671875 0 
L 9.8125 0 
L 9.8125 72.90625 
L 32.078125 72.90625 
Q 44.578125 72.90625 50.734375 67.671875 
Q 56.890625 62.453125 56.890625 51.90625 
Q 56.890625 45.015625 53.6875 40.46875 
Q 50.484375 35.9375 44.390625 34.1875 
z
M 19.671875 64.796875 
L 19.671875 38.921875 
L 32.078125 38.921875 
Q 39.203125 38.921875 42.84375 42.21875 
Q 46.484375 45.515625 46.484375 51.90625 
Q 46.484375 58.296875 42.84375 61.546875 
Q 39.203125 64.796875 32.078125 64.796875 
z
" id="DejaVuSans-82"/>
      <path d="M 34.28125 27.484375 
Q 23.390625 27.484375 19.1875 25 
Q 14.984375 22.515625 14.984375 16.5 
Q 14.984375 11.71875 18.140625 8.90625 
Q 21.296875 6.109375 26.703125 6.109375 
Q 34.1875 6.109375 38.703125 11.40625 
Q 43.21875 16.703125 43.21875 25.484375 
L 43.21875 27.484375 
z
M 52.203125 31.203125 
L 52.203125 0 
L 43.21875 0 
L 43.21875 8.296875 
Q 40.140625 3.328125 35.546875 0.953125 
Q 30.953125 -1.421875 24.3125 -1.421875 
Q 15.921875 -1.421875 10.953125 3.296875 
Q 6 8.015625 6 15.921875 
Q 6 25.140625 12.171875 29.828125 
Q 18.359375 34.515625 30.609375 34.515625 
L 43.21875 34.515625 
L 43.21875 35.40625 
Q 43.21875 41.609375 39.140625 45 
Q 35.0625 48.390625 27.6875 48.390625 
Q 23 48.390625 18.546875 47.265625 
Q 14.109375 46.140625 10.015625 43.890625 
L 10.015625 52.203125 
Q 14.9375 54.109375 19.578125 55.046875 
Q 24.21875 56 28.609375 56 
Q 40.484375 56 46.34375 49.84375 
Q 52.203125 43.703125 52.203125 31.203125 
z
" id="DejaVuSans-97"/>
      <path d="M 45.40625 46.390625 
L 45.40625 75.984375 
L 54.390625 75.984375 
L 54.390625 0 
L 45.40625 0 
L 45.40625 8.203125 
Q 42.578125 3.328125 38.25 0.953125 
Q 33.9375 -1.421875 27.875 -1.421875 
Q 17.96875 -1.421875 11.734375 6.484375 
Q 5.515625 14.40625 5.515625 27.296875 
Q 5.515625 40.1875 11.734375 48.09375 
Q 17.96875 56 27.875 56 
Q 33.9375 56 38.25 53.625 
Q 42.578125 51.265625 45.40625 46.390625 
z
M 14.796875 27.296875 
Q 14.796875 17.390625 18.875 11.75 
Q 22.953125 6.109375 30.078125 6.109375 
Q 37.203125 6.109375 41.296875 11.75 
Q 45.40625 17.390625 45.40625 27.296875 
Q 45.40625 37.203125 41.296875 42.84375 
Q 37.203125 48.484375 30.078125 48.484375 
Q 22.953125 48.484375 18.875 42.84375 
Q 14.796875 37.203125 14.796875 27.296875 
z
" id="DejaVuSans-100"/>
      <path d="M 8.5 21.578125 
L 8.5 54.6875 
L 17.484375 54.6875 
L 17.484375 21.921875 
Q 17.484375 14.15625 20.5 10.265625 
Q 23.53125 6.390625 29.59375 6.390625 
Q 36.859375 6.390625 41.078125 11.03125 
Q 45.3125 15.671875 45.3125 23.6875 
L 45.3125 54.6875 
L 54.296875 54.6875 
L 54.296875 0 
L 45.3125 0 
L 45.3125 8.40625 
Q 42.046875 3.421875 37.71875 1 
Q 33.40625 -1.421875 27.6875 -1.421875 
Q 18.265625 -1.421875 13.375 4.4375 
Q 8.5 10.296875 8.5 21.578125 
z
M 31.109375 56 
z
" id="DejaVuSans-117"/>
      <path d="M 31 75.875 
Q 24.46875 64.65625 21.28125 53.65625 
Q 18.109375 42.671875 18.109375 31.390625 
Q 18.109375 20.125 21.3125 9.0625 
Q 24.515625 -2 31 -13.1875 
L 23.1875 -13.1875 
Q 15.875 -1.703125 12.234375 9.375 
Q 8.59375 20.453125 8.59375 31.390625 
Q 8.59375 42.28125 12.203125 53.3125 
Q 15.828125 64.359375 23.1875 75.875 
z
" id="DejaVuSans-40"/>
      <path d="M -0.296875 72.90625 
L 61.375 72.90625 
L 61.375 64.59375 
L 35.5 64.59375 
L 35.5 0 
L 25.59375 0 
L 25.59375 64.59375 
L -0.296875 64.59375 
z
" id="DejaVuSans-84"/>
      <path d="M 54.890625 54.6875 
L 35.109375 28.078125 
L 55.90625 0 
L 45.3125 0 
L 29.390625 21.484375 
L 13.484375 0 
L 2.875 0 
L 24.125 28.609375 
L 4.6875 54.6875 
L 15.28125 54.6875 
L 29.78125 35.203125 
L 44.28125 54.6875 
z
" id="DejaVuSans-120"/>
      <path d="M 8.015625 75.875 
L 15.828125 75.875 
Q 23.140625 64.359375 26.78125 53.3125 
Q 30.421875 42.28125 30.421875 31.390625 
Q 30.421875 20.453125 26.78125 9.375 
Q 23.140625 -1.703125 15.828125 -13.1875 
L 8.015625 -13.1875 
Q 14.5 -2 17.703125 9.0625 
Q 20.90625 20.125 20.90625 31.390625 
Q 20.90625 42.671875 17.703125 53.65625 
Q 14.5 64.65625 8.015625 75.875 
z
" id="DejaVuSans-41"/>
     </defs>
     <g transform="translate(310.1875 406.276563)scale(0.1 -0.1)">
      <use xlink:href="#DejaVuSans-86"/>
      <use x="60.658203" xlink:href="#DejaVuSans-101"/>
      <use x="122.181641" xlink:href="#DejaVuSans-115"/>
      <use x="174.28125" xlink:href="#DejaVuSans-105"/>
      <use x="202.064453" xlink:href="#DejaVuSans-99"/>
      <use x="257.044922" xlink:href="#DejaVuSans-108"/>
      <use x="284.828125" xlink:href="#DejaVuSans-101"/>
      <use x="346.351562" xlink:href="#DejaVuSans-32"/>
      <use x="378.138672" xlink:href="#DejaVuSans-82"/>
      <use x="445.371094" xlink:href="#DejaVuSans-97"/>
      <use x="506.650391" xlink:href="#DejaVuSans-100"/>
      <use x="570.126953" xlink:href="#DejaVuSans-105"/>
      <use x="597.910156" xlink:href="#DejaVuSans-117"/>
      <use x="661.289062" xlink:href="#DejaVuSans-115"/>
      <use x="713.388672" xlink:href="#DejaVuSans-32"/>
      <use x="745.175781" xlink:href="#DejaVuSans-40"/>
      <use x="784.189453" xlink:href="#DejaVuSans-84"/>
      <use x="828.273438" xlink:href="#DejaVuSans-101"/>
      <use x="888.046875" xlink:href="#DejaVuSans-120"/>
      <use x="947.226562" xlink:href="#DejaVuSans-82"/>
      <use x="1012.208984" xlink:href="#DejaVuSans-101"/>
      <use x="1073.732422" xlink:href="#DejaVuSans-100"/>
      <use x="1137.208984" xlink:href="#DejaVuSans-41"/>
     </g>
    </g>
   </g>
   <g id="matplotlib.axis_2">
    <g id="ytick_1">
     <g id="line2d_6">
      <defs>
       <path d="M 0 0 
L -3.5 0 
" id="mbce9835304" style="stroke:#000000;stroke-width:0.8;"/>
      </defs>
      <g>
       <use style="stroke:#000000;stroke-width:0.8;" x="90" xlink:href="#mbce9835304" y="366.803373"/>
      </g>
     </g>
     <g id="text_7">
      <!-- 0 -->
      <g transform="translate(76.6375 370.602592)scale(0.1 -0.1)">
       <use xlink:href="#DejaVuSans-48"/>
      </g>
     </g>
    </g>
    <g id="ytick_2">
     <g id="line2d_7">
      <g>
       <use style="stroke:#000000;stroke-width:0.8;" x="90" xlink:href="#mbce9835304" y="312.066057"/>
      </g>
     </g>
     <g id="text_8">
      <!-- 10 -->
      <g transform="translate(70.275 315.865276)scale(0.1 -0.1)">
       <use xlink:href="#DejaVuSans-49"/>
       <use x="63.623047" xlink:href="#DejaVuSans-48"/>
      </g>
     </g>
    </g>
    <g id="ytick_3">
     <g id="line2d_8">
      <g>
       <use style="stroke:#000000;stroke-width:0.8;" x="90" xlink:href="#mbce9835304" y="257.328741"/>
      </g>
     </g>
     <g id="text_9">
      <!-- 20 -->
      <g transform="translate(70.275 261.127959)scale(0.1 -0.1)">
       <use xlink:href="#DejaVuSans-50"/>
       <use x="63.623047" xlink:href="#DejaVuSans-48"/>
      </g>
     </g>
    </g>
    <g id="ytick_4">
     <g id="line2d_9">
      <g>
       <use style="stroke:#000000;stroke-width:0.8;" x="90" xlink:href="#mbce9835304" y="202.591424"/>
      </g>
     </g>
     <g id="text_10">
      <!-- 30 -->
      <defs>
       <path d="M 40.578125 39.3125 
Q 47.65625 37.796875 51.625 33 
Q 55.609375 28.21875 55.609375 21.1875 
Q 55.609375 10.40625 48.1875 4.484375 
Q 40.765625 -1.421875 27.09375 -1.421875 
Q 22.515625 -1.421875 17.65625 -0.515625 
Q 12.796875 0.390625 7.625 2.203125 
L 7.625 11.71875 
Q 11.71875 9.328125 16.59375 8.109375 
Q 21.484375 6.890625 26.8125 6.890625 
Q 36.078125 6.890625 40.9375 10.546875 
Q 45.796875 14.203125 45.796875 21.1875 
Q 45.796875 27.640625 41.28125 31.265625 
Q 36.765625 34.90625 28.71875 34.90625 
L 20.21875 34.90625 
L 20.21875 43.015625 
L 29.109375 43.015625 
Q 36.375 43.015625 40.234375 45.921875 
Q 44.09375 48.828125 44.09375 54.296875 
Q 44.09375 59.90625 40.109375 62.90625 
Q 36.140625 65.921875 28.71875 65.921875 
Q 24.65625 65.921875 20.015625 65.03125 
Q 15.375 64.15625 9.8125 62.3125 
L 9.8125 71.09375 
Q 15.4375 72.65625 20.34375 73.4375 
Q 25.25 74.21875 29.59375 74.21875 
Q 40.828125 74.21875 47.359375 69.109375 
Q 53.90625 64.015625 53.90625 55.328125 
Q 53.90625 49.265625 50.4375 45.09375 
Q 46.96875 40.921875 40.578125 39.3125 
z
" id="DejaVuSans-51"/>
      </defs>
      <g transform="translate(70.275 206.390643)scale(0.1 -0.1)">
       <use xlink:href="#DejaVuSans-51"/>
       <use x="63.623047" xlink:href="#DejaVuSans-48"/>
      </g>
     </g>
    </g>
    <g id="ytick_5">
     <g id="line2d_10">
      <g>
       <use style="stroke:#000000;stroke-width:0.8;" x="90" xlink:href="#mbce9835304" y="147.854108"/>
      </g>
     </g>
     <g id="text_11">
      <!-- 40 -->
      <defs>
       <path d="M 37.796875 64.3125 
L 12.890625 25.390625 
L 37.796875 25.390625 
z
M 35.203125 72.90625 
L 47.609375 72.90625 
L 47.609375 25.390625 
L 58.015625 25.390625 
L 58.015625 17.1875 
L 47.609375 17.1875 
L 47.609375 0 
L 37.796875 0 
L 37.796875 17.1875 
L 4.890625 17.1875 
L 4.890625 26.703125 
z
" id="DejaVuSans-52"/>
      </defs>
      <g transform="translate(70.275 151.653327)scale(0.1 -0.1)">
       <use xlink:href="#DejaVuSans-52"/>
       <use x="63.623047" xlink:href="#DejaVuSans-48"/>
      </g>
     </g>
    </g>
    <g id="ytick_6">
     <g id="line2d_11">
      <g>
       <use style="stroke:#000000;stroke-width:0.8;" x="90" xlink:href="#mbce9835304" y="93.116791"/>
      </g>
     </g>
     <g id="text_12">
      <!-- 50 -->
      <g transform="translate(70.275 96.91601)scale(0.1 -0.1)">
       <use xlink:href="#DejaVuSans-53"/>
       <use x="63.623047" xlink:href="#DejaVuSans-48"/>
      </g>
     </g>
    </g>
    <g id="text_13">
     <!-- Concentration (TexRed) -->
     <defs>
      <path d="M 64.40625 67.28125 
L 64.40625 56.890625 
Q 59.421875 61.53125 53.78125 63.8125 
Q 48.140625 66.109375 41.796875 66.109375 
Q 29.296875 66.109375 22.65625 58.46875 
Q 16.015625 50.828125 16.015625 36.375 
Q 16.015625 21.96875 22.65625 14.328125 
Q 29.296875 6.6875 41.796875 6.6875 
Q 48.140625 6.6875 53.78125 8.984375 
Q 59.421875 11.28125 64.40625 15.921875 
L 64.40625 5.609375 
Q 59.234375 2.09375 53.4375 0.328125 
Q 47.65625 -1.421875 41.21875 -1.421875 
Q 24.65625 -1.421875 15.125 8.703125 
Q 5.609375 18.84375 5.609375 36.375 
Q 5.609375 53.953125 15.125 64.078125 
Q 24.65625 74.21875 41.21875 74.21875 
Q 47.75 74.21875 53.53125 72.484375 
Q 59.328125 70.75 64.40625 67.28125 
z
" id="DejaVuSans-67"/>
      <path d="M 30.609375 48.390625 
Q 23.390625 48.390625 19.1875 42.75 
Q 14.984375 37.109375 14.984375 27.296875 
Q 14.984375 17.484375 19.15625 11.84375 
Q 23.34375 6.203125 30.609375 6.203125 
Q 37.796875 6.203125 41.984375 11.859375 
Q 46.1875 17.53125 46.1875 27.296875 
Q 46.1875 37.015625 41.984375 42.703125 
Q 37.796875 48.390625 30.609375 48.390625 
z
M 30.609375 56 
Q 42.328125 56 49.015625 48.375 
Q 55.71875 40.765625 55.71875 27.296875 
Q 55.71875 13.875 49.015625 6.21875 
Q 42.328125 -1.421875 30.609375 -1.421875 
Q 18.84375 -1.421875 12.171875 6.21875 
Q 5.515625 13.875 5.515625 27.296875 
Q 5.515625 40.765625 12.171875 48.375 
Q 18.84375 56 30.609375 56 
z
" id="DejaVuSans-111"/>
      <path d="M 54.890625 33.015625 
L 54.890625 0 
L 45.90625 0 
L 45.90625 32.71875 
Q 45.90625 40.484375 42.875 44.328125 
Q 39.84375 48.1875 33.796875 48.1875 
Q 26.515625 48.1875 22.3125 43.546875 
Q 18.109375 38.921875 18.109375 30.90625 
L 18.109375 0 
L 9.078125 0 
L 9.078125 54.6875 
L 18.109375 54.6875 
L 18.109375 46.1875 
Q 21.34375 51.125 25.703125 53.5625 
Q 30.078125 56 35.796875 56 
Q 45.21875 56 50.046875 50.171875 
Q 54.890625 44.34375 54.890625 33.015625 
z
" id="DejaVuSans-110"/>
      <path d="M 18.3125 70.21875 
L 18.3125 54.6875 
L 36.8125 54.6875 
L 36.8125 47.703125 
L 18.3125 47.703125 
L 18.3125 18.015625 
Q 18.3125 11.328125 20.140625 9.421875 
Q 21.96875 7.515625 27.59375 7.515625 
L 36.8125 7.515625 
L 36.8125 0 
L 27.59375 0 
Q 17.1875 0 13.234375 3.875 
Q 9.28125 7.765625 9.28125 18.015625 
L 9.28125 47.703125 
L 2.6875 47.703125 
L 2.6875 54.6875 
L 9.28125 54.6875 
L 9.28125 70.21875 
z
" id="DejaVuSans-116"/>
      <path d="M 41.109375 46.296875 
Q 39.59375 47.171875 37.8125 47.578125 
Q 36.03125 48 33.890625 48 
Q 26.265625 48 22.1875 43.046875 
Q 18.109375 38.09375 18.109375 28.8125 
L 18.109375 0 
L 9.078125 0 
L 9.078125 54.6875 
L 18.109375 54.6875 
L 18.109375 46.1875 
Q 20.953125 51.171875 25.484375 53.578125 
Q 30.03125 56 36.53125 56 
Q 37.453125 56 38.578125 55.875 
Q 39.703125 55.765625 41.0625 55.515625 
z
" id="DejaVuSans-114"/>
     </defs>
     <g transform="translate(64.195312 273.434062)rotate(-90)scale(0.1 -0.1)">
      <use xlink:href="#DejaVuSans-67"/>
      <use x="69.824219" xlink:href="#DejaVuSans-111"/>
      <use x="131.005859" xlink:href="#DejaVuSans-110"/>
      <use x="194.384766" xlink:href="#DejaVuSans-99"/>
      <use x="249.365234" xlink:href="#DejaVuSans-101"/>
      <use x="310.888672" xlink:href="#DejaVuSans-110"/>
      <use x="374.267578" xlink:href="#DejaVuSans-116"/>
      <use x="413.476562" xlink:href="#DejaVuSans-114"/>
      <use x="454.589844" xlink:href="#DejaVuSans-97"/>
      <use x="515.869141" xlink:href="#DejaVuSans-116"/>
      <use x="555.078125" xlink:href="#DejaVuSans-105"/>
      <use x="582.861328" xlink:href="#DejaVuSans-111"/>
      <use x="644.042969" xlink:href="#DejaVuSans-110"/>
      <use x="707.421875" xlink:href="#DejaVuSans-32"/>
      <use x="739.208984" xlink:href="#DejaVuSans-40"/>
      <use x="778.222656" xlink:href="#DejaVuSans-84"/>
      <use x="822.306641" xlink:href="#DejaVuSans-101"/>
      <use x="882.080078" xlink:href="#DejaVuSans-120"/>
      <use x="941.259766" xlink:href="#DejaVuSans-82"/>
      <use x="1006.242188" xlink:href="#DejaVuSans-101"/>
      <use x="1067.765625" xlink:href="#DejaVuSans-100"/>
      <use x="1131.242188" xlink:href="#DejaVuSans-41"/>
     </g>
    </g>
   </g>
   <g id="line2d_12">
    <path clip-path="url(#p50e22efb9b)" d="M 115.363636 262.880279 
L 120.487603 263.893353 
L 125.61157 264.906426 
L 130.735537 265.919499 
L 135.859504 266.932573 
L 140.983471 267.945646 
L 146.107438 268.95872 
L 151.231405 269.971793 
L 156.355372 270.984866 
L 161.479339 271.99794 
L 166.603306 273.011013 
L 171.727273 274.024087 
L 176.85124 275.03716 
L 181.975207 276.050233 
L 187.099174 277.063307 
L 192.22314 278.07638 
L 197.347107 279.089454 
L 202.471074 280.102527 
L 207.595041 281.1156 
L 212.719008 282.128674 
L 217.842975 283.141747 
L 222.966942 284.154821 
L 228.090909 285.167894 
L 233.214876 286.180967 
L 238.338843 287.194041 
L 243.46281 288.207114 
L 248.586777 289.220188 
L 253.710744 290.233261 
L 258.834711 291.246334 
L 263.958678 292.259408 
L 269.082645 293.272481 
L 274.206612 294.285555 
L 279.330579 295.298628 
L 284.454545 296.311701 
L 289.578512 297.324775 
L 294.702479 298.337848 
L 299.826446 299.350921 
L 304.950413 300.363995 
L 310.07438 301.377068 
L 315.198347 302.390142 
L 320.322314 303.403215 
L 325.446281 304.416288 
L 330.570248 305.429362 
L 335.694215 306.442435 
L 340.818182 307.455509 
L 345.942149 308.468582 
L 351.066116 309.481655 
L 356.190083 310.494729 
L 361.31405 311.507802 
L 366.438017 312.520876 
L 371.561983 313.533949 
L 376.68595 314.547022 
L 381.809917 315.560096 
L 386.933884 316.573169 
L 392.057851 317.586243 
L 397.181818 318.599316 
L 402.305785 319.612389 
L 407.429752 320.625463 
L 412.553719 321.638536 
L 417.677686 322.65161 
L 422.801653 323.664683 
L 427.92562 324.677756 
L 433.049587 325.69083 
L 438.173554 326.703903 
L 443.297521 327.716977 
L 448.421488 328.73005 
L 453.545455 329.743123 
L 458.669421 330.756197 
L 463.793388 331.76927 
L 468.917355 332.782344 
L 474.041322 333.795417 
L 479.165289 334.80849 
L 484.289256 335.821564 
L 489.413223 336.834637 
L 494.53719 337.847711 
L 499.661157 338.860784 
L 504.785124 339.873857 
L 509.909091 340.886931 
L 515.033058 341.900004 
L 520.157025 342.913078 
L 525.280992 343.926151 
L 530.404959 344.939224 
L 535.528926 345.952298 
L 540.652893 346.965371 
L 545.77686 347.978445 
L 550.900826 348.991518 
L 556.024793 350.004591 
L 561.14876 351.017665 
L 566.272727 352.030738 
L 571.396694 353.043811 
L 576.520661 354.056885 
L 581.644628 355.069958 
L 586.768595 356.083032 
L 591.892562 357.096105 
L 597.016529 358.109178 
L 602.140496 359.122252 
L 607.264463 360.135325 
L 612.38843 361.148399 
L 617.512397 362.161472 
L 622.636364 363.174545 
" style="fill:none;stroke:#ff0000;stroke-dasharray:5.55,2.4;stroke-dashoffset:0;stroke-width:1.5;"/>
   </g>
   <g id="line2d_13">
    <path clip-path="url(#p50e22efb9b)" d="M 115.363636 241.707652 
L 120.487603 241.394997 
L 125.61157 241.082341 
L 130.735537 240.769685 
L 135.859504 240.457029 
L 140.983471 240.144374 
L 146.107438 239.831718 
L 151.231405 239.519062 
L 156.355372 239.206406 
L 161.479339 238.89375 
L 166.603306 238.581095 
L 171.727273 238.268439 
L 176.85124 237.955783 
L 181.975207 237.643127 
L 187.099174 237.330472 
L 192.22314 237.017816 
L 197.347107 236.70516 
L 202.471074 236.392504 
L 207.595041 236.079848 
L 212.719008 235.767193 
L 217.842975 235.454537 
L 222.966942 235.141881 
L 228.090909 234.829225 
L 233.214876 234.516569 
L 238.338843 234.203914 
L 243.46281 233.891258 
L 248.586777 233.578602 
L 253.710744 233.265946 
L 258.834711 232.953291 
L 263.958678 232.640635 
L 269.082645 232.327979 
L 274.206612 232.015323 
L 279.330579 231.702667 
L 284.454545 231.390012 
L 289.578512 231.077356 
L 294.702479 230.7647 
L 299.826446 230.452044 
L 304.950413 230.139389 
L 310.07438 229.826733 
L 315.198347 229.514077 
L 320.322314 229.201421 
L 325.446281 228.888765 
L 330.570248 228.57611 
L 335.694215 228.263454 
L 340.818182 227.950798 
L 345.942149 227.638142 
L 351.066116 227.325487 
L 356.190083 227.012831 
L 361.31405 226.700175 
L 366.438017 226.387519 
L 371.561983 226.074863 
L 376.68595 225.762208 
L 381.809917 225.449552 
L 386.933884 225.136896 
L 392.057851 224.82424 
L 397.181818 224.511585 
L 402.305785 224.198929 
L 407.429752 223.886273 
L 412.553719 223.573617 
L 417.677686 223.260961 
L 422.801653 222.948306 
L 427.92562 222.63565 
L 433.049587 222.322994 
L 438.173554 222.010338 
L 443.297521 221.697683 
L 448.421488 221.385027 
L 453.545455 221.072371 
L 458.669421 220.759715 
L 463.793388 220.447059 
L 468.917355 220.134404 
L 474.041322 219.821748 
L 479.165289 219.509092 
L 484.289256 219.196436 
L 489.413223 218.88378 
L 494.53719 218.571125 
L 499.661157 218.258469 
L 504.785124 217.945813 
L 509.909091 217.633157 
L 515.033058 217.320502 
L 520.157025 217.007846 
L 525.280992 216.69519 
L 530.404959 216.382534 
L 535.528926 216.069878 
L 540.652893 215.757223 
L 545.77686 215.444567 
L 550.900826 215.131911 
L 556.024793 214.819255 
L 561.14876 214.5066 
L 566.272727 214.193944 
L 571.396694 213.881288 
L 576.520661 213.568632 
L 581.644628 213.255976 
L 586.768595 212.943321 
L 591.892562 212.630665 
L 597.016529 212.318009 
L 602.140496 212.005353 
L 607.264463 211.692698 
L 612.38843 211.380042 
L 617.512397 211.067386 
L 622.636364 210.75473 
" style="fill:none;stroke:#0000ff;stroke-dasharray:5.55,2.4;stroke-dashoffset:0;stroke-width:1.5;"/>
   </g>
   <g id="patch_3">
    <path d="M 90 378 
L 90 51.84 
" style="fill:none;stroke:#000000;stroke-linecap:square;stroke-linejoin:miter;stroke-width:0.8;"/>
   </g>
   <g id="patch_4">
    <path d="M 648 378 
L 648 51.84 
" style="fill:none;stroke:#000000;stroke-linecap:square;stroke-linejoin:miter;stroke-width:0.8;"/>
   </g>
   <g id="patch_5">
    <path d="M 90 378 
L 648 378 
" style="fill:none;stroke:#000000;stroke-linecap:square;stroke-linejoin:miter;stroke-width:0.8;"/>
   </g>
   <g id="patch_6">
    <path d="M 90 51.84 
L 648 51.84 
" style="fill:none;stroke:#000000;stroke-linecap:square;stroke-linejoin:miter;stroke-width:0.8;"/>
   </g>
   <g id="text_14">
    <!-- Scatter Plot and Linear Fits of Infection and Expression Data -->
    <defs>
     <path d="M 53.515625 70.515625 
L 53.515625 60.890625 
Q 47.90625 63.578125 42.921875 64.890625 
Q 37.9375 66.21875 33.296875 66.21875 
Q 25.25 66.21875 20.875 63.09375 
Q 16.5 59.96875 16.5 54.203125 
Q 16.5 49.359375 19.40625 46.890625 
Q 22.3125 44.4375 30.421875 42.921875 
L 36.375 41.703125 
Q 47.40625 39.59375 52.65625 34.296875 
Q 57.90625 29 57.90625 20.125 
Q 57.90625 9.515625 50.796875 4.046875 
Q 43.703125 -1.421875 29.984375 -1.421875 
Q 24.8125 -1.421875 18.96875 -0.25 
Q 13.140625 0.921875 6.890625 3.21875 
L 6.890625 13.375 
Q 12.890625 10.015625 18.65625 8.296875 
Q 24.421875 6.59375 29.984375 6.59375 
Q 38.421875 6.59375 43.015625 9.90625 
Q 47.609375 13.234375 47.609375 19.390625 
Q 47.609375 24.75 44.3125 27.78125 
Q 41.015625 30.8125 33.5 32.328125 
L 27.484375 33.5 
Q 16.453125 35.6875 11.515625 40.375 
Q 6.59375 45.0625 6.59375 53.421875 
Q 6.59375 63.09375 13.40625 68.65625 
Q 20.21875 74.21875 32.171875 74.21875 
Q 37.3125 74.21875 42.625 73.28125 
Q 47.953125 72.359375 53.515625 70.515625 
z
" id="DejaVuSans-83"/>
     <path d="M 19.671875 64.796875 
L 19.671875 37.40625 
L 32.078125 37.40625 
Q 38.96875 37.40625 42.71875 40.96875 
Q 46.484375 44.53125 46.484375 51.125 
Q 46.484375 57.671875 42.71875 61.234375 
Q 38.96875 64.796875 32.078125 64.796875 
z
M 9.8125 72.90625 
L 32.078125 72.90625 
Q 44.34375 72.90625 50.609375 67.359375 
Q 56.890625 61.8125 56.890625 51.125 
Q 56.890625 40.328125 50.609375 34.8125 
Q 44.34375 29.296875 32.078125 29.296875 
L 19.671875 29.296875 
L 19.671875 0 
L 9.8125 0 
z
" id="DejaVuSans-80"/>
     <path d="M 9.8125 72.90625 
L 19.671875 72.90625 
L 19.671875 8.296875 
L 55.171875 8.296875 
L 55.171875 0 
L 9.8125 0 
z
" id="DejaVuSans-76"/>
     <path d="M 9.8125 72.90625 
L 51.703125 72.90625 
L 51.703125 64.59375 
L 19.671875 64.59375 
L 19.671875 43.109375 
L 48.578125 43.109375 
L 48.578125 34.8125 
L 19.671875 34.8125 
L 19.671875 0 
L 9.8125 0 
z
" id="DejaVuSans-70"/>
     <path d="M 37.109375 75.984375 
L 37.109375 68.5 
L 28.515625 68.5 
Q 23.6875 68.5 21.796875 66.546875 
Q 19.921875 64.59375 19.921875 59.515625 
L 19.921875 54.6875 
L 34.71875 54.6875 
L 34.71875 47.703125 
L 19.921875 47.703125 
L 19.921875 0 
L 10.890625 0 
L 10.890625 47.703125 
L 2.296875 47.703125 
L 2.296875 54.6875 
L 10.890625 54.6875 
L 10.890625 58.5 
Q 10.890625 67.625 15.140625 71.796875 
Q 19.390625 75.984375 28.609375 75.984375 
z
" id="DejaVuSans-102"/>
     <path d="M 9.8125 72.90625 
L 19.671875 72.90625 
L 19.671875 0 
L 9.8125 0 
z
" id="DejaVuSans-73"/>
     <path d="M 9.8125 72.90625 
L 55.90625 72.90625 
L 55.90625 64.59375 
L 19.671875 64.59375 
L 19.671875 43.015625 
L 54.390625 43.015625 
L 54.390625 34.71875 
L 19.671875 34.71875 
L 19.671875 8.296875 
L 56.78125 8.296875 
L 56.78125 0 
L 9.8125 0 
z
" id="DejaVuSans-69"/>
     <path d="M 18.109375 8.203125 
L 18.109375 -20.796875 
L 9.078125 -20.796875 
L 9.078125 54.6875 
L 18.109375 54.6875 
L 18.109375 46.390625 
Q 20.953125 51.265625 25.265625 53.625 
Q 29.59375 56 35.59375 56 
Q 45.5625 56 51.78125 48.09375 
Q 58.015625 40.1875 58.015625 27.296875 
Q 58.015625 14.40625 51.78125 6.484375 
Q 45.5625 -1.421875 35.59375 -1.421875 
Q 29.59375 -1.421875 25.265625 0.953125 
Q 20.953125 3.328125 18.109375 8.203125 
z
M 48.6875 27.296875 
Q 48.6875 37.203125 44.609375 42.84375 
Q 40.53125 48.484375 33.40625 48.484375 
Q 26.265625 48.484375 22.1875 42.84375 
Q 18.109375 37.203125 18.109375 27.296875 
Q 18.109375 17.390625 22.1875 11.75 
Q 26.265625 6.109375 33.40625 6.109375 
Q 40.53125 6.109375 44.609375 11.75 
Q 48.6875 17.390625 48.6875 27.296875 
z
" id="DejaVuSans-112"/>
     <path d="M 19.671875 64.796875 
L 19.671875 8.109375 
L 31.59375 8.109375 
Q 46.6875 8.109375 53.6875 14.9375 
Q 60.6875 21.78125 60.6875 36.53125 
Q 60.6875 51.171875 53.6875 57.984375 
Q 46.6875 64.796875 31.59375 64.796875 
z
M 9.8125 72.90625 
L 30.078125 72.90625 
Q 51.265625 72.90625 61.171875 64.09375 
Q 71.09375 55.28125 71.09375 36.53125 
Q 71.09375 17.671875 61.125 8.828125 
Q 51.171875 0 30.078125 0 
L 9.8125 0 
z
" id="DejaVuSans-68"/>
    </defs>
    <g transform="translate(188.652187 45.84)scale(0.12 -0.12)">
     <use xlink:href="#DejaVuSans-83"/>
     <use x="63.476562" xlink:href="#DejaVuSans-99"/>
     <use x="118.457031" xlink:href="#DejaVuSans-97"/>
     <use x="179.736328" xlink:href="#DejaVuSans-116"/>
     <use x="218.945312" xlink:href="#DejaVuSans-116"/>
     <use x="258.154297" xlink:href="#DejaVuSans-101"/>
     <use x="319.677734" xlink:href="#DejaVuSans-114"/>
     <use x="360.791016" xlink:href="#DejaVuSans-32"/>
     <use x="392.578125" xlink:href="#DejaVuSans-80"/>
     <use x="452.880859" xlink:href="#DejaVuSans-108"/>
     <use x="480.664062" xlink:href="#DejaVuSans-111"/>
     <use x="541.845703" xlink:href="#DejaVuSans-116"/>
     <use x="581.054688" xlink:href="#DejaVuSans-32"/>
     <use x="612.841797" xlink:href="#DejaVuSans-97"/>
     <use x="674.121094" xlink:href="#DejaVuSans-110"/>
     <use x="737.5" xlink:href="#DejaVuSans-100"/>
     <use x="800.976562" xlink:href="#DejaVuSans-32"/>
     <use x="832.763672" xlink:href="#DejaVuSans-76"/>
     <use x="888.476562" xlink:href="#DejaVuSans-105"/>
     <use x="916.259766" xlink:href="#DejaVuSans-110"/>
     <use x="979.638672" xlink:href="#DejaVuSans-101"/>
     <use x="1041.162109" xlink:href="#DejaVuSans-97"/>
     <use x="1102.441406" xlink:href="#DejaVuSans-114"/>
     <use x="1143.554688" xlink:href="#DejaVuSans-32"/>
     <use x="1175.341797" xlink:href="#DejaVuSans-70"/>
     <use x="1225.611328" xlink:href="#DejaVuSans-105"/>
     <use x="1253.394531" xlink:href="#DejaVuSans-116"/>
     <use x="1292.603516" xlink:href="#DejaVuSans-115"/>
     <use x="1344.703125" xlink:href="#DejaVuSans-32"/>
     <use x="1376.490234" xlink:href="#DejaVuSans-111"/>
     <use x="1437.671875" xlink:href="#DejaVuSans-102"/>
     <use x="1472.876953" xlink:href="#DejaVuSans-32"/>
     <use x="1504.664062" xlink:href="#DejaVuSans-73"/>
     <use x="1534.15625" xlink:href="#DejaVuSans-110"/>
     <use x="1597.535156" xlink:href="#DejaVuSans-102"/>
     <use x="1632.740234" xlink:href="#DejaVuSans-101"/>
     <use x="1694.263672" xlink:href="#DejaVuSans-99"/>
     <use x="1749.244141" xlink:href="#DejaVuSans-116"/>
     <use x="1788.453125" xlink:href="#DejaVuSans-105"/>
     <use x="1816.236328" xlink:href="#DejaVuSans-111"/>
     <use x="1877.417969" xlink:href="#DejaVuSans-110"/>
     <use x="1940.796875" xlink:href="#DejaVuSans-32"/>
     <use x="1972.583984" xlink:href="#DejaVuSans-97"/>
     <use x="2033.863281" xlink:href="#DejaVuSans-110"/>
     <use x="2097.242188" xlink:href="#DejaVuSans-100"/>
     <use x="2160.71875" xlink:href="#DejaVuSans-32"/>
     <use x="2192.505859" xlink:href="#DejaVuSans-69"/>
     <use x="2255.689453" xlink:href="#DejaVuSans-120"/>
     <use x="2314.869141" xlink:href="#DejaVuSans-112"/>
     <use x="2378.345703" xlink:href="#DejaVuSans-114"/>
     <use x="2417.208984" xlink:href="#DejaVuSans-101"/>
     <use x="2478.732422" xlink:href="#DejaVuSans-115"/>
     <use x="2530.832031" xlink:href="#DejaVuSans-115"/>
     <use x="2582.931641" xlink:href="#DejaVuSans-105"/>
     <use x="2610.714844" xlink:href="#DejaVuSans-111"/>
     <use x="2671.896484" xlink:href="#DejaVuSans-110"/>
     <use x="2735.275391" xlink:href="#DejaVuSans-32"/>
     <use x="2767.0625" xlink:href="#DejaVuSans-68"/>
     <use x="2844.064453" xlink:href="#DejaVuSans-97"/>
     <use x="2905.34375" xlink:href="#DejaVuSans-116"/>
     <use x="2944.552734" xlink:href="#DejaVuSans-97"/>
    </g>
   </g>
   <g id="legend_1">
    <g id="patch_7">
     <path d="M 97 121.59625 
L 335.7 121.59625 
Q 337.7 121.59625 337.7 119.59625 
L 337.7 58.84 
Q 337.7 56.84 335.7 56.84 
L 97 56.84 
Q 95 56.84 95 58.84 
L 95 119.59625 
Q 95 121.59625 97 121.59625 
z
" style="fill:#ffffff;opacity:0.8;stroke:#cccccc;stroke-linejoin:miter;"/>
    </g>
    <g id="line2d_14">
     <path d="M 99 66.44 
L 119 66.44 
" style="fill:none;stroke:#ff0000;stroke-dasharray:5.55,2.4;stroke-dashoffset:0;stroke-width:1.5;"/>
    </g>
    <g id="line2d_15"/>
    <g id="text_15">
     <!-- Infect fit: y = -0.76x + 21.34, $R^2$ = 0.35 -->
     <defs>
      <path d="M 11.71875 12.40625 
L 22.015625 12.40625 
L 22.015625 0 
L 11.71875 0 
z
M 11.71875 51.703125 
L 22.015625 51.703125 
L 22.015625 39.3125 
L 11.71875 39.3125 
z
" id="DejaVuSans-58"/>
      <path d="M 32.171875 -5.078125 
Q 28.375 -14.84375 24.75 -17.8125 
Q 21.140625 -20.796875 15.09375 -20.796875 
L 7.90625 -20.796875 
L 7.90625 -13.28125 
L 13.1875 -13.28125 
Q 16.890625 -13.28125 18.9375 -11.515625 
Q 21 -9.765625 23.484375 -3.21875 
L 25.09375 0.875 
L 2.984375 54.6875 
L 12.5 54.6875 
L 29.59375 11.921875 
L 46.6875 54.6875 
L 56.203125 54.6875 
z
" id="DejaVuSans-121"/>
      <path d="M 10.59375 45.40625 
L 73.1875 45.40625 
L 73.1875 37.203125 
L 10.59375 37.203125 
z
M 10.59375 25.484375 
L 73.1875 25.484375 
L 73.1875 17.1875 
L 10.59375 17.1875 
z
" id="DejaVuSans-61"/>
      <path d="M 4.890625 31.390625 
L 31.203125 31.390625 
L 31.203125 23.390625 
L 4.890625 23.390625 
z
" id="DejaVuSans-45"/>
      <path d="M 10.6875 12.40625 
L 21 12.40625 
L 21 0 
L 10.6875 0 
z
" id="DejaVuSans-46"/>
      <path d="M 8.203125 72.90625 
L 55.078125 72.90625 
L 55.078125 68.703125 
L 28.609375 0 
L 18.3125 0 
L 43.21875 64.59375 
L 8.203125 64.59375 
z
" id="DejaVuSans-55"/>
      <path d="M 33.015625 40.375 
Q 26.375 40.375 22.484375 35.828125 
Q 18.609375 31.296875 18.609375 23.390625 
Q 18.609375 15.53125 22.484375 10.953125 
Q 26.375 6.390625 33.015625 6.390625 
Q 39.65625 6.390625 43.53125 10.953125 
Q 47.40625 15.53125 47.40625 23.390625 
Q 47.40625 31.296875 43.53125 35.828125 
Q 39.65625 40.375 33.015625 40.375 
z
M 52.59375 71.296875 
L 52.59375 62.3125 
Q 48.875 64.0625 45.09375 64.984375 
Q 41.3125 65.921875 37.59375 65.921875 
Q 27.828125 65.921875 22.671875 59.328125 
Q 17.53125 52.734375 16.796875 39.40625 
Q 19.671875 43.65625 24.015625 45.921875 
Q 28.375 48.1875 33.59375 48.1875 
Q 44.578125 48.1875 50.953125 41.515625 
Q 57.328125 34.859375 57.328125 23.390625 
Q 57.328125 12.15625 50.6875 5.359375 
Q 44.046875 -1.421875 33.015625 -1.421875 
Q 20.359375 -1.421875 13.671875 8.265625 
Q 6.984375 17.96875 6.984375 36.375 
Q 6.984375 53.65625 15.1875 63.9375 
Q 23.390625 74.21875 37.203125 74.21875 
Q 40.921875 74.21875 44.703125 73.484375 
Q 48.484375 72.75 52.59375 71.296875 
z
" id="DejaVuSans-54"/>
      <path d="M 46 62.703125 
L 46 35.5 
L 73.1875 35.5 
L 73.1875 27.203125 
L 46 27.203125 
L 46 0 
L 37.796875 0 
L 37.796875 27.203125 
L 10.59375 27.203125 
L 10.59375 35.5 
L 37.796875 35.5 
L 37.796875 62.703125 
z
" id="DejaVuSans-43"/>
      <path d="M 11.71875 12.40625 
L 22.015625 12.40625 
L 22.015625 4 
L 14.015625 -11.625 
L 7.71875 -11.625 
L 11.71875 4 
z
" id="DejaVuSans-44"/>
      <path d="M 25.203125 64.796875 
L 20.21875 38.921875 
L 32.90625 38.921875 
Q 40.375 38.921875 44.984375 43.046875 
Q 49.609375 47.171875 49.609375 53.8125 
Q 49.609375 59.125 46.5 61.953125 
Q 43.40625 64.796875 37.59375 64.796875 
z
M 43.3125 35.015625 
Q 46.4375 34.28125 48.515625 31.390625 
Q 50.59375 28.515625 53.328125 19.921875 
L 59.515625 0 
L 49.125 0 
L 43.40625 18.703125 
Q 41.21875 25.921875 38.328125 28.359375 
Q 35.453125 30.8125 29.5 30.8125 
L 18.609375 30.8125 
L 12.59375 0 
L 2.6875 0 
L 16.890625 72.90625 
L 39.109375 72.90625 
Q 49.21875 72.90625 54.609375 68.328125 
Q 60.015625 63.765625 60.015625 55.171875 
Q 60.015625 47.5625 55.421875 41.984375 
Q 50.828125 36.421875 43.3125 35.015625 
z
" id="DejaVuSans-Oblique-82"/>
     </defs>
     <g transform="translate(127 69.94)scale(0.1 -0.1)">
      <use transform="translate(0 0.765625)" xlink:href="#DejaVuSans-73"/>
      <use transform="translate(29.492188 0.765625)" xlink:href="#DejaVuSans-110"/>
      <use transform="translate(92.871094 0.765625)" xlink:href="#DejaVuSans-102"/>
      <use transform="translate(128.076172 0.765625)" xlink:href="#DejaVuSans-101"/>
      <use transform="translate(189.599609 0.765625)" xlink:href="#DejaVuSans-99"/>
      <use transform="translate(244.580078 0.765625)" xlink:href="#DejaVuSans-116"/>
      <use transform="translate(283.789062 0.765625)" xlink:href="#DejaVuSans-32"/>
      <use transform="translate(315.576172 0.765625)" xlink:href="#DejaVuSans-102"/>
      <use transform="translate(350.78125 0.765625)" xlink:href="#DejaVuSans-105"/>
      <use transform="translate(378.564453 0.765625)" xlink:href="#DejaVuSans-116"/>
      <use transform="translate(417.773438 0.765625)" xlink:href="#DejaVuSans-58"/>
      <use transform="translate(451.464844 0.765625)" xlink:href="#DejaVuSans-32"/>
      <use transform="translate(483.251953 0.765625)" xlink:href="#DejaVuSans-121"/>
      <use transform="translate(542.431641 0.765625)" xlink:href="#DejaVuSans-32"/>
      <use transform="translate(574.21875 0.765625)" xlink:href="#DejaVuSans-61"/>
      <use transform="translate(658.007812 0.765625)" xlink:href="#DejaVuSans-32"/>
      <use transform="translate(689.794922 0.765625)" xlink:href="#DejaVuSans-45"/>
      <use transform="translate(725.878906 0.765625)" xlink:href="#DejaVuSans-48"/>
      <use transform="translate(789.501953 0.765625)" xlink:href="#DejaVuSans-46"/>
      <use transform="translate(813.539062 0.765625)" xlink:href="#DejaVuSans-55"/>
      <use transform="translate(877.162109 0.765625)" xlink:href="#DejaVuSans-54"/>
      <use transform="translate(940.785156 0.765625)" xlink:href="#DejaVuSans-120"/>
      <use transform="translate(999.964844 0.765625)" xlink:href="#DejaVuSans-32"/>
      <use transform="translate(1031.751953 0.765625)" xlink:href="#DejaVuSans-43"/>
      <use transform="translate(1115.541016 0.765625)" xlink:href="#DejaVuSans-32"/>
      <use transform="translate(1147.328125 0.765625)" xlink:href="#DejaVuSans-50"/>
      <use transform="translate(1210.951172 0.765625)" xlink:href="#DejaVuSans-49"/>
      <use transform="translate(1274.574219 0.765625)" xlink:href="#DejaVuSans-46"/>
      <use transform="translate(1306.361328 0.765625)" xlink:href="#DejaVuSans-51"/>
      <use transform="translate(1369.984375 0.765625)" xlink:href="#DejaVuSans-52"/>
      <use transform="translate(1433.607422 0.765625)" xlink:href="#DejaVuSans-44"/>
      <use transform="translate(1465.394531 0.765625)" xlink:href="#DejaVuSans-32"/>
      <use transform="translate(1497.181641 0.765625)" xlink:href="#DejaVuSans-Oblique-82"/>
      <use transform="translate(1573.680833 39.046875)scale(0.7)" xlink:href="#DejaVuSans-50"/>
      <use transform="translate(1620.951341 0.765625)" xlink:href="#DejaVuSans-32"/>
      <use transform="translate(1652.738451 0.765625)" xlink:href="#DejaVuSans-61"/>
      <use transform="translate(1736.527513 0.765625)" xlink:href="#DejaVuSans-32"/>
      <use transform="translate(1768.314622 0.765625)" xlink:href="#DejaVuSans-48"/>
      <use transform="translate(1831.937669 0.765625)" xlink:href="#DejaVuSans-46"/>
      <use transform="translate(1863.724779 0.765625)" xlink:href="#DejaVuSans-51"/>
      <use transform="translate(1927.347826 0.765625)" xlink:href="#DejaVuSans-53"/>
     </g>
    </g>
    <g id="line2d_16">
     <path d="M 99 82.64 
L 119 82.64 
" style="fill:none;stroke:#0000ff;stroke-dasharray:5.55,2.4;stroke-dashoffset:0;stroke-width:1.5;"/>
    </g>
    <g id="line2d_17"/>
    <g id="text_16">
     <!-- Express fit: y = 0.23x + 22.13, $R^2$ = 0.02 -->
     <g transform="translate(127 86.14)scale(0.1 -0.1)">
      <use transform="translate(0 0.765625)" xlink:href="#DejaVuSans-69"/>
      <use transform="translate(63.183594 0.765625)" xlink:href="#DejaVuSans-120"/>
      <use transform="translate(122.363281 0.765625)" xlink:href="#DejaVuSans-112"/>
      <use transform="translate(185.839844 0.765625)" xlink:href="#DejaVuSans-114"/>
      <use transform="translate(226.953125 0.765625)" xlink:href="#DejaVuSans-101"/>
      <use transform="translate(288.476562 0.765625)" xlink:href="#DejaVuSans-115"/>
      <use transform="translate(340.576172 0.765625)" xlink:href="#DejaVuSans-115"/>
      <use transform="translate(392.675781 0.765625)" xlink:href="#DejaVuSans-32"/>
      <use transform="translate(424.462891 0.765625)" xlink:href="#DejaVuSans-102"/>
      <use transform="translate(459.667969 0.765625)" xlink:href="#DejaVuSans-105"/>
      <use transform="translate(487.451172 0.765625)" xlink:href="#DejaVuSans-116"/>
      <use transform="translate(526.660156 0.765625)" xlink:href="#DejaVuSans-58"/>
      <use transform="translate(560.351562 0.765625)" xlink:href="#DejaVuSans-32"/>
      <use transform="translate(592.138672 0.765625)" xlink:href="#DejaVuSans-121"/>
      <use transform="translate(651.318359 0.765625)" xlink:href="#DejaVuSans-32"/>
      <use transform="translate(683.105469 0.765625)" xlink:href="#DejaVuSans-61"/>
      <use transform="translate(766.894531 0.765625)" xlink:href="#DejaVuSans-32"/>
      <use transform="translate(798.681641 0.765625)" xlink:href="#DejaVuSans-48"/>
      <use transform="translate(862.304688 0.765625)" xlink:href="#DejaVuSans-46"/>
      <use transform="translate(888.591797 0.765625)" xlink:href="#DejaVuSans-50"/>
      <use transform="translate(952.214844 0.765625)" xlink:href="#DejaVuSans-51"/>
      <use transform="translate(1015.837891 0.765625)" xlink:href="#DejaVuSans-120"/>
      <use transform="translate(1075.017578 0.765625)" xlink:href="#DejaVuSans-32"/>
      <use transform="translate(1106.804688 0.765625)" xlink:href="#DejaVuSans-43"/>
      <use transform="translate(1190.59375 0.765625)" xlink:href="#DejaVuSans-32"/>
      <use transform="translate(1222.380859 0.765625)" xlink:href="#DejaVuSans-50"/>
      <use transform="translate(1286.003906 0.765625)" xlink:href="#DejaVuSans-50"/>
      <use transform="translate(1349.626953 0.765625)" xlink:href="#DejaVuSans-46"/>
      <use transform="translate(1381.414062 0.765625)" xlink:href="#DejaVuSans-49"/>
      <use transform="translate(1445.037109 0.765625)" xlink:href="#DejaVuSans-51"/>
      <use transform="translate(1508.660156 0.765625)" xlink:href="#DejaVuSans-44"/>
      <use transform="translate(1540.447266 0.765625)" xlink:href="#DejaVuSans-32"/>
      <use transform="translate(1572.234375 0.765625)" xlink:href="#DejaVuSans-Oblique-82"/>
      <use transform="translate(1648.733568 39.046875)scale(0.7)" xlink:href="#DejaVuSans-50"/>
      <use transform="translate(1696.004076 0.765625)" xlink:href="#DejaVuSans-32"/>
      <use transform="translate(1727.791185 0.765625)" xlink:href="#DejaVuSans-61"/>
      <use transform="translate(1811.580247 0.765625)" xlink:href="#DejaVuSans-32"/>
      <use transform="translate(1843.367357 0.765625)" xlink:href="#DejaVuSans-48"/>
      <use transform="translate(1906.990404 0.765625)" xlink:href="#DejaVuSans-46"/>
      <use transform="translate(1938.777513 0.765625)" xlink:href="#DejaVuSans-48"/>
      <use transform="translate(2002.40056 0.765625)" xlink:href="#DejaVuSans-50"/>
     </g>
    </g>
    <g id="PathCollection_3">
     <g>
      <use style="fill:#ff0000;fill-opacity:0.7;stroke:#ff0000;stroke-opacity:0.7;" x="109" xlink:href="#m45acab0ea9" y="98.213437"/>
     </g>
    </g>
    <g id="text_17">
     <!-- Infect (red) -->
     <g transform="translate(127 100.838437)scale(0.1 -0.1)">
      <use xlink:href="#DejaVuSans-73"/>
      <use x="29.492188" xlink:href="#DejaVuSans-110"/>
      <use x="92.871094" xlink:href="#DejaVuSans-102"/>
      <use x="128.076172" xlink:href="#DejaVuSans-101"/>
      <use x="189.599609" xlink:href="#DejaVuSans-99"/>
      <use x="244.580078" xlink:href="#DejaVuSans-116"/>
      <use x="283.789062" xlink:href="#DejaVuSans-32"/>
      <use x="315.576172" xlink:href="#DejaVuSans-40"/>
      <use x="354.589844" xlink:href="#DejaVuSans-114"/>
      <use x="393.453125" xlink:href="#DejaVuSans-101"/>
      <use x="454.976562" xlink:href="#DejaVuSans-100"/>
      <use x="518.453125" xlink:href="#DejaVuSans-41"/>
     </g>
    </g>
    <g id="PathCollection_4">
     <g>
      <use style="fill:#00008b;fill-opacity:0.7;stroke:#00008b;stroke-opacity:0.7;" x="109" xlink:href="#mab9d2e7e57" y="112.891563"/>
     </g>
    </g>
    <g id="text_18">
     <!-- Express (blue) -->
     <defs>
      <path d="M 48.6875 27.296875 
Q 48.6875 37.203125 44.609375 42.84375 
Q 40.53125 48.484375 33.40625 48.484375 
Q 26.265625 48.484375 22.1875 42.84375 
Q 18.109375 37.203125 18.109375 27.296875 
Q 18.109375 17.390625 22.1875 11.75 
Q 26.265625 6.109375 33.40625 6.109375 
Q 40.53125 6.109375 44.609375 11.75 
Q 48.6875 17.390625 48.6875 27.296875 
z
M 18.109375 46.390625 
Q 20.953125 51.265625 25.265625 53.625 
Q 29.59375 56 35.59375 56 
Q 45.5625 56 51.78125 48.09375 
Q 58.015625 40.1875 58.015625 27.296875 
Q 58.015625 14.40625 51.78125 6.484375 
Q 45.5625 -1.421875 35.59375 -1.421875 
Q 29.59375 -1.421875 25.265625 0.953125 
Q 20.953125 3.328125 18.109375 8.203125 
L 18.109375 0 
L 9.078125 0 
L 9.078125 75.984375 
L 18.109375 75.984375 
z
" id="DejaVuSans-98"/>
     </defs>
     <g transform="translate(127 115.516563)scale(0.1 -0.1)">
      <use xlink:href="#DejaVuSans-69"/>
      <use x="63.183594" xlink:href="#DejaVuSans-120"/>
      <use x="122.363281" xlink:href="#DejaVuSans-112"/>
      <use x="185.839844" xlink:href="#DejaVuSans-114"/>
      <use x="224.703125" xlink:href="#DejaVuSans-101"/>
      <use x="286.226562" xlink:href="#DejaVuSans-115"/>
      <use x="338.326172" xlink:href="#DejaVuSans-115"/>
      <use x="390.425781" xlink:href="#DejaVuSans-32"/>
      <use x="422.212891" xlink:href="#DejaVuSans-40"/>
      <use x="461.226562" xlink:href="#DejaVuSans-98"/>
      <use x="524.703125" xlink:href="#DejaVuSans-108"/>
      <use x="552.486328" xlink:href="#DejaVuSans-117"/>
      <use x="615.865234" xlink:href="#DejaVuSans-101"/>
      <use x="677.388672" xlink:href="#DejaVuSans-41"/>
     </g>
    </g>
   </g>
  </g>
 </g>
 <defs>
  <clipPath id="p50e22efb9b">
   <rect height="326.16" width="558" x="90" y="51.84"/>
  </clipPath>
 </defs>
</svg>
