<?xml version="1.0" encoding="utf-8" standalone="no"?>
<!DOCTYPE svg PUBLIC "-//W3C//DTD SVG 1.1//EN"
  "http://www.w3.org/Graphics/SVG/1.1/DTD/svg11.dtd">
<!-- Created with matplotlib (https://matplotlib.org/) -->
<svg height="432pt" version="1.1" viewBox="0 0 720 432" width="720pt" xmlns="http://www.w3.org/2000/svg" xmlns:xlink="http://www.w3.org/1999/xlink">
 <defs>
  <style type="text/css">
*{stroke-linecap:butt;stroke-linejoin:round;}
  </style>
 </defs>
 <g id="figure_1">
  <g id="patch_1">
   <path d="M 0 432 
L 720 432 
L 720 0 
L 0 0 
z
" style="fill:#ffffff;"/>
  </g>
  <g id="axes_1">
   <g id="patch_2">
    <path d="M 88.3 376.2 
L 709.2 376.2 
L 709.2 10.8 
L 88.3 10.8 
z
" style="fill:#ffffff;"/>
   </g>
   <g id="PolyCollection_1">
    <defs>
     <path d="M 88.3 -55.832032 
L 88.3 -55.832032 
L 92.254777 -55.832032 
L 96.209554 -55.832032 
L 100.164331 -55.832032 
L 104.119108 -55.808008 
L 108.073885 -55.808008 
L 112.028662 -55.832032 
L 115.983439 -55.824024 
L 119.938217 -55.808008 
L 123.892994 -55.832032 
L 127.847771 -55.809372 
L 131.802548 -55.84004 
L 135.757325 -55.856056 
L 139.712102 -55.896095 
L 143.666879 -55.879813 
L 147.621656 -55.934005 
L 151.576433 -56.009558 
L 155.53121 -56.115185 
L 159.485987 -56.227514 
L 163.440764 -56.386489 
L 167.395541 -56.566486 
L 171.350318 -56.823243 
L 175.305096 -57.125336 
L 179.259873 -57.505233 
L 183.21465 -57.956897 
L 187.169427 -58.460562 
L 191.124204 -59.126348 
L 195.078981 -59.862816 
L 199.033758 -60.676374 
L 202.988535 -61.71139 
L 206.943312 -62.775834 
L 210.898089 -64.021418 
L 214.852866 -65.444421 
L 218.807643 -66.942714 
L 222.76242 -68.743472 
L 226.717197 -70.517457 
L 230.671975 -72.54164 
L 234.626752 -74.722451 
L 238.581529 -77.165178 
L 242.536306 -79.628228 
L 246.491083 -82.244511 
L 250.44586 -85.180917 
L 254.400637 -88.29307 
L 258.355414 -91.28967 
L 262.310191 -94.656717 
L 266.264968 -98.085467 
L 270.219745 -101.471313 
L 274.174522 -105.280048 
L 278.129299 -109.079926 
L 282.084076 -112.672709 
L 286.038854 -116.607744 
L 289.993631 -120.618688 
L 293.948408 -124.577897 
L 297.903185 -128.70517 
L 301.857962 -133.031048 
L 305.812739 -136.924583 
L 309.767516 -141.053433 
L 313.722293 -145.445694 
L 317.67707 -149.539472 
L 321.631847 -153.621736 
L 325.586624 -158.205637 
L 329.541401 -162.316642 
L 333.496178 -166.445094 
L 337.450955 -170.409115 
L 341.405732 -174.826368 
L 345.36051 -178.692529 
L 349.315287 -182.33843 
L 353.270064 -186.288129 
L 357.224841 -190.257595 
L 361.179618 -193.655546 
L 365.134395 -197.347425 
L 369.089172 -201.196023 
L 373.043949 -204.492311 
L 376.998726 -207.983327 
L 380.953503 -211.427782 
L 384.90828 -214.464812 
L 388.863057 -217.760102 
L 392.817834 -221.13014 
L 396.772611 -223.536116 
L 400.727389 -227.084636 
L 404.682166 -230.081866 
L 408.636943 -233.080434 
L 412.59172 -235.546221 
L 416.546497 -238.035341 
L 420.501274 -241.306694 
L 424.456051 -243.512669 
L 428.410828 -245.686908 
L 432.365605 -248.785474 
L 436.320382 -251.108043 
L 440.275159 -253.007518 
L 444.229936 -255.132419 
L 448.184713 -257.650312 
L 452.13949 -258.913734 
L 456.094268 -261.459343 
L 460.049045 -263.331611 
L 464.003822 -265.248474 
L 467.958599 -267.041586 
L 471.913376 -268.832815 
L 475.868153 -270.759799 
L 479.82293 -272.577825 
L 483.777707 -274.266731 
L 487.732484 -275.451785 
L 491.687261 -276.833964 
L 495.642038 -278.521912 
L 499.596815 -279.620168 
L 503.551592 -281.413257 
L 507.506369 -283.083447 
L 511.461146 -283.83331 
L 515.415924 -285.128035 
L 519.370701 -285.859589 
L 523.325478 -286.972707 
L 527.280255 -287.765752 
L 531.235032 -288.49697 
L 535.189809 -289.430567 
L 539.144586 -290.20831 
L 543.099363 -291.150731 
L 547.05414 -291.695943 
L 551.008917 -292.388986 
L 554.963694 -293.085345 
L 558.918471 -293.011069 
L 562.873248 -294.051214 
L 566.828025 -295.064941 
L 570.782803 -295.803228 
L 574.73758 -296.321513 
L 578.692357 -297.129011 
L 582.647134 -297.566873 
L 586.601911 -297.516013 
L 590.556688 -298.433874 
L 594.511465 -298.58063 
L 598.466242 -299.638497 
L 602.421019 -299.559547 
L 606.375796 -300.05497 
L 610.330573 -300.377277 
L 614.28535 -300.747415 
L 618.240127 -301.536737 
L 622.194904 -301.574683 
L 626.149682 -301.931438 
L 630.104459 -302.511502 
L 634.059236 -302.924611 
L 638.014013 -302.824572 
L 641.96879 -303.119877 
L 645.923567 -303.245453 
L 649.878344 -303.583086 
L 653.833121 -303.624047 
L 657.787898 -304.360098 
L 661.742675 -304.387308 
L 665.697452 -304.742169 
L 669.652229 -304.895416 
L 673.607006 -304.822891 
L 677.561783 -304.98948 
L 681.516561 -305.098783 
L 685.471338 -305.696297 
L 689.426115 -305.456137 
L 693.380892 -304.834615 
L 697.335669 -305.336255 
L 701.290446 -305.960634 
L 705.245223 -305.233717 
L 709.2 -305.775168 
L 709.2 -359.414125 
L 709.2 -359.414125 
L 705.245223 -358.978607 
L 701.290446 -358.860294 
L 697.335669 -357.81902 
L 693.380892 -357.551897 
L 689.426115 -357.65109 
L 685.471338 -356.722247 
L 681.516561 -356.983427 
L 677.561783 -355.987633 
L 673.607006 -356.058127 
L 669.652229 -354.656283 
L 665.697452 -354.409133 
L 661.742675 -354.860089 
L 657.787898 -353.894314 
L 653.833121 -353.301046 
L 649.878344 -352.605276 
L 645.923567 -351.965939 
L 641.96879 -351.675102 
L 638.014013 -351.650089 
L 634.059236 -350.54105 
L 630.104459 -350.249459 
L 626.149682 -349.179886 
L 622.194904 -348.175291 
L 618.240127 -347.812839 
L 614.28535 -347.128699 
L 610.330573 -347.194535 
L 606.375796 -346.155491 
L 602.421019 -346.074343 
L 598.466242 -344.473883 
L 594.511465 -343.850081 
L 590.556688 -343.067916 
L 586.601911 -342.33614 
L 582.647134 -341.868867 
L 578.692357 -340.609043 
L 574.73758 -340.551684 
L 570.782803 -338.715633 
L 566.828025 -337.884363 
L 562.873248 -337.344548 
L 558.918471 -336.815135 
L 554.963694 -335.171302 
L 551.008917 -334.458263 
L 547.05414 -334.398559 
L 543.099363 -332.87772 
L 539.144586 -332.07441 
L 535.189809 -330.978293 
L 531.235032 -330.358348 
L 527.280255 -329.664153 
L 523.325478 -329.191942 
L 519.370701 -327.934707 
L 515.415924 -326.680292 
L 511.461146 -325.236299 
L 507.506369 -323.487683 
L 503.551592 -322.595331 
L 499.596815 -320.224287 
L 495.642038 -318.647889 
L 491.687261 -316.828357 
L 487.732484 -314.895247 
L 483.777707 -312.396646 
L 479.82293 -310.978469 
L 475.868153 -308.904632 
L 471.913376 -306.41123 
L 467.958599 -304.134423 
L 464.003822 -301.987626 
L 460.049045 -299.724341 
L 456.094268 -297.176223 
L 452.13949 -295.253398 
L 448.184713 -292.689022 
L 444.229936 -290.209957 
L 440.275159 -287.049614 
L 436.320382 -284.752925 
L 432.365605 -281.806266 
L 428.410828 -278.75473 
L 424.456051 -276.204281 
L 420.501274 -272.932821 
L 416.546497 -270.310326 
L 412.59172 -267.145836 
L 408.636943 -264.006061 
L 404.682166 -260.678351 
L 400.727389 -257.061018 
L 396.772611 -254.299277 
L 392.817834 -250.154754 
L 388.863057 -246.926244 
L 384.90828 -242.902271 
L 380.953503 -239.372786 
L 376.998726 -235.770248 
L 373.043949 -231.909971 
L 369.089172 -227.983092 
L 365.134395 -224.240157 
L 361.179618 -219.779947 
L 357.224841 -215.826604 
L 353.270064 -211.595934 
L 349.315287 -207.585734 
L 345.36051 -203.223689 
L 341.405732 -198.82565 
L 337.450955 -194.690418 
L 333.496178 -190.117968 
L 329.541401 -185.197442 
L 325.586624 -181.10831 
L 321.631847 -176.659248 
L 317.67707 -171.852692 
L 313.722293 -166.833428 
L 309.767516 -162.481012 
L 305.812739 -157.480804 
L 301.857962 -153.030059 
L 297.903185 -148.33899 
L 293.948408 -143.913777 
L 289.993631 -139.192372 
L 286.038854 -134.474656 
L 282.084076 -129.905253 
L 278.129299 -125.682281 
L 274.174522 -121.169911 
L 270.219745 -116.874605 
L 266.264968 -112.684934 
L 262.310191 -108.474104 
L 258.355414 -104.47384 
L 254.400637 -100.471496 
L 250.44586 -96.744863 
L 246.491083 -93.210849 
L 242.536306 -89.661013 
L 238.581529 -86.374358 
L 234.626752 -83.14746 
L 230.671975 -80.283265 
L 226.717197 -77.39057 
L 222.76242 -74.840263 
L 218.807643 -72.380795 
L 214.852866 -70.227464 
L 210.898089 -68.303146 
L 206.943312 -66.521727 
L 202.988535 -64.847453 
L 199.033758 -63.480085 
L 195.078981 -62.099466 
L 191.124204 -60.994106 
L 187.169427 -60.058303 
L 183.21465 -59.216633 
L 179.259873 -58.483121 
L 175.305096 -57.902065 
L 171.350318 -57.403363 
L 167.395541 -57.019484 
L 163.440764 -56.686973 
L 159.485987 -56.44555 
L 155.53121 -56.253578 
L 151.576433 -56.118967 
L 147.621656 -55.986313 
L 143.666879 -55.960425 
L 139.712102 -55.896095 
L 135.757325 -55.888087 
L 131.802548 -55.872072 
L 127.847771 -55.870708 
L 123.892994 -55.832032 
L 119.938217 -55.84004 
L 115.983439 -55.856056 
L 112.028662 -55.832032 
L 108.073885 -55.84004 
L 104.119108 -55.84004 
L 100.164331 -55.832032 
L 96.209554 -55.832032 
L 92.254777 -55.832032 
L 88.3 -55.832032 
z
" id="m2203cf637d" style="stroke:#ff0000;stroke-opacity:0.1;"/>
    </defs>
    <g clip-path="url(#p4e3c2add2a)">
     <use style="fill:#ff0000;fill-opacity:0.1;stroke:#ff0000;stroke-opacity:0.1;" x="0" xlink:href="#m2203cf637d" y="432"/>
    </g>
   </g>
   <g id="PolyCollection_2">
    <defs>
     <path d="M 88.3 -55.832032 
L 88.3 -55.832032 
L 92.254777 -55.829554 
L 96.209554 -55.797522 
L 100.164331 -55.808008 
L 104.119108 -55.808008 
L 108.073885 -55.832032 
L 112.028662 -55.805878 
L 115.983439 -55.824024 
L 119.938217 -55.824024 
L 123.892994 -55.824024 
L 127.847771 -55.829554 
L 131.802548 -55.864064 
L 135.757325 -55.872072 
L 139.712102 -55.925649 
L 143.666879 -55.976175 
L 147.621656 -56.080278 
L 151.576433 -56.169411 
L 155.53121 -56.347242 
L 159.485987 -56.59179 
L 163.440764 -56.866163 
L 167.395541 -57.239671 
L 171.350318 -57.714738 
L 175.305096 -58.255287 
L 179.259873 -58.964103 
L 183.21465 -59.729781 
L 187.169427 -60.703008 
L 191.124204 -61.821255 
L 195.078981 -63.080353 
L 199.033758 -64.558436 
L 202.988535 -66.169816 
L 206.943312 -68.03528 
L 210.898089 -70.091535 
L 214.852866 -72.366694 
L 218.807643 -74.888424 
L 222.76242 -77.548833 
L 226.717197 -80.502585 
L 230.671975 -83.632841 
L 234.626752 -87.100394 
L 238.581529 -90.596452 
L 242.536306 -94.468574 
L 246.491083 -98.441128 
L 250.44586 -102.835465 
L 254.400637 -107.111911 
L 258.355414 -111.76823 
L 262.310191 -116.338093 
L 266.264968 -121.172682 
L 270.219745 -126.157112 
L 274.174522 -131.324733 
L 278.129299 -136.386103 
L 282.084076 -141.383963 
L 286.038854 -146.888243 
L 289.993631 -152.552035 
L 293.948408 -157.411044 
L 297.903185 -162.988798 
L 301.857962 -168.258955 
L 305.812739 -173.709388 
L 309.767516 -179.149985 
L 313.722293 -184.33283 
L 317.67707 -189.853457 
L 321.631847 -195.024398 
L 325.586624 -200.42829 
L 329.541401 -205.394788 
L 333.496178 -210.497406 
L 337.450955 -215.328544 
L 341.405732 -220.429766 
L 345.36051 -225.493893 
L 349.315287 -230.36548 
L 353.270064 -234.934555 
L 357.224841 -239.190661 
L 361.179618 -244.089981 
L 365.134395 -248.491427 
L 369.089172 -252.47126 
L 373.043949 -256.586082 
L 376.998726 -260.652739 
L 380.953503 -264.755594 
L 384.90828 -268.180508 
L 388.863057 -271.82499 
L 392.817834 -275.793024 
L 396.772611 -279.148269 
L 400.727389 -282.699366 
L 404.682166 -285.324134 
L 408.636943 -288.126787 
L 412.59172 -291.148588 
L 416.546497 -293.625231 
L 420.501274 -296.400901 
L 424.456051 -298.889276 
L 428.410828 -301.244459 
L 432.365605 -303.917307 
L 436.320382 -306.269066 
L 440.275159 -308.320182 
L 444.229936 -310.43923 
L 448.184713 -312.686315 
L 452.13949 -315.114967 
L 456.094268 -316.67534 
L 460.049045 -318.423111 
L 464.003822 -320.499121 
L 467.958599 -322.066185 
L 471.913376 -323.711987 
L 475.868153 -325.297393 
L 479.82293 -326.960611 
L 483.777707 -328.337722 
L 487.732484 -329.690026 
L 491.687261 -331.812812 
L 495.642038 -332.965478 
L 499.596815 -334.174769 
L 503.551592 -335.723646 
L 507.506369 -336.363059 
L 511.461146 -336.880824 
L 515.415924 -337.248447 
L 519.370701 -338.196533 
L 523.325478 -338.908079 
L 527.280255 -339.030918 
L 531.235032 -340.752997 
L 535.189809 -340.923566 
L 539.144586 -340.895184 
L 543.099363 -342.260047 
L 547.05414 -343.566095 
L 551.008917 -343.793326 
L 554.963694 -344.531704 
L 558.918471 -345.32721 
L 562.873248 -345.987629 
L 566.828025 -347.58266 
L 570.782803 -347.772997 
L 574.73758 -348.198558 
L 578.692357 -348.691576 
L 582.647134 -349.412648 
L 586.601911 -350.121447 
L 590.556688 -350.421491 
L 594.511465 -349.957168 
L 598.466242 -351.712096 
L 602.421019 -351.553197 
L 606.375796 -352.531472 
L 610.330573 -352.79702 
L 614.28535 -352.813998 
L 618.240127 -353.52106 
L 622.194904 -354.608307 
L 626.149682 -354.48077 
L 630.104459 -355.260538 
L 634.059236 -355.670453 
L 638.014013 -355.391152 
L 641.96879 -356.323152 
L 645.923567 -356.28869 
L 649.878344 -356.474712 
L 653.833121 -357.031685 
L 657.787898 -357.410803 
L 661.742675 -357.461095 
L 665.697452 -357.732521 
L 669.652229 -358.177016 
L 673.607006 -358.552285 
L 677.561783 -358.382379 
L 681.516561 -358.645136 
L 685.471338 -359.358152 
L 689.426115 -359.080932 
L 693.380892 -359.095934 
L 697.335669 -359.507415 
L 701.290446 -359.593755 
L 705.245223 -359.957365 
L 709.2 -359.438699 
L 709.2 -403.799882 
L 709.2 -403.799882 
L 705.245223 -403.473408 
L 701.290446 -402.924111 
L 697.335669 -403.122563 
L 693.380892 -402.476994 
L 689.426115 -402.764267 
L 685.471338 -402.278841 
L 681.516561 -401.742616 
L 677.561783 -401.412785 
L 673.607006 -400.858498 
L 669.652229 -400.913449 
L 665.697452 -400.413006 
L 661.742675 -399.611368 
L 657.787898 -400.046041 
L 653.833121 -399.416158 
L 649.878344 -398.852019 
L 645.923567 -398.285294 
L 641.96879 -398.186769 
L 638.014013 -397.773434 
L 634.059236 -397.333974 
L 630.104459 -397.247396 
L 626.149682 -397.274417 
L 622.194904 -395.945688 
L 618.240127 -395.351266 
L 614.28535 -394.136422 
L 610.330573 -394.585829 
L 606.375796 -393.650185 
L 602.421019 -393.395236 
L 598.466242 -393.236337 
L 594.511465 -392.813104 
L 590.556688 -392.460893 
L 586.601911 -391.815998 
L 582.647134 -391.067352 
L 578.692357 -389.818469 
L 574.73758 -389.526709 
L 570.782803 -389.039363 
L 566.828025 -388.941415 
L 562.873248 -388.278205 
L 558.918471 -388.362051 
L 554.963694 -388.308715 
L 551.008917 -387.909965 
L 547.05414 -388.681736 
L 543.099363 -389.154957 
L 539.144586 -388.710025 
L 535.189809 -388.008976 
L 531.235032 -387.282655 
L 527.280255 -386.538286 
L 523.325478 -384.819298 
L 519.370701 -384.169493 
L 515.415924 -383.900372 
L 511.461146 -383.38712 
L 507.506369 -383.152139 
L 503.551592 -382.798566 
L 499.596815 -382.697807 
L 495.642038 -382.06527 
L 491.687261 -380.735472 
L 487.732484 -378.998428 
L 483.777707 -376.827237 
L 479.82293 -375.129296 
L 475.868153 -373.156907 
L 471.913376 -370.562165 
L 467.958599 -368.428216 
L 464.003822 -366.29561 
L 460.049045 -363.871154 
L 456.094268 -361.358698 
L 452.13949 -358.226415 
L 448.184713 -356.074521 
L 444.229936 -353.292617 
L 440.275159 -350.270564 
L 436.320382 -347.885277 
L 432.365605 -344.18303 
L 428.410828 -341.730792 
L 424.456051 -338.49643 
L 420.501274 -335.139004 
L 416.546497 -330.963777 
L 412.59172 -327.722746 
L 408.636943 -324.338191 
L 404.682166 -320.237994 
L 400.727389 -316.552501 
L 396.772611 -313.360908 
L 392.817834 -308.708207 
L 388.863057 -304.860486 
L 384.90828 -300.737261 
L 380.953503 -296.730801 
L 376.998726 -292.585471 
L 373.043949 -287.731277 
L 369.089172 -283.453772 
L 365.134395 -278.480721 
L 361.179618 -273.913268 
L 357.224841 -269.090942 
L 353.270064 -263.993768 
L 349.315287 -258.568927 
L 345.36051 -253.734883 
L 341.405732 -248.372664 
L 337.450955 -242.567064 
L 333.496178 -237.820699 
L 329.541401 -231.936415 
L 325.586624 -226.492584 
L 321.631847 -220.477145 
L 317.67707 -214.821343 
L 313.722293 -208.682401 
L 309.767516 -202.89436 
L 305.812739 -196.62734 
L 301.857962 -190.770554 
L 297.903185 -184.573333 
L 293.948408 -178.699725 
L 289.993631 -172.603863 
L 286.038854 -166.511991 
L 282.084076 -160.244591 
L 278.129299 -154.44774 
L 274.174522 -148.458144 
L 270.219745 -142.398626 
L 266.264968 -136.716472 
L 262.310191 -130.964557 
L 258.355414 -125.108074 
L 254.400637 -119.978684 
L 250.44586 -114.517467 
L 246.491083 -109.510476 
L 242.536306 -104.754369 
L 238.581529 -100.122053 
L 234.626752 -95.674228 
L 230.671975 -91.39009 
L 226.717197 -87.569448 
L 222.76242 -83.956685 
L 218.807643 -80.627151 
L 214.852866 -77.463239 
L 210.898089 -74.581282 
L 206.943312 -72.008943 
L 202.988535 -69.646212 
L 199.033758 -67.477842 
L 195.078981 -65.576572 
L 191.124204 -63.840698 
L 187.169427 -62.44445 
L 183.21465 -61.14342 
L 179.259873 -60.115318 
L 175.305096 -59.12645 
L 171.350318 -58.401743 
L 167.395541 -57.739682 
L 163.440764 -57.232316 
L 159.485987 -56.850038 
L 155.53121 -56.566061 
L 151.576433 -56.311463 
L 147.621656 -56.176373 
L 143.666879 -56.040238 
L 139.712102 -55.962637 
L 135.757325 -55.904103 
L 131.802548 -55.864064 
L 127.847771 -55.866541 
L 123.892994 -55.856056 
L 119.938217 -55.856056 
L 115.983439 -55.856056 
L 112.028662 -55.858186 
L 108.073885 -55.832032 
L 104.119108 -55.84004 
L 100.164331 -55.84004 
L 96.209554 -55.834509 
L 92.254777 -55.866541 
L 88.3 -55.832032 
z
" id="maf0bbaadf9" style="stroke:#ff0000;stroke-opacity:0.1;"/>
    </defs>
    <g clip-path="url(#p4e3c2add2a)">
     <use style="fill:#ff0000;fill-opacity:0.1;stroke:#ff0000;stroke-opacity:0.1;" x="0" xlink:href="#maf0bbaadf9" y="432"/>
    </g>
   </g>
   <g id="matplotlib.axis_1">
    <g id="xtick_1">
     <g id="line2d_1">
      <defs>
       <path d="M 0 0 
L 0 3.5 
" id="m38d2904496" style="stroke:#000000;stroke-width:0.8;"/>
      </defs>
      <g>
       <use style="stroke:#000000;stroke-width:0.8;" x="182.924633" xlink:href="#m38d2904496" y="376.2"/>
      </g>
     </g>
     <g id="text_1">
      <!-- 2 -->
      <defs>
       <path d="M 19.1875 8.296875 
L 53.609375 8.296875 
L 53.609375 0 
L 7.328125 0 
L 7.328125 8.296875 
Q 12.9375 14.109375 22.625 23.890625 
Q 32.328125 33.6875 34.8125 36.53125 
Q 39.546875 41.84375 41.421875 45.53125 
Q 43.3125 49.21875 43.3125 52.78125 
Q 43.3125 58.59375 39.234375 62.25 
Q 35.15625 65.921875 28.609375 65.921875 
Q 23.96875 65.921875 18.8125 64.3125 
Q 13.671875 62.703125 7.8125 59.421875 
L 7.8125 69.390625 
Q 13.765625 71.78125 18.9375 73 
Q 24.125 74.21875 28.421875 74.21875 
Q 39.75 74.21875 46.484375 68.546875 
Q 53.21875 62.890625 53.21875 53.421875 
Q 53.21875 48.921875 51.53125 44.890625 
Q 49.859375 40.875 45.40625 35.40625 
Q 44.1875 33.984375 37.640625 27.21875 
Q 31.109375 20.453125 19.1875 8.296875 
z
" id="DejaVuSans-50"/>
      </defs>
      <g transform="translate(178.152758 394.597656)scale(0.15 -0.15)">
       <use xlink:href="#DejaVuSans-50"/>
      </g>
     </g>
    </g>
    <g id="xtick_2">
     <g id="line2d_2">
      <g>
       <use style="stroke:#000000;stroke-width:0.8;" x="277.839282" xlink:href="#m38d2904496" y="376.2"/>
      </g>
     </g>
     <g id="text_2">
      <!-- 4 -->
      <defs>
       <path d="M 37.796875 64.3125 
L 12.890625 25.390625 
L 37.796875 25.390625 
z
M 35.203125 72.90625 
L 47.609375 72.90625 
L 47.609375 25.390625 
L 58.015625 25.390625 
L 58.015625 17.1875 
L 47.609375 17.1875 
L 47.609375 0 
L 37.796875 0 
L 37.796875 17.1875 
L 4.890625 17.1875 
L 4.890625 26.703125 
z
" id="DejaVuSans-52"/>
      </defs>
      <g transform="translate(273.067407 394.597656)scale(0.15 -0.15)">
       <use xlink:href="#DejaVuSans-52"/>
      </g>
     </g>
    </g>
    <g id="xtick_3">
     <g id="line2d_3">
      <g>
       <use style="stroke:#000000;stroke-width:0.8;" x="372.753932" xlink:href="#m38d2904496" y="376.2"/>
      </g>
     </g>
     <g id="text_3">
      <!-- 6 -->
      <defs>
       <path d="M 33.015625 40.375 
Q 26.375 40.375 22.484375 35.828125 
Q 18.609375 31.296875 18.609375 23.390625 
Q 18.609375 15.53125 22.484375 10.953125 
Q 26.375 6.390625 33.015625 6.390625 
Q 39.65625 6.390625 43.53125 10.953125 
Q 47.40625 15.53125 47.40625 23.390625 
Q 47.40625 31.296875 43.53125 35.828125 
Q 39.65625 40.375 33.015625 40.375 
z
M 52.59375 71.296875 
L 52.59375 62.3125 
Q 48.875 64.0625 45.09375 64.984375 
Q 41.3125 65.921875 37.59375 65.921875 
Q 27.828125 65.921875 22.671875 59.328125 
Q 17.53125 52.734375 16.796875 39.40625 
Q 19.671875 43.65625 24.015625 45.921875 
Q 28.375 48.1875 33.59375 48.1875 
Q 44.578125 48.1875 50.953125 41.515625 
Q 57.328125 34.859375 57.328125 23.390625 
Q 57.328125 12.15625 50.6875 5.359375 
Q 44.046875 -1.421875 33.015625 -1.421875 
Q 20.359375 -1.421875 13.671875 8.265625 
Q 6.984375 17.96875 6.984375 36.375 
Q 6.984375 53.65625 15.1875 63.9375 
Q 23.390625 74.21875 37.203125 74.21875 
Q 40.921875 74.21875 44.703125 73.484375 
Q 48.484375 72.75 52.59375 71.296875 
z
" id="DejaVuSans-54"/>
      </defs>
      <g transform="translate(367.982057 394.597656)scale(0.15 -0.15)">
       <use xlink:href="#DejaVuSans-54"/>
      </g>
     </g>
    </g>
    <g id="xtick_4">
     <g id="line2d_4">
      <g>
       <use style="stroke:#000000;stroke-width:0.8;" x="467.668582" xlink:href="#m38d2904496" y="376.2"/>
      </g>
     </g>
     <g id="text_4">
      <!-- 8 -->
      <defs>
       <path d="M 31.78125 34.625 
Q 24.75 34.625 20.71875 30.859375 
Q 16.703125 27.09375 16.703125 20.515625 
Q 16.703125 13.921875 20.71875 10.15625 
Q 24.75 6.390625 31.78125 6.390625 
Q 38.8125 6.390625 42.859375 10.171875 
Q 46.921875 13.96875 46.921875 20.515625 
Q 46.921875 27.09375 42.890625 30.859375 
Q 38.875 34.625 31.78125 34.625 
z
M 21.921875 38.8125 
Q 15.578125 40.375 12.03125 44.71875 
Q 8.5 49.078125 8.5 55.328125 
Q 8.5 64.0625 14.71875 69.140625 
Q 20.953125 74.21875 31.78125 74.21875 
Q 42.671875 74.21875 48.875 69.140625 
Q 55.078125 64.0625 55.078125 55.328125 
Q 55.078125 49.078125 51.53125 44.71875 
Q 48 40.375 41.703125 38.8125 
Q 48.828125 37.15625 52.796875 32.3125 
Q 56.78125 27.484375 56.78125 20.515625 
Q 56.78125 9.90625 50.3125 4.234375 
Q 43.84375 -1.421875 31.78125 -1.421875 
Q 19.734375 -1.421875 13.25 4.234375 
Q 6.78125 9.90625 6.78125 20.515625 
Q 6.78125 27.484375 10.78125 32.3125 
Q 14.796875 37.15625 21.921875 38.8125 
z
M 18.3125 54.390625 
Q 18.3125 48.734375 21.84375 45.5625 
Q 25.390625 42.390625 31.78125 42.390625 
Q 38.140625 42.390625 41.71875 45.5625 
Q 45.3125 48.734375 45.3125 54.390625 
Q 45.3125 60.0625 41.71875 63.234375 
Q 38.140625 66.40625 31.78125 66.40625 
Q 25.390625 66.40625 21.84375 63.234375 
Q 18.3125 60.0625 18.3125 54.390625 
z
" id="DejaVuSans-56"/>
      </defs>
      <g transform="translate(462.896707 394.597656)scale(0.15 -0.15)">
       <use xlink:href="#DejaVuSans-56"/>
      </g>
     </g>
    </g>
    <g id="xtick_5">
     <g id="line2d_5">
      <g>
       <use style="stroke:#000000;stroke-width:0.8;" x="562.583231" xlink:href="#m38d2904496" y="376.2"/>
      </g>
     </g>
     <g id="text_5">
      <!-- 10 -->
      <defs>
       <path d="M 12.40625 8.296875 
L 28.515625 8.296875 
L 28.515625 63.921875 
L 10.984375 60.40625 
L 10.984375 69.390625 
L 28.421875 72.90625 
L 38.28125 72.90625 
L 38.28125 8.296875 
L 54.390625 8.296875 
L 54.390625 0 
L 12.40625 0 
z
" id="DejaVuSans-49"/>
       <path d="M 31.78125 66.40625 
Q 24.171875 66.40625 20.328125 58.90625 
Q 16.5 51.421875 16.5 36.375 
Q 16.5 21.390625 20.328125 13.890625 
Q 24.171875 6.390625 31.78125 6.390625 
Q 39.453125 6.390625 43.28125 13.890625 
Q 47.125 21.390625 47.125 36.375 
Q 47.125 51.421875 43.28125 58.90625 
Q 39.453125 66.40625 31.78125 66.40625 
z
M 31.78125 74.21875 
Q 44.046875 74.21875 50.515625 64.515625 
Q 56.984375 54.828125 56.984375 36.375 
Q 56.984375 17.96875 50.515625 8.265625 
Q 44.046875 -1.421875 31.78125 -1.421875 
Q 19.53125 -1.421875 13.0625 8.265625 
Q 6.59375 17.96875 6.59375 36.375 
Q 6.59375 54.828125 13.0625 64.515625 
Q 19.53125 74.21875 31.78125 74.21875 
z
" id="DejaVuSans-48"/>
      </defs>
      <g transform="translate(553.039481 394.597656)scale(0.15 -0.15)">
       <use xlink:href="#DejaVuSans-49"/>
       <use x="63.623047" xlink:href="#DejaVuSans-48"/>
      </g>
     </g>
    </g>
    <g id="xtick_6">
     <g id="line2d_6">
      <g>
       <use style="stroke:#000000;stroke-width:0.8;" x="657.497881" xlink:href="#m38d2904496" y="376.2"/>
      </g>
     </g>
     <g id="text_6">
      <!-- 12 -->
      <g transform="translate(647.954131 394.597656)scale(0.15 -0.15)">
       <use xlink:href="#DejaVuSans-49"/>
       <use x="63.623047" xlink:href="#DejaVuSans-50"/>
      </g>
     </g>
    </g>
    <g id="text_7">
     <!-- Time [h] -->
     <defs>
      <path d="M -0.296875 72.90625 
L 61.375 72.90625 
L 61.375 64.59375 
L 35.5 64.59375 
L 35.5 0 
L 25.59375 0 
L 25.59375 64.59375 
L -0.296875 64.59375 
z
" id="DejaVuSans-84"/>
      <path d="M 9.421875 54.6875 
L 18.40625 54.6875 
L 18.40625 0 
L 9.421875 0 
z
M 9.421875 75.984375 
L 18.40625 75.984375 
L 18.40625 64.59375 
L 9.421875 64.59375 
z
" id="DejaVuSans-105"/>
      <path d="M 52 44.1875 
Q 55.375 50.25 60.0625 53.125 
Q 64.75 56 71.09375 56 
Q 79.640625 56 84.28125 50.015625 
Q 88.921875 44.046875 88.921875 33.015625 
L 88.921875 0 
L 79.890625 0 
L 79.890625 32.71875 
Q 79.890625 40.578125 77.09375 44.375 
Q 74.3125 48.1875 68.609375 48.1875 
Q 61.625 48.1875 57.5625 43.546875 
Q 53.515625 38.921875 53.515625 30.90625 
L 53.515625 0 
L 44.484375 0 
L 44.484375 32.71875 
Q 44.484375 40.625 41.703125 44.40625 
Q 38.921875 48.1875 33.109375 48.1875 
Q 26.21875 48.1875 22.15625 43.53125 
Q 18.109375 38.875 18.109375 30.90625 
L 18.109375 0 
L 9.078125 0 
L 9.078125 54.6875 
L 18.109375 54.6875 
L 18.109375 46.1875 
Q 21.1875 51.21875 25.484375 53.609375 
Q 29.78125 56 35.6875 56 
Q 41.65625 56 45.828125 52.96875 
Q 50 49.953125 52 44.1875 
z
" id="DejaVuSans-109"/>
      <path d="M 56.203125 29.59375 
L 56.203125 25.203125 
L 14.890625 25.203125 
Q 15.484375 15.921875 20.484375 11.0625 
Q 25.484375 6.203125 34.421875 6.203125 
Q 39.59375 6.203125 44.453125 7.46875 
Q 49.3125 8.734375 54.109375 11.28125 
L 54.109375 2.78125 
Q 49.265625 0.734375 44.1875 -0.34375 
Q 39.109375 -1.421875 33.890625 -1.421875 
Q 20.796875 -1.421875 13.15625 6.1875 
Q 5.515625 13.8125 5.515625 26.8125 
Q 5.515625 40.234375 12.765625 48.109375 
Q 20.015625 56 32.328125 56 
Q 43.359375 56 49.78125 48.890625 
Q 56.203125 41.796875 56.203125 29.59375 
z
M 47.21875 32.234375 
Q 47.125 39.59375 43.09375 43.984375 
Q 39.0625 48.390625 32.421875 48.390625 
Q 24.90625 48.390625 20.390625 44.140625 
Q 15.875 39.890625 15.1875 32.171875 
z
" id="DejaVuSans-101"/>
      <path id="DejaVuSans-32"/>
      <path d="M 8.59375 75.984375 
L 29.296875 75.984375 
L 29.296875 69 
L 17.578125 69 
L 17.578125 -6.203125 
L 29.296875 -6.203125 
L 29.296875 -13.1875 
L 8.59375 -13.1875 
z
" id="DejaVuSans-91"/>
      <path d="M 54.890625 33.015625 
L 54.890625 0 
L 45.90625 0 
L 45.90625 32.71875 
Q 45.90625 40.484375 42.875 44.328125 
Q 39.84375 48.1875 33.796875 48.1875 
Q 26.515625 48.1875 22.3125 43.546875 
Q 18.109375 38.921875 18.109375 30.90625 
L 18.109375 0 
L 9.078125 0 
L 9.078125 75.984375 
L 18.109375 75.984375 
L 18.109375 46.1875 
Q 21.34375 51.125 25.703125 53.5625 
Q 30.078125 56 35.796875 56 
Q 45.21875 56 50.046875 50.171875 
Q 54.890625 44.34375 54.890625 33.015625 
z
" id="DejaVuSans-104"/>
      <path d="M 30.421875 75.984375 
L 30.421875 -13.1875 
L 9.71875 -13.1875 
L 9.71875 -6.203125 
L 21.390625 -6.203125 
L 21.390625 69 
L 9.71875 69 
L 9.71875 75.984375 
z
" id="DejaVuSans-93"/>
     </defs>
     <g transform="translate(356.964063 416.914062)scale(0.2 -0.2)">
      <use xlink:href="#DejaVuSans-84"/>
      <use x="57.958984" xlink:href="#DejaVuSans-105"/>
      <use x="85.742188" xlink:href="#DejaVuSans-109"/>
      <use x="183.154297" xlink:href="#DejaVuSans-101"/>
      <use x="244.677734" xlink:href="#DejaVuSans-32"/>
      <use x="276.464844" xlink:href="#DejaVuSans-91"/>
      <use x="315.478516" xlink:href="#DejaVuSans-104"/>
      <use x="378.857422" xlink:href="#DejaVuSans-93"/>
     </g>
    </g>
   </g>
   <g id="matplotlib.axis_2">
    <g id="ytick_1">
     <g id="line2d_7">
      <defs>
       <path d="M 0 0 
L -3.5 0 
" id="mdfb318e126" style="stroke:#000000;stroke-width:0.8;"/>
      </defs>
      <g>
       <use style="stroke:#000000;stroke-width:0.8;" x="88.3" xlink:href="#mdfb318e126" y="376.2"/>
      </g>
     </g>
     <g id="text_8">
      <!-- 0 -->
      <g transform="translate(71.75625 381.898828)scale(0.15 -0.15)">
       <use xlink:href="#DejaVuSans-48"/>
      </g>
     </g>
    </g>
    <g id="ytick_2">
     <g id="line2d_8">
      <g>
       <use style="stroke:#000000;stroke-width:0.8;" x="88.3" xlink:href="#mdfb318e126" y="312.136434"/>
      </g>
     </g>
     <g id="text_9">
      <!-- 2000 -->
      <g transform="translate(43.125 317.835262)scale(0.15 -0.15)">
       <use xlink:href="#DejaVuSans-50"/>
       <use x="63.623047" xlink:href="#DejaVuSans-48"/>
       <use x="127.246094" xlink:href="#DejaVuSans-48"/>
       <use x="190.869141" xlink:href="#DejaVuSans-48"/>
      </g>
     </g>
    </g>
    <g id="ytick_3">
     <g id="line2d_9">
      <g>
       <use style="stroke:#000000;stroke-width:0.8;" x="88.3" xlink:href="#mdfb318e126" y="248.072867"/>
      </g>
     </g>
     <g id="text_10">
      <!-- 4000 -->
      <g transform="translate(43.125 253.771695)scale(0.15 -0.15)">
       <use xlink:href="#DejaVuSans-52"/>
       <use x="63.623047" xlink:href="#DejaVuSans-48"/>
       <use x="127.246094" xlink:href="#DejaVuSans-48"/>
       <use x="190.869141" xlink:href="#DejaVuSans-48"/>
      </g>
     </g>
    </g>
    <g id="ytick_4">
     <g id="line2d_10">
      <g>
       <use style="stroke:#000000;stroke-width:0.8;" x="88.3" xlink:href="#mdfb318e126" y="184.009301"/>
      </g>
     </g>
     <g id="text_11">
      <!-- 6000 -->
      <g transform="translate(43.125 189.708129)scale(0.15 -0.15)">
       <use xlink:href="#DejaVuSans-54"/>
       <use x="63.623047" xlink:href="#DejaVuSans-48"/>
       <use x="127.246094" xlink:href="#DejaVuSans-48"/>
       <use x="190.869141" xlink:href="#DejaVuSans-48"/>
      </g>
     </g>
    </g>
    <g id="ytick_5">
     <g id="line2d_11">
      <g>
       <use style="stroke:#000000;stroke-width:0.8;" x="88.3" xlink:href="#mdfb318e126" y="119.945734"/>
      </g>
     </g>
     <g id="text_12">
      <!-- 8000 -->
      <g transform="translate(43.125 125.644563)scale(0.15 -0.15)">
       <use xlink:href="#DejaVuSans-56"/>
       <use x="63.623047" xlink:href="#DejaVuSans-48"/>
       <use x="127.246094" xlink:href="#DejaVuSans-48"/>
       <use x="190.869141" xlink:href="#DejaVuSans-48"/>
      </g>
     </g>
    </g>
    <g id="ytick_6">
     <g id="line2d_12">
      <g>
       <use style="stroke:#000000;stroke-width:0.8;" x="88.3" xlink:href="#mdfb318e126" y="55.882168"/>
      </g>
     </g>
     <g id="text_13">
      <!-- 10000 -->
      <g transform="translate(33.58125 61.580996)scale(0.15 -0.15)">
       <use xlink:href="#DejaVuSans-49"/>
       <use x="63.623047" xlink:href="#DejaVuSans-48"/>
       <use x="127.246094" xlink:href="#DejaVuSans-48"/>
       <use x="190.869141" xlink:href="#DejaVuSans-48"/>
       <use x="254.492188" xlink:href="#DejaVuSans-48"/>
      </g>
     </g>
    </g>
    <g id="text_14">
     <!-- Fluorescence (arb. units) -->
     <defs>
      <path d="M 9.8125 72.90625 
L 51.703125 72.90625 
L 51.703125 64.59375 
L 19.671875 64.59375 
L 19.671875 43.109375 
L 48.578125 43.109375 
L 48.578125 34.8125 
L 19.671875 34.8125 
L 19.671875 0 
L 9.8125 0 
z
" id="DejaVuSans-70"/>
      <path d="M 9.421875 75.984375 
L 18.40625 75.984375 
L 18.40625 0 
L 9.421875 0 
z
" id="DejaVuSans-108"/>
      <path d="M 8.5 21.578125 
L 8.5 54.6875 
L 17.484375 54.6875 
L 17.484375 21.921875 
Q 17.484375 14.15625 20.5 10.265625 
Q 23.53125 6.390625 29.59375 6.390625 
Q 36.859375 6.390625 41.078125 11.03125 
Q 45.3125 15.671875 45.3125 23.6875 
L 45.3125 54.6875 
L 54.296875 54.6875 
L 54.296875 0 
L 45.3125 0 
L 45.3125 8.40625 
Q 42.046875 3.421875 37.71875 1 
Q 33.40625 -1.421875 27.6875 -1.421875 
Q 18.265625 -1.421875 13.375 4.4375 
Q 8.5 10.296875 8.5 21.578125 
z
M 31.109375 56 
z
" id="DejaVuSans-117"/>
      <path d="M 30.609375 48.390625 
Q 23.390625 48.390625 19.1875 42.75 
Q 14.984375 37.109375 14.984375 27.296875 
Q 14.984375 17.484375 19.15625 11.84375 
Q 23.34375 6.203125 30.609375 6.203125 
Q 37.796875 6.203125 41.984375 11.859375 
Q 46.1875 17.53125 46.1875 27.296875 
Q 46.1875 37.015625 41.984375 42.703125 
Q 37.796875 48.390625 30.609375 48.390625 
z
M 30.609375 56 
Q 42.328125 56 49.015625 48.375 
Q 55.71875 40.765625 55.71875 27.296875 
Q 55.71875 13.875 49.015625 6.21875 
Q 42.328125 -1.421875 30.609375 -1.421875 
Q 18.84375 -1.421875 12.171875 6.21875 
Q 5.515625 13.875 5.515625 27.296875 
Q 5.515625 40.765625 12.171875 48.375 
Q 18.84375 56 30.609375 56 
z
" id="DejaVuSans-111"/>
      <path d="M 41.109375 46.296875 
Q 39.59375 47.171875 37.8125 47.578125 
Q 36.03125 48 33.890625 48 
Q 26.265625 48 22.1875 43.046875 
Q 18.109375 38.09375 18.109375 28.8125 
L 18.109375 0 
L 9.078125 0 
L 9.078125 54.6875 
L 18.109375 54.6875 
L 18.109375 46.1875 
Q 20.953125 51.171875 25.484375 53.578125 
Q 30.03125 56 36.53125 56 
Q 37.453125 56 38.578125 55.875 
Q 39.703125 55.765625 41.0625 55.515625 
z
" id="DejaVuSans-114"/>
      <path d="M 44.28125 53.078125 
L 44.28125 44.578125 
Q 40.484375 46.53125 36.375 47.5 
Q 32.28125 48.484375 27.875 48.484375 
Q 21.1875 48.484375 17.84375 46.4375 
Q 14.5 44.390625 14.5 40.28125 
Q 14.5 37.15625 16.890625 35.375 
Q 19.28125 33.59375 26.515625 31.984375 
L 29.59375 31.296875 
Q 39.15625 29.25 43.1875 25.515625 
Q 47.21875 21.78125 47.21875 15.09375 
Q 47.21875 7.46875 41.1875 3.015625 
Q 35.15625 -1.421875 24.609375 -1.421875 
Q 20.21875 -1.421875 15.453125 -0.5625 
Q 10.6875 0.296875 5.421875 2 
L 5.421875 11.28125 
Q 10.40625 8.6875 15.234375 7.390625 
Q 20.0625 6.109375 24.8125 6.109375 
Q 31.15625 6.109375 34.5625 8.28125 
Q 37.984375 10.453125 37.984375 14.40625 
Q 37.984375 18.0625 35.515625 20.015625 
Q 33.0625 21.96875 24.703125 23.78125 
L 21.578125 24.515625 
Q 13.234375 26.265625 9.515625 29.90625 
Q 5.8125 33.546875 5.8125 39.890625 
Q 5.8125 47.609375 11.28125 51.796875 
Q 16.75 56 26.8125 56 
Q 31.78125 56 36.171875 55.265625 
Q 40.578125 54.546875 44.28125 53.078125 
z
" id="DejaVuSans-115"/>
      <path d="M 48.78125 52.59375 
L 48.78125 44.1875 
Q 44.96875 46.296875 41.140625 47.34375 
Q 37.3125 48.390625 33.40625 48.390625 
Q 24.65625 48.390625 19.8125 42.84375 
Q 14.984375 37.3125 14.984375 27.296875 
Q 14.984375 17.28125 19.8125 11.734375 
Q 24.65625 6.203125 33.40625 6.203125 
Q 37.3125 6.203125 41.140625 7.25 
Q 44.96875 8.296875 48.78125 10.40625 
L 48.78125 2.09375 
Q 45.015625 0.34375 40.984375 -0.53125 
Q 36.96875 -1.421875 32.421875 -1.421875 
Q 20.0625 -1.421875 12.78125 6.34375 
Q 5.515625 14.109375 5.515625 27.296875 
Q 5.515625 40.671875 12.859375 48.328125 
Q 20.21875 56 33.015625 56 
Q 37.15625 56 41.109375 55.140625 
Q 45.0625 54.296875 48.78125 52.59375 
z
" id="DejaVuSans-99"/>
      <path d="M 54.890625 33.015625 
L 54.890625 0 
L 45.90625 0 
L 45.90625 32.71875 
Q 45.90625 40.484375 42.875 44.328125 
Q 39.84375 48.1875 33.796875 48.1875 
Q 26.515625 48.1875 22.3125 43.546875 
Q 18.109375 38.921875 18.109375 30.90625 
L 18.109375 0 
L 9.078125 0 
L 9.078125 54.6875 
L 18.109375 54.6875 
L 18.109375 46.1875 
Q 21.34375 51.125 25.703125 53.5625 
Q 30.078125 56 35.796875 56 
Q 45.21875 56 50.046875 50.171875 
Q 54.890625 44.34375 54.890625 33.015625 
z
" id="DejaVuSans-110"/>
      <path d="M 31 75.875 
Q 24.46875 64.65625 21.28125 53.65625 
Q 18.109375 42.671875 18.109375 31.390625 
Q 18.109375 20.125 21.3125 9.0625 
Q 24.515625 -2 31 -13.1875 
L 23.1875 -13.1875 
Q 15.875 -1.703125 12.234375 9.375 
Q 8.59375 20.453125 8.59375 31.390625 
Q 8.59375 42.28125 12.203125 53.3125 
Q 15.828125 64.359375 23.1875 75.875 
z
" id="DejaVuSans-40"/>
      <path d="M 34.28125 27.484375 
Q 23.390625 27.484375 19.1875 25 
Q 14.984375 22.515625 14.984375 16.5 
Q 14.984375 11.71875 18.140625 8.90625 
Q 21.296875 6.109375 26.703125 6.109375 
Q 34.1875 6.109375 38.703125 11.40625 
Q 43.21875 16.703125 43.21875 25.484375 
L 43.21875 27.484375 
z
M 52.203125 31.203125 
L 52.203125 0 
L 43.21875 0 
L 43.21875 8.296875 
Q 40.140625 3.328125 35.546875 0.953125 
Q 30.953125 -1.421875 24.3125 -1.421875 
Q 15.921875 -1.421875 10.953125 3.296875 
Q 6 8.015625 6 15.921875 
Q 6 25.140625 12.171875 29.828125 
Q 18.359375 34.515625 30.609375 34.515625 
L 43.21875 34.515625 
L 43.21875 35.40625 
Q 43.21875 41.609375 39.140625 45 
Q 35.0625 48.390625 27.6875 48.390625 
Q 23 48.390625 18.546875 47.265625 
Q 14.109375 46.140625 10.015625 43.890625 
L 10.015625 52.203125 
Q 14.9375 54.109375 19.578125 55.046875 
Q 24.21875 56 28.609375 56 
Q 40.484375 56 46.34375 49.84375 
Q 52.203125 43.703125 52.203125 31.203125 
z
" id="DejaVuSans-97"/>
      <path d="M 48.6875 27.296875 
Q 48.6875 37.203125 44.609375 42.84375 
Q 40.53125 48.484375 33.40625 48.484375 
Q 26.265625 48.484375 22.1875 42.84375 
Q 18.109375 37.203125 18.109375 27.296875 
Q 18.109375 17.390625 22.1875 11.75 
Q 26.265625 6.109375 33.40625 6.109375 
Q 40.53125 6.109375 44.609375 11.75 
Q 48.6875 17.390625 48.6875 27.296875 
z
M 18.109375 46.390625 
Q 20.953125 51.265625 25.265625 53.625 
Q 29.59375 56 35.59375 56 
Q 45.5625 56 51.78125 48.09375 
Q 58.015625 40.1875 58.015625 27.296875 
Q 58.015625 14.40625 51.78125 6.484375 
Q 45.5625 -1.421875 35.59375 -1.421875 
Q 29.59375 -1.421875 25.265625 0.953125 
Q 20.953125 3.328125 18.109375 8.203125 
L 18.109375 0 
L 9.078125 0 
L 9.078125 75.984375 
L 18.109375 75.984375 
z
" id="DejaVuSans-98"/>
      <path d="M 10.6875 12.40625 
L 21 12.40625 
L 21 0 
L 10.6875 0 
z
" id="DejaVuSans-46"/>
      <path d="M 18.3125 70.21875 
L 18.3125 54.6875 
L 36.8125 54.6875 
L 36.8125 47.703125 
L 18.3125 47.703125 
L 18.3125 18.015625 
Q 18.3125 11.328125 20.140625 9.421875 
Q 21.96875 7.515625 27.59375 7.515625 
L 36.8125 7.515625 
L 36.8125 0 
L 27.59375 0 
Q 17.1875 0 13.234375 3.875 
Q 9.28125 7.765625 9.28125 18.015625 
L 9.28125 47.703125 
L 2.6875 47.703125 
L 2.6875 54.6875 
L 9.28125 54.6875 
L 9.28125 70.21875 
z
" id="DejaVuSans-116"/>
      <path d="M 8.015625 75.875 
L 15.828125 75.875 
Q 23.140625 64.359375 26.78125 53.3125 
Q 30.421875 42.28125 30.421875 31.390625 
Q 30.421875 20.453125 26.78125 9.375 
Q 23.140625 -1.703125 15.828125 -13.1875 
L 8.015625 -13.1875 
Q 14.5 -2 17.703125 9.0625 
Q 20.90625 20.125 20.90625 31.390625 
Q 20.90625 42.671875 17.703125 53.65625 
Q 14.5 64.65625 8.015625 75.875 
z
" id="DejaVuSans-41"/>
     </defs>
     <g transform="translate(25.421875 317.882812)rotate(-90)scale(0.2 -0.2)">
      <use xlink:href="#DejaVuSans-70"/>
      <use x="57.519531" xlink:href="#DejaVuSans-108"/>
      <use x="85.302734" xlink:href="#DejaVuSans-117"/>
      <use x="148.681641" xlink:href="#DejaVuSans-111"/>
      <use x="209.863281" xlink:href="#DejaVuSans-114"/>
      <use x="248.726562" xlink:href="#DejaVuSans-101"/>
      <use x="310.25" xlink:href="#DejaVuSans-115"/>
      <use x="362.349609" xlink:href="#DejaVuSans-99"/>
      <use x="417.330078" xlink:href="#DejaVuSans-101"/>
      <use x="478.853516" xlink:href="#DejaVuSans-110"/>
      <use x="542.232422" xlink:href="#DejaVuSans-99"/>
      <use x="597.212891" xlink:href="#DejaVuSans-101"/>
      <use x="658.736328" xlink:href="#DejaVuSans-32"/>
      <use x="690.523438" xlink:href="#DejaVuSans-40"/>
      <use x="729.537109" xlink:href="#DejaVuSans-97"/>
      <use x="790.816406" xlink:href="#DejaVuSans-114"/>
      <use x="831.929688" xlink:href="#DejaVuSans-98"/>
      <use x="895.40625" xlink:href="#DejaVuSans-46"/>
      <use x="927.193359" xlink:href="#DejaVuSans-32"/>
      <use x="958.980469" xlink:href="#DejaVuSans-117"/>
      <use x="1022.359375" xlink:href="#DejaVuSans-110"/>
      <use x="1085.738281" xlink:href="#DejaVuSans-105"/>
      <use x="1113.521484" xlink:href="#DejaVuSans-116"/>
      <use x="1152.730469" xlink:href="#DejaVuSans-115"/>
      <use x="1204.830078" xlink:href="#DejaVuSans-41"/>
     </g>
    </g>
   </g>
   <g id="line2d_13">
    <defs>
     <path d="M -2 2 
L 2 -2 
M -2 -2 
L 2 2 
" id="m00c3cbc7df" style="stroke:#ff0000;"/>
    </defs>
    <g clip-path="url(#p4e3c2add2a)">
     <use style="fill:#ff0000;stroke:#ff0000;" x="88.3" xlink:href="#m00c3cbc7df" y="376.167968"/>
     <use style="fill:#ff0000;stroke:#ff0000;" x="92.254777" xlink:href="#m00c3cbc7df" y="376.167968"/>
     <use style="fill:#ff0000;stroke:#ff0000;" x="96.209554" xlink:href="#m00c3cbc7df" y="376.167968"/>
     <use style="fill:#ff0000;stroke:#ff0000;" x="100.164331" xlink:href="#m00c3cbc7df" y="376.167968"/>
     <use style="fill:#ff0000;stroke:#ff0000;" x="104.119108" xlink:href="#m00c3cbc7df" y="376.175976"/>
     <use style="fill:#ff0000;stroke:#ff0000;" x="108.073885" xlink:href="#m00c3cbc7df" y="376.175976"/>
     <use style="fill:#ff0000;stroke:#ff0000;" x="112.028662" xlink:href="#m00c3cbc7df" y="376.167968"/>
     <use style="fill:#ff0000;stroke:#ff0000;" x="115.983439" xlink:href="#m00c3cbc7df" y="376.15996"/>
     <use style="fill:#ff0000;stroke:#ff0000;" x="119.938217" xlink:href="#m00c3cbc7df" y="376.175976"/>
     <use style="fill:#ff0000;stroke:#ff0000;" x="123.892994" xlink:href="#m00c3cbc7df" y="376.167968"/>
     <use style="fill:#ff0000;stroke:#ff0000;" x="127.847771" xlink:href="#m00c3cbc7df" y="376.15996"/>
     <use style="fill:#ff0000;stroke:#ff0000;" x="131.802548" xlink:href="#m00c3cbc7df" y="376.143944"/>
     <use style="fill:#ff0000;stroke:#ff0000;" x="135.757325" xlink:href="#m00c3cbc7df" y="376.127928"/>
     <use style="fill:#ff0000;stroke:#ff0000;" x="139.712102" xlink:href="#m00c3cbc7df" y="376.103905"/>
     <use style="fill:#ff0000;stroke:#ff0000;" x="143.666879" xlink:href="#m00c3cbc7df" y="376.079881"/>
     <use style="fill:#ff0000;stroke:#ff0000;" x="147.621656" xlink:href="#m00c3cbc7df" y="376.039841"/>
     <use style="fill:#ff0000;stroke:#ff0000;" x="151.576433" xlink:href="#m00c3cbc7df" y="375.935738"/>
     <use style="fill:#ff0000;stroke:#ff0000;" x="155.53121" xlink:href="#m00c3cbc7df" y="375.815619"/>
     <use style="fill:#ff0000;stroke:#ff0000;" x="159.485987" xlink:href="#m00c3cbc7df" y="375.663468"/>
     <use style="fill:#ff0000;stroke:#ff0000;" x="163.440764" xlink:href="#m00c3cbc7df" y="375.463269"/>
     <use style="fill:#ff0000;stroke:#ff0000;" x="167.395541" xlink:href="#m00c3cbc7df" y="375.207015"/>
     <use style="fill:#ff0000;stroke:#ff0000;" x="171.350318" xlink:href="#m00c3cbc7df" y="374.886697"/>
     <use style="fill:#ff0000;stroke:#ff0000;" x="175.305096" xlink:href="#m00c3cbc7df" y="374.4863"/>
     <use style="fill:#ff0000;stroke:#ff0000;" x="179.259873" xlink:href="#m00c3cbc7df" y="374.005823"/>
     <use style="fill:#ff0000;stroke:#ff0000;" x="183.21465" xlink:href="#m00c3cbc7df" y="373.413235"/>
     <use style="fill:#ff0000;stroke:#ff0000;" x="187.169427" xlink:href="#m00c3cbc7df" y="372.740567"/>
     <use style="fill:#ff0000;stroke:#ff0000;" x="191.124204" xlink:href="#m00c3cbc7df" y="371.939773"/>
     <use style="fill:#ff0000;stroke:#ff0000;" x="195.078981" xlink:href="#m00c3cbc7df" y="371.018859"/>
     <use style="fill:#ff0000;stroke:#ff0000;" x="199.033758" xlink:href="#m00c3cbc7df" y="369.92177"/>
     <use style="fill:#ff0000;stroke:#ff0000;" x="202.988535" xlink:href="#m00c3cbc7df" y="368.720579"/>
     <use style="fill:#ff0000;stroke:#ff0000;" x="206.943312" xlink:href="#m00c3cbc7df" y="367.35122"/>
     <use style="fill:#ff0000;stroke:#ff0000;" x="210.898089" xlink:href="#m00c3cbc7df" y="365.837718"/>
     <use style="fill:#ff0000;stroke:#ff0000;" x="214.852866" xlink:href="#m00c3cbc7df" y="364.164057"/>
     <use style="fill:#ff0000;stroke:#ff0000;" x="218.807643" xlink:href="#m00c3cbc7df" y="362.338246"/>
     <use style="fill:#ff0000;stroke:#ff0000;" x="222.76242" xlink:href="#m00c3cbc7df" y="360.208132"/>
     <use style="fill:#ff0000;stroke:#ff0000;" x="226.717197" xlink:href="#m00c3cbc7df" y="358.045987"/>
     <use style="fill:#ff0000;stroke:#ff0000;" x="230.671975" xlink:href="#m00c3cbc7df" y="355.587548"/>
     <use style="fill:#ff0000;stroke:#ff0000;" x="234.626752" xlink:href="#m00c3cbc7df" y="353.065045"/>
     <use style="fill:#ff0000;stroke:#ff0000;" x="238.581529" xlink:href="#m00c3cbc7df" y="350.230232"/>
     <use style="fill:#ff0000;stroke:#ff0000;" x="242.536306" xlink:href="#m00c3cbc7df" y="347.355379"/>
     <use style="fill:#ff0000;stroke:#ff0000;" x="246.491083" xlink:href="#m00c3cbc7df" y="344.27232"/>
     <use style="fill:#ff0000;stroke:#ff0000;" x="250.44586" xlink:href="#m00c3cbc7df" y="341.03711"/>
     <use style="fill:#ff0000;stroke:#ff0000;" x="254.400637" xlink:href="#m00c3cbc7df" y="337.617717"/>
     <use style="fill:#ff0000;stroke:#ff0000;" x="258.355414" xlink:href="#m00c3cbc7df" y="334.118245"/>
     <use style="fill:#ff0000;stroke:#ff0000;" x="262.310191" xlink:href="#m00c3cbc7df" y="330.43459"/>
     <use style="fill:#ff0000;stroke:#ff0000;" x="266.264968" xlink:href="#m00c3cbc7df" y="326.6148"/>
     <use style="fill:#ff0000;stroke:#ff0000;" x="270.219745" xlink:href="#m00c3cbc7df" y="322.827041"/>
     <use style="fill:#ff0000;stroke:#ff0000;" x="274.174522" xlink:href="#m00c3cbc7df" y="318.775021"/>
     <use style="fill:#ff0000;stroke:#ff0000;" x="278.129299" xlink:href="#m00c3cbc7df" y="314.618897"/>
     <use style="fill:#ff0000;stroke:#ff0000;" x="282.084076" xlink:href="#m00c3cbc7df" y="310.711019"/>
     <use style="fill:#ff0000;stroke:#ff0000;" x="286.038854" xlink:href="#m00c3cbc7df" y="306.4588"/>
     <use style="fill:#ff0000;stroke:#ff0000;" x="289.993631" xlink:href="#m00c3cbc7df" y="302.09447"/>
     <use style="fill:#ff0000;stroke:#ff0000;" x="293.948408" xlink:href="#m00c3cbc7df" y="297.754163"/>
     <use style="fill:#ff0000;stroke:#ff0000;" x="297.903185" xlink:href="#m00c3cbc7df" y="293.47792"/>
     <use style="fill:#ff0000;stroke:#ff0000;" x="301.857962" xlink:href="#m00c3cbc7df" y="288.969446"/>
     <use style="fill:#ff0000;stroke:#ff0000;" x="305.812739" xlink:href="#m00c3cbc7df" y="284.797307"/>
     <use style="fill:#ff0000;stroke:#ff0000;" x="309.767516" xlink:href="#m00c3cbc7df" y="280.232778"/>
     <use style="fill:#ff0000;stroke:#ff0000;" x="313.722293" xlink:href="#m00c3cbc7df" y="275.860439"/>
     <use style="fill:#ff0000;stroke:#ff0000;" x="317.67707" xlink:href="#m00c3cbc7df" y="271.303918"/>
     <use style="fill:#ff0000;stroke:#ff0000;" x="321.631847" xlink:href="#m00c3cbc7df" y="266.859508"/>
     <use style="fill:#ff0000;stroke:#ff0000;" x="325.586624" xlink:href="#m00c3cbc7df" y="262.343027"/>
     <use style="fill:#ff0000;stroke:#ff0000;" x="329.541401" xlink:href="#m00c3cbc7df" y="258.242958"/>
     <use style="fill:#ff0000;stroke:#ff0000;" x="333.496178" xlink:href="#m00c3cbc7df" y="253.718469"/>
     <use style="fill:#ff0000;stroke:#ff0000;" x="337.450955" xlink:href="#m00c3cbc7df" y="249.450234"/>
     <use style="fill:#ff0000;stroke:#ff0000;" x="341.405732" xlink:href="#m00c3cbc7df" y="245.173991"/>
     <use style="fill:#ff0000;stroke:#ff0000;" x="345.36051" xlink:href="#m00c3cbc7df" y="241.041891"/>
     <use style="fill:#ff0000;stroke:#ff0000;" x="349.315287" xlink:href="#m00c3cbc7df" y="237.037918"/>
     <use style="fill:#ff0000;stroke:#ff0000;" x="353.270064" xlink:href="#m00c3cbc7df" y="233.057969"/>
     <use style="fill:#ff0000;stroke:#ff0000;" x="357.224841" xlink:href="#m00c3cbc7df" y="228.957901"/>
     <use style="fill:#ff0000;stroke:#ff0000;" x="361.179618" xlink:href="#m00c3cbc7df" y="225.282253"/>
     <use style="fill:#ff0000;stroke:#ff0000;" x="365.134395" xlink:href="#m00c3cbc7df" y="221.206209"/>
     <use style="fill:#ff0000;stroke:#ff0000;" x="369.089172" xlink:href="#m00c3cbc7df" y="217.410443"/>
     <use style="fill:#ff0000;stroke:#ff0000;" x="373.043949" xlink:href="#m00c3cbc7df" y="213.798859"/>
     <use style="fill:#ff0000;stroke:#ff0000;" x="376.998726" xlink:href="#m00c3cbc7df" y="210.123212"/>
     <use style="fill:#ff0000;stroke:#ff0000;" x="380.953503" xlink:href="#m00c3cbc7df" y="206.599716"/>
     <use style="fill:#ff0000;stroke:#ff0000;" x="384.90828" xlink:href="#m00c3cbc7df" y="203.316458"/>
     <use style="fill:#ff0000;stroke:#ff0000;" x="388.863057" xlink:href="#m00c3cbc7df" y="199.656827"/>
     <use style="fill:#ff0000;stroke:#ff0000;" x="392.817834" xlink:href="#m00c3cbc7df" y="196.357553"/>
     <use style="fill:#ff0000;stroke:#ff0000;" x="396.772611" xlink:href="#m00c3cbc7df" y="193.082303"/>
     <use style="fill:#ff0000;stroke:#ff0000;" x="400.727389" xlink:href="#m00c3cbc7df" y="189.927173"/>
     <use style="fill:#ff0000;stroke:#ff0000;" x="404.682166" xlink:href="#m00c3cbc7df" y="186.619891"/>
     <use style="fill:#ff0000;stroke:#ff0000;" x="408.636943" xlink:href="#m00c3cbc7df" y="183.456753"/>
     <use style="fill:#ff0000;stroke:#ff0000;" x="412.59172" xlink:href="#m00c3cbc7df" y="180.653972"/>
     <use style="fill:#ff0000;stroke:#ff0000;" x="416.546497" xlink:href="#m00c3cbc7df" y="177.827167"/>
     <use style="fill:#ff0000;stroke:#ff0000;" x="420.501274" xlink:href="#m00c3cbc7df" y="174.880243"/>
     <use style="fill:#ff0000;stroke:#ff0000;" x="424.456051" xlink:href="#m00c3cbc7df" y="172.141525"/>
     <use style="fill:#ff0000;stroke:#ff0000;" x="428.410828" xlink:href="#m00c3cbc7df" y="169.779181"/>
     <use style="fill:#ff0000;stroke:#ff0000;" x="432.365605" xlink:href="#m00c3cbc7df" y="166.70413"/>
     <use style="fill:#ff0000;stroke:#ff0000;" x="436.320382" xlink:href="#m00c3cbc7df" y="164.069516"/>
     <use style="fill:#ff0000;stroke:#ff0000;" x="440.275159" xlink:href="#m00c3cbc7df" y="161.971434"/>
     <use style="fill:#ff0000;stroke:#ff0000;" x="444.229936" xlink:href="#m00c3cbc7df" y="159.328812"/>
     <use style="fill:#ff0000;stroke:#ff0000;" x="448.184713" xlink:href="#m00c3cbc7df" y="156.830333"/>
     <use style="fill:#ff0000;stroke:#ff0000;" x="452.13949" xlink:href="#m00c3cbc7df" y="154.916434"/>
     <use style="fill:#ff0000;stroke:#ff0000;" x="456.094268" xlink:href="#m00c3cbc7df" y="152.682217"/>
     <use style="fill:#ff0000;stroke:#ff0000;" x="460.049045" xlink:href="#m00c3cbc7df" y="150.472024"/>
     <use style="fill:#ff0000;stroke:#ff0000;" x="464.003822" xlink:href="#m00c3cbc7df" y="148.38195"/>
     <use style="fill:#ff0000;stroke:#ff0000;" x="467.958599" xlink:href="#m00c3cbc7df" y="146.411995"/>
     <use style="fill:#ff0000;stroke:#ff0000;" x="471.913376" xlink:href="#m00c3cbc7df" y="144.377977"/>
     <use style="fill:#ff0000;stroke:#ff0000;" x="475.868153" xlink:href="#m00c3cbc7df" y="142.167784"/>
     <use style="fill:#ff0000;stroke:#ff0000;" x="479.82293" xlink:href="#m00c3cbc7df" y="140.221853"/>
     <use style="fill:#ff0000;stroke:#ff0000;" x="483.777707" xlink:href="#m00c3cbc7df" y="138.668312"/>
     <use style="fill:#ff0000;stroke:#ff0000;" x="487.732484" xlink:href="#m00c3cbc7df" y="136.826484"/>
     <use style="fill:#ff0000;stroke:#ff0000;" x="491.687261" xlink:href="#m00c3cbc7df" y="135.168839"/>
     <use style="fill:#ff0000;stroke:#ff0000;" x="495.642038" xlink:href="#m00c3cbc7df" y="133.415099"/>
     <use style="fill:#ff0000;stroke:#ff0000;" x="499.596815" xlink:href="#m00c3cbc7df" y="132.077772"/>
     <use style="fill:#ff0000;stroke:#ff0000;" x="503.551592" xlink:href="#m00c3cbc7df" y="129.995706"/>
     <use style="fill:#ff0000;stroke:#ff0000;" x="507.506369" xlink:href="#m00c3cbc7df" y="128.714435"/>
     <use style="fill:#ff0000;stroke:#ff0000;" x="511.461146" xlink:href="#m00c3cbc7df" y="127.465196"/>
     <use style="fill:#ff0000;stroke:#ff0000;" x="515.415924" xlink:href="#m00c3cbc7df" y="126.095837"/>
     <use style="fill:#ff0000;stroke:#ff0000;" x="519.370701" xlink:href="#m00c3cbc7df" y="125.102852"/>
     <use style="fill:#ff0000;stroke:#ff0000;" x="523.325478" xlink:href="#m00c3cbc7df" y="123.917676"/>
     <use style="fill:#ff0000;stroke:#ff0000;" x="527.280255" xlink:href="#m00c3cbc7df" y="123.285048"/>
     <use style="fill:#ff0000;stroke:#ff0000;" x="531.235032" xlink:href="#m00c3cbc7df" y="122.572341"/>
     <use style="fill:#ff0000;stroke:#ff0000;" x="535.189809" xlink:href="#m00c3cbc7df" y="121.79557"/>
     <use style="fill:#ff0000;stroke:#ff0000;" x="539.144586" xlink:href="#m00c3cbc7df" y="120.85864"/>
     <use style="fill:#ff0000;stroke:#ff0000;" x="543.099363" xlink:href="#m00c3cbc7df" y="119.985774"/>
     <use style="fill:#ff0000;stroke:#ff0000;" x="547.05414" xlink:href="#m00c3cbc7df" y="118.952749"/>
     <use style="fill:#ff0000;stroke:#ff0000;" x="551.008917" xlink:href="#m00c3cbc7df" y="118.576376"/>
     <use style="fill:#ff0000;stroke:#ff0000;" x="554.963694" xlink:href="#m00c3cbc7df" y="117.871676"/>
     <use style="fill:#ff0000;stroke:#ff0000;" x="558.918471" xlink:href="#m00c3cbc7df" y="117.086898"/>
     <use style="fill:#ff0000;stroke:#ff0000;" x="562.873248" xlink:href="#m00c3cbc7df" y="116.302119"/>
     <use style="fill:#ff0000;stroke:#ff0000;" x="566.828025" xlink:href="#m00c3cbc7df" y="115.525348"/>
     <use style="fill:#ff0000;stroke:#ff0000;" x="570.782803" xlink:href="#m00c3cbc7df" y="114.74057"/>
     <use style="fill:#ff0000;stroke:#ff0000;" x="574.73758" xlink:href="#m00c3cbc7df" y="113.563402"/>
     <use style="fill:#ff0000;stroke:#ff0000;" x="578.692357" xlink:href="#m00c3cbc7df" y="113.130973"/>
     <use style="fill:#ff0000;stroke:#ff0000;" x="582.647134" xlink:href="#m00c3cbc7df" y="112.28213"/>
     <use style="fill:#ff0000;stroke:#ff0000;" x="586.601911" xlink:href="#m00c3cbc7df" y="112.073924"/>
     <use style="fill:#ff0000;stroke:#ff0000;" x="590.556688" xlink:href="#m00c3cbc7df" y="111.249105"/>
     <use style="fill:#ff0000;stroke:#ff0000;" x="594.511465" xlink:href="#m00c3cbc7df" y="110.784644"/>
     <use style="fill:#ff0000;stroke:#ff0000;" x="598.466242" xlink:href="#m00c3cbc7df" y="109.94381"/>
     <use style="fill:#ff0000;stroke:#ff0000;" x="602.421019" xlink:href="#m00c3cbc7df" y="109.183055"/>
     <use style="fill:#ff0000;stroke:#ff0000;" x="606.375796" xlink:href="#m00c3cbc7df" y="108.894769"/>
     <use style="fill:#ff0000;stroke:#ff0000;" x="610.330573" xlink:href="#m00c3cbc7df" y="108.214094"/>
     <use style="fill:#ff0000;stroke:#ff0000;" x="614.28535" xlink:href="#m00c3cbc7df" y="108.061943"/>
     <use style="fill:#ff0000;stroke:#ff0000;" x="618.240127" xlink:href="#m00c3cbc7df" y="107.325212"/>
     <use style="fill:#ff0000;stroke:#ff0000;" x="622.194904" xlink:href="#m00c3cbc7df" y="107.125013"/>
     <use style="fill:#ff0000;stroke:#ff0000;" x="626.149682" xlink:href="#m00c3cbc7df" y="106.444338"/>
     <use style="fill:#ff0000;stroke:#ff0000;" x="630.104459" xlink:href="#m00c3cbc7df" y="105.619519"/>
     <use style="fill:#ff0000;stroke:#ff0000;" x="634.059236" xlink:href="#m00c3cbc7df" y="105.26717"/>
     <use style="fill:#ff0000;stroke:#ff0000;" x="638.014013" xlink:href="#m00c3cbc7df" y="104.762669"/>
     <use style="fill:#ff0000;stroke:#ff0000;" x="641.96879" xlink:href="#m00c3cbc7df" y="104.60251"/>
     <use style="fill:#ff0000;stroke:#ff0000;" x="645.923567" xlink:href="#m00c3cbc7df" y="104.394304"/>
     <use style="fill:#ff0000;stroke:#ff0000;" x="649.878344" xlink:href="#m00c3cbc7df" y="103.905819"/>
     <use style="fill:#ff0000;stroke:#ff0000;" x="653.833121" xlink:href="#m00c3cbc7df" y="103.537454"/>
     <use style="fill:#ff0000;stroke:#ff0000;" x="657.787898" xlink:href="#m00c3cbc7df" y="102.872794"/>
     <use style="fill:#ff0000;stroke:#ff0000;" x="661.742675" xlink:href="#m00c3cbc7df" y="102.376301"/>
     <use style="fill:#ff0000;stroke:#ff0000;" x="665.697452" xlink:href="#m00c3cbc7df" y="102.424349"/>
     <use style="fill:#ff0000;stroke:#ff0000;" x="669.652229" xlink:href="#m00c3cbc7df" y="102.22415"/>
     <use style="fill:#ff0000;stroke:#ff0000;" x="673.607006" xlink:href="#m00c3cbc7df" y="101.559491"/>
     <use style="fill:#ff0000;stroke:#ff0000;" x="677.561783" xlink:href="#m00c3cbc7df" y="101.511443"/>
     <use style="fill:#ff0000;stroke:#ff0000;" x="681.516561" xlink:href="#m00c3cbc7df" y="100.958895"/>
     <use style="fill:#ff0000;stroke:#ff0000;" x="685.471338" xlink:href="#m00c3cbc7df" y="100.790728"/>
     <use style="fill:#ff0000;stroke:#ff0000;" x="689.426115" xlink:href="#m00c3cbc7df" y="100.446386"/>
     <use style="fill:#ff0000;stroke:#ff0000;" x="693.380892" xlink:href="#m00c3cbc7df" y="100.806744"/>
     <use style="fill:#ff0000;stroke:#ff0000;" x="697.335669" xlink:href="#m00c3cbc7df" y="100.422363"/>
     <use style="fill:#ff0000;stroke:#ff0000;" x="701.290446" xlink:href="#m00c3cbc7df" y="99.589536"/>
     <use style="fill:#ff0000;stroke:#ff0000;" x="705.245223" xlink:href="#m00c3cbc7df" y="99.893838"/>
     <use style="fill:#ff0000;stroke:#ff0000;" x="709.2" xlink:href="#m00c3cbc7df" y="99.405353"/>
    </g>
   </g>
   <g id="line2d_14">
    <defs>
     <path d="M 0 2 
C 0.530406 2 1.03916 1.789267 1.414214 1.414214 
C 1.789267 1.03916 2 0.530406 2 0 
C 2 -0.530406 1.789267 -1.03916 1.414214 -1.414214 
C 1.03916 -1.789267 0.530406 -2 0 -2 
C -0.530406 -2 -1.03916 -1.789267 -1.414214 -1.414214 
C -1.789267 -1.03916 -2 -0.530406 -2 0 
C -2 0.530406 -1.789267 1.03916 -1.414214 1.414214 
C -1.03916 1.789267 -0.530406 2 0 2 
z
" id="m67d5d2d10c" style="stroke:#ff0000;"/>
    </defs>
    <g clip-path="url(#p4e3c2add2a)">
     <use style="fill:#ff0000;stroke:#ff0000;" x="88.3" xlink:href="#m67d5d2d10c" y="376.167968"/>
     <use style="fill:#ff0000;stroke:#ff0000;" x="92.254777" xlink:href="#m67d5d2d10c" y="376.151952"/>
     <use style="fill:#ff0000;stroke:#ff0000;" x="96.209554" xlink:href="#m67d5d2d10c" y="376.183984"/>
     <use style="fill:#ff0000;stroke:#ff0000;" x="100.164331" xlink:href="#m67d5d2d10c" y="376.175976"/>
     <use style="fill:#ff0000;stroke:#ff0000;" x="104.119108" xlink:href="#m67d5d2d10c" y="376.175976"/>
     <use style="fill:#ff0000;stroke:#ff0000;" x="108.073885" xlink:href="#m67d5d2d10c" y="376.167968"/>
     <use style="fill:#ff0000;stroke:#ff0000;" x="112.028662" xlink:href="#m67d5d2d10c" y="376.167968"/>
     <use style="fill:#ff0000;stroke:#ff0000;" x="115.983439" xlink:href="#m67d5d2d10c" y="376.15996"/>
     <use style="fill:#ff0000;stroke:#ff0000;" x="119.938217" xlink:href="#m67d5d2d10c" y="376.15996"/>
     <use style="fill:#ff0000;stroke:#ff0000;" x="123.892994" xlink:href="#m67d5d2d10c" y="376.15996"/>
     <use style="fill:#ff0000;stroke:#ff0000;" x="127.847771" xlink:href="#m67d5d2d10c" y="376.151952"/>
     <use style="fill:#ff0000;stroke:#ff0000;" x="131.802548" xlink:href="#m67d5d2d10c" y="376.135936"/>
     <use style="fill:#ff0000;stroke:#ff0000;" x="135.757325" xlink:href="#m67d5d2d10c" y="376.111913"/>
     <use style="fill:#ff0000;stroke:#ff0000;" x="139.712102" xlink:href="#m67d5d2d10c" y="376.055857"/>
     <use style="fill:#ff0000;stroke:#ff0000;" x="143.666879" xlink:href="#m67d5d2d10c" y="375.991793"/>
     <use style="fill:#ff0000;stroke:#ff0000;" x="147.621656" xlink:href="#m67d5d2d10c" y="375.871674"/>
     <use style="fill:#ff0000;stroke:#ff0000;" x="151.576433" xlink:href="#m67d5d2d10c" y="375.759563"/>
     <use style="fill:#ff0000;stroke:#ff0000;" x="155.53121" xlink:href="#m67d5d2d10c" y="375.543348"/>
     <use style="fill:#ff0000;stroke:#ff0000;" x="159.485987" xlink:href="#m67d5d2d10c" y="375.279086"/>
     <use style="fill:#ff0000;stroke:#ff0000;" x="163.440764" xlink:href="#m67d5d2d10c" y="374.95076"/>
     <use style="fill:#ff0000;stroke:#ff0000;" x="167.395541" xlink:href="#m67d5d2d10c" y="374.510323"/>
     <use style="fill:#ff0000;stroke:#ff0000;" x="171.350318" xlink:href="#m67d5d2d10c" y="373.941759"/>
     <use style="fill:#ff0000;stroke:#ff0000;" x="175.305096" xlink:href="#m67d5d2d10c" y="373.309132"/>
     <use style="fill:#ff0000;stroke:#ff0000;" x="179.259873" xlink:href="#m67d5d2d10c" y="372.460289"/>
     <use style="fill:#ff0000;stroke:#ff0000;" x="183.21465" xlink:href="#m67d5d2d10c" y="371.563399"/>
     <use style="fill:#ff0000;stroke:#ff0000;" x="187.169427" xlink:href="#m67d5d2d10c" y="370.426271"/>
     <use style="fill:#ff0000;stroke:#ff0000;" x="191.124204" xlink:href="#m67d5d2d10c" y="369.169024"/>
     <use style="fill:#ff0000;stroke:#ff0000;" x="195.078981" xlink:href="#m67d5d2d10c" y="367.671538"/>
     <use style="fill:#ff0000;stroke:#ff0000;" x="199.033758" xlink:href="#m67d5d2d10c" y="365.981861"/>
     <use style="fill:#ff0000;stroke:#ff0000;" x="202.988535" xlink:href="#m67d5d2d10c" y="364.091986"/>
     <use style="fill:#ff0000;stroke:#ff0000;" x="206.943312" xlink:href="#m67d5d2d10c" y="361.977888"/>
     <use style="fill:#ff0000;stroke:#ff0000;" x="210.898089" xlink:href="#m67d5d2d10c" y="359.663592"/>
     <use style="fill:#ff0000;stroke:#ff0000;" x="214.852866" xlink:href="#m67d5d2d10c" y="357.085033"/>
     <use style="fill:#ff0000;stroke:#ff0000;" x="218.807643" xlink:href="#m67d5d2d10c" y="354.242213"/>
     <use style="fill:#ff0000;stroke:#ff0000;" x="222.76242" xlink:href="#m67d5d2d10c" y="351.247241"/>
     <use style="fill:#ff0000;stroke:#ff0000;" x="226.717197" xlink:href="#m67d5d2d10c" y="347.963983"/>
     <use style="fill:#ff0000;stroke:#ff0000;" x="230.671975" xlink:href="#m67d5d2d10c" y="344.488535"/>
     <use style="fill:#ff0000;stroke:#ff0000;" x="234.626752" xlink:href="#m67d5d2d10c" y="340.612689"/>
     <use style="fill:#ff0000;stroke:#ff0000;" x="238.581529" xlink:href="#m67d5d2d10c" y="336.640748"/>
     <use style="fill:#ff0000;stroke:#ff0000;" x="242.536306" xlink:href="#m67d5d2d10c" y="332.388529"/>
     <use style="fill:#ff0000;stroke:#ff0000;" x="246.491083" xlink:href="#m67d5d2d10c" y="328.024198"/>
     <use style="fill:#ff0000;stroke:#ff0000;" x="250.44586" xlink:href="#m67d5d2d10c" y="323.323534"/>
     <use style="fill:#ff0000;stroke:#ff0000;" x="254.400637" xlink:href="#m67d5d2d10c" y="318.454703"/>
     <use style="fill:#ff0000;stroke:#ff0000;" x="258.355414" xlink:href="#m67d5d2d10c" y="313.561848"/>
     <use style="fill:#ff0000;stroke:#ff0000;" x="262.310191" xlink:href="#m67d5d2d10c" y="308.348675"/>
     <use style="fill:#ff0000;stroke:#ff0000;" x="266.264968" xlink:href="#m67d5d2d10c" y="303.055423"/>
     <use style="fill:#ff0000;stroke:#ff0000;" x="270.219745" xlink:href="#m67d5d2d10c" y="297.722131"/>
     <use style="fill:#ff0000;stroke:#ff0000;" x="274.174522" xlink:href="#m67d5d2d10c" y="292.108561"/>
     <use style="fill:#ff0000;stroke:#ff0000;" x="278.129299" xlink:href="#m67d5d2d10c" y="286.583079"/>
     <use style="fill:#ff0000;stroke:#ff0000;" x="282.084076" xlink:href="#m67d5d2d10c" y="281.185723"/>
     <use style="fill:#ff0000;stroke:#ff0000;" x="286.038854" xlink:href="#m67d5d2d10c" y="275.299883"/>
     <use style="fill:#ff0000;stroke:#ff0000;" x="289.993631" xlink:href="#m67d5d2d10c" y="269.422051"/>
     <use style="fill:#ff0000;stroke:#ff0000;" x="293.948408" xlink:href="#m67d5d2d10c" y="263.944616"/>
     <use style="fill:#ff0000;stroke:#ff0000;" x="297.903185" xlink:href="#m67d5d2d10c" y="258.218935"/>
     <use style="fill:#ff0000;stroke:#ff0000;" x="301.857962" xlink:href="#m67d5d2d10c" y="252.485245"/>
     <use style="fill:#ff0000;stroke:#ff0000;" x="305.812739" xlink:href="#m67d5d2d10c" y="246.831636"/>
     <use style="fill:#ff0000;stroke:#ff0000;" x="309.767516" xlink:href="#m67d5d2d10c" y="240.977827"/>
     <use style="fill:#ff0000;stroke:#ff0000;" x="313.722293" xlink:href="#m67d5d2d10c" y="235.492384"/>
     <use style="fill:#ff0000;stroke:#ff0000;" x="317.67707" xlink:href="#m67d5d2d10c" y="229.6626"/>
     <use style="fill:#ff0000;stroke:#ff0000;" x="321.631847" xlink:href="#m67d5d2d10c" y="224.249228"/>
     <use style="fill:#ff0000;stroke:#ff0000;" x="325.586624" xlink:href="#m67d5d2d10c" y="218.539563"/>
     <use style="fill:#ff0000;stroke:#ff0000;" x="329.541401" xlink:href="#m67d5d2d10c" y="213.334398"/>
     <use style="fill:#ff0000;stroke:#ff0000;" x="333.496178" xlink:href="#m67d5d2d10c" y="207.840948"/>
     <use style="fill:#ff0000;stroke:#ff0000;" x="337.450955" xlink:href="#m67d5d2d10c" y="203.052196"/>
     <use style="fill:#ff0000;stroke:#ff0000;" x="341.405732" xlink:href="#m67d5d2d10c" y="197.598785"/>
     <use style="fill:#ff0000;stroke:#ff0000;" x="345.36051" xlink:href="#m67d5d2d10c" y="192.385612"/>
     <use style="fill:#ff0000;stroke:#ff0000;" x="349.315287" xlink:href="#m67d5d2d10c" y="187.532797"/>
     <use style="fill:#ff0000;stroke:#ff0000;" x="353.270064" xlink:href="#m67d5d2d10c" y="182.535839"/>
     <use style="fill:#ff0000;stroke:#ff0000;" x="357.224841" xlink:href="#m67d5d2d10c" y="177.859198"/>
     <use style="fill:#ff0000;stroke:#ff0000;" x="361.179618" xlink:href="#m67d5d2d10c" y="172.998375"/>
     <use style="fill:#ff0000;stroke:#ff0000;" x="365.134395" xlink:href="#m67d5d2d10c" y="168.513926"/>
     <use style="fill:#ff0000;stroke:#ff0000;" x="369.089172" xlink:href="#m67d5d2d10c" y="164.037484"/>
     <use style="fill:#ff0000;stroke:#ff0000;" x="373.043949" xlink:href="#m67d5d2d10c" y="159.84132"/>
     <use style="fill:#ff0000;stroke:#ff0000;" x="376.998726" xlink:href="#m67d5d2d10c" y="155.380895"/>
     <use style="fill:#ff0000;stroke:#ff0000;" x="380.953503" xlink:href="#m67d5d2d10c" y="151.256803"/>
     <use style="fill:#ff0000;stroke:#ff0000;" x="384.90828" xlink:href="#m67d5d2d10c" y="147.541116"/>
     <use style="fill:#ff0000;stroke:#ff0000;" x="388.863057" xlink:href="#m67d5d2d10c" y="143.657262"/>
     <use style="fill:#ff0000;stroke:#ff0000;" x="392.817834" xlink:href="#m67d5d2d10c" y="139.749384"/>
     <use style="fill:#ff0000;stroke:#ff0000;" x="396.772611" xlink:href="#m67d5d2d10c" y="135.745412"/>
     <use style="fill:#ff0000;stroke:#ff0000;" x="400.727389" xlink:href="#m67d5d2d10c" y="132.374066"/>
     <use style="fill:#ff0000;stroke:#ff0000;" x="404.682166" xlink:href="#m67d5d2d10c" y="129.218936"/>
     <use style="fill:#ff0000;stroke:#ff0000;" x="408.636943" xlink:href="#m67d5d2d10c" y="125.767511"/>
     <use style="fill:#ff0000;stroke:#ff0000;" x="412.59172" xlink:href="#m67d5d2d10c" y="122.564333"/>
     <use style="fill:#ff0000;stroke:#ff0000;" x="416.546497" xlink:href="#m67d5d2d10c" y="119.705496"/>
     <use style="fill:#ff0000;stroke:#ff0000;" x="420.501274" xlink:href="#m67d5d2d10c" y="116.230048"/>
     <use style="fill:#ff0000;stroke:#ff0000;" x="424.456051" xlink:href="#m67d5d2d10c" y="113.307147"/>
     <use style="fill:#ff0000;stroke:#ff0000;" x="428.410828" xlink:href="#m67d5d2d10c" y="110.512374"/>
     <use style="fill:#ff0000;stroke:#ff0000;" x="432.365605" xlink:href="#m67d5d2d10c" y="107.949832"/>
     <use style="fill:#ff0000;stroke:#ff0000;" x="436.320382" xlink:href="#m67d5d2d10c" y="104.922828"/>
     <use style="fill:#ff0000;stroke:#ff0000;" x="440.275159" xlink:href="#m67d5d2d10c" y="102.704627"/>
     <use style="fill:#ff0000;stroke:#ff0000;" x="444.229936" xlink:href="#m67d5d2d10c" y="100.134077"/>
     <use style="fill:#ff0000;stroke:#ff0000;" x="448.184713" xlink:href="#m67d5d2d10c" y="97.619582"/>
     <use style="fill:#ff0000;stroke:#ff0000;" x="452.13949" xlink:href="#m67d5d2d10c" y="95.329309"/>
     <use style="fill:#ff0000;stroke:#ff0000;" x="456.094268" xlink:href="#m67d5d2d10c" y="92.982981"/>
     <use style="fill:#ff0000;stroke:#ff0000;" x="460.049045" xlink:href="#m67d5d2d10c" y="90.852867"/>
     <use style="fill:#ff0000;stroke:#ff0000;" x="464.003822" xlink:href="#m67d5d2d10c" y="88.602635"/>
     <use style="fill:#ff0000;stroke:#ff0000;" x="467.958599" xlink:href="#m67d5d2d10c" y="86.752799"/>
     <use style="fill:#ff0000;stroke:#ff0000;" x="471.913376" xlink:href="#m67d5d2d10c" y="84.862924"/>
     <use style="fill:#ff0000;stroke:#ff0000;" x="475.868153" xlink:href="#m67d5d2d10c" y="82.77285"/>
     <use style="fill:#ff0000;stroke:#ff0000;" x="479.82293" xlink:href="#m67d5d2d10c" y="80.955046"/>
     <use style="fill:#ff0000;stroke:#ff0000;" x="483.777707" xlink:href="#m67d5d2d10c" y="79.417521"/>
     <use style="fill:#ff0000;stroke:#ff0000;" x="487.732484" xlink:href="#m67d5d2d10c" y="77.655773"/>
     <use style="fill:#ff0000;stroke:#ff0000;" x="491.687261" xlink:href="#m67d5d2d10c" y="75.725858"/>
     <use style="fill:#ff0000;stroke:#ff0000;" x="495.642038" xlink:href="#m67d5d2d10c" y="74.484626"/>
     <use style="fill:#ff0000;stroke:#ff0000;" x="499.596815" xlink:href="#m67d5d2d10c" y="73.563712"/>
     <use style="fill:#ff0000;stroke:#ff0000;" x="503.551592" xlink:href="#m67d5d2d10c" y="72.738894"/>
     <use style="fill:#ff0000;stroke:#ff0000;" x="507.506369" xlink:href="#m67d5d2d10c" y="72.242401"/>
     <use style="fill:#ff0000;stroke:#ff0000;" x="511.461146" xlink:href="#m67d5d2d10c" y="71.866028"/>
     <use style="fill:#ff0000;stroke:#ff0000;" x="515.415924" xlink:href="#m67d5d2d10c" y="71.425591"/>
     <use style="fill:#ff0000;stroke:#ff0000;" x="519.370701" xlink:href="#m67d5d2d10c" y="70.816987"/>
     <use style="fill:#ff0000;stroke:#ff0000;" x="523.325478" xlink:href="#m67d5d2d10c" y="70.136312"/>
     <use style="fill:#ff0000;stroke:#ff0000;" x="527.280255" xlink:href="#m67d5d2d10c" y="69.215398"/>
     <use style="fill:#ff0000;stroke:#ff0000;" x="531.235032" xlink:href="#m67d5d2d10c" y="67.982174"/>
     <use style="fill:#ff0000;stroke:#ff0000;" x="535.189809" xlink:href="#m67d5d2d10c" y="67.533729"/>
     <use style="fill:#ff0000;stroke:#ff0000;" x="539.144586" xlink:href="#m67d5d2d10c" y="67.197395"/>
     <use style="fill:#ff0000;stroke:#ff0000;" x="543.099363" xlink:href="#m67d5d2d10c" y="66.292498"/>
     <use style="fill:#ff0000;stroke:#ff0000;" x="547.05414" xlink:href="#m67d5d2d10c" y="65.876084"/>
     <use style="fill:#ff0000;stroke:#ff0000;" x="551.008917" xlink:href="#m67d5d2d10c" y="66.148355"/>
     <use style="fill:#ff0000;stroke:#ff0000;" x="554.963694" xlink:href="#m67d5d2d10c" y="65.57979"/>
     <use style="fill:#ff0000;stroke:#ff0000;" x="558.918471" xlink:href="#m67d5d2d10c" y="65.155369"/>
     <use style="fill:#ff0000;stroke:#ff0000;" x="562.873248" xlink:href="#m67d5d2d10c" y="64.867083"/>
     <use style="fill:#ff0000;stroke:#ff0000;" x="566.828025" xlink:href="#m67d5d2d10c" y="63.737963"/>
     <use style="fill:#ff0000;stroke:#ff0000;" x="570.782803" xlink:href="#m67d5d2d10c" y="63.59382"/>
     <use style="fill:#ff0000;stroke:#ff0000;" x="574.73758" xlink:href="#m67d5d2d10c" y="63.137367"/>
     <use style="fill:#ff0000;stroke:#ff0000;" x="578.692357" xlink:href="#m67d5d2d10c" y="62.744978"/>
     <use style="fill:#ff0000;stroke:#ff0000;" x="582.647134" xlink:href="#m67d5d2d10c" y="61.76"/>
     <use style="fill:#ff0000;stroke:#ff0000;" x="586.601911" xlink:href="#m67d5d2d10c" y="61.031277"/>
     <use style="fill:#ff0000;stroke:#ff0000;" x="590.556688" xlink:href="#m67d5d2d10c" y="60.558808"/>
     <use style="fill:#ff0000;stroke:#ff0000;" x="594.511465" xlink:href="#m67d5d2d10c" y="60.614864"/>
     <use style="fill:#ff0000;stroke:#ff0000;" x="598.466242" xlink:href="#m67d5d2d10c" y="59.525783"/>
     <use style="fill:#ff0000;stroke:#ff0000;" x="602.421019" xlink:href="#m67d5d2d10c" y="59.525783"/>
     <use style="fill:#ff0000;stroke:#ff0000;" x="606.375796" xlink:href="#m67d5d2d10c" y="58.909172"/>
     <use style="fill:#ff0000;stroke:#ff0000;" x="610.330573" xlink:href="#m67d5d2d10c" y="58.308576"/>
     <use style="fill:#ff0000;stroke:#ff0000;" x="614.28535" xlink:href="#m67d5d2d10c" y="58.52479"/>
     <use style="fill:#ff0000;stroke:#ff0000;" x="618.240127" xlink:href="#m67d5d2d10c" y="57.563837"/>
     <use style="fill:#ff0000;stroke:#ff0000;" x="622.194904" xlink:href="#m67d5d2d10c" y="56.723002"/>
     <use style="fill:#ff0000;stroke:#ff0000;" x="626.149682" xlink:href="#m67d5d2d10c" y="56.122406"/>
     <use style="fill:#ff0000;stroke:#ff0000;" x="630.104459" xlink:href="#m67d5d2d10c" y="55.746033"/>
     <use style="fill:#ff0000;stroke:#ff0000;" x="634.059236" xlink:href="#m67d5d2d10c" y="55.497787"/>
     <use style="fill:#ff0000;stroke:#ff0000;" x="638.014013" xlink:href="#m67d5d2d10c" y="55.417707"/>
     <use style="fill:#ff0000;stroke:#ff0000;" x="641.96879" xlink:href="#m67d5d2d10c" y="54.74504"/>
     <use style="fill:#ff0000;stroke:#ff0000;" x="645.923567" xlink:href="#m67d5d2d10c" y="54.713008"/>
     <use style="fill:#ff0000;stroke:#ff0000;" x="649.878344" xlink:href="#m67d5d2d10c" y="54.336635"/>
     <use style="fill:#ff0000;stroke:#ff0000;" x="653.833121" xlink:href="#m67d5d2d10c" y="53.776078"/>
     <use style="fill:#ff0000;stroke:#ff0000;" x="657.787898" xlink:href="#m67d5d2d10c" y="53.271578"/>
     <use style="fill:#ff0000;stroke:#ff0000;" x="661.742675" xlink:href="#m67d5d2d10c" y="53.463768"/>
     <use style="fill:#ff0000;stroke:#ff0000;" x="665.697452" xlink:href="#m67d5d2d10c" y="52.927236"/>
     <use style="fill:#ff0000;stroke:#ff0000;" x="669.652229" xlink:href="#m67d5d2d10c" y="52.454767"/>
     <use style="fill:#ff0000;stroke:#ff0000;" x="673.607006" xlink:href="#m67d5d2d10c" y="52.294608"/>
     <use style="fill:#ff0000;stroke:#ff0000;" x="677.561783" xlink:href="#m67d5d2d10c" y="52.102418"/>
     <use style="fill:#ff0000;stroke:#ff0000;" x="681.516561" xlink:href="#m67d5d2d10c" y="51.806124"/>
     <use style="fill:#ff0000;stroke:#ff0000;" x="685.471338" xlink:href="#m67d5d2d10c" y="51.181504"/>
     <use style="fill:#ff0000;stroke:#ff0000;" x="689.426115" xlink:href="#m67d5d2d10c" y="51.077401"/>
     <use style="fill:#ff0000;stroke:#ff0000;" x="693.380892" xlink:href="#m67d5d2d10c" y="51.213536"/>
     <use style="fill:#ff0000;stroke:#ff0000;" x="697.335669" xlink:href="#m67d5d2d10c" y="50.685011"/>
     <use style="fill:#ff0000;stroke:#ff0000;" x="701.290446" xlink:href="#m67d5d2d10c" y="50.741067"/>
     <use style="fill:#ff0000;stroke:#ff0000;" x="705.245223" xlink:href="#m67d5d2d10c" y="50.284614"/>
     <use style="fill:#ff0000;stroke:#ff0000;" x="709.2" xlink:href="#m67d5d2d10c" y="50.380709"/>
    </g>
   </g>
   <g id="patch_3">
    <path d="M 88.3 376.2 
L 88.3 10.8 
" style="fill:none;stroke:#000000;stroke-linecap:square;stroke-linejoin:miter;stroke-width:0.8;"/>
   </g>
   <g id="patch_4">
    <path d="M 709.2 376.2 
L 709.2 10.8 
" style="fill:none;stroke:#000000;stroke-linecap:square;stroke-linejoin:miter;stroke-width:0.8;"/>
   </g>
   <g id="patch_5">
    <path d="M 88.3 376.2 
L 709.2 376.2 
" style="fill:none;stroke:#000000;stroke-linecap:square;stroke-linejoin:miter;stroke-width:0.8;"/>
   </g>
   <g id="patch_6">
    <path d="M 88.3 10.8 
L 709.2 10.8 
" style="fill:none;stroke:#000000;stroke-linecap:square;stroke-linejoin:miter;stroke-width:0.8;"/>
   </g>
   <g id="legend_1">
    <g id="line2d_15"/>
    <g id="line2d_16">
     <defs>
      <path d="M -4 4 
L 4 -4 
M -4 -4 
L 4 4 
" id="mdc8703ee1e" style="stroke:#ff0000;"/>
     </defs>
     <g>
      <use style="fill:#ff0000;stroke:#ff0000;" x="114.9" xlink:href="#mdc8703ee1e" y="29.137812"/>
     </g>
    </g>
    <g id="text_15">
     <!-- dCTP-FITC DNA -->
     <defs>
      <path d="M 45.40625 46.390625 
L 45.40625 75.984375 
L 54.390625 75.984375 
L 54.390625 0 
L 45.40625 0 
L 45.40625 8.203125 
Q 42.578125 3.328125 38.25 0.953125 
Q 33.9375 -1.421875 27.875 -1.421875 
Q 17.96875 -1.421875 11.734375 6.484375 
Q 5.515625 14.40625 5.515625 27.296875 
Q 5.515625 40.1875 11.734375 48.09375 
Q 17.96875 56 27.875 56 
Q 33.9375 56 38.25 53.625 
Q 42.578125 51.265625 45.40625 46.390625 
z
M 14.796875 27.296875 
Q 14.796875 17.390625 18.875 11.75 
Q 22.953125 6.109375 30.078125 6.109375 
Q 37.203125 6.109375 41.296875 11.75 
Q 45.40625 17.390625 45.40625 27.296875 
Q 45.40625 37.203125 41.296875 42.84375 
Q 37.203125 48.484375 30.078125 48.484375 
Q 22.953125 48.484375 18.875 42.84375 
Q 14.796875 37.203125 14.796875 27.296875 
z
" id="DejaVuSans-100"/>
      <path d="M 64.40625 67.28125 
L 64.40625 56.890625 
Q 59.421875 61.53125 53.78125 63.8125 
Q 48.140625 66.109375 41.796875 66.109375 
Q 29.296875 66.109375 22.65625 58.46875 
Q 16.015625 50.828125 16.015625 36.375 
Q 16.015625 21.96875 22.65625 14.328125 
Q 29.296875 6.6875 41.796875 6.6875 
Q 48.140625 6.6875 53.78125 8.984375 
Q 59.421875 11.28125 64.40625 15.921875 
L 64.40625 5.609375 
Q 59.234375 2.09375 53.4375 0.328125 
Q 47.65625 -1.421875 41.21875 -1.421875 
Q 24.65625 -1.421875 15.125 8.703125 
Q 5.609375 18.84375 5.609375 36.375 
Q 5.609375 53.953125 15.125 64.078125 
Q 24.65625 74.21875 41.21875 74.21875 
Q 47.75 74.21875 53.53125 72.484375 
Q 59.328125 70.75 64.40625 67.28125 
z
" id="DejaVuSans-67"/>
      <path d="M 19.671875 64.796875 
L 19.671875 37.40625 
L 32.078125 37.40625 
Q 38.96875 37.40625 42.71875 40.96875 
Q 46.484375 44.53125 46.484375 51.125 
Q 46.484375 57.671875 42.71875 61.234375 
Q 38.96875 64.796875 32.078125 64.796875 
z
M 9.8125 72.90625 
L 32.078125 72.90625 
Q 44.34375 72.90625 50.609375 67.359375 
Q 56.890625 61.8125 56.890625 51.125 
Q 56.890625 40.328125 50.609375 34.8125 
Q 44.34375 29.296875 32.078125 29.296875 
L 19.671875 29.296875 
L 19.671875 0 
L 9.8125 0 
z
" id="DejaVuSans-80"/>
      <path d="M 4.890625 31.390625 
L 31.203125 31.390625 
L 31.203125 23.390625 
L 4.890625 23.390625 
z
" id="DejaVuSans-45"/>
      <path d="M 9.8125 72.90625 
L 19.671875 72.90625 
L 19.671875 0 
L 9.8125 0 
z
" id="DejaVuSans-73"/>
      <path d="M 19.671875 64.796875 
L 19.671875 8.109375 
L 31.59375 8.109375 
Q 46.6875 8.109375 53.6875 14.9375 
Q 60.6875 21.78125 60.6875 36.53125 
Q 60.6875 51.171875 53.6875 57.984375 
Q 46.6875 64.796875 31.59375 64.796875 
z
M 9.8125 72.90625 
L 30.078125 72.90625 
Q 51.265625 72.90625 61.171875 64.09375 
Q 71.09375 55.28125 71.09375 36.53125 
Q 71.09375 17.671875 61.125 8.828125 
Q 51.171875 0 30.078125 0 
L 9.8125 0 
z
" id="DejaVuSans-68"/>
      <path d="M 9.8125 72.90625 
L 23.09375 72.90625 
L 55.421875 11.921875 
L 55.421875 72.90625 
L 64.984375 72.90625 
L 64.984375 0 
L 51.703125 0 
L 19.390625 60.984375 
L 19.390625 0 
L 9.8125 0 
z
" id="DejaVuSans-78"/>
      <path d="M 34.1875 63.1875 
L 20.796875 26.90625 
L 47.609375 26.90625 
z
M 28.609375 72.90625 
L 39.796875 72.90625 
L 67.578125 0 
L 57.328125 0 
L 50.6875 18.703125 
L 17.828125 18.703125 
L 11.1875 0 
L 0.78125 0 
z
" id="DejaVuSans-65"/>
     </defs>
     <g transform="translate(140.1 34.037812)scale(0.14 -0.14)">
      <use xlink:href="#DejaVuSans-100"/>
      <use x="63.476562" xlink:href="#DejaVuSans-67"/>
      <use x="133.300781" xlink:href="#DejaVuSans-84"/>
      <use x="194.384766" xlink:href="#DejaVuSans-80"/>
      <use x="252.4375" xlink:href="#DejaVuSans-45"/>
      <use x="288.521484" xlink:href="#DejaVuSans-70"/>
      <use x="346.041016" xlink:href="#DejaVuSans-73"/>
      <use x="375.533203" xlink:href="#DejaVuSans-84"/>
      <use x="430.742188" xlink:href="#DejaVuSans-67"/>
      <use x="500.566406" xlink:href="#DejaVuSans-32"/>
      <use x="532.353516" xlink:href="#DejaVuSans-68"/>
      <use x="609.355469" xlink:href="#DejaVuSans-78"/>
      <use x="684.160156" xlink:href="#DejaVuSans-65"/>
     </g>
    </g>
    <g id="line2d_17"/>
    <g id="line2d_18">
     <defs>
      <path d="M 0 4 
C 1.060812 4 2.078319 3.578535 2.828427 2.828427 
C 3.578535 2.078319 4 1.060812 4 0 
C 4 -1.060812 3.578535 -2.078319 2.828427 -2.828427 
C 2.078319 -3.578535 1.060812 -4 0 -4 
C -1.060812 -4 -2.078319 -3.578535 -2.828427 -2.828427 
C -3.578535 -2.078319 -4 -1.060812 -4 0 
C -4 1.060812 -3.578535 2.078319 -2.828427 2.828427 
C -2.078319 3.578535 -1.060812 4 0 4 
z
" id="m4fc6d64a52" style="stroke:#ff0000;"/>
     </defs>
     <g>
      <use style="fill:#ff0000;stroke:#ff0000;" x="114.9" xlink:href="#m4fc6d64a52" y="49.687187"/>
     </g>
    </g>
    <g id="text_16">
     <!-- DNA dCTP -->
     <g transform="translate(140.1 54.587187)scale(0.14 -0.14)">
      <use xlink:href="#DejaVuSans-68"/>
      <use x="77.001953" xlink:href="#DejaVuSans-78"/>
      <use x="151.806641" xlink:href="#DejaVuSans-65"/>
      <use x="220.214844" xlink:href="#DejaVuSans-32"/>
      <use x="252.001953" xlink:href="#DejaVuSans-100"/>
      <use x="315.478516" xlink:href="#DejaVuSans-67"/>
      <use x="385.302734" xlink:href="#DejaVuSans-84"/>
      <use x="446.386719" xlink:href="#DejaVuSans-80"/>
     </g>
    </g>
   </g>
  </g>
 </g>
 <defs>
  <clipPath id="p4e3c2add2a">
   <rect height="365.4" width="620.9" x="88.3" y="10.8"/>
  </clipPath>
 </defs>
</svg>
